# MagicaVoxel @ ephtracy

# material
mtllib st15.mtl
usemtl palette

# normals
vn -1 0 0
vn 1 0 0
vn 0 0 1
vn 0 0 -1
vn 0 -1 0
vn 0 1 0

# texcoords
vt 0.970703 0.5
vt 0.974609 0.5
vt 0.978516 0.5
vt 0.982422 0.5
vt 0.986328 0.5

# verts
v -40 0 12
v -40 0 11
v -40 2 12
v -40 2 11
v -40 3 12
v -40 3 11
v -40 27 12
v -40 27 11
v -40 28 12
v -40 28 11
v -40 42 12
v -40 42 11
v -40 43 12
v -40 43 11
v -40 48 12
v -40 48 11
v -40 51 12
v -40 51 11
v -40 52 12
v -40 52 11
v 23 0 12
v 23 0 11
v 23 2 12
v 23 2 11
v 23 3 12
v 23 3 11
v 23 16 12
v 23 16 11
v 23 17 12
v 23 17 11
v 23 27 12
v 23 27 11
v 23 28 12
v 23 28 11
v 23 42 12
v 23 42 11
v 23 43 12
v 23 43 11
v 23 48 12
v 23 48 11
v 23 51 12
v 23 51 11
v 23 52 12
v 23 52 11
v -40 0 12
v -40 2 12
v -40 3 12
v -40 27 12
v -40 28 12
v -40 42 12
v -40 43 12
v -40 48 12
v -40 51 12
v -40 52 12
v -39 47 12
v -39 48 12
v -38 27 12
v -38 28 12
v -38 46 12
v -38 47 12
v -37 16 12
v -37 17 12
v -37 46 12
v -37 47 12
v -36 47 12
v -36 48 12
v -35 27 12
v -35 28 12
v -35 48 12
v -35 49 12
v -32 42 12
v -32 43 12
v -31 16 12
v -31 17 12
v -30 41 12
v -30 42 12
v -28 16 12
v -28 17 12
v -28 48 12
v -28 49 12
v -27 16 12
v -27 17 12
v -27 47 12
v -27 48 12
v -26 46 12
v -26 47 12
v -24 15 12
v -24 16 12
v -24 46 12
v -24 47 12
v -23 47 12
v -23 48 12
v -22 48 12
v -22 49 12
v -17 27 12
v -17 28 12
v -16 15 12
v -16 16 12
v -15 27 12
v -15 28 12
v -15 48 12
v -15 49 12
v -14 16 12
v -14 17 12
v -14 47 12
v -14 48 12
v -13 46 12
v -13 47 12
v -12 41 12
v -12 42 12
v -11 27 12
v -11 28 12
v -11 45 12
v -11 46 12
v -10 44 12
v -10 45 12
v -9 41 12
v -9 42 12
v -8 41 12
v -8 42 12
v -7 27 12
v -7 28 12
v -7 44 12
v -7 45 12
v -6 45 12
v -6 46 12
v -4 16 12
v -4 17 12
v -4 41 12
v -4 42 12
v -4 46 12
v -4 47 12
v -3 16 12
v -3 17 12
v -3 47 12
v -3 48 12
v -2 48 12
v -2 49 12
v 0 27 12
v 0 28 12
v 2 27 12
v 2 28 12
v 5 48 12
v 5 49 12
v 6 16 12
v 6 17 12
v 6 27 12
v 6 28 12
v 6 47 12
v 6 48 12
v 7 16 12
v 7 17 12
v 7 46 12
v 7 47 12
v 8 41 12
v 8 42 12
v 9 26 12
v 9 27 12
v 10 42 12
v 10 43 12
v 10 46 12
v 10 47 12
v 11 26 12
v 11 27 12
v 11 42 12
v 11 43 12
v 11 47 12
v 11 48 12
v 12 16 12
v 12 17 12
v 12 48 12
v 12 49 12
v 13 15 12
v 13 16 12
v 13 26 12
v 13 27 12
v 14 42 12
v 14 43 12
v 18 15 12
v 18 16 12
v 18 17 12
v 18 48 12
v 18 49 12
v 19 47 12
v 19 48 12
v 20 26 12
v 20 27 12
v 20 28 12
v 20 46 12
v 20 47 12
v 21 16 12
v 21 17 12
v 21 46 12
v 21 47 12
v 22 16 12
v 22 17 12
v 22 47 12
v 22 48 12
v 23 0 12
v 23 2 12
v 23 3 12
v 23 16 12
v 23 17 12
v 23 27 12
v 23 28 12
v 23 42 12
v 23 43 12
v 23 48 12
v 23 51 12
v 23 52 12
v -40 0 11
v -40 2 11
v -40 3 11
v -40 27 11
v -40 28 11
v -40 42 11
v -40 43 11
v -40 48 11
v -40 51 11
v -40 52 11
v -39 47 11
v -39 48 11
v -38 27 11
v -38 28 11
v -38 46 11
v -38 47 11
v -37 16 11
v -37 17 11
v -37 46 11
v -37 47 11
v -36 47 11
v -36 48 11
v -35 27 11
v -35 28 11
v -35 48 11
v -35 49 11
v -32 42 11
v -32 43 11
v -31 16 11
v -31 17 11
v -30 41 11
v -30 42 11
v -28 16 11
v -28 17 11
v -28 48 11
v -28 49 11
v -27 16 11
v -27 17 11
v -27 47 11
v -27 48 11
v -26 46 11
v -26 47 11
v -24 15 11
v -24 16 11
v -24 46 11
v -24 47 11
v -23 47 11
v -23 48 11
v -22 48 11
v -22 49 11
v -17 27 11
v -17 28 11
v -16 15 11
v -16 16 11
v -15 27 11
v -15 28 11
v -15 48 11
v -15 49 11
v -14 16 11
v -14 17 11
v -14 47 11
v -14 48 11
v -13 46 11
v -13 47 11
v -12 41 11
v -12 42 11
v -11 27 11
v -11 28 11
v -11 45 11
v -11 46 11
v -10 44 11
v -10 45 11
v -9 41 11
v -9 42 11
v -8 41 11
v -8 42 11
v -7 27 11
v -7 28 11
v -7 44 11
v -7 45 11
v -6 45 11
v -6 46 11
v -4 16 11
v -4 17 11
v -4 41 11
v -4 42 11
v -4 46 11
v -4 47 11
v -3 16 11
v -3 17 11
v -3 47 11
v -3 48 11
v -2 48 11
v -2 49 11
v 0 27 11
v 0 28 11
v 2 27 11
v 2 28 11
v 5 48 11
v 5 49 11
v 6 16 11
v 6 17 11
v 6 27 11
v 6 28 11
v 6 47 11
v 6 48 11
v 7 16 11
v 7 17 11
v 7 46 11
v 7 47 11
v 8 41 11
v 8 42 11
v 9 26 11
v 9 27 11
v 10 42 11
v 10 43 11
v 10 46 11
v 10 47 11
v 11 26 11
v 11 27 11
v 11 42 11
v 11 43 11
v 11 47 11
v 11 48 11
v 12 16 11
v 12 17 11
v 12 48 11
v 12 49 11
v 13 15 11
v 13 16 11
v 13 26 11
v 13 27 11
v 14 42 11
v 14 43 11
v 18 15 11
v 18 16 11
v 18 17 11
v 18 48 11
v 18 49 11
v 19 47 11
v 19 48 11
v 20 26 11
v 20 27 11
v 20 28 11
v 20 46 11
v 20 47 11
v 21 16 11
v 21 17 11
v 21 46 11
v 21 47 11
v 22 16 11
v 22 17 11
v 22 47 11
v 22 48 11
v 23 0 11
v 23 2 11
v 23 3 11
v 23 16 11
v 23 17 11
v 23 27 11
v 23 28 11
v 23 42 11
v 23 43 11
v 23 48 11
v 23 51 11
v 23 52 11
v -40 0 12
v 23 0 12
v -40 0 11
v 23 0 11
v -40 52 12
v 23 52 12
v -40 52 11
v 23 52 11

# faces
f 3/2/1 2/2/1 1/2/1
f 4/2/1 2/2/1 3/2/1
f 5/3/1 4/3/1 3/3/1
f 6/3/1 4/3/1 5/3/1
f 7/1/1 6/1/1 5/1/1
f 8/1/1 6/1/1 7/1/1
f 9/3/1 8/3/1 7/3/1
f 10/3/1 8/3/1 9/3/1
f 11/1/1 10/1/1 9/1/1
f 12/1/1 10/1/1 11/1/1
f 13/2/1 12/2/1 11/2/1
f 14/2/1 12/2/1 13/2/1
f 15/1/1 14/1/1 13/1/1
f 16/1/1 14/1/1 15/1/1
f 17/5/1 16/5/1 15/5/1
f 18/5/1 16/5/1 17/5/1
f 19/4/1 18/4/1 17/4/1
f 20/4/1 18/4/1 19/4/1
f 21/2/2 22/2/2 23/2/2
f 23/2/2 22/2/2 24/2/2
f 23/3/2 24/3/2 25/3/2
f 25/3/2 24/3/2 26/3/2
f 25/1/2 26/1/2 27/1/2
f 27/1/2 26/1/2 28/1/2
f 27/5/2 28/5/2 29/5/2
f 29/5/2 28/5/2 30/5/2
f 29/1/2 30/1/2 31/1/2
f 31/1/2 30/1/2 32/1/2
f 31/2/2 32/2/2 33/2/2
f 33/2/2 32/2/2 34/2/2
f 33/1/2 34/1/2 35/1/2
f 35/1/2 34/1/2 36/1/2
f 35/2/2 36/2/2 37/2/2
f 37/2/2 36/2/2 38/2/2
f 37/1/2 38/1/2 39/1/2
f 39/1/2 38/1/2 40/1/2
f 39/5/2 40/5/2 41/5/2
f 41/5/2 40/5/2 42/5/2
f 41/4/2 42/4/2 43/4/2
f 43/4/2 42/4/2 44/4/2
f 55/1/3 52/1/3 51/1/3
f 56/5/3 53/5/3 52/5/3
f 56/1/3 52/1/3 55/1/3
f 57/1/3 48/1/3 47/1/3
f 57/3/3 49/3/3 48/3/3
f 58/1/3 50/1/3 49/1/3
f 58/3/3 49/3/3 57/3/3
f 59/1/3 55/1/3 51/1/3
f 60/5/3 56/5/3 55/5/3
f 60/1/3 55/1/3 59/1/3
f 61/1/3 57/1/3 47/1/3
f 61/1/3 58/1/3 57/1/3
f 62/1/3 58/1/3 61/1/3
f 63/1/3 59/1/3 51/1/3
f 63/5/3 60/5/3 59/5/3
f 64/5/3 56/5/3 60/5/3
f 64/5/3 60/5/3 63/5/3
f 65/1/3 64/1/3 63/1/3
f 65/5/3 56/5/3 64/5/3
f 66/5/3 53/5/3 56/5/3
f 66/5/3 56/5/3 65/5/3
f 67/1/3 58/1/3 62/1/3
f 68/1/3 50/1/3 58/1/3
f 68/1/3 58/1/3 67/1/3
f 69/5/3 53/5/3 66/5/3
f 69/1/3 66/1/3 65/1/3
f 70/5/3 53/5/3 69/5/3
f 71/1/3 50/1/3 68/1/3
f 71/2/3 51/2/3 50/2/3
f 72/1/3 65/1/3 63/1/3
f 72/2/3 51/2/3 71/2/3
f 72/1/3 63/1/3 51/1/3
f 72/1/3 69/1/3 65/1/3
f 72/1/3 70/1/3 69/1/3
f 73/1/3 61/1/3 47/1/3
f 73/5/3 62/5/3 61/5/3
f 74/1/3 67/1/3 62/1/3
f 74/5/3 62/5/3 73/5/3
f 75/1/3 71/1/3 68/1/3
f 75/1/3 72/1/3 71/1/3
f 76/1/3 72/1/3 75/1/3
f 77/1/3 73/1/3 47/1/3
f 77/1/3 74/1/3 73/1/3
f 78/1/3 67/1/3 74/1/3
f 78/1/3 74/1/3 77/1/3
f 79/1/3 70/1/3 72/1/3
f 79/1/3 72/1/3 76/1/3
f 80/5/3 53/5/3 70/5/3
f 80/1/3 70/1/3 79/1/3
f 81/1/3 77/1/3 47/1/3
f 81/5/3 78/5/3 77/5/3
f 82/1/3 67/1/3 78/1/3
f 82/5/3 78/5/3 81/5/3
f 83/1/3 79/1/3 76/1/3
f 84/5/3 80/5/3 79/5/3
f 84/1/3 79/1/3 83/1/3
f 85/1/3 83/1/3 76/1/3
f 86/5/3 84/5/3 83/5/3
f 86/1/3 83/1/3 85/1/3
f 87/1/3 81/1/3 47/1/3
f 87/1/3 82/1/3 81/1/3
f 88/1/3 82/1/3 87/1/3
f 89/5/3 86/5/3 85/5/3
f 89/1/3 85/1/3 76/1/3
f 90/5/3 84/5/3 86/5/3
f 90/5/3 86/5/3 89/5/3
f 91/1/3 90/1/3 89/1/3
f 91/5/3 84/5/3 90/5/3
f 92/5/3 80/5/3 84/5/3
f 92/5/3 84/5/3 91/5/3
f 93/1/3 92/1/3 91/1/3
f 93/5/3 80/5/3 92/5/3
f 94/5/3 53/5/3 80/5/3
f 94/5/3 80/5/3 93/5/3
f 95/1/3 67/1/3 82/1/3
f 95/2/3 68/2/3 67/2/3
f 95/1/3 82/1/3 88/1/3
f 96/1/3 75/1/3 68/1/3
f 96/2/3 68/2/3 95/2/3
f 97/1/3 87/1/3 47/1/3
f 97/5/3 88/5/3 87/5/3
f 98/1/3 95/1/3 88/1/3
f 98/5/3 88/5/3 97/5/3
f 98/1/3 96/1/3 95/1/3
f 99/1/3 98/1/3 97/1/3
f 99/1/3 96/1/3 98/1/3
f 100/1/3 75/1/3 96/1/3
f 100/1/3 96/1/3 99/1/3
f 101/1/3 93/1/3 91/1/3
f 101/1/3 94/1/3 93/1/3
f 102/5/3 53/5/3 94/5/3
f 102/1/3 94/1/3 101/1/3
f 103/1/3 99/1/3 97/1/3
f 104/1/3 99/1/3 103/1/3
f 105/1/3 101/1/3 91/1/3
f 105/1/3 91/1/3 89/1/3
f 106/5/3 102/5/3 101/5/3
f 106/1/3 101/1/3 105/1/3
f 107/1/3 89/1/3 76/1/3
f 107/1/3 105/1/3 89/1/3
f 108/5/3 106/5/3 105/5/3
f 108/1/3 105/1/3 107/1/3
f 109/1/3 75/1/3 100/1/3
f 109/2/3 76/2/3 75/2/3
f 110/1/3 107/1/3 76/1/3
f 110/2/3 76/2/3 109/2/3
f 111/1/3 99/1/3 104/1/3
f 111/2/3 100/2/3 99/2/3
f 112/1/3 110/1/3 109/1/3
f 112/2/3 100/2/3 111/2/3
f 112/1/3 109/1/3 100/1/3
f 113/1/3 107/1/3 110/1/3
f 113/1/3 110/1/3 112/1/3
f 114/5/3 108/5/3 107/5/3
f 114/1/3 107/1/3 113/1/3
f 115/1/3 112/1/3 111/1/3
f 115/1/3 113/1/3 112/1/3
f 116/5/3 114/5/3 113/5/3
f 116/1/3 113/1/3 115/1/3
f 117/1/3 115/1/3 111/1/3
f 118/1/3 115/1/3 117/1/3
f 119/1/3 117/1/3 111/1/3
f 119/2/3 118/2/3 117/2/3
f 120/1/3 115/1/3 118/1/3
f 120/2/3 118/2/3 119/2/3
f 121/1/3 111/1/3 104/1/3
f 121/1/3 119/1/3 111/1/3
f 121/1/3 120/1/3 119/1/3
f 122/1/3 120/1/3 121/1/3
f 123/1/3 115/1/3 120/1/3
f 123/1/3 120/1/3 122/1/3
f 123/5/3 116/5/3 115/5/3
f 124/5/3 114/5/3 116/5/3
f 124/5/3 116/5/3 123/5/3
f 125/1/3 123/1/3 122/1/3
f 125/5/3 114/5/3 124/5/3
f 125/1/3 124/1/3 123/1/3
f 126/5/3 108/5/3 114/5/3
f 126/5/3 114/5/3 125/5/3
f 127/5/3 104/5/3 103/5/3
f 127/1/3 103/1/3 97/1/3
f 128/1/3 121/1/3 104/1/3
f 128/5/3 104/5/3 127/5/3
f 129/1/3 125/1/3 122/1/3
f 129/1/3 126/1/3 125/1/3
f 130/1/3 126/1/3 129/1/3
f 131/5/3 108/5/3 126/5/3
f 131/1/3 126/1/3 130/1/3
f 132/5/3 106/5/3 108/5/3
f 132/5/3 108/5/3 131/5/3
f 133/1/3 127/1/3 97/1/3
f 133/1/3 128/1/3 127/1/3
f 134/1/3 121/1/3 128/1/3
f 134/1/3 128/1/3 133/1/3
f 135/1/3 131/1/3 130/1/3
f 135/5/3 106/5/3 132/5/3
f 135/1/3 132/1/3 131/1/3
f 136/5/3 102/5/3 106/5/3
f 136/5/3 106/5/3 135/5/3
f 137/1/3 136/1/3 135/1/3
f 137/5/3 102/5/3 136/5/3
f 138/5/3 53/5/3 102/5/3
f 138/5/3 102/5/3 137/5/3
f 139/1/3 121/1/3 134/1/3
f 139/2/3 122/2/3 121/2/3
f 140/1/3 129/1/3 122/1/3
f 140/2/3 122/2/3 139/2/3
f 141/1/3 139/1/3 134/1/3
f 141/1/3 140/1/3 139/1/3
f 142/1/3 129/1/3 140/1/3
f 142/1/3 140/1/3 141/1/3
f 143/1/3 138/1/3 137/1/3
f 143/1/3 137/1/3 135/1/3
f 144/5/3 53/5/3 138/5/3
f 144/1/3 138/1/3 143/1/3
f 145/1/3 133/1/3 97/1/3
f 145/5/3 134/5/3 133/5/3
f 146/1/3 141/1/3 134/1/3
f 146/5/3 134/5/3 145/5/3
f 147/3/3 142/3/3 141/3/3
f 147/1/3 141/1/3 146/1/3
f 148/1/3 129/1/3 142/1/3
f 148/3/3 142/3/3 147/3/3
f 149/1/3 143/1/3 135/1/3
f 149/1/3 135/1/3 130/1/3
f 150/5/3 144/5/3 143/5/3
f 150/1/3 143/1/3 149/1/3
f 151/1/3 147/1/3 146/1/3
f 151/1/3 148/1/3 147/1/3
f 151/1/3 146/1/3 145/1/3
f 151/1/3 145/1/3 97/1/3
f 152/1/3 148/1/3 151/1/3
f 153/1/3 149/1/3 130/1/3
f 154/5/3 150/5/3 149/5/3
f 154/1/3 149/1/3 153/1/3
f 155/1/3 129/1/3 148/1/3
f 155/2/3 130/2/3 129/2/3
f 155/1/3 148/1/3 152/1/3
f 156/1/3 153/1/3 130/1/3
f 156/2/3 130/2/3 155/2/3
f 157/1/3 155/1/3 152/1/3
f 157/1/3 156/1/3 155/1/3
f 158/1/3 156/1/3 157/1/3
f 159/1/3 153/1/3 156/1/3
f 159/1/3 156/1/3 158/1/3
f 160/1/3 153/1/3 159/1/3
f 161/5/3 154/5/3 153/5/3
f 161/1/3 153/1/3 160/1/3
f 162/5/3 150/5/3 154/5/3
f 162/5/3 154/5/3 161/5/3
f 163/3/3 158/3/3 157/3/3
f 163/1/3 157/1/3 152/1/3
f 164/1/3 159/1/3 158/1/3
f 164/3/3 158/3/3 163/3/3
f 165/2/3 160/2/3 159/2/3
f 165/1/3 159/1/3 164/1/3
f 166/1/3 161/1/3 160/1/3
f 166/2/3 160/2/3 165/2/3
f 166/1/3 162/1/3 161/1/3
f 167/5/3 150/5/3 162/5/3
f 167/1/3 162/1/3 166/1/3
f 168/5/3 144/5/3 150/5/3
f 168/5/3 150/5/3 167/5/3
f 169/5/3 152/5/3 151/5/3
f 169/1/3 151/1/3 97/1/3
f 170/1/3 165/1/3 164/1/3
f 170/5/3 152/5/3 169/5/3
f 170/1/3 167/1/3 166/1/3
f 170/1/3 163/1/3 152/1/3
f 170/1/3 168/1/3 167/1/3
f 170/1/3 166/1/3 165/1/3
f 170/1/3 164/1/3 163/1/3
f 171/5/3 144/5/3 168/5/3
f 171/1/3 168/1/3 170/1/3
f 172/5/3 53/5/3 144/5/3
f 172/5/3 144/5/3 171/5/3
f 173/1/3 169/1/3 97/1/3
f 173/1/3 171/1/3 170/1/3
f 173/1/3 172/1/3 171/1/3
f 173/1/3 97/1/3 47/1/3
f 173/1/3 170/1/3 169/1/3
f 174/1/3 172/1/3 173/1/3
f 175/1/3 172/1/3 174/1/3
f 176/1/3 172/1/3 175/1/3
f 177/1/3 172/1/3 176/1/3
f 178/1/3 172/1/3 177/1/3
f 179/1/3 173/1/3 47/1/3
f 179/5/3 174/5/3 173/5/3
f 180/1/3 175/1/3 174/1/3
f 180/5/3 174/5/3 179/5/3
f 181/1/3 175/1/3 180/1/3
f 182/1/3 172/1/3 178/1/3
f 183/5/3 53/5/3 172/5/3
f 183/1/3 172/1/3 182/1/3
f 184/1/3 182/1/3 178/1/3
f 185/5/3 183/5/3 182/5/3
f 185/1/3 182/1/3 184/1/3
f 186/1/3 175/1/3 181/1/3
f 186/2/3 176/2/3 175/2/3
f 187/1/3 177/1/3 176/1/3
f 187/2/3 176/2/3 186/2/3
f 188/1/3 177/1/3 187/1/3
f 189/1/3 184/1/3 178/1/3
f 190/5/3 185/5/3 184/5/3
f 190/1/3 184/1/3 189/1/3
f 191/1/3 180/1/3 179/1/3
f 191/5/3 181/5/3 180/5/3
f 192/1/3 186/1/3 181/1/3
f 192/5/3 181/5/3 191/5/3
f 192/1/3 187/1/3 186/1/3
f 193/1/3 189/1/3 178/1/3
f 193/5/3 190/5/3 189/5/3
f 194/5/3 185/5/3 190/5/3
f 194/5/3 190/5/3 193/5/3
f 195/1/3 191/1/3 179/1/3
f 195/1/3 192/1/3 191/1/3
f 196/1/3 187/1/3 192/1/3
f 196/1/3 192/1/3 195/1/3
f 197/5/3 185/5/3 194/5/3
f 197/1/3 194/1/3 193/1/3
f 198/5/3 183/5/3 185/5/3
f 198/5/3 185/5/3 197/5/3
f 199/2/3 46/2/3 45/2/3
f 200/3/3 47/3/3 46/3/3
f 200/2/3 46/2/3 199/2/3
f 201/1/3 179/1/3 47/1/3
f 201/3/3 47/3/3 200/3/3
f 201/1/3 195/1/3 179/1/3
f 202/5/3 196/5/3 195/5/3
f 202/1/3 195/1/3 201/1/3
f 203/1/3 187/1/3 196/1/3
f 203/5/3 196/5/3 202/5/3
f 204/2/3 188/2/3 187/2/3
f 204/1/3 187/1/3 203/1/3
f 205/1/3 177/1/3 188/1/3
f 205/2/3 188/2/3 204/2/3
f 206/2/3 178/2/3 177/2/3
f 206/1/3 177/1/3 205/1/3
f 207/1/3 197/1/3 193/1/3
f 207/2/3 178/2/3 206/2/3
f 207/1/3 198/1/3 197/1/3
f 207/1/3 193/1/3 178/1/3
f 208/5/3 183/5/3 198/5/3
f 208/1/3 198/1/3 207/1/3
f 209/5/3 53/5/3 183/5/3
f 209/5/3 183/5/3 208/5/3
f 209/4/3 54/4/3 53/4/3
f 210/4/3 54/4/3 209/4/3
f 217/1/4 218/1/4 221/1/4
f 218/5/4 219/5/4 222/5/4
f 221/1/4 218/1/4 222/1/4
f 213/1/4 214/1/4 223/1/4
f 214/3/4 215/3/4 223/3/4
f 215/1/4 216/1/4 224/1/4
f 223/3/4 215/3/4 224/3/4
f 217/1/4 221/1/4 225/1/4
f 221/5/4 222/5/4 226/5/4
f 225/1/4 221/1/4 226/1/4
f 213/1/4 223/1/4 227/1/4
f 223/1/4 224/1/4 227/1/4
f 227/1/4 224/1/4 228/1/4
f 217/1/4 225/1/4 229/1/4
f 225/5/4 226/5/4 229/5/4
f 226/5/4 222/5/4 230/5/4
f 229/5/4 226/5/4 230/5/4
f 229/1/4 230/1/4 231/1/4
f 230/5/4 222/5/4 231/5/4
f 222/5/4 219/5/4 232/5/4
f 231/5/4 222/5/4 232/5/4
f 228/1/4 224/1/4 233/1/4
f 224/1/4 216/1/4 234/1/4
f 233/1/4 224/1/4 234/1/4
f 232/5/4 219/5/4 235/5/4
f 231/1/4 232/1/4 235/1/4
f 235/5/4 219/5/4 236/5/4
f 234/1/4 216/1/4 237/1/4
f 216/2/4 217/2/4 237/2/4
f 229/1/4 231/1/4 238/1/4
f 237/2/4 217/2/4 238/2/4
f 217/1/4 229/1/4 238/1/4
f 231/1/4 235/1/4 238/1/4
f 235/1/4 236/1/4 238/1/4
f 213/1/4 227/1/4 239/1/4
f 227/5/4 228/5/4 239/5/4
f 228/1/4 233/1/4 240/1/4
f 239/5/4 228/5/4 240/5/4
f 234/1/4 237/1/4 241/1/4
f 237/1/4 238/1/4 241/1/4
f 241/1/4 238/1/4 242/1/4
f 213/1/4 239/1/4 243/1/4
f 239/1/4 240/1/4 243/1/4
f 240/1/4 233/1/4 244/1/4
f 243/1/4 240/1/4 244/1/4
f 238/1/4 236/1/4 245/1/4
f 242/1/4 238/1/4 245/1/4
f 236/5/4 219/5/4 246/5/4
f 245/1/4 236/1/4 246/1/4
f 213/1/4 243/1/4 247/1/4
f 243/5/4 244/5/4 247/5/4
f 244/1/4 233/1/4 248/1/4
f 247/5/4 244/5/4 248/5/4
f 242/1/4 245/1/4 249/1/4
f 245/5/4 246/5/4 250/5/4
f 249/1/4 245/1/4 250/1/4
f 242/1/4 249/1/4 251/1/4
f 249/5/4 250/5/4 252/5/4
f 251/1/4 249/1/4 252/1/4
f 213/1/4 247/1/4 253/1/4
f 247/1/4 248/1/4 253/1/4
f 253/1/4 248/1/4 254/1/4
f 251/5/4 252/5/4 255/5/4
f 242/1/4 251/1/4 255/1/4
f 252/5/4 250/5/4 256/5/4
f 255/5/4 252/5/4 256/5/4
f 255/1/4 256/1/4 257/1/4
f 256/5/4 250/5/4 257/5/4
f 250/5/4 246/5/4 258/5/4
f 257/5/4 250/5/4 258/5/4
f 257/1/4 258/1/4 259/1/4
f 258/5/4 246/5/4 259/5/4
f 246/5/4 219/5/4 260/5/4
f 259/5/4 246/5/4 260/5/4
f 248/1/4 233/1/4 261/1/4
f 233/2/4 234/2/4 261/2/4
f 254/1/4 248/1/4 261/1/4
f 234/1/4 241/1/4 262/1/4
f 261/2/4 234/2/4 262/2/4
f 213/1/4 253/1/4 263/1/4
f 253/5/4 254/5/4 263/5/4
f 254/1/4 261/1/4 264/1/4
f 263/5/4 254/5/4 264/5/4
f 261/1/4 262/1/4 264/1/4
f 263/1/4 264/1/4 265/1/4
f 264/1/4 262/1/4 265/1/4
f 262/1/4 241/1/4 266/1/4
f 265/1/4 262/1/4 266/1/4
f 257/1/4 259/1/4 267/1/4
f 259/1/4 260/1/4 267/1/4
f 260/5/4 219/5/4 268/5/4
f 267/1/4 260/1/4 268/1/4
f 263/1/4 265/1/4 269/1/4
f 269/1/4 265/1/4 270/1/4
f 257/1/4 267/1/4 271/1/4
f 255/1/4 257/1/4 271/1/4
f 267/5/4 268/5/4 272/5/4
f 271/1/4 267/1/4 272/1/4
f 242/1/4 255/1/4 273/1/4
f 255/1/4 271/1/4 273/1/4
f 271/5/4 272/5/4 274/5/4
f 273/1/4 271/1/4 274/1/4
f 266/1/4 241/1/4 275/1/4
f 241/2/4 242/2/4 275/2/4
f 242/1/4 273/1/4 276/1/4
f 275/2/4 242/2/4 276/2/4
f 270/1/4 265/1/4 277/1/4
f 265/2/4 266/2/4 277/2/4
f 275/1/4 276/1/4 278/1/4
f 277/2/4 266/2/4 278/2/4
f 266/1/4 275/1/4 278/1/4
f 276/1/4 273/1/4 279/1/4
f 278/1/4 276/1/4 279/1/4
f 273/5/4 274/5/4 280/5/4
f 279/1/4 273/1/4 280/1/4
f 277/1/4 278/1/4 281/1/4
f 278/1/4 279/1/4 281/1/4
f 279/5/4 280/5/4 282/5/4
f 281/1/4 279/1/4 282/1/4
f 277/1/4 281/1/4 283/1/4
f 283/1/4 281/1/4 284/1/4
f 277/1/4 283/1/4 285/1/4
f 283/2/4 284/2/4 285/2/4
f 284/1/4 281/1/4 286/1/4
f 285/2/4 284/2/4 286/2/4
f 270/1/4 277/1/4 287/1/4
f 277/1/4 285/1/4 287/1/4
f 285/1/4 286/1/4 287/1/4
f 287/1/4 286/1/4 288/1/4
f 286/1/4 281/1/4 289/1/4
f 288/1/4 286/1/4 289/1/4
f 281/5/4 282/5/4 289/5/4
f 282/5/4 280/5/4 290/5/4
f 289/5/4 282/5/4 290/5/4
f 288/1/4 289/1/4 291/1/4
f 290/5/4 280/5/4 291/5/4
f 289/1/4 290/1/4 291/1/4
f 280/5/4 274/5/4 292/5/4
f 291/5/4 280/5/4 292/5/4
f 269/5/4 270/5/4 293/5/4
f 263/1/4 269/1/4 293/1/4
f 270/1/4 287/1/4 294/1/4
f 293/5/4 270/5/4 294/5/4
f 288/1/4 291/1/4 295/1/4
f 291/1/4 292/1/4 295/1/4
f 295/1/4 292/1/4 296/1/4
f 292/5/4 274/5/4 297/5/4
f 296/1/4 292/1/4 297/1/4
f 274/5/4 272/5/4 298/5/4
f 297/5/4 274/5/4 298/5/4
f 263/1/4 293/1/4 299/1/4
f 293/1/4 294/1/4 299/1/4
f 294/1/4 287/1/4 300/1/4
f 299/1/4 294/1/4 300/1/4
f 296/1/4 297/1/4 301/1/4
f 298/5/4 272/5/4 301/5/4
f 297/1/4 298/1/4 301/1/4
f 272/5/4 268/5/4 302/5/4
f 301/5/4 272/5/4 302/5/4
f 301/1/4 302/1/4 303/1/4
f 302/5/4 268/5/4 303/5/4
f 268/5/4 219/5/4 304/5/4
f 303/5/4 268/5/4 304/5/4
f 300/1/4 287/1/4 305/1/4
f 287/2/4 288/2/4 305/2/4
f 288/1/4 295/1/4 306/1/4
f 305/2/4 288/2/4 306/2/4
f 300/1/4 305/1/4 307/1/4
f 305/1/4 306/1/4 307/1/4
f 306/1/4 295/1/4 308/1/4
f 307/1/4 306/1/4 308/1/4
f 303/1/4 304/1/4 309/1/4
f 301/1/4 303/1/4 309/1/4
f 304/5/4 219/5/4 310/5/4
f 309/1/4 304/1/4 310/1/4
f 263/1/4 299/1/4 311/1/4
f 299/5/4 300/5/4 311/5/4
f 300/1/4 307/1/4 312/1/4
f 311/5/4 300/5/4 312/5/4
f 307/3/4 308/3/4 313/3/4
f 312/1/4 307/1/4 313/1/4
f 308/1/4 295/1/4 314/1/4
f 313/3/4 308/3/4 314/3/4
f 301/1/4 309/1/4 315/1/4
f 296/1/4 301/1/4 315/1/4
f 309/5/4 310/5/4 316/5/4
f 315/1/4 309/1/4 316/1/4
f 312/1/4 313/1/4 317/1/4
f 313/1/4 314/1/4 317/1/4
f 311/1/4 312/1/4 317/1/4
f 263/1/4 311/1/4 317/1/4
f 317/1/4 314/1/4 318/1/4
f 296/1/4 315/1/4 319/1/4
f 315/5/4 316/5/4 320/5/4
f 319/1/4 315/1/4 320/1/4
f 314/1/4 295/1/4 321/1/4
f 295/2/4 296/2/4 321/2/4
f 318/1/4 314/1/4 321/1/4
f 296/1/4 319/1/4 322/1/4
f 321/2/4 296/2/4 322/2/4
f 318/1/4 321/1/4 323/1/4
f 321/1/4 322/1/4 323/1/4
f 323/1/4 322/1/4 324/1/4
f 322/1/4 319/1/4 325/1/4
f 324/1/4 322/1/4 325/1/4
f 325/1/4 319/1/4 326/1/4
f 319/5/4 320/5/4 327/5/4
f 326/1/4 319/1/4 327/1/4
f 320/5/4 316/5/4 328/5/4
f 327/5/4 320/5/4 328/5/4
f 323/3/4 324/3/4 329/3/4
f 318/1/4 323/1/4 329/1/4
f 324/1/4 325/1/4 330/1/4
f 329/3/4 324/3/4 330/3/4
f 325/2/4 326/2/4 331/2/4
f 330/1/4 325/1/4 331/1/4
f 326/1/4 327/1/4 332/1/4
f 331/2/4 326/2/4 332/2/4
f 327/1/4 328/1/4 332/1/4
f 328/5/4 316/5/4 333/5/4
f 332/1/4 328/1/4 333/1/4
f 316/5/4 310/5/4 334/5/4
f 333/5/4 316/5/4 334/5/4
f 317/5/4 318/5/4 335/5/4
f 263/1/4 317/1/4 335/1/4
f 330/1/4 331/1/4 336/1/4
f 335/5/4 318/5/4 336/5/4
f 332/1/4 333/1/4 336/1/4
f 318/1/4 329/1/4 336/1/4
f 333/1/4 334/1/4 336/1/4
f 331/1/4 332/1/4 336/1/4
f 329/1/4 330/1/4 336/1/4
f 334/5/4 310/5/4 337/5/4
f 336/1/4 334/1/4 337/1/4
f 310/5/4 219/5/4 338/5/4
f 337/5/4 310/5/4 338/5/4
f 263/1/4 335/1/4 339/1/4
f 336/1/4 337/1/4 339/1/4
f 337/1/4 338/1/4 339/1/4
f 213/1/4 263/1/4 339/1/4
f 335/1/4 336/1/4 339/1/4
f 339/1/4 338/1/4 340/1/4
f 340/1/4 338/1/4 341/1/4
f 341/1/4 338/1/4 342/1/4
f 342/1/4 338/1/4 343/1/4
f 343/1/4 338/1/4 344/1/4
f 213/1/4 339/1/4 345/1/4
f 339/5/4 340/5/4 345/5/4
f 340/1/4 341/1/4 346/1/4
f 345/5/4 340/5/4 346/5/4
f 346/1/4 341/1/4 347/1/4
f 344/1/4 338/1/4 348/1/4
f 338/5/4 219/5/4 349/5/4
f 348/1/4 338/1/4 349/1/4
f 344/1/4 348/1/4 350/1/4
f 348/5/4 349/5/4 351/5/4
f 350/1/4 348/1/4 351/1/4
f 347/1/4 341/1/4 352/1/4
f 341/2/4 342/2/4 352/2/4
f 342/1/4 343/1/4 353/1/4
f 352/2/4 342/2/4 353/2/4
f 353/1/4 343/1/4 354/1/4
f 344/1/4 350/1/4 355/1/4
f 350/5/4 351/5/4 356/5/4
f 355/1/4 350/1/4 356/1/4
f 345/1/4 346/1/4 357/1/4
f 346/5/4 347/5/4 357/5/4
f 347/1/4 352/1/4 358/1/4
f 357/5/4 347/5/4 358/5/4
f 352/1/4 353/1/4 358/1/4
f 344/1/4 355/1/4 359/1/4
f 355/5/4 356/5/4 359/5/4
f 356/5/4 351/5/4 360/5/4
f 359/5/4 356/5/4 360/5/4
f 345/1/4 357/1/4 361/1/4
f 357/1/4 358/1/4 361/1/4
f 358/1/4 353/1/4 362/1/4
f 361/1/4 358/1/4 362/1/4
f 360/5/4 351/5/4 363/5/4
f 359/1/4 360/1/4 363/1/4
f 351/5/4 349/5/4 364/5/4
f 363/5/4 351/5/4 364/5/4
f 211/2/4 212/2/4 365/2/4
f 212/3/4 213/3/4 366/3/4
f 365/2/4 212/2/4 366/2/4
f 213/1/4 345/1/4 367/1/4
f 366/3/4 213/3/4 367/3/4
f 345/1/4 361/1/4 367/1/4
f 361/5/4 362/5/4 368/5/4
f 367/1/4 361/1/4 368/1/4
f 362/1/4 353/1/4 369/1/4
f 368/5/4 362/5/4 369/5/4
f 353/2/4 354/2/4 370/2/4
f 369/1/4 353/1/4 370/1/4
f 354/1/4 343/1/4 371/1/4
f 370/2/4 354/2/4 371/2/4
f 343/2/4 344/2/4 372/2/4
f 371/1/4 343/1/4 372/1/4
f 359/1/4 363/1/4 373/1/4
f 372/2/4 344/2/4 373/2/4
f 363/1/4 364/1/4 373/1/4
f 344/1/4 359/1/4 373/1/4
f 364/5/4 349/5/4 374/5/4
f 373/1/4 364/1/4 374/1/4
f 349/5/4 219/5/4 375/5/4
f 374/5/4 349/5/4 375/5/4
f 219/4/4 220/4/4 375/4/4
f 375/4/4 220/4/4 376/4/4
f 379/2/5 378/2/5 377/2/5
f 380/2/5 378/2/5 379/2/5
f 381/4/6 382/4/6 383/4/6
f 383/4/6 382/4/6 384/4/6
