# MagicaVoxel @ ephtracy

# material
mtllib st6.mtl
usemtl palette

# normals
vn -1 0 0
vn 1 0 0
vn 0 0 1
vn 0 0 -1
vn 0 -1 0
vn 0 1 0

# texcoords
vt 0.970703 0.5
vt 0.974609 0.5
vt 0.978516 0.5
vt 0.986328 0.5

# verts
v -29 0 11
v -29 0 -23
v -29 11 -22
v -29 11 -23
v -29 13 -21
v -29 13 -22
v -29 16 -21
v -29 16 -22
v -29 17 -22
v -29 17 -23
v -29 18 -23
v -29 18 -24
v -29 19 11
v -29 19 -8
v -29 19 -24
v -29 19 -25
v -29 20 -8
v -29 20 -25
v -15 0 -17
v -15 0 -23
v -15 1 -15
v -15 1 -17
v -15 2 -15
v -15 2 -17
v -15 4 -17
v -15 4 -19
v -15 4 -23
v -14 0 11
v -14 0 -17
v -14 1 -15
v -14 1 -17
v -14 2 -15
v -14 2 -17
v -14 3 -6
v -14 3 -10
v -14 4 -3
v -14 4 -6
v -14 4 -10
v -14 4 -12
v -14 4 -17
v -14 4 -19
v -14 4 -23
v -14 5 11
v -14 5 7
v -14 5 -3
v -14 5 -12
v -14 5 -15
v -14 5 -19
v -14 5 -20
v -14 5 -22
v -14 5 -23
v -14 6 11
v -14 6 8
v -14 6 7
v -14 6 -15
v -14 6 -20
v -14 6 -21
v -14 6 -22
v -14 6 -23
v -14 7 -21
v -14 7 -22
v -14 7 -23
v -14 11 8
v -14 11 2
v -14 12 2
v -14 12 -4
v -14 12 -6
v -14 13 -4
v -14 13 -6
v -14 13 -9
v -14 13 -10
v -14 13 -17
v -14 13 -21
v -14 14 -9
v -14 14 -10
v -14 14 -17
v -14 15 11
v -14 15 -12
v -14 16 -12
v -14 16 -21
v -14 16 -22
v -14 17 6
v -14 17 -4
v -14 17 -20
v -14 17 -22
v -14 17 -23
v -14 18 11
v -14 18 6
v -14 18 -4
v -14 18 -20
v -14 18 -23
v -14 18 -24
v -14 19 11
v -14 19 -8
v -14 19 -24
v -14 19 -25
v -14 20 -8
v -14 20 -25
v -13 4 -3
v -13 4 -5
v -13 5 7
v -13 5 5
v -13 5 -3
v -13 5 -4
v -13 5 -5
v -13 6 7
v -13 6 5
v -13 12 -6
v -13 12 -8
v -13 12 -20
v -13 12 -22
v -13 13 -6
v -13 13 -8
v -13 13 -10
v -13 13 -14
v -13 13 -16
v -13 13 -17
v -13 13 -20
v -13 13 -22
v -13 14 -10
v -13 14 -14
v -13 14 -16
v -13 14 -17
v -12 3 -6
v -12 3 -10
v -12 4 -5
v -12 4 -6
v -12 4 -9
v -12 4 -10
v -12 4 -12
v -12 5 5
v -12 5 -4
v -12 5 -5
v -12 5 -6
v -12 5 -12
v -12 5 -15
v -12 6 8
v -12 6 5
v -12 6 -4
v -12 6 -9
v -12 6 -15
v -12 6 -20
v -12 6 -21
v -12 7 -15
v -12 7 -20
v -12 7 -21
v -12 7 -22
v -12 7 -23
v -12 8 -22
v -12 8 -23
v -12 10 -11
v -12 10 -14
v -12 10 -20
v -12 10 -23
v -12 11 8
v -12 11 2
v -12 11 -11
v -12 11 -14
v -12 11 -20
v -12 11 -22
v -12 11 -23
v -12 12 2
v -12 12 -8
v -12 12 -20
v -12 12 -22
v -12 13 -8
v -12 13 -14
v -12 13 -16
v -12 13 -20
v -12 14 -14
v -12 14 -16
v -29 0 11
v -29 19 11
v -16 0 11
v -16 19 11
v -15 0 11
v -15 5 11
v -15 6 11
v -15 15 11
v -15 18 11
v -15 19 11
v -14 0 11
v -14 5 11
v -14 6 11
v -14 15 11
v -14 18 11
v -14 19 11
v -14 6 8
v -14 11 8
v -12 6 8
v -12 11 8
v -14 5 7
v -14 6 7
v -13 5 7
v -13 6 7
v -13 5 5
v -13 6 5
v -12 5 5
v -12 6 5
v -14 11 2
v -14 12 2
v -12 11 2
v -12 12 2
v -14 4 -3
v -14 5 -3
v -13 4 -3
v -13 5 -3
v -13 4 -5
v -13 5 -5
v -12 4 -5
v -12 5 -5
v -14 3 -6
v -14 4 -6
v -14 12 -6
v -14 13 -6
v -13 12 -6
v -13 13 -6
v -12 3 -6
v -12 4 -6
v -29 19 -8
v -29 20 -8
v -16 19 -8
v -16 20 -8
v -15 19 -8
v -15 20 -8
v -14 19 -8
v -14 20 -8
v -13 12 -8
v -13 13 -8
v -12 12 -8
v -12 13 -8
v -14 13 -10
v -14 14 -10
v -13 13 -10
v -13 14 -10
v -13 13 -14
v -13 14 -14
v -12 13 -14
v -12 14 -14
v -14 3 -10
v -14 4 -10
v -12 3 -10
v -12 4 -10
v -14 4 -12
v -14 5 -12
v -12 4 -12
v -12 5 -12
v -15 1 -15
v -15 2 -15
v -14 1 -15
v -14 2 -15
v -14 5 -15
v -14 6 -15
v -12 5 -15
v -12 6 -15
v -13 13 -16
v -13 14 -16
v -12 13 -16
v -12 14 -16
v -15 0 -17
v -15 1 -17
v -15 2 -17
v -15 4 -17
v -14 0 -17
v -14 1 -17
v -14 2 -17
v -14 4 -17
v -14 13 -17
v -14 14 -17
v -13 13 -17
v -13 14 -17
v -13 12 -20
v -13 13 -20
v -12 12 -20
v -12 13 -20
v -29 13 -21
v -29 16 -21
v -16 13 -21
v -16 16 -21
v -15 13 -21
v -15 16 -21
v -14 6 -21
v -14 7 -21
v -14 13 -21
v -14 16 -21
v -12 6 -21
v -12 7 -21
v -29 11 -22
v -29 13 -22
v -29 16 -22
v -29 17 -22
v -16 11 -22
v -16 13 -22
v -16 16 -22
v -16 17 -22
v -15 11 -22
v -15 13 -22
v -15 17 -22
v -14 16 -22
v -14 17 -22
v -13 12 -22
v -13 13 -22
v -12 11 -22
v -12 12 -22
v -29 0 -23
v -29 11 -23
v -29 17 -23
v -29 18 -23
v -16 0 -23
v -16 11 -23
v -16 17 -23
v -16 18 -23
v -15 0 -23
v -15 4 -23
v -15 5 -23
v -15 6 -23
v -15 7 -23
v -15 8 -23
v -15 10 -23
v -15 11 -23
v -15 17 -23
v -15 18 -23
v -14 4 -23
v -14 5 -23
v -14 6 -23
v -14 7 -23
v -14 17 -23
v -14 18 -23
v -12 7 -23
v -12 8 -23
v -12 10 -23
v -12 11 -23
v -29 18 -24
v -29 19 -24
v -16 18 -24
v -16 19 -24
v -15 18 -24
v -15 19 -24
v -14 18 -24
v -14 19 -24
v -29 19 -25
v -29 20 -25
v -16 19 -25
v -16 20 -25
v -15 19 -25
v -15 20 -25
v -14 19 -25
v -14 20 -25
v -29 0 11
v -16 0 11
v -15 0 11
v -14 0 11
v -15 0 -17
v -14 0 -17
v -29 0 -23
v -16 0 -23
v -15 0 -23
v -15 2 -15
v -14 2 -15
v -15 2 -17
v -14 2 -17
v -14 3 -6
v -12 3 -6
v -14 3 -10
v -12 3 -10
v -14 4 -3
v -13 4 -3
v -13 4 -5
v -12 4 -5
v -14 4 -6
v -12 4 -6
v -14 4 -10
v -12 4 -10
v -14 4 -12
v -12 4 -12
v -15 4 -17
v -14 4 -17
v -15 4 -19
v -14 4 -19
v -15 4 -23
v -14 4 -23
v -14 5 7
v -13 5 7
v -13 5 5
v -12 5 5
v -14 5 -3
v -13 5 -3
v -13 5 -4
v -12 5 -4
v -13 5 -5
v -12 5 -5
v -14 5 -12
v -12 5 -12
v -14 5 -15
v -12 5 -15
v -14 6 8
v -12 6 8
v -14 6 7
v -13 6 7
v -13 6 5
v -12 6 5
v -14 6 -15
v -12 6 -15
v -14 6 -20
v -12 6 -20
v -14 6 -21
v -12 6 -21
v -14 7 -21
v -12 7 -21
v -14 7 -22
v -12 7 -22
v -14 7 -23
v -12 7 -23
v -29 16 -21
v -16 16 -21
v -15 16 -21
v -14 16 -21
v -29 16 -22
v -16 16 -22
v -14 16 -22
v -29 17 -22
v -16 17 -22
v -15 17 -22
v -14 17 -22
v -29 17 -23
v -16 17 -23
v -15 17 -23
v -14 17 -23
v -29 18 -23
v -16 18 -23
v -15 18 -23
v -14 18 -23
v -29 18 -24
v -16 18 -24
v -15 18 -24
v -14 18 -24
v -29 19 -24
v -16 19 -24
v -15 19 -24
v -14 19 -24
v -29 19 -25
v -16 19 -25
v -15 19 -25
v -14 19 -25
v -15 1 -15
v -14 1 -15
v -15 1 -17
v -14 1 -17
v -14 11 8
v -12 11 8
v -14 11 2
v -12 11 2
v -29 11 -22
v -16 11 -22
v -15 11 -22
v -12 11 -22
v -29 11 -23
v -16 11 -23
v -15 11 -23
v -12 11 -23
v -14 12 2
v -12 12 2
v -14 12 -4
v -14 12 -6
v -13 12 -6
v -13 12 -8
v -12 12 -8
v -13 12 -20
v -12 12 -20
v -13 12 -22
v -12 12 -22
v -14 13 -6
v -13 13 -6
v -13 13 -8
v -12 13 -8
v -14 13 -9
v -14 13 -10
v -13 13 -10
v -13 13 -14
v -12 13 -14
v -13 13 -16
v -12 13 -16
v -14 13 -17
v -13 13 -17
v -13 13 -20
v -12 13 -20
v -29 13 -21
v -16 13 -21
v -15 13 -21
v -14 13 -21
v -29 13 -22
v -16 13 -22
v -15 13 -22
v -13 13 -22
v -14 14 -10
v -13 14 -10
v -13 14 -14
v -12 14 -14
v -13 14 -16
v -12 14 -16
v -14 14 -17
v -13 14 -17
v -29 19 11
v -16 19 11
v -15 19 11
v -14 19 11
v -29 19 -8
v -16 19 -8
v -15 19 -8
v -14 19 -8
v -29 20 -8
v -16 20 -8
v -15 20 -8
v -14 20 -8
v -29 20 -25
v -16 20 -25
v -15 20 -25
v -14 20 -25

# faces
f 3/1/1 2/1/1 1/1/1
f 4/1/1 2/1/1 3/1/1
f 5/1/1 3/1/1 1/1/1
f 6/1/1 3/1/1 5/1/1
f 7/1/1 5/1/1 1/1/1
f 9/1/1 8/1/1 7/1/1
f 11/1/1 10/1/1 9/1/1
f 13/1/1 11/1/1 9/1/1
f 13/1/1 12/1/1 11/1/1
f 13/1/1 7/1/1 1/1/1
f 13/1/1 9/1/1 7/1/1
f 14/1/1 12/1/1 13/1/1
f 15/1/1 12/1/1 14/1/1
f 17/1/1 16/1/1 15/1/1
f 17/1/1 15/1/1 14/1/1
f 18/1/1 16/1/1 17/1/1
f 19/2/2 20/2/2 22/2/2
f 21/2/2 22/2/2 23/2/2
f 22/2/2 20/2/2 24/2/2
f 23/2/2 22/2/2 24/2/2
f 24/2/2 20/2/2 25/2/2
f 25/2/2 20/2/2 26/2/2
f 26/2/2 20/2/2 27/2/2
f 28/1/2 29/1/2 30/1/2
f 30/1/2 29/1/2 31/1/2
f 28/1/2 30/1/2 32/1/2
f 28/1/2 32/1/2 34/1/2
f 32/1/2 33/1/2 34/1/2
f 34/1/2 33/1/2 35/1/2
f 28/1/2 34/1/2 36/1/2
f 36/1/2 34/1/2 37/1/2
f 35/1/2 33/1/2 38/1/2
f 38/1/2 33/1/2 39/1/2
f 39/1/2 33/1/2 40/1/2
f 28/1/2 36/1/2 43/1/2
f 43/1/2 36/1/2 44/1/2
f 44/1/2 36/1/2 45/1/2
f 39/1/2 40/1/2 46/1/2
f 40/1/2 41/1/2 46/1/2
f 46/1/2 41/1/2 47/1/2
f 41/3/2 42/3/2 48/3/2
f 47/1/2 41/1/2 48/1/2
f 48/3/2 42/3/2 49/3/2
f 49/3/2 42/3/2 50/3/2
f 50/3/2 42/3/2 51/3/2
f 43/2/2 44/2/2 52/2/2
f 52/2/2 44/2/2 53/2/2
f 53/2/2 44/2/2 54/2/2
f 47/1/2 48/1/2 55/1/2
f 48/1/2 49/1/2 55/1/2
f 49/3/2 50/3/2 56/3/2
f 55/1/2 49/1/2 56/1/2
f 56/3/2 50/3/2 57/3/2
f 50/2/2 51/2/2 58/2/2
f 57/3/2 50/3/2 58/3/2
f 58/2/2 51/2/2 59/2/2
f 58/3/2 59/3/2 60/3/2
f 57/3/2 58/3/2 60/3/2
f 60/3/2 59/3/2 61/3/2
f 61/3/2 59/3/2 62/3/2
f 52/1/2 53/1/2 63/1/2
f 63/1/2 64/1/2 65/1/2
f 65/1/2 66/1/2 68/1/2
f 66/4/2 67/4/2 68/4/2
f 68/4/2 67/4/2 69/4/2
f 68/1/2 69/1/2 74/1/2
f 69/1/2 70/1/2 74/1/2
f 70/4/2 71/4/2 74/4/2
f 74/4/2 71/4/2 75/4/2
f 72/1/2 73/1/2 76/1/2
f 52/1/2 63/1/2 77/1/2
f 75/1/2 76/1/2 77/1/2
f 63/1/2 65/1/2 77/1/2
f 65/1/2 68/1/2 77/1/2
f 68/1/2 74/1/2 77/1/2
f 74/1/2 75/1/2 77/1/2
f 77/1/2 76/1/2 78/1/2
f 77/2/2 78/2/2 79/2/2
f 78/1/2 76/1/2 79/1/2
f 76/1/2 73/1/2 80/1/2
f 79/1/2 76/1/2 80/1/2
f 77/2/2 79/2/2 82/2/2
f 80/2/2 81/2/2 82/2/2
f 79/2/2 80/2/2 82/2/2
f 82/2/2 81/2/2 83/2/2
f 83/2/2 81/2/2 84/2/2
f 84/2/2 81/2/2 85/2/2
f 77/2/2 82/2/2 87/2/2
f 82/3/2 83/3/2 88/3/2
f 87/2/2 82/2/2 88/2/2
f 83/2/2 84/2/2 89/2/2
f 88/3/2 83/3/2 89/3/2
f 85/3/2 86/3/2 90/3/2
f 89/2/2 84/2/2 90/2/2
f 84/3/2 85/3/2 90/3/2
f 90/3/2 86/3/2 91/3/2
f 90/3/2 91/3/2 93/3/2
f 91/3/2 92/3/2 93/3/2
f 89/3/2 90/3/2 93/3/2
f 88/3/2 89/3/2 93/3/2
f 87/3/2 88/3/2 93/3/2
f 93/3/2 92/3/2 94/3/2
f 94/3/2 92/3/2 95/3/2
f 95/3/2 96/3/2 97/3/2
f 94/3/2 95/3/2 97/3/2
f 97/3/2 96/3/2 98/3/2
f 99/2/2 100/2/2 103/2/2
f 103/2/2 100/2/2 104/2/2
f 104/2/2 100/2/2 105/2/2
f 101/2/2 102/2/2 106/2/2
f 106/2/2 102/2/2 107/2/2
f 108/4/2 109/4/2 112/4/2
f 112/4/2 109/4/2 113/4/2
f 110/4/2 111/4/2 118/4/2
f 118/4/2 111/4/2 119/4/2
f 114/4/2 115/4/2 120/4/2
f 120/4/2 115/4/2 121/4/2
f 116/4/2 117/4/2 122/4/2
f 122/4/2 117/4/2 123/4/2
f 124/2/2 125/2/2 127/2/2
f 127/2/2 125/2/2 128/2/2
f 128/2/2 125/2/2 129/2/2
f 126/2/2 127/2/2 133/2/2
f 127/1/2 128/1/2 134/1/2
f 133/2/2 127/2/2 134/2/2
f 128/2/2 129/2/2 135/2/2
f 129/2/2 130/2/2 135/2/2
f 131/2/2 132/2/2 138/2/2
f 132/1/2 133/1/2 139/1/2
f 133/1/2 134/1/2 139/1/2
f 138/2/2 132/2/2 139/2/2
f 135/2/2 136/2/2 140/2/2
f 139/1/2 134/1/2 140/1/2
f 134/1/2 128/1/2 140/1/2
f 128/2/2 135/2/2 140/2/2
f 140/2/2 136/2/2 141/2/2
f 138/1/2 139/1/2 144/1/2
f 137/1/2 138/1/2 144/1/2
f 141/2/2 142/2/2 144/2/2
f 140/1/2 141/1/2 144/1/2
f 139/1/2 140/1/2 144/1/2
f 142/1/2 143/1/2 145/1/2
f 144/2/2 142/2/2 145/2/2
f 145/1/2 143/1/2 146/1/2
f 144/1/2 145/1/2 149/1/2
f 147/2/2 148/2/2 149/2/2
f 146/1/2 147/1/2 149/1/2
f 145/1/2 146/1/2 149/1/2
f 149/2/2 148/2/2 150/2/2
f 137/1/2 144/1/2 151/1/2
f 144/1/2 149/1/2 151/1/2
f 149/1/2 150/1/2 151/1/2
f 151/1/2 150/1/2 152/1/2
f 152/1/2 150/1/2 153/1/2
f 153/1/2 150/1/2 154/1/2
f 137/1/2 151/1/2 155/1/2
f 155/1/2 151/1/2 156/1/2
f 151/4/2 152/4/2 157/4/2
f 156/1/2 151/1/2 157/1/2
f 152/1/2 153/1/2 158/1/2
f 157/4/2 152/4/2 158/4/2
f 153/4/2 154/4/2 159/4/2
f 158/1/2 153/1/2 159/1/2
f 159/4/2 154/4/2 160/4/2
f 160/4/2 154/4/2 161/4/2
f 156/4/2 157/4/2 162/4/2
f 159/4/2 160/4/2 162/4/2
f 158/4/2 159/4/2 162/4/2
f 157/4/2 158/4/2 162/4/2
f 162/4/2 160/4/2 163/4/2
f 163/4/2 160/4/2 164/4/2
f 164/4/2 160/4/2 165/4/2
f 163/4/2 164/4/2 166/4/2
f 166/4/2 164/4/2 167/4/2
f 167/4/2 164/4/2 168/4/2
f 168/4/2 164/4/2 169/4/2
f 167/4/2 168/4/2 170/4/2
f 170/4/2 168/4/2 171/4/2
f 174/1/3 173/1/3 172/1/3
f 175/1/3 173/1/3 174/1/3
f 176/2/3 175/2/3 174/2/3
f 177/2/3 175/2/3 176/2/3
f 178/2/3 175/2/3 177/2/3
f 179/2/3 175/2/3 178/2/3
f 180/2/3 175/2/3 179/2/3
f 181/2/3 175/2/3 180/2/3
f 182/1/3 177/1/3 176/1/3
f 183/2/3 178/2/3 177/2/3
f 183/1/3 177/1/3 182/1/3
f 184/1/3 179/1/3 178/1/3
f 184/2/3 178/2/3 183/2/3
f 185/2/3 180/2/3 179/2/3
f 185/1/3 179/1/3 184/1/3
f 186/3/3 181/3/3 180/3/3
f 186/2/3 180/2/3 185/2/3
f 187/3/3 181/3/3 186/3/3
f 190/1/3 189/1/3 188/1/3
f 191/1/3 189/1/3 190/1/3
f 194/2/3 193/2/3 192/2/3
f 195/2/3 193/2/3 194/2/3
f 198/2/3 197/2/3 196/2/3
f 199/2/3 197/2/3 198/2/3
f 202/4/3 201/4/3 200/4/3
f 203/4/3 201/4/3 202/4/3
f 206/2/3 205/2/3 204/2/3
f 207/2/3 205/2/3 206/2/3
f 210/2/3 209/2/3 208/2/3
f 211/2/3 209/2/3 210/2/3
f 216/4/3 215/4/3 214/4/3
f 217/4/3 215/4/3 216/4/3
f 218/2/3 213/2/3 212/2/3
f 219/2/3 213/2/3 218/2/3
f 222/1/3 221/1/3 220/1/3
f 223/1/3 221/1/3 222/1/3
f 224/2/3 223/2/3 222/2/3
f 225/2/3 223/2/3 224/2/3
f 226/3/3 225/3/3 224/3/3
f 227/3/3 225/3/3 226/3/3
f 230/4/3 229/4/3 228/4/3
f 231/4/3 229/4/3 230/4/3
f 234/4/3 233/4/3 232/4/3
f 235/4/3 233/4/3 234/4/3
f 238/4/3 237/4/3 236/4/3
f 239/4/3 237/4/3 238/4/3
f 240/2/4 241/2/4 242/2/4
f 242/2/4 241/2/4 243/2/4
f 244/2/4 245/2/4 246/2/4
f 246/2/4 245/2/4 247/2/4
f 248/1/4 249/1/4 250/1/4
f 250/1/4 249/1/4 251/1/4
f 252/2/4 253/2/4 254/2/4
f 254/2/4 253/2/4 255/2/4
f 256/4/4 257/4/4 258/4/4
f 258/4/4 257/4/4 259/4/4
f 260/1/4 261/1/4 264/1/4
f 264/1/4 261/1/4 265/1/4
f 262/1/4 263/1/4 266/1/4
f 266/1/4 263/1/4 267/1/4
f 268/4/4 269/4/4 270/4/4
f 270/4/4 269/4/4 271/4/4
f 272/4/4 273/4/4 274/4/4
f 274/4/4 273/4/4 275/4/4
f 276/1/4 277/1/4 278/1/4
f 278/1/4 277/1/4 279/1/4
f 278/2/4 279/2/4 280/2/4
f 280/2/4 279/2/4 281/2/4
f 280/1/4 281/1/4 284/1/4
f 284/1/4 281/1/4 285/1/4
f 282/1/4 283/1/4 286/1/4
f 286/1/4 283/1/4 287/1/4
f 288/1/4 289/1/4 292/1/4
f 292/1/4 289/1/4 293/1/4
f 290/1/4 291/1/4 294/1/4
f 294/1/4 291/1/4 295/1/4
f 292/2/4 293/2/4 296/2/4
f 296/2/4 293/2/4 297/2/4
f 294/2/4 295/2/4 298/2/4
f 294/2/4 298/2/4 299/2/4
f 299/2/4 298/2/4 300/2/4
f 296/4/4 297/4/4 301/4/4
f 301/4/4 297/4/4 302/4/4
f 296/4/4 301/4/4 303/4/4
f 303/4/4 301/4/4 304/4/4
f 305/1/4 306/1/4 309/1/4
f 309/1/4 306/1/4 310/1/4
f 307/1/4 308/1/4 311/1/4
f 311/1/4 308/1/4 312/1/4
f 309/2/4 310/2/4 313/2/4
f 313/2/4 310/2/4 314/2/4
f 314/2/4 310/2/4 315/2/4
f 315/2/4 310/2/4 316/2/4
f 316/2/4 310/2/4 317/2/4
f 317/2/4 310/2/4 318/2/4
f 318/2/4 310/2/4 319/2/4
f 319/2/4 310/2/4 320/2/4
f 311/2/4 312/2/4 321/2/4
f 321/2/4 312/2/4 322/2/4
f 314/3/4 315/3/4 323/3/4
f 315/2/4 316/2/4 324/2/4
f 323/3/4 315/3/4 324/3/4
f 316/3/4 317/3/4 325/3/4
f 324/2/4 316/2/4 325/2/4
f 317/2/4 318/2/4 326/2/4
f 325/3/4 317/3/4 326/3/4
f 321/3/4 322/3/4 327/3/4
f 327/3/4 322/3/4 328/3/4
f 326/2/4 318/2/4 329/2/4
f 318/1/4 319/1/4 330/1/4
f 329/2/4 318/2/4 330/2/4
f 319/4/4 320/4/4 331/4/4
f 330/1/4 319/1/4 331/1/4
f 331/4/4 320/4/4 332/4/4
f 333/1/4 334/1/4 335/1/4
f 335/1/4 334/1/4 336/1/4
f 335/2/4 336/2/4 337/2/4
f 337/2/4 336/2/4 338/2/4
f 337/3/4 338/3/4 339/3/4
f 339/3/4 338/3/4 340/3/4
f 341/1/4 342/1/4 343/1/4
f 343/1/4 342/1/4 344/1/4
f 343/2/4 344/2/4 345/2/4
f 345/2/4 344/2/4 346/2/4
f 345/3/4 346/3/4 347/3/4
f 347/3/4 346/3/4 348/3/4
f 353/2/5 351/2/5 350/2/5
f 353/1/5 352/1/5 351/1/5
f 354/1/5 352/1/5 353/1/5
f 355/1/5 350/1/5 349/1/5
f 356/2/5 353/2/5 350/2/5
f 356/1/5 350/1/5 355/1/5
f 357/2/5 353/2/5 356/2/5
f 360/1/5 359/1/5 358/1/5
f 361/1/5 359/1/5 360/1/5
f 364/2/5 363/2/5 362/2/5
f 365/2/5 363/2/5 364/2/5
f 368/2/5 367/2/5 366/2/5
f 370/2/5 368/2/5 366/2/5
f 370/2/5 369/2/5 368/2/5
f 371/2/5 369/2/5 370/2/5
f 374/2/5 373/2/5 372/2/5
f 375/2/5 373/2/5 374/2/5
f 378/1/5 377/1/5 376/1/5
f 379/1/5 377/1/5 378/1/5
f 380/3/5 379/3/5 378/3/5
f 381/3/5 379/3/5 380/3/5
f 384/2/5 383/2/5 382/2/5
f 386/2/5 384/2/5 382/2/5
f 386/2/5 385/2/5 384/2/5
f 387/2/5 385/2/5 386/2/5
f 388/2/5 385/2/5 387/2/5
f 389/2/5 385/2/5 388/2/5
f 390/1/5 389/1/5 388/1/5
f 391/1/5 389/1/5 390/1/5
f 394/2/5 393/2/5 392/2/5
f 395/2/5 393/2/5 394/2/5
f 398/1/5 397/1/5 396/1/5
f 399/1/5 397/1/5 398/1/5
f 400/1/5 397/1/5 399/1/5
f 401/1/5 397/1/5 400/1/5
f 404/2/5 403/2/5 402/2/5
f 405/2/5 403/2/5 404/2/5
f 406/1/5 405/1/5 404/1/5
f 407/1/5 405/1/5 406/1/5
f 410/1/5 409/1/5 408/1/5
f 411/1/5 409/1/5 410/1/5
f 412/2/5 411/2/5 410/2/5
f 413/2/5 411/2/5 412/2/5
f 418/1/5 415/1/5 414/1/5
f 419/2/5 417/2/5 416/2/5
f 419/1/5 415/1/5 418/1/5
f 419/2/5 416/2/5 415/2/5
f 420/2/5 417/2/5 419/2/5
f 425/1/5 422/1/5 421/1/5
f 426/2/5 423/2/5 422/2/5
f 426/1/5 422/1/5 425/1/5
f 427/3/5 424/3/5 423/3/5
f 427/2/5 423/2/5 426/2/5
f 428/3/5 424/3/5 427/3/5
f 433/1/5 430/1/5 429/1/5
f 434/2/5 431/2/5 430/2/5
f 434/1/5 430/1/5 433/1/5
f 435/3/5 432/3/5 431/3/5
f 435/2/5 431/2/5 434/2/5
f 436/3/5 432/3/5 435/3/5
f 441/1/5 438/1/5 437/1/5
f 442/2/5 439/2/5 438/2/5
f 442/1/5 438/1/5 441/1/5
f 443/3/5 440/3/5 439/3/5
f 443/2/5 439/2/5 442/2/5
f 444/3/5 440/3/5 443/3/5
f 445/1/6 446/1/6 447/1/6
f 447/1/6 446/1/6 448/1/6
f 449/1/6 450/1/6 451/1/6
f 451/1/6 450/1/6 452/1/6
f 453/1/6 454/1/6 457/1/6
f 454/2/6 455/2/6 458/2/6
f 457/1/6 454/1/6 458/1/6
f 455/4/6 456/4/6 459/4/6
f 458/2/6 455/2/6 459/2/6
f 459/4/6 456/4/6 460/4/6
f 461/4/6 462/4/6 463/4/6
f 463/4/6 462/4/6 464/4/6
f 464/4/6 462/4/6 465/4/6
f 465/4/6 462/4/6 466/4/6
f 466/4/6 462/4/6 467/4/6
f 468/4/6 469/4/6 470/4/6
f 470/4/6 469/4/6 471/4/6
f 472/4/6 473/4/6 474/4/6
f 472/4/6 474/4/6 476/4/6
f 474/4/6 475/4/6 476/4/6
f 476/4/6 475/4/6 477/4/6
f 477/4/6 475/4/6 478/4/6
f 478/4/6 475/4/6 479/4/6
f 479/4/6 475/4/6 480/4/6
f 481/4/6 482/4/6 484/4/6
f 484/4/6 482/4/6 485/4/6
f 483/4/6 484/4/6 485/4/6
f 485/4/6 482/4/6 486/4/6
f 483/4/6 485/4/6 490/4/6
f 487/1/6 488/1/6 491/1/6
f 488/2/6 489/2/6 492/2/6
f 491/1/6 488/1/6 492/1/6
f 489/4/6 490/4/6 493/4/6
f 492/2/6 489/2/6 493/2/6
f 490/4/6 485/4/6 494/4/6
f 493/4/6 490/4/6 494/4/6
f 495/4/6 496/4/6 497/4/6
f 495/4/6 497/4/6 499/4/6
f 497/4/6 498/4/6 499/4/6
f 499/4/6 498/4/6 500/4/6
f 495/4/6 499/4/6 501/4/6
f 501/4/6 499/4/6 502/4/6
f 503/1/6 504/1/6 507/1/6
f 504/2/6 505/2/6 508/2/6
f 507/1/6 504/1/6 508/1/6
f 505/3/6 506/3/6 509/3/6
f 508/2/6 505/2/6 509/2/6
f 509/3/6 506/3/6 510/3/6
f 511/1/6 512/1/6 515/1/6
f 512/2/6 513/2/6 516/2/6
f 515/1/6 512/1/6 516/1/6
f 513/3/6 514/3/6 517/3/6
f 516/2/6 513/2/6 517/2/6
f 517/3/6 514/3/6 518/3/6
