# MagicaVoxel @ ephtracy

# material
mtllib dw11.mtl
usemtl palette

# normals
vn -1 0 0
vn 1 0 0
vn 0 0 1
vn 0 0 -1
vn 0 -1 0
vn 0 1 0

# texcoords
vt 0.970703 0.5
vt 0.974609 0.5
vt 0.978516 0.5

# verts
v -25 0 3
v -25 0 -2
v -25 4 5
v -25 4 3
v -25 4 -2
v -25 4 -4
v -25 10 5
v -25 10 -4
v -25 10 -5
v -25 13 5
v -25 13 -5
v -23 2 4
v -23 2 3
v -23 2 -2
v -23 2 -3
v -23 4 4
v -23 4 3
v -23 4 -2
v -23 4 -3
v -21 5 5
v -21 5 4
v -21 5 -3
v -21 5 -4
v -21 6 5
v -21 6 4
v -21 6 -3
v -21 6 -4
v -15 4 5
v -15 4 4
v -15 4 -3
v -15 4 -4
v -15 5 5
v -15 5 4
v -15 5 -3
v -15 5 -4
v 5 9 -4
v 5 9 -5
v 5 10 -4
v 5 10 -5
v 6 6 -4
v 6 6 -5
v 6 8 -4
v 6 8 -5
v 6 9 -4
v 6 9 -5
v 7 5 -4
v 7 5 -5
v 7 6 -4
v 7 6 -5
v -22 4 5
v -22 4 4
v -22 4 -3
v -22 4 -4
v -22 6 5
v -22 6 4
v -22 6 -3
v -22 6 -4
v -14 2 4
v -14 2 3
v -14 2 -2
v -14 2 -3
v -14 3 4
v -14 3 3
v -14 3 -2
v -14 3 -3
v -9 3 4
v -9 3 3
v -9 3 -2
v -9 3 -3
v -9 4 5
v -9 4 4
v -9 4 3
v -9 4 -2
v -9 4 -3
v -9 5 5
v -9 5 4
v 5 5 5
v 5 5 4
v 5 8 5
v 5 8 4
v 6 8 5
v 6 8 4
v 6 9 5
v 6 9 4
v 6 10 5
v 6 10 4
v 22 4 4
v 22 4 3
v 22 4 -2
v 22 4 -4
v 22 5 4
v 22 5 3
v 22 5 -2
v 22 5 -4
v 25 0 3
v 25 0 -2
v 25 5 4
v 25 5 3
v 25 5 -2
v 25 5 -5
v 25 10 5
v 25 10 4
v 25 10 -5
v 25 13 5
v 25 13 -5
v -25 4 5
v -25 10 5
v -25 13 5
v -22 4 5
v -22 6 5
v -21 5 5
v -21 6 5
v -15 4 5
v -15 5 5
v -9 4 5
v -9 5 5
v 5 5 5
v 5 8 5
v 5 9 5
v 5 10 5
v 6 8 5
v 6 9 5
v 6 10 5
v 25 10 5
v 25 13 5
v -23 2 4
v -23 4 4
v -22 4 4
v -22 6 4
v -21 5 4
v -21 6 4
v -15 4 4
v -15 5 4
v -14 2 4
v -14 3 4
v -9 3 4
v -9 4 4
v -9 5 4
v 5 5 4
v 5 8 4
v 6 6 4
v 6 8 4
v 6 9 4
v 6 10 4
v 7 5 4
v 7 6 4
v 7 8 4
v 7 9 4
v 22 4 4
v 22 5 4
v 25 5 4
v 25 10 4
v -25 0 3
v -25 4 3
v -23 2 3
v -23 4 3
v -14 2 3
v -14 3 3
v -9 3 3
v -9 4 3
v 22 4 3
v 22 5 3
v 25 0 3
v 25 5 3
v -25 0 -2
v -25 4 -2
v -23 2 -2
v -23 4 -2
v -14 2 -2
v -14 3 -2
v -9 3 -2
v -9 4 -2
v 22 4 -2
v 22 5 -2
v 25 0 -2
v 25 5 -2
v -23 2 -3
v -23 4 -3
v -22 4 -3
v -22 6 -3
v -21 5 -3
v -21 6 -3
v -15 4 -3
v -15 5 -3
v -14 2 -3
v -14 3 -3
v -9 3 -3
v -9 4 -3
v -25 4 -4
v -25 10 -4
v -22 4 -4
v -22 6 -4
v -21 5 -4
v -21 6 -4
v -15 4 -4
v -15 5 -4
v -9 4 -4
v -9 5 -4
v 5 5 -4
v 5 8 -4
v 5 9 -4
v 5 10 -4
v 6 6 -4
v 6 8 -4
v 6 9 -4
v 7 5 -4
v 7 6 -4
v 22 4 -4
v 22 5 -4
v -25 10 -5
v -25 13 -5
v 5 9 -5
v 5 10 -5
v 6 6 -5
v 6 8 -5
v 6 9 -5
v 6 10 -5
v 7 5 -5
v 7 6 -5
v 7 8 -5
v 7 9 -5
v 25 5 -5
v 25 10 -5
v 25 13 -5
v -25 0 3
v 25 0 3
v -25 0 -2
v 25 0 -2
v -23 2 4
v -14 2 4
v -23 2 3
v -14 2 3
v -23 2 -2
v -14 2 -2
v -23 2 -3
v -14 2 -3
v -14 3 4
v -9 3 4
v -14 3 3
v -9 3 3
v -14 3 -2
v -9 3 -2
v -14 3 -3
v -9 3 -3
v -25 4 5
v -22 4 5
v -15 4 5
v -9 4 5
v -23 4 4
v -22 4 4
v -15 4 4
v -9 4 4
v 22 4 4
v -25 4 3
v -23 4 3
v -9 4 3
v 22 4 3
v -25 4 -2
v -23 4 -2
v -9 4 -2
v 22 4 -2
v -23 4 -3
v -22 4 -3
v -15 4 -3
v -9 4 -3
v -25 4 -4
v -22 4 -4
v -15 4 -4
v -9 4 -4
v 22 4 -4
v -21 5 5
v -15 5 5
v -9 5 5
v 5 5 5
v -21 5 4
v -15 5 4
v -9 5 4
v 5 5 4
v 22 5 4
v 25 5 4
v 22 5 3
v 25 5 3
v 22 5 -2
v 25 5 -2
v -21 5 -3
v -15 5 -3
v -21 5 -4
v -15 5 -4
v 7 5 -4
v 22 5 -4
v 7 5 -5
v 25 5 -5
v -22 6 5
v -21 6 5
v -22 6 4
v -21 6 4
v -22 6 -3
v -21 6 -3
v -22 6 -4
v -21 6 -4
v 6 6 -4
v 7 6 -4
v 6 6 -5
v 7 6 -5
v 5 8 5
v 6 8 5
v 5 8 4
v 6 8 4
v 5 9 -4
v 6 9 -4
v 5 9 -5
v 6 9 -5
v 6 10 5
v 25 10 5
v 6 10 4
v 25 10 4
v -25 10 -4
v 5 10 -4
v -25 10 -5
v 5 10 -5
v -25 13 5
v 25 13 5
v -25 13 -5
v 25 13 -5

# faces
f 4/1/1 2/1/1 1/1/1
f 5/1/1 2/1/1 4/1/1
f 7/1/1 4/1/1 3/1/1
f 7/1/1 6/1/1 5/1/1
f 7/1/1 5/1/1 4/1/1
f 8/1/1 6/1/1 7/1/1
f 10/2/1 8/2/1 7/2/1
f 10/2/1 9/2/1 8/2/1
f 11/2/1 9/2/1 10/2/1
f 16/3/1 13/3/1 12/3/1
f 17/3/1 13/3/1 16/3/1
f 18/3/1 15/3/1 14/3/1
f 19/3/1 15/3/1 18/3/1
f 24/1/1 21/1/1 20/1/1
f 25/1/1 21/1/1 24/1/1
f 26/1/1 23/1/1 22/1/1
f 27/1/1 23/1/1 26/1/1
f 32/1/1 29/1/1 28/1/1
f 33/1/1 29/1/1 32/1/1
f 34/1/1 31/1/1 30/1/1
f 35/1/1 31/1/1 34/1/1
f 38/3/1 37/3/1 36/3/1
f 39/3/1 37/3/1 38/3/1
f 42/1/1 41/1/1 40/1/1
f 43/1/1 41/1/1 42/1/1
f 44/3/1 43/3/1 42/3/1
f 45/3/1 43/3/1 44/3/1
f 48/1/1 47/1/1 46/1/1
f 49/1/1 47/1/1 48/1/1
f 50/1/2 51/1/2 54/1/2
f 54/1/2 51/1/2 55/1/2
f 52/1/2 53/1/2 56/1/2
f 56/1/2 53/1/2 57/1/2
f 58/3/2 59/3/2 62/3/2
f 62/3/2 59/3/2 63/3/2
f 60/3/2 61/3/2 64/3/2
f 64/3/2 61/3/2 65/3/2
f 66/3/2 67/3/2 71/3/2
f 71/3/2 67/3/2 72/3/2
f 68/3/2 69/3/2 73/3/2
f 73/3/2 69/3/2 74/3/2
f 70/1/2 71/1/2 75/1/2
f 75/1/2 71/1/2 76/1/2
f 77/1/2 78/1/2 79/1/2
f 79/1/2 78/1/2 80/1/2
f 81/1/2 82/1/2 83/1/2
f 83/1/2 82/1/2 84/1/2
f 83/3/2 84/3/2 85/3/2
f 85/3/2 84/3/2 86/3/2
f 87/3/2 88/3/2 91/3/2
f 91/3/2 88/3/2 92/3/2
f 89/3/2 90/3/2 93/3/2
f 93/3/2 90/3/2 94/3/2
f 95/1/2 96/1/2 98/1/2
f 98/1/2 96/1/2 99/1/2
f 97/1/2 98/1/2 102/1/2
f 99/1/2 100/1/2 102/1/2
f 98/1/2 99/1/2 102/1/2
f 102/1/2 100/1/2 103/1/2
f 101/2/2 102/2/2 104/2/2
f 102/2/2 103/2/2 104/2/2
f 104/2/2 103/2/2 105/2/2
f 109/1/3 107/1/3 106/1/3
f 110/1/3 107/1/3 109/1/3
f 112/1/3 107/1/3 110/1/3
f 114/1/3 112/1/3 111/1/3
f 115/1/3 114/1/3 113/1/3
f 116/1/3 112/1/3 114/1/3
f 116/1/3 114/1/3 115/1/3
f 117/1/3 112/1/3 116/1/3
f 118/1/3 107/1/3 112/1/3
f 118/1/3 112/1/3 117/1/3
f 119/1/3 107/1/3 118/1/3
f 120/2/3 108/2/3 107/2/3
f 120/1/3 107/1/3 119/1/3
f 121/1/3 119/1/3 118/1/3
f 122/3/3 120/3/3 119/3/3
f 122/1/3 119/1/3 121/1/3
f 123/2/3 108/2/3 120/2/3
f 123/3/3 120/3/3 122/3/3
f 124/2/3 108/2/3 123/2/3
f 125/2/3 108/2/3 124/2/3
f 128/3/3 127/3/3 126/3/3
f 130/3/3 129/3/3 128/3/3
f 131/3/3 129/3/3 130/3/3
f 132/3/3 128/3/3 126/3/3
f 132/3/3 130/3/3 128/3/3
f 133/3/3 130/3/3 132/3/3
f 134/3/3 132/3/3 126/3/3
f 135/3/3 132/3/3 134/3/3
f 136/3/3 132/3/3 135/3/3
f 137/3/3 132/3/3 136/3/3
f 139/3/3 138/3/3 137/3/3
f 141/3/3 140/3/3 139/3/3
f 142/3/3 140/3/3 141/3/3
f 145/3/3 139/3/3 137/3/3
f 145/3/3 141/3/3 139/3/3
f 146/1/3 142/1/3 141/1/3
f 146/3/3 141/3/3 145/3/3
f 147/3/3 143/3/3 142/3/3
f 147/1/3 142/1/3 146/1/3
f 148/1/3 144/1/3 143/1/3
f 148/3/3 143/3/3 147/3/3
f 149/3/3 145/3/3 137/3/3
f 150/1/3 147/1/3 146/1/3
f 150/3/3 145/3/3 149/3/3
f 150/1/3 146/1/3 145/1/3
f 150/1/3 148/1/3 147/1/3
f 151/1/3 148/1/3 150/1/3
f 152/1/3 144/1/3 148/1/3
f 152/1/3 148/1/3 151/1/3
f 155/1/3 154/1/3 153/1/3
f 156/1/3 154/1/3 155/1/3
f 157/1/3 155/1/3 153/1/3
f 159/1/3 158/1/3 157/1/3
f 161/1/3 160/1/3 159/1/3
f 163/1/3 161/1/3 159/1/3
f 163/1/3 162/1/3 161/1/3
f 163/1/3 159/1/3 157/1/3
f 163/1/3 157/1/3 153/1/3
f 164/1/3 162/1/3 163/1/3
f 165/1/4 166/1/4 167/1/4
f 167/1/4 166/1/4 168/1/4
f 165/1/4 167/1/4 169/1/4
f 169/1/4 170/1/4 171/1/4
f 171/1/4 172/1/4 173/1/4
f 171/1/4 173/1/4 175/1/4
f 173/1/4 174/1/4 175/1/4
f 169/1/4 171/1/4 175/1/4
f 165/1/4 169/1/4 175/1/4
f 175/1/4 174/1/4 176/1/4
f 177/3/4 178/3/4 179/3/4
f 179/3/4 180/3/4 181/3/4
f 181/3/4 180/3/4 182/3/4
f 177/3/4 179/3/4 183/3/4
f 179/3/4 181/3/4 183/3/4
f 183/3/4 181/3/4 184/3/4
f 177/3/4 183/3/4 185/3/4
f 185/3/4 183/3/4 186/3/4
f 186/3/4 183/3/4 187/3/4
f 187/3/4 183/3/4 188/3/4
f 189/1/4 190/1/4 191/1/4
f 191/1/4 190/1/4 192/1/4
f 192/1/4 190/1/4 194/1/4
f 193/1/4 194/1/4 196/1/4
f 195/1/4 196/1/4 197/1/4
f 196/1/4 194/1/4 198/1/4
f 197/1/4 196/1/4 198/1/4
f 197/3/4 198/3/4 199/3/4
f 198/1/4 194/1/4 199/1/4
f 194/1/4 190/1/4 200/1/4
f 199/1/4 194/1/4 200/1/4
f 200/1/4 190/1/4 201/1/4
f 201/1/4 190/1/4 202/1/4
f 199/3/4 200/3/4 203/3/4
f 200/1/4 201/1/4 204/1/4
f 203/3/4 200/3/4 204/3/4
f 204/1/4 201/1/4 205/1/4
f 197/3/4 199/3/4 206/3/4
f 199/3/4 203/3/4 206/3/4
f 206/3/4 203/3/4 207/3/4
f 197/3/4 206/3/4 208/3/4
f 208/3/4 206/3/4 209/3/4
f 210/2/4 211/2/4 213/2/4
f 212/3/4 213/3/4 216/3/4
f 213/2/4 211/2/4 217/2/4
f 216/3/4 213/3/4 217/3/4
f 214/1/4 215/1/4 219/1/4
f 215/3/4 216/3/4 220/3/4
f 219/1/4 215/1/4 220/1/4
f 216/1/4 217/1/4 221/1/4
f 220/3/4 216/3/4 221/3/4
f 218/1/4 219/1/4 222/1/4
f 219/1/4 220/1/4 222/1/4
f 220/1/4 221/1/4 222/1/4
f 221/1/4 217/1/4 223/1/4
f 222/1/4 221/1/4 223/1/4
f 217/2/4 211/2/4 223/2/4
f 223/2/4 211/2/4 224/2/4
f 227/1/5 226/1/5 225/1/5
f 228/1/5 226/1/5 227/1/5
f 231/3/5 230/3/5 229/3/5
f 232/3/5 230/3/5 231/3/5
f 235/3/5 234/3/5 233/3/5
f 236/3/5 234/3/5 235/3/5
f 239/3/5 238/3/5 237/3/5
f 240/3/5 238/3/5 239/3/5
f 243/3/5 242/3/5 241/3/5
f 244/3/5 242/3/5 243/3/5
f 249/1/5 246/1/5 245/1/5
f 250/1/5 246/1/5 249/1/5
f 251/1/5 248/1/5 247/1/5
f 252/1/5 248/1/5 251/1/5
f 254/1/5 249/1/5 245/1/5
f 255/1/5 249/1/5 254/1/5
f 256/3/5 253/3/5 252/3/5
f 257/3/5 253/3/5 256/3/5
f 262/1/5 259/1/5 258/1/5
f 265/3/5 261/3/5 260/3/5
f 266/1/5 263/1/5 262/1/5
f 266/1/5 262/1/5 258/1/5
f 267/1/5 263/1/5 266/1/5
f 268/1/5 265/1/5 264/1/5
f 269/3/5 261/3/5 265/3/5
f 269/1/5 265/1/5 268/1/5
f 270/3/5 261/3/5 269/3/5
f 275/1/5 272/1/5 271/1/5
f 276/1/5 272/1/5 275/1/5
f 277/1/5 274/1/5 273/1/5
f 278/1/5 274/1/5 277/1/5
f 281/1/5 280/1/5 279/1/5
f 282/1/5 280/1/5 281/1/5
f 287/1/5 286/1/5 285/1/5
f 288/1/5 286/1/5 287/1/5
f 290/1/5 284/1/5 283/1/5
f 291/1/5 290/1/5 289/1/5
f 292/1/5 284/1/5 290/1/5
f 292/1/5 290/1/5 291/1/5
f 295/1/5 294/1/5 293/1/5
f 296/1/5 294/1/5 295/1/5
f 299/1/5 298/1/5 297/1/5
f 300/1/5 298/1/5 299/1/5
f 303/1/5 302/1/5 301/1/5
f 304/1/5 302/1/5 303/1/5
f 307/1/5 306/1/5 305/1/5
f 308/1/5 306/1/5 307/1/5
f 311/3/5 310/3/5 309/3/5
f 312/3/5 310/3/5 311/3/5
f 315/2/5 314/2/5 313/2/5
f 316/2/5 314/2/5 315/2/5
f 319/2/5 318/2/5 317/2/5
f 320/2/5 318/2/5 319/2/5
f 321/2/6 322/2/6 323/2/6
f 323/2/6 322/2/6 324/2/6
