# MagicaVoxel @ ephtracy

# material
mtllib hengxiangtashenzhuzi2.mtl
usemtl palette

# normals
vn -1 0 0
vn 1 0 0
vn 0 0 1
vn 0 0 -1
vn 0 -1 0
vn 0 1 0

# texcoords
vt 0.939453 0.5

# verts
v -63 0 63
v -63 0 47
v -63 16 63
v -63 16 47
v 36 16 63
v 36 16 47
v 36 66 63
v 36 66 47
v 52 0 63
v 52 0 47
v 52 66 63
v 52 66 47
v -63 0 63
v -63 16 63
v 36 16 63
v 36 66 63
v 52 0 63
v 52 66 63
v -63 0 47
v -63 16 47
v 36 16 47
v 36 66 47
v 52 0 47
v 52 66 47
v -63 0 63
v 52 0 63
v -63 0 47
v 52 0 47
v -63 16 63
v 36 16 63
v -63 16 47
v 36 16 47
v 36 66 63
v 52 66 63
v 36 66 47
v 52 66 47

# faces
f 3/1/1 2/1/1 1/1/1
f 4/1/1 2/1/1 3/1/1
f 7/1/1 6/1/1 5/1/1
f 8/1/1 6/1/1 7/1/1
f 9/1/2 10/1/2 11/1/2
f 11/1/2 10/1/2 12/1/2
f 15/1/3 14/1/3 13/1/3
f 17/1/3 15/1/3 13/1/3
f 17/1/3 16/1/3 15/1/3
f 18/1/3 16/1/3 17/1/3
f 19/1/4 20/1/4 21/1/4
f 19/1/4 21/1/4 23/1/4
f 21/1/4 22/1/4 23/1/4
f 23/1/4 22/1/4 24/1/4
f 27/1/5 26/1/5 25/1/5
f 28/1/5 26/1/5 27/1/5
f 29/1/6 30/1/6 31/1/6
f 31/1/6 30/1/6 32/1/6
f 33/1/6 34/1/6 35/1/6
f 35/1/6 34/1/6 36/1/6
