# MagicaVoxel @ ephtracy

# material
mtllib tazhu.mtl
usemtl palette

# normals
vn -1 0 0
vn 1 0 0
vn 0 0 1
vn 0 0 -1
vn 0 -1 0
vn 0 1 0

# texcoords
vt 0.919922 0.5
vt 0.951172 0.5
vt 0.970703 0.5
vt 0.974609 0.5
vt 0.982422 0.5

# verts
v -2 1 60
v -2 1 52
v -2 2 58
v -2 2 54
v -2 3 58
v -2 3 54
v -2 18 58
v -2 18 57
v -2 18 55
v -2 18 54
v -2 19 60
v -2 19 57
v -2 19 55
v -2 19 52
v -2 20 60
v -2 20 52
v -2 23 59
v -2 23 53
v -2 28 57
v -2 28 55
v -2 29 59
v -2 29 57
v -2 29 55
v -2 29 53
v -2 30 59
v -2 30 53
v -1 0 60
v -1 0 52
v -1 1 61
v -1 1 60
v -1 1 52
v -1 1 51
v -1 3 58
v -1 3 57
v -1 3 55
v -1 3 54
v -1 17 57
v -1 17 55
v -1 18 58
v -1 18 57
v -1 18 55
v -1 18 54
v -1 19 61
v -1 19 60
v -1 19 52
v -1 19 51
v -1 20 61
v -1 20 60
v -1 20 52
v -1 20 51
v -1 22 59
v -1 22 53
v -1 23 59
v -1 23 53
v -1 29 60
v -1 29 59
v -1 29 53
v -1 29 52
v -1 30 60
v -1 30 59
v -1 30 53
v -1 30 52
v 0 23 61
v 0 23 60
v 0 23 52
v 0 23 51
v 0 29 61
v 0 29 60
v 0 29 52
v 0 29 51
v 0 30 61
v 0 30 60
v 0 30 52
v 0 30 51
v 5 3 61
v 5 3 60
v 5 3 52
v 5 3 51
v 5 18 61
v 5 18 60
v 5 18 52
v 5 18 51
v 1 3 61
v 1 3 60
v 1 3 52
v 1 3 51
v 1 18 61
v 1 18 60
v 1 18 52
v 1 18 51
v 6 23 61
v 6 23 60
v 6 23 52
v 6 23 51
v 6 29 61
v 6 29 60
v 6 29 52
v 6 29 51
v 6 30 61
v 6 30 60
v 6 30 52
v 6 30 51
v 7 0 60
v 7 0 52
v 7 1 61
v 7 1 60
v 7 1 52
v 7 1 51
v 7 3 58
v 7 3 57
v 7 3 55
v 7 3 54
v 7 17 57
v 7 17 55
v 7 18 58
v 7 18 57
v 7 18 55
v 7 18 54
v 7 19 61
v 7 19 60
v 7 19 52
v 7 19 51
v 7 20 61
v 7 20 60
v 7 20 52
v 7 20 51
v 7 22 59
v 7 22 53
v 7 23 59
v 7 23 53
v 7 29 60
v 7 29 59
v 7 29 53
v 7 29 52
v 7 30 60
v 7 30 59
v 7 30 53
v 7 30 52
v 8 1 60
v 8 1 52
v 8 2 58
v 8 2 54
v 8 3 58
v 8 3 54
v 8 18 58
v 8 18 57
v 8 18 55
v 8 18 54
v 8 19 60
v 8 19 57
v 8 19 55
v 8 19 52
v 8 20 60
v 8 20 52
v 8 23 59
v 8 23 53
v 8 28 57
v 8 28 55
v 8 29 59
v 8 29 57
v 8 29 55
v 8 29 53
v 8 30 59
v 8 30 53
v -1 1 61
v -1 19 61
v -1 20 61
v 0 23 61
v 0 29 61
v 0 30 61
v 1 2 61
v 1 3 61
v 1 18 61
v 1 28 61
v 1 29 61
v 2 1 61
v 2 2 61
v 2 18 61
v 2 19 61
v 2 28 61
v 2 29 61
v 3 1 61
v 3 2 61
v 3 18 61
v 3 19 61
v 3 27 61
v 3 29 61
v 4 27 61
v 4 28 61
v 5 2 61
v 5 3 61
v 5 18 61
v 5 28 61
v 5 29 61
v 6 23 61
v 6 29 61
v 6 30 61
v 7 1 61
v 7 19 61
v 7 20 61
v -2 1 60
v -2 19 60
v -2 20 60
v -1 0 60
v -1 1 60
v -1 19 60
v -1 20 60
v -1 29 60
v -1 30 60
v 0 22 60
v 0 23 60
v 0 29 60
v 0 30 60
v 1 3 60
v 1 18 60
v 2 1 60
v 2 3 60
v 2 17 60
v 2 18 60
v 3 1 60
v 3 18 60
v 4 3 60
v 4 17 60
v 5 3 60
v 5 18 60
v 6 22 60
v 6 23 60
v 6 29 60
v 6 30 60
v 7 0 60
v 7 1 60
v 7 19 60
v 7 20 60
v 7 29 60
v 7 30 60
v 8 1 60
v 8 19 60
v 8 20 60
v -2 23 59
v -2 29 59
v -2 30 59
v -1 23 59
v -1 29 59
v -1 30 59
v 7 23 59
v 7 29 59
v 7 30 59
v 8 23 59
v 8 29 59
v 8 30 59
v -2 3 54
v -2 18 54
v -1 3 54
v -1 18 54
v 7 3 54
v 7 18 54
v 8 3 54
v 8 18 54
v -2 3 58
v -2 18 58
v -1 3 58
v -1 18 58
v 7 3 58
v 7 18 58
v 8 3 58
v 8 18 58
v -2 23 53
v -2 29 53
v -2 30 53
v -1 23 53
v -1 29 53
v -1 30 53
v 7 23 53
v 7 29 53
v 7 30 53
v 8 23 53
v 8 29 53
v 8 30 53
v -2 1 52
v -2 19 52
v -2 20 52
v -1 0 52
v -1 1 52
v -1 19 52
v -1 20 52
v -1 29 52
v -1 30 52
v 0 22 52
v 0 23 52
v 0 29 52
v 0 30 52
v 1 3 52
v 1 18 52
v 2 3 52
v 2 17 52
v 2 18 52
v 3 18 52
v 4 3 52
v 4 17 52
v 5 3 52
v 5 18 52
v 6 22 52
v 6 23 52
v 6 29 52
v 6 30 52
v 7 0 52
v 7 1 52
v 7 19 52
v 7 20 52
v 7 29 52
v 7 30 52
v 8 1 52
v 8 19 52
v 8 20 52
v -1 1 51
v -1 19 51
v -1 20 51
v 0 23 51
v 0 29 51
v 0 30 51
v 1 2 51
v 1 3 51
v 1 18 51
v 1 28 51
v 1 29 51
v 2 18 51
v 2 19 51
v 2 28 51
v 2 29 51
v 3 18 51
v 3 19 51
v 3 28 51
v 3 29 51
v 4 27 51
v 4 28 51
v 5 2 51
v 5 3 51
v 5 18 51
v 5 27 51
v 5 29 51
v 6 23 51
v 6 29 51
v 6 30 51
v 7 1 51
v 7 19 51
v 7 20 51
v -1 0 60
v 7 0 60
v 0 0 59
v 6 0 59
v 0 0 53
v 6 0 53
v -1 0 52
v 7 0 52
v -1 1 61
v 2 1 61
v 3 1 61
v 7 1 61
v -2 1 60
v -1 1 60
v 2 1 60
v 3 1 60
v 7 1 60
v 8 1 60
v -2 1 52
v -1 1 52
v 7 1 52
v 8 1 52
v -1 1 51
v 7 1 51
v 1 18 61
v 2 18 61
v 3 18 61
v 5 18 61
v 1 18 60
v 2 18 60
v 3 18 60
v 5 18 60
v -2 18 58
v -1 18 58
v 7 18 58
v 8 18 58
v -2 18 57
v -1 18 57
v 7 18 57
v 8 18 57
v -2 18 55
v -1 18 55
v 7 18 55
v 8 18 55
v -2 18 54
v -1 18 54
v 7 18 54
v 8 18 54
v 1 18 52
v 2 18 52
v 3 18 52
v 5 18 52
v 1 18 51
v 2 18 51
v 3 18 51
v 5 18 51
v 0 23 61
v 6 23 61
v 0 23 60
v 6 23 60
v -2 23 59
v -1 23 59
v 7 23 59
v 8 23 59
v -2 23 53
v -1 23 53
v 7 23 53
v 8 23 53
v 0 23 52
v 6 23 52
v 0 23 51
v 6 23 51
v 1 3 61
v 5 3 61
v 1 3 60
v 2 3 60
v 4 3 60
v 5 3 60
v -2 3 58
v -1 3 58
v 7 3 58
v 8 3 58
v -1 3 57
v 7 3 57
v -1 3 55
v 7 3 55
v -2 3 54
v -1 3 54
v 7 3 54
v 8 3 54
v 1 3 52
v 2 3 52
v 4 3 52
v 5 3 52
v 1 3 51
v 5 3 51
v -1 20 61
v 7 20 61
v -2 20 60
v -1 20 60
v 7 20 60
v 8 20 60
v -2 20 52
v -1 20 52
v 7 20 52
v 8 20 52
v -1 20 51
v 7 20 51
v 0 30 61
v 6 30 61
v -1 30 60
v 0 30 60
v 6 30 60
v 7 30 60
v -2 30 59
v -1 30 59
v 7 30 59
v 8 30 59
v -2 30 53
v -1 30 53
v 7 30 53
v 8 30 53
v -1 30 52
v 0 30 52
v 6 30 52
v 7 30 52
v 0 30 51
v 6 30 51

# faces
f 3/5/1 2/5/1 1/5/1
f 4/5/1 2/5/1 3/5/1
f 5/5/1 3/5/1 1/5/1
f 5/1/1 4/1/1 3/1/1
f 6/5/1 2/5/1 4/5/1
f 6/1/1 4/1/1 5/1/1
f 7/5/1 5/5/1 1/5/1
f 10/5/1 2/5/1 6/5/1
f 11/5/1 7/5/1 1/5/1
f 11/5/1 8/5/1 7/5/1
f 12/1/1 9/1/1 8/1/1
f 12/5/1 8/5/1 11/5/1
f 13/5/1 10/5/1 9/5/1
f 13/1/1 9/1/1 12/1/1
f 14/5/1 2/5/1 10/5/1
f 14/5/1 10/5/1 13/5/1
f 15/1/1 12/1/1 11/1/1
f 15/1/1 13/1/1 12/1/1
f 15/1/1 14/1/1 13/1/1
f 16/1/1 14/1/1 15/1/1
f 19/5/1 18/5/1 17/5/1
f 20/5/1 18/5/1 19/5/1
f 21/5/1 19/5/1 17/5/1
f 22/1/1 20/1/1 19/1/1
f 22/5/1 19/5/1 21/5/1
f 23/5/1 18/5/1 20/5/1
f 23/1/1 20/1/1 22/1/1
f 24/5/1 18/5/1 23/5/1
f 25/1/1 22/1/1 21/1/1
f 25/1/1 23/1/1 22/1/1
f 25/1/1 24/1/1 23/1/1
f 26/1/1 24/1/1 25/1/1
f 30/2/1 28/2/1 27/2/1
f 31/2/1 28/2/1 30/2/1
f 37/3/1 34/3/1 33/3/1
f 37/4/1 35/4/1 34/4/1
f 38/3/1 36/3/1 35/3/1
f 38/4/1 35/4/1 37/4/1
f 39/3/1 37/3/1 33/3/1
f 39/3/1 38/3/1 37/3/1
f 40/3/1 38/3/1 39/3/1
f 41/3/1 36/3/1 38/3/1
f 41/3/1 38/3/1 40/3/1
f 42/3/1 36/3/1 41/3/1
f 43/5/1 30/5/1 29/5/1
f 44/5/1 30/5/1 43/5/1
f 45/5/1 32/5/1 31/5/1
f 46/5/1 32/5/1 45/5/1
f 47/1/1 44/1/1 43/1/1
f 48/1/1 44/1/1 47/1/1
f 49/1/1 46/1/1 45/1/1
f 50/1/1 46/1/1 49/1/1
f 51/5/1 49/5/1 48/5/1
f 52/5/1 49/5/1 51/5/1
f 53/5/1 51/5/1 48/5/1
f 53/2/1 52/2/1 51/2/1
f 54/5/1 49/5/1 52/5/1
f 54/2/1 52/2/1 53/2/1
f 55/5/1 53/5/1 48/5/1
f 56/5/1 53/5/1 55/5/1
f 57/5/1 49/5/1 54/5/1
f 58/5/1 49/5/1 57/5/1
f 59/1/1 56/1/1 55/1/1
f 60/1/1 56/1/1 59/1/1
f 61/1/1 58/1/1 57/1/1
f 62/1/1 58/1/1 61/1/1
f 67/5/1 64/5/1 63/5/1
f 68/5/1 64/5/1 67/5/1
f 69/5/1 66/5/1 65/5/1
f 70/5/1 66/5/1 69/5/1
f 71/1/1 68/1/1 67/1/1
f 72/1/1 68/1/1 71/1/1
f 73/1/1 70/1/1 69/1/1
f 74/1/1 70/1/1 73/1/1
f 79/5/1 76/5/1 75/5/1
f 80/5/1 76/5/1 79/5/1
f 81/5/1 78/5/1 77/5/1
f 82/5/1 78/5/1 81/5/1
f 83/5/2 84/5/2 87/5/2
f 87/5/2 84/5/2 88/5/2
f 85/5/2 86/5/2 89/5/2
f 89/5/2 86/5/2 90/5/2
f 91/5/2 92/5/2 95/5/2
f 95/5/2 92/5/2 96/5/2
f 93/5/2 94/5/2 97/5/2
f 97/5/2 94/5/2 98/5/2
f 95/1/2 96/1/2 99/1/2
f 99/1/2 96/1/2 100/1/2
f 97/1/2 98/1/2 101/1/2
f 101/1/2 98/1/2 102/1/2
f 103/2/2 104/2/2 106/2/2
f 106/2/2 104/2/2 107/2/2
f 109/3/2 110/3/2 113/3/2
f 110/4/2 111/4/2 113/4/2
f 111/3/2 112/3/2 114/3/2
f 113/4/2 111/4/2 114/4/2
f 109/3/2 113/3/2 115/3/2
f 113/3/2 114/3/2 115/3/2
f 115/3/2 114/3/2 116/3/2
f 114/3/2 112/3/2 117/3/2
f 116/3/2 114/3/2 117/3/2
f 117/3/2 112/3/2 118/3/2
f 105/5/2 106/5/2 119/5/2
f 119/5/2 106/5/2 120/5/2
f 107/5/2 108/5/2 121/5/2
f 121/5/2 108/5/2 122/5/2
f 119/1/2 120/1/2 123/1/2
f 123/1/2 120/1/2 124/1/2
f 121/1/2 122/1/2 125/1/2
f 125/1/2 122/1/2 126/1/2
f 124/5/2 125/5/2 127/5/2
f 127/5/2 125/5/2 128/5/2
f 124/5/2 127/5/2 129/5/2
f 127/2/2 128/2/2 129/2/2
f 128/5/2 125/5/2 130/5/2
f 129/2/2 128/2/2 130/2/2
f 124/5/2 129/5/2 131/5/2
f 131/5/2 129/5/2 132/5/2
f 130/5/2 125/5/2 133/5/2
f 133/5/2 125/5/2 134/5/2
f 131/1/2 132/1/2 135/1/2
f 135/1/2 132/1/2 136/1/2
f 133/1/2 134/1/2 137/1/2
f 137/1/2 134/1/2 138/1/2
f 139/5/2 140/5/2 141/5/2
f 141/5/2 140/5/2 142/5/2
f 139/5/2 141/5/2 143/5/2
f 141/1/2 142/1/2 143/1/2
f 142/5/2 140/5/2 144/5/2
f 143/1/2 142/1/2 144/1/2
f 139/5/2 143/5/2 145/5/2
f 144/5/2 140/5/2 148/5/2
f 139/5/2 145/5/2 149/5/2
f 145/5/2 146/5/2 149/5/2
f 146/1/2 147/1/2 150/1/2
f 149/5/2 146/5/2 150/5/2
f 147/5/2 148/5/2 151/5/2
f 150/1/2 147/1/2 151/1/2
f 148/5/2 140/5/2 152/5/2
f 151/5/2 148/5/2 152/5/2
f 149/1/2 150/1/2 153/1/2
f 150/1/2 151/1/2 153/1/2
f 151/1/2 152/1/2 153/1/2
f 153/1/2 152/1/2 154/1/2
f 155/5/2 156/5/2 157/5/2
f 157/5/2 156/5/2 158/5/2
f 155/5/2 157/5/2 159/5/2
f 157/1/2 158/1/2 160/1/2
f 159/5/2 157/5/2 160/5/2
f 158/5/2 156/5/2 161/5/2
f 160/1/2 158/1/2 161/1/2
f 161/5/2 156/5/2 162/5/2
f 159/1/2 160/1/2 163/1/2
f 160/1/2 161/1/2 163/1/2
f 161/1/2 162/1/2 163/1/2
f 163/1/2 162/1/2 164/1/2
f 171/5/3 166/5/3 165/5/3
f 172/5/3 166/5/3 171/5/3
f 173/5/3 166/5/3 172/5/3
f 174/5/3 169/5/3 168/5/3
f 175/1/3 170/1/3 169/1/3
f 175/5/3 169/5/3 174/5/3
f 176/5/3 171/5/3 165/5/3
f 177/1/3 172/1/3 171/1/3
f 177/5/3 171/5/3 176/5/3
f 178/5/3 166/5/3 173/5/3
f 179/1/3 167/1/3 166/1/3
f 179/5/3 166/5/3 178/5/3
f 180/5/3 174/5/3 168/5/3
f 180/1/3 175/1/3 174/1/3
f 181/1/3 170/1/3 175/1/3
f 181/1/3 175/1/3 180/1/3
f 182/1/3 177/1/3 176/1/3
f 183/1/3 172/1/3 177/1/3
f 183/1/3 177/1/3 182/1/3
f 184/1/3 179/1/3 178/1/3
f 185/1/3 167/1/3 179/1/3
f 185/1/3 179/1/3 184/1/3
f 186/5/3 180/5/3 168/5/3
f 186/5/3 181/5/3 180/5/3
f 187/1/3 170/1/3 181/1/3
f 187/5/3 181/5/3 186/5/3
f 188/5/3 186/5/3 168/5/3
f 188/1/3 187/1/3 186/1/3
f 189/1/3 187/1/3 188/1/3
f 190/1/3 172/1/3 183/1/3
f 190/5/3 183/5/3 182/5/3
f 191/1/3 172/1/3 190/1/3
f 192/5/3 185/5/3 184/5/3
f 193/1/3 187/1/3 189/1/3
f 193/5/3 189/5/3 188/5/3
f 194/1/3 170/1/3 187/1/3
f 194/1/3 187/1/3 193/1/3
f 195/5/3 193/5/3 188/5/3
f 195/5/3 188/5/3 168/5/3
f 195/5/3 194/5/3 193/5/3
f 196/1/3 170/1/3 194/1/3
f 196/5/3 194/5/3 195/5/3
f 197/1/3 170/1/3 196/1/3
f 198/5/3 192/5/3 191/5/3
f 198/5/3 191/5/3 190/5/3
f 198/5/3 190/5/3 182/5/3
f 199/1/3 167/1/3 185/1/3
f 199/5/3 192/5/3 198/5/3
f 199/5/3 185/5/3 192/5/3
f 200/1/3 167/1/3 199/1/3
f 205/5/3 202/5/3 201/5/3
f 206/1/3 203/1/3 202/1/3
f 206/5/3 202/5/3 205/5/3
f 207/1/3 203/1/3 206/1/3
f 210/5/3 208/5/3 207/5/3
f 211/5/3 208/5/3 210/5/3
f 212/1/3 209/1/3 208/1/3
f 212/5/3 208/5/3 211/5/3
f 213/1/3 209/1/3 212/1/3
f 216/2/3 205/2/3 204/2/3
f 217/3/3 215/3/3 214/3/3
f 218/3/3 215/3/3 217/3/3
f 219/3/3 215/3/3 218/3/3
f 220/2/3 216/2/3 204/2/3
f 221/3/3 219/3/3 218/3/3
f 222/4/3 218/4/3 217/4/3
f 223/3/3 221/3/3 218/3/3
f 223/4/3 218/4/3 222/4/3
f 224/3/3 223/3/3 222/3/3
f 225/3/3 221/3/3 223/3/3
f 225/3/3 223/3/3 224/3/3
f 226/2/3 211/2/3 210/2/3
f 226/5/3 210/5/3 207/5/3
f 227/2/3 211/2/3 226/2/3
f 230/2/3 220/2/3 204/2/3
f 231/2/3 220/2/3 230/2/3
f 233/5/3 226/5/3 207/5/3
f 233/5/3 227/5/3 226/5/3
f 233/5/3 228/5/3 227/5/3
f 234/1/3 229/1/3 228/1/3
f 234/5/3 228/5/3 233/5/3
f 235/1/3 229/1/3 234/1/3
f 236/5/3 232/5/3 231/5/3
f 237/1/3 233/1/3 232/1/3
f 237/5/3 232/5/3 236/5/3
f 238/1/3 233/1/3 237/1/3
f 242/5/3 240/5/3 239/5/3
f 243/1/3 241/1/3 240/1/3
f 243/5/3 240/5/3 242/5/3
f 244/1/3 241/1/3 243/1/3
f 248/5/3 246/5/3 245/5/3
f 249/1/3 247/1/3 246/1/3
f 249/5/3 246/5/3 248/5/3
f 250/1/3 247/1/3 249/1/3
f 253/5/3 252/5/3 251/5/3
f 254/5/3 252/5/3 253/5/3
f 257/5/3 256/5/3 255/5/3
f 258/5/3 256/5/3 257/5/3
f 259/5/4 260/5/4 261/5/4
f 261/5/4 260/5/4 262/5/4
f 263/5/4 264/5/4 265/5/4
f 265/5/4 264/5/4 266/5/4
f 267/5/4 268/5/4 270/5/4
f 268/1/4 269/1/4 271/1/4
f 270/5/4 268/5/4 271/5/4
f 271/1/4 269/1/4 272/1/4
f 273/5/4 274/5/4 276/5/4
f 274/1/4 275/1/4 277/1/4
f 276/5/4 274/5/4 277/5/4
f 277/1/4 275/1/4 278/1/4
f 279/5/4 280/5/4 283/5/4
f 280/1/4 281/1/4 284/1/4
f 283/5/4 280/5/4 284/5/4
f 284/1/4 281/1/4 285/1/4
f 285/5/4 286/5/4 288/5/4
f 288/5/4 286/5/4 289/5/4
f 286/1/4 287/1/4 290/1/4
f 289/5/4 286/5/4 290/5/4
f 290/1/4 287/1/4 291/1/4
f 292/3/4 293/3/4 294/3/4
f 294/3/4 293/3/4 295/3/4
f 295/3/4 293/3/4 296/3/4
f 295/3/4 296/3/4 297/3/4
f 294/4/4 295/4/4 298/4/4
f 295/3/4 297/3/4 299/3/4
f 298/4/4 295/4/4 299/4/4
f 298/3/4 299/3/4 300/3/4
f 299/3/4 297/3/4 301/3/4
f 300/3/4 299/3/4 301/3/4
f 288/2/4 289/2/4 302/2/4
f 285/5/4 288/5/4 302/5/4
f 302/2/4 289/2/4 303/2/4
f 282/2/4 283/2/4 306/2/4
f 306/2/4 283/2/4 307/2/4
f 285/5/4 302/5/4 309/5/4
f 302/5/4 303/5/4 309/5/4
f 303/5/4 304/5/4 309/5/4
f 304/1/4 305/1/4 310/1/4
f 309/5/4 304/5/4 310/5/4
f 310/1/4 305/1/4 311/1/4
f 307/5/4 308/5/4 312/5/4
f 308/1/4 309/1/4 313/1/4
f 312/5/4 308/5/4 313/5/4
f 313/1/4 309/1/4 314/1/4
f 315/5/4 316/5/4 321/5/4
f 321/5/4 316/5/4 322/5/4
f 322/5/4 316/5/4 323/5/4
f 318/5/4 319/5/4 324/5/4
f 319/1/4 320/1/4 325/1/4
f 324/5/4 319/5/4 325/5/4
f 323/5/4 316/5/4 326/5/4
f 316/1/4 317/1/4 327/1/4
f 326/5/4 316/5/4 327/5/4
f 318/5/4 324/5/4 328/5/4
f 324/1/4 325/1/4 328/1/4
f 325/1/4 320/1/4 329/1/4
f 328/1/4 325/1/4 329/1/4
f 326/1/4 327/1/4 330/1/4
f 327/1/4 317/1/4 331/1/4
f 330/1/4 327/1/4 331/1/4
f 318/5/4 328/5/4 332/5/4
f 328/5/4 329/5/4 332/5/4
f 329/1/4 320/1/4 333/1/4
f 332/5/4 329/5/4 333/5/4
f 318/5/4 332/5/4 334/5/4
f 332/1/4 333/1/4 335/1/4
f 334/5/4 332/5/4 335/5/4
f 315/5/4 321/5/4 336/5/4
f 321/1/4 322/1/4 336/1/4
f 336/1/4 322/1/4 337/1/4
f 330/5/4 331/5/4 338/5/4
f 334/1/4 335/1/4 339/1/4
f 318/5/4 334/5/4 339/5/4
f 335/1/4 333/1/4 340/1/4
f 339/1/4 335/1/4 340/1/4
f 333/1/4 320/1/4 340/1/4
f 318/5/4 339/5/4 341/5/4
f 339/5/4 340/5/4 341/5/4
f 340/1/4 320/1/4 342/1/4
f 341/5/4 340/5/4 342/5/4
f 342/1/4 320/1/4 343/1/4
f 337/5/4 338/5/4 344/5/4
f 336/5/4 337/5/4 344/5/4
f 315/5/4 336/5/4 344/5/4
f 331/1/4 317/1/4 345/1/4
f 344/5/4 338/5/4 345/5/4
f 338/5/4 331/5/4 345/5/4
f 345/1/4 317/1/4 346/1/4
f 349/2/5 348/2/5 347/2/5
f 350/2/5 348/2/5 349/2/5
f 351/2/5 349/2/5 347/2/5
f 351/5/5 350/5/5 349/5/5
f 352/2/5 348/2/5 350/2/5
f 352/5/5 350/5/5 351/5/5
f 353/2/5 351/2/5 347/2/5
f 353/2/5 352/2/5 351/2/5
f 354/2/5 348/2/5 352/2/5
f 354/2/5 352/2/5 353/2/5
f 360/5/5 356/5/5 355/5/5
f 361/1/5 357/1/5 356/1/5
f 361/5/5 356/5/5 360/5/5
f 362/5/5 358/5/5 357/5/5
f 362/1/5 357/1/5 361/1/5
f 363/5/5 358/5/5 362/5/5
f 365/5/5 360/5/5 359/5/5
f 366/5/5 360/5/5 365/5/5
f 367/5/5 364/5/5 363/5/5
f 368/5/5 364/5/5 367/5/5
f 369/5/5 367/5/5 366/5/5
f 370/5/5 367/5/5 369/5/5
f 375/5/5 372/5/5 371/5/5
f 376/1/5 373/1/5 372/1/5
f 376/5/5 372/5/5 375/5/5
f 377/5/5 374/5/5 373/5/5
f 377/1/5 373/1/5 376/1/5
f 378/5/5 374/5/5 377/5/5
f 383/5/5 380/5/5 379/5/5
f 384/5/5 380/5/5 383/5/5
f 385/5/5 382/5/5 381/5/5
f 386/5/5 382/5/5 385/5/5
f 387/1/5 384/1/5 383/1/5
f 388/1/5 384/1/5 387/1/5
f 389/1/5 386/1/5 385/1/5
f 390/1/5 386/1/5 389/1/5
f 391/5/5 388/5/5 387/5/5
f 392/5/5 388/5/5 391/5/5
f 393/5/5 390/5/5 389/5/5
f 394/5/5 390/5/5 393/5/5
f 399/5/5 396/5/5 395/5/5
f 400/1/5 397/1/5 396/1/5
f 400/5/5 396/5/5 399/5/5
f 401/5/5 398/5/5 397/5/5
f 401/1/5 397/1/5 400/1/5
f 402/5/5 398/5/5 401/5/5
f 405/5/5 404/5/5 403/5/5
f 406/5/5 404/5/5 405/5/5
f 411/5/5 408/5/5 407/5/5
f 412/5/5 408/5/5 411/5/5
f 413/5/5 410/5/5 409/5/5
f 414/5/5 410/5/5 413/5/5
f 417/5/5 416/5/5 415/5/5
f 418/5/5 416/5/5 417/5/5
f 419/1/6 420/1/6 421/1/6
f 421/1/6 420/1/6 422/1/6
f 422/1/6 420/1/6 423/1/6
f 423/1/6 420/1/6 424/1/6
f 425/1/6 426/1/6 429/1/6
f 427/1/6 428/1/6 430/1/6
f 425/1/6 429/1/6 431/1/6
f 430/1/6 428/1/6 432/1/6
f 425/1/6 431/1/6 433/1/6
f 433/1/6 431/1/6 434/1/6
f 432/1/6 428/1/6 435/1/6
f 435/1/6 428/1/6 436/1/6
f 437/1/6 438/1/6 441/1/6
f 439/1/6 440/1/6 441/1/6
f 438/1/6 439/1/6 441/1/6
f 441/1/6 440/1/6 442/1/6
f 443/1/6 444/1/6 446/1/6
f 446/1/6 444/1/6 447/1/6
f 445/1/6 446/1/6 449/1/6
f 449/1/6 446/1/6 450/1/6
f 447/1/6 448/1/6 451/1/6
f 451/1/6 448/1/6 452/1/6
f 450/1/6 451/1/6 453/1/6
f 453/1/6 451/1/6 454/1/6
f 455/1/6 456/1/6 458/1/6
f 458/1/6 456/1/6 459/1/6
f 457/1/6 458/1/6 462/1/6
f 459/1/6 460/1/6 462/1/6
f 458/1/6 459/1/6 462/1/6
f 462/1/6 460/1/6 463/1/6
f 461/1/6 462/1/6 465/1/6
f 463/1/6 464/1/6 465/1/6
f 462/1/6 463/1/6 465/1/6
f 465/1/6 464/1/6 466/1/6
f 466/1/6 464/1/6 467/1/6
f 467/1/6 464/1/6 468/1/6
f 466/1/6 467/1/6 469/1/6
f 469/1/6 467/1/6 470/1/6
f 470/1/6 467/1/6 471/1/6
f 471/1/6 467/1/6 472/1/6
f 470/1/6 471/1/6 473/1/6
f 473/1/6 471/1/6 474/1/6
