# MagicaVoxel @ ephtracy

# material
mtllib st3.mtl
usemtl palette

# normals
vn -1 0 0
vn 1 0 0
vn 0 0 1
vn 0 0 -1
vn 0 -1 0
vn 0 1 0

# texcoords
vt 0.970703 0.5
vt 0.974609 0.5
vt 0.986328 0.5

# verts
v -29 20 17
v -29 20 -15
v -29 40 -13
v -29 40 -15
v -29 47 17
v -29 47 -13
v -15 19 3
v -15 19 2
v -15 20 3
v -15 20 2
v -14 19 16
v -14 19 3
v -14 20 16
v -14 20 3
v -15 20 3
v -15 20 2
v -15 20 -1
v -15 21 3
v -15 21 -1
v -14 36 -7
v -14 36 -14
v -14 37 -3
v -14 37 -7
v -14 37 -14
v -14 37 -15
v -14 38 17
v -14 38 -3
v -14 39 -12
v -14 39 -14
v -14 40 -13
v -14 40 -15
v -14 41 17
v -14 41 6
v -14 41 1
v -14 41 -12
v -14 41 -13
v -12 41 17
v -12 41 6
v -12 41 1
v -12 41 -13
v -12 43 17
v -12 43 6
v -12 43 1
v -12 43 -12
v -12 43 -13
v -12 44 -12
v -12 44 -13
v -12 47 17
v -12 47 -13
v -10 36 -14
v -10 36 -15
v -10 37 -14
v -10 37 -15
v -9 19 16
v -9 19 2
v -9 20 17
v -9 20 16
v -9 20 3
v -9 20 2
v -9 20 -1
v -9 20 -15
v -9 21 3
v -9 21 -1
v -9 25 17
v -9 25 -8
v -9 26 -7
v -9 26 -8
v -9 27 17
v -9 27 -7
v -9 27 -10
v -9 27 -15
v -9 28 -9
v -9 28 -10
v -9 29 -9
v -9 29 -15
v -9 35 -7
v -9 35 -15
v -9 36 -3
v -9 36 -7
v -9 36 -15
v -9 37 17
v -9 37 -3
v -9 37 -7
v -9 38 17
v -9 38 -3
v -29 20 17
v -29 47 17
v -16 20 17
v -16 47 17
v -15 20 17
v -15 25 17
v -15 27 17
v -15 37 17
v -15 38 17
v -15 41 17
v -15 43 17
v -15 47 17
v -14 38 17
v -14 41 17
v -12 41 17
v -12 43 17
v -12 47 17
v -9 20 17
v -9 25 17
v -9 27 17
v -9 37 17
v -9 38 17
v -14 19 16
v -14 20 16
v -9 19 16
v -9 20 16
v -15 19 3
v -15 20 3
v -14 19 3
v -14 20 3
v -15 20 -1
v -15 21 -1
v -9 20 -1
v -9 21 -1
v -14 36 -14
v -14 37 -14
v -10 36 -14
v -10 37 -14
v -15 20 3
v -15 21 3
v -9 20 3
v -9 21 3
v -15 19 2
v -15 20 2
v -9 19 2
v -9 20 2
v -14 37 -3
v -14 38 -3
v -9 37 -3
v -9 38 -3
v -14 36 -7
v -14 37 -7
v -9 36 -7
v -9 37 -7
v -29 40 -13
v -29 47 -13
v -16 40 -13
v -16 47 -13
v -15 40 -13
v -15 41 -13
v -15 43 -13
v -15 44 -13
v -15 47 -13
v -14 40 -13
v -14 41 -13
v -12 41 -13
v -12 43 -13
v -12 44 -13
v -12 47 -13
v -29 20 -15
v -29 40 -15
v -16 20 -15
v -16 40 -15
v -15 20 -15
v -15 27 -15
v -15 29 -15
v -15 35 -15
v -15 40 -15
v -14 37 -15
v -14 40 -15
v -10 36 -15
v -10 37 -15
v -9 20 -15
v -9 27 -15
v -9 29 -15
v -9 35 -15
v -9 36 -15
v -14 19 16
v -9 19 16
v -15 19 3
v -14 19 3
v -15 19 2
v -9 19 2
v -29 20 17
v -16 20 17
v -15 20 17
v -9 20 17
v -14 20 16
v -9 20 16
v -15 20 3
v -14 20 3
v -15 20 2
v -15 20 -1
v -9 20 -1
v -29 20 -15
v -16 20 -15
v -15 20 -15
v -9 20 -15
v -15 21 3
v -9 21 3
v -15 21 -1
v -9 21 -1
v -14 41 17
v -12 41 17
v -14 41 6
v -12 41 6
v -14 41 1
v -12 41 1
v -14 41 -12
v -14 41 -13
v -12 41 -13
v -15 20 3
v -9 20 3
v -15 20 2
v -9 20 2
v -14 36 -7
v -9 36 -7
v -14 36 -14
v -10 36 -14
v -10 36 -15
v -9 36 -15
v -14 37 -3
v -9 37 -3
v -14 37 -7
v -9 37 -7
v -14 37 -14
v -10 37 -14
v -14 37 -15
v -10 37 -15
v -14 38 17
v -9 38 17
v -14 38 -3
v -9 38 -3
v -29 40 -13
v -16 40 -13
v -15 40 -13
v -14 40 -13
v -29 40 -15
v -16 40 -15
v -15 40 -15
v -14 40 -15
v -29 47 17
v -16 47 17
v -15 47 17
v -12 47 17
v -29 47 -13
v -16 47 -13
v -15 47 -13
v -12 47 -13

# faces
f 3/1/1 2/1/1 1/1/1
f 4/1/1 2/1/1 3/1/1
f 5/1/1 3/1/1 1/1/1
f 6/1/1 3/1/1 5/1/1
f 9/1/1 8/1/1 7/1/1
f 10/1/1 8/1/1 9/1/1
f 13/1/1 12/1/1 11/1/1
f 14/1/1 12/1/1 13/1/1
f 15/2/2 16/2/2 18/2/2
f 16/2/2 17/2/2 18/2/2
f 18/2/2 17/2/2 19/2/2
f 20/1/2 21/1/2 23/1/2
f 23/1/2 21/1/2 24/1/2
f 22/1/2 23/1/2 27/1/2
f 23/1/2 24/1/2 27/1/2
f 27/1/2 24/1/2 28/1/2
f 26/1/2 27/1/2 28/1/2
f 24/3/2 25/3/2 29/3/2
f 28/1/2 24/1/2 29/1/2
f 28/3/2 29/3/2 30/3/2
f 29/3/2 25/3/2 31/3/2
f 30/3/2 29/3/2 31/3/2
f 26/1/2 28/1/2 32/1/2
f 32/1/2 28/1/2 33/1/2
f 33/1/2 28/1/2 34/1/2
f 28/3/2 30/3/2 35/3/2
f 34/1/2 28/1/2 35/1/2
f 35/3/2 30/3/2 36/3/2
f 37/2/2 38/2/2 41/2/2
f 38/1/2 39/1/2 42/1/2
f 41/2/2 38/2/2 42/2/2
f 39/2/2 40/2/2 43/2/2
f 42/1/2 39/1/2 43/1/2
f 43/2/2 40/2/2 44/2/2
f 44/2/2 40/2/2 45/2/2
f 41/1/2 42/1/2 46/1/2
f 42/1/2 43/1/2 46/1/2
f 44/3/2 45/3/2 46/3/2
f 43/1/2 44/1/2 46/1/2
f 46/3/2 45/3/2 47/3/2
f 41/1/2 46/1/2 48/1/2
f 46/1/2 47/1/2 48/1/2
f 48/1/2 47/1/2 49/1/2
f 50/3/2 51/3/2 52/3/2
f 52/3/2 51/3/2 53/3/2
f 54/1/2 55/1/2 57/1/2
f 57/1/2 55/1/2 58/1/2
f 58/1/2 55/1/2 59/1/2
f 56/1/2 57/1/2 62/1/2
f 57/1/2 58/1/2 62/1/2
f 60/1/2 61/1/2 63/1/2
f 56/1/2 62/1/2 64/1/2
f 62/1/2 63/1/2 64/1/2
f 63/1/2 61/1/2 65/1/2
f 64/1/2 63/1/2 65/1/2
f 64/2/2 65/2/2 66/2/2
f 65/1/2 61/1/2 67/1/2
f 66/2/2 65/2/2 67/2/2
f 64/2/2 66/2/2 68/2/2
f 66/1/2 67/1/2 69/1/2
f 68/2/2 66/2/2 69/2/2
f 67/1/2 61/1/2 70/1/2
f 69/1/2 67/1/2 70/1/2
f 70/1/2 61/1/2 71/1/2
f 68/1/2 69/1/2 72/1/2
f 69/1/2 70/1/2 72/1/2
f 70/2/2 71/2/2 73/2/2
f 72/1/2 70/1/2 73/1/2
f 68/1/2 72/1/2 74/1/2
f 72/2/2 73/2/2 74/2/2
f 73/2/2 71/2/2 75/2/2
f 74/2/2 73/2/2 75/2/2
f 68/1/2 74/1/2 76/1/2
f 74/1/2 75/1/2 76/1/2
f 76/1/2 75/1/2 77/1/2
f 68/1/2 76/1/2 78/1/2
f 76/3/2 77/3/2 79/3/2
f 78/1/2 76/1/2 79/1/2
f 79/3/2 77/3/2 80/3/2
f 68/1/2 78/1/2 81/1/2
f 78/3/2 79/3/2 82/3/2
f 81/1/2 78/1/2 82/1/2
f 82/3/2 79/3/2 83/3/2
f 81/3/2 82/3/2 84/3/2
f 84/3/2 82/3/2 85/3/2
f 88/1/3 87/1/3 86/1/3
f 89/1/3 87/1/3 88/1/3
f 90/2/3 89/2/3 88/2/3
f 91/2/3 89/2/3 90/2/3
f 92/2/3 89/2/3 91/2/3
f 93/2/3 89/2/3 92/2/3
f 94/2/3 89/2/3 93/2/3
f 95/2/3 89/2/3 94/2/3
f 96/2/3 89/2/3 95/2/3
f 97/2/3 89/2/3 96/2/3
f 98/3/3 94/3/3 93/3/3
f 98/1/3 95/1/3 94/1/3
f 99/2/3 96/2/3 95/2/3
f 99/1/3 95/1/3 98/1/3
f 100/2/3 96/2/3 99/2/3
f 101/1/3 97/1/3 96/1/3
f 101/2/3 96/2/3 100/2/3
f 102/1/3 97/1/3 101/1/3
f 103/1/3 91/1/3 90/1/3
f 104/2/3 92/2/3 91/2/3
f 104/1/3 91/1/3 103/1/3
f 105/1/3 93/1/3 92/1/3
f 105/2/3 92/2/3 104/2/3
f 106/3/3 98/3/3 93/3/3
f 106/1/3 93/1/3 105/1/3
f 107/3/3 98/3/3 106/3/3
f 110/1/3 109/1/3 108/1/3
f 111/1/3 109/1/3 110/1/3
f 114/1/3 113/1/3 112/1/3
f 115/1/3 113/1/3 114/1/3
f 118/1/3 117/1/3 116/1/3
f 119/1/3 117/1/3 118/1/3
f 122/3/3 121/3/3 120/3/3
f 123/3/3 121/3/3 122/3/3
f 124/1/4 125/1/4 126/1/4
f 126/1/4 125/1/4 127/1/4
f 128/1/4 129/1/4 130/1/4
f 130/1/4 129/1/4 131/1/4
f 132/3/4 133/3/4 134/3/4
f 134/3/4 133/3/4 135/3/4
f 136/3/4 137/3/4 138/3/4
f 138/3/4 137/3/4 139/3/4
f 140/1/4 141/1/4 142/1/4
f 142/1/4 141/1/4 143/1/4
f 142/2/4 143/2/4 144/2/4
f 144/2/4 143/2/4 145/2/4
f 145/2/4 143/2/4 146/2/4
f 146/2/4 143/2/4 147/2/4
f 147/2/4 143/2/4 148/2/4
f 144/3/4 145/3/4 149/3/4
f 145/2/4 146/2/4 150/2/4
f 149/3/4 145/3/4 150/3/4
f 150/2/4 146/2/4 151/2/4
f 146/3/4 147/3/4 152/3/4
f 151/2/4 146/2/4 152/2/4
f 147/1/4 148/1/4 153/1/4
f 152/3/4 147/3/4 153/3/4
f 153/1/4 148/1/4 154/1/4
f 155/1/4 156/1/4 157/1/4
f 157/1/4 156/1/4 158/1/4
f 157/2/4 158/2/4 159/2/4
f 159/2/4 158/2/4 160/2/4
f 160/2/4 158/2/4 161/2/4
f 161/2/4 158/2/4 162/2/4
f 162/2/4 158/2/4 163/2/4
f 162/3/4 163/3/4 164/3/4
f 164/3/4 163/3/4 165/3/4
f 162/3/4 164/3/4 166/3/4
f 166/3/4 164/3/4 167/3/4
f 159/1/4 160/1/4 168/1/4
f 160/2/4 161/2/4 169/2/4
f 168/1/4 160/1/4 169/1/4
f 161/1/4 162/1/4 170/1/4
f 169/2/4 161/2/4 170/2/4
f 162/3/4 166/3/4 171/3/4
f 170/1/4 162/1/4 171/1/4
f 171/3/4 166/3/4 172/3/4
f 176/1/5 174/1/5 173/1/5
f 177/1/5 176/1/5 175/1/5
f 178/1/5 174/1/5 176/1/5
f 178/1/5 176/1/5 177/1/5
f 183/1/5 182/1/5 181/1/5
f 184/1/5 182/1/5 183/1/5
f 185/2/5 181/2/5 180/2/5
f 185/1/5 183/1/5 181/1/5
f 186/1/5 183/1/5 185/1/5
f 187/2/5 185/2/5 180/2/5
f 188/2/5 187/2/5 180/2/5
f 190/1/5 180/1/5 179/1/5
f 191/2/5 188/2/5 180/2/5
f 191/1/5 180/1/5 190/1/5
f 192/1/5 189/1/5 188/1/5
f 192/2/5 188/2/5 191/2/5
f 193/1/5 189/1/5 192/1/5
f 196/1/5 195/1/5 194/1/5
f 197/1/5 195/1/5 196/1/5
f 200/2/5 199/2/5 198/2/5
f 201/2/5 199/2/5 200/2/5
f 202/1/5 201/1/5 200/1/5
f 203/1/5 201/1/5 202/1/5
f 204/2/5 203/2/5 202/2/5
f 205/2/5 203/2/5 204/2/5
f 206/2/5 203/2/5 205/2/5
f 207/1/6 208/1/6 209/1/6
f 209/1/6 208/1/6 210/1/6
f 211/3/6 212/3/6 213/3/6
f 213/3/6 212/3/6 214/3/6
f 214/3/6 212/3/6 215/3/6
f 215/3/6 212/3/6 216/3/6
f 217/3/6 218/3/6 219/3/6
f 219/3/6 218/3/6 220/3/6
f 221/3/6 222/3/6 223/3/6
f 223/3/6 222/3/6 224/3/6
f 225/3/6 226/3/6 227/3/6
f 227/3/6 226/3/6 228/3/6
f 229/1/6 230/1/6 233/1/6
f 230/2/6 231/2/6 234/2/6
f 233/1/6 230/1/6 234/1/6
f 231/3/6 232/3/6 235/3/6
f 234/2/6 231/2/6 235/2/6
f 235/3/6 232/3/6 236/3/6
f 237/1/6 238/1/6 241/1/6
f 238/2/6 239/2/6 242/2/6
f 241/1/6 238/1/6 242/1/6
f 239/1/6 240/1/6 243/1/6
f 242/2/6 239/2/6 243/2/6
f 243/1/6 240/1/6 244/1/6
