# MagicaVoxel @ ephtracy

# material
mtllib sha2.mtl
usemtl palette

# normals
vn -1 0 0
vn 1 0 0
vn 0 0 1
vn 0 0 -1
vn 0 -1 0
vn 0 1 0

# texcoords
vt 0.970703 0.5
vt 0.974609 0.5

# verts
v -46 0 -3
v -46 0 -24
v -46 13 -19
v -46 13 -24
v -46 15 -18
v -46 15 -19
v -46 17 -17
v -46 17 -18
v -46 18 -16
v -46 18 -17
v -46 20 -15
v -46 20 -16
v -46 21 -14
v -46 21 -15
v -46 22 -13
v -46 22 -14
v -46 24 -12
v -46 24 -13
v -46 25 -11
v -46 25 -12
v -46 26 -10
v -46 26 -11
v -46 27 -9
v -46 27 -10
v -46 29 -8
v -46 29 -9
v -46 30 -7
v -46 30 -8
v -46 31 -3
v -46 31 -7
v -42 29 -3
v -42 29 -8
v -42 30 -7
v -42 30 -8
v -42 31 -3
v -42 31 -7
v -41 28 -3
v -41 28 -9
v -41 29 -3
v -41 29 -9
v -40 27 -3
v -40 27 -9
v -40 28 -3
v -40 28 -9
v -39 26 -3
v -39 26 -10
v -39 27 -3
v -39 27 -10
v -38 24 -3
v -38 24 -12
v -38 25 -11
v -38 25 -12
v -38 26 -3
v -38 26 -11
v -37 23 -3
v -37 23 -13
v -37 24 -3
v -37 24 -13
v -36 22 -3
v -36 22 -13
v -36 23 -3
v -36 23 -13
v -35 20 -3
v -35 20 -15
v -35 21 -14
v -35 21 -15
v -35 22 -3
v -35 22 -14
v -34 19 -3
v -34 19 -16
v -34 20 -3
v -34 20 -16
v -33 17 -3
v -33 17 -17
v -33 18 -16
v -33 18 -17
v -33 19 -3
v -33 19 -16
v -32 16 -3
v -32 16 -18
v -32 17 -3
v -32 17 -18
v -31 14 -3
v -31 14 -19
v -31 15 -18
v -31 15 -19
v -31 16 -3
v -31 16 -18
v -30 13 -3
v -30 13 -19
v -30 14 -3
v -30 14 -19
v -28 12 -3
v -28 12 -24
v -28 13 -3
v -28 13 -24
v -27 11 -3
v -27 11 -24
v -27 12 -3
v -27 12 -24
v -26 10 -3
v -26 10 -24
v -26 11 -3
v -26 11 -24
v 20 0 -3
v 20 0 -24
v 20 4 -3
v 20 4 -24
v 20 5 -3
v 20 5 -24
v 20 10 -3
v 20 10 -24
v -46 0 -3
v -46 31 -3
v -42 29 -3
v -42 31 -3
v -41 28 -3
v -41 29 -3
v -40 27 -3
v -40 28 -3
v -39 26 -3
v -39 27 -3
v -38 24 -3
v -38 26 -3
v -37 23 -3
v -37 24 -3
v -36 22 -3
v -36 23 -3
v -35 20 -3
v -35 22 -3
v -34 19 -3
v -34 20 -3
v -33 17 -3
v -33 19 -3
v -32 16 -3
v -32 17 -3
v -31 14 -3
v -31 16 -3
v -30 13 -3
v -30 14 -3
v -28 12 -3
v -28 13 -3
v -27 11 -3
v -27 12 -3
v -26 10 -3
v -26 11 -3
v -25 9 -3
v -25 10 -3
v -22 6 -3
v -22 7 -3
v -19 8 -3
v -19 9 -3
v -17 5 -3
v -17 6 -3
v -16 7 -3
v -16 8 -3
v -13 4 -3
v -13 5 -3
v -9 2 -3
v -9 4 -3
v 1 1 -3
v 1 2 -3
v 5 1 -3
v 5 2 -3
v 10 2 -3
v 10 3 -3
v 12 6 -3
v 12 7 -3
v 13 4 -3
v 13 5 -3
v 13 8 -3
v 13 9 -3
v 14 3 -3
v 14 4 -3
v 15 9 -3
v 15 10 -3
v 16 5 -3
v 16 6 -3
v 18 4 -3
v 18 5 -3
v 18 7 -3
v 18 8 -3
v 20 0 -3
v 20 4 -3
v 20 5 -3
v 20 10 -3
v -46 30 -7
v -46 31 -7
v -42 30 -7
v -42 31 -7
v -46 29 -8
v -46 30 -8
v -42 29 -8
v -42 30 -8
v -46 27 -9
v -46 29 -9
v -41 28 -9
v -41 29 -9
v -40 27 -9
v -40 28 -9
v -46 26 -10
v -46 27 -10
v -39 26 -10
v -39 27 -10
v -46 25 -11
v -46 26 -11
v -38 25 -11
v -38 26 -11
v -46 24 -12
v -46 25 -12
v -38 24 -12
v -38 25 -12
v -46 22 -13
v -46 24 -13
v -37 23 -13
v -37 24 -13
v -36 22 -13
v -36 23 -13
v -46 21 -14
v -46 22 -14
v -35 21 -14
v -35 22 -14
v -46 20 -15
v -46 21 -15
v -35 20 -15
v -35 21 -15
v -46 18 -16
v -46 20 -16
v -34 19 -16
v -34 20 -16
v -33 18 -16
v -33 19 -16
v -46 17 -17
v -46 18 -17
v -33 17 -17
v -33 18 -17
v -46 15 -18
v -46 17 -18
v -32 16 -18
v -32 17 -18
v -31 15 -18
v -31 16 -18
v -46 13 -19
v -46 15 -19
v -31 14 -19
v -31 15 -19
v -30 13 -19
v -30 14 -19
v -46 0 -24
v -46 13 -24
v -28 12 -24
v -28 13 -24
v -27 11 -24
v -27 12 -24
v -26 10 -24
v -26 11 -24
v -25 9 -24
v -25 10 -24
v -22 6 -24
v -22 7 -24
v -19 8 -24
v -19 9 -24
v -17 5 -24
v -17 6 -24
v -16 7 -24
v -16 8 -24
v -13 4 -24
v -13 5 -24
v -9 2 -24
v -9 4 -24
v 1 1 -24
v 1 2 -24
v 5 1 -24
v 5 2 -24
v 10 2 -24
v 10 3 -24
v 12 6 -24
v 12 7 -24
v 13 4 -24
v 13 5 -24
v 13 8 -24
v 13 9 -24
v 14 3 -24
v 14 4 -24
v 15 9 -24
v 15 10 -24
v 16 5 -24
v 16 6 -24
v 18 4 -24
v 18 5 -24
v 18 7 -24
v 18 8 -24
v 20 0 -24
v 20 4 -24
v 20 5 -24
v 20 10 -24
v -46 0 -3
v 20 0 -3
v -46 0 -24
v 20 0 -24
v -26 10 -3
v -25 10 -3
v 15 10 -3
v 20 10 -3
v -26 10 -24
v -25 10 -24
v 15 10 -24
v 20 10 -24
v -27 11 -3
v -26 11 -3
v -27 11 -24
v -26 11 -24
v -28 12 -3
v -27 12 -3
v -28 12 -24
v -27 12 -24
v -30 13 -3
v -28 13 -3
v -46 13 -19
v -30 13 -19
v -46 13 -24
v -28 13 -24
v -31 14 -3
v -30 14 -3
v -31 14 -19
v -30 14 -19
v -46 15 -18
v -31 15 -18
v -46 15 -19
v -31 15 -19
v -32 16 -3
v -31 16 -3
v -32 16 -18
v -31 16 -18
v -33 17 -3
v -32 17 -3
v -46 17 -17
v -33 17 -17
v -46 17 -18
v -32 17 -18
v -46 18 -16
v -33 18 -16
v -46 18 -17
v -33 18 -17
v -34 19 -3
v -33 19 -3
v -34 19 -16
v -33 19 -16
v -35 20 -3
v -34 20 -3
v -46 20 -15
v -35 20 -15
v -46 20 -16
v -34 20 -16
v -46 21 -14
v -35 21 -14
v -46 21 -15
v -35 21 -15
v -36 22 -3
v -35 22 -3
v -46 22 -13
v -36 22 -13
v -46 22 -14
v -35 22 -14
v -37 23 -3
v -36 23 -3
v -37 23 -13
v -36 23 -13
v -38 24 -3
v -37 24 -3
v -46 24 -12
v -38 24 -12
v -46 24 -13
v -37 24 -13
v -46 25 -11
v -38 25 -11
v -46 25 -12
v -38 25 -12
v -39 26 -3
v -38 26 -3
v -46 26 -10
v -39 26 -10
v -46 26 -11
v -38 26 -11
v -40 27 -3
v -39 27 -3
v -46 27 -9
v -40 27 -9
v -46 27 -10
v -39 27 -10
v -41 28 -3
v -40 28 -3
v -41 28 -9
v -40 28 -9
v -42 29 -3
v -41 29 -3
v -46 29 -8
v -42 29 -8
v -46 29 -9
v -41 29 -9
v -46 30 -7
v -42 30 -7
v -46 30 -8
v -42 30 -8
v -46 31 -3
v -42 31 -3
v -46 31 -7
v -42 31 -7

# faces
f 3/2/1 2/2/1 1/2/1
f 4/2/1 2/2/1 3/2/1
f 5/2/1 3/2/1 1/2/1
f 6/2/1 3/2/1 5/2/1
f 7/2/1 5/2/1 1/2/1
f 8/2/1 5/2/1 7/2/1
f 9/2/1 7/2/1 1/2/1
f 10/2/1 7/2/1 9/2/1
f 11/2/1 9/2/1 1/2/1
f 12/2/1 9/2/1 11/2/1
f 13/2/1 11/2/1 1/2/1
f 14/2/1 11/2/1 13/2/1
f 15/2/1 13/2/1 1/2/1
f 16/2/1 13/2/1 15/2/1
f 17/2/1 15/2/1 1/2/1
f 18/2/1 15/2/1 17/2/1
f 19/2/1 17/2/1 1/2/1
f 20/2/1 17/2/1 19/2/1
f 21/2/1 19/2/1 1/2/1
f 22/2/1 19/2/1 21/2/1
f 23/2/1 21/2/1 1/2/1
f 24/2/1 21/2/1 23/2/1
f 25/2/1 23/2/1 1/2/1
f 26/2/1 23/2/1 25/2/1
f 27/2/1 25/2/1 1/2/1
f 28/2/1 25/2/1 27/2/1
f 29/2/1 27/2/1 1/2/1
f 30/2/1 27/2/1 29/2/1
f 31/2/2 32/2/2 33/2/2
f 33/2/2 32/2/2 34/2/2
f 31/2/2 33/2/2 35/2/2
f 35/2/2 33/2/2 36/2/2
f 37/2/2 38/2/2 39/2/2
f 39/2/2 38/2/2 40/2/2
f 41/2/2 42/2/2 43/2/2
f 43/2/2 42/2/2 44/2/2
f 45/2/2 46/2/2 47/2/2
f 47/2/2 46/2/2 48/2/2
f 49/2/2 50/2/2 51/2/2
f 51/2/2 50/2/2 52/2/2
f 49/2/2 51/2/2 53/2/2
f 53/2/2 51/2/2 54/2/2
f 55/2/2 56/2/2 57/2/2
f 57/2/2 56/2/2 58/2/2
f 59/2/2 60/2/2 61/2/2
f 61/2/2 60/2/2 62/2/2
f 63/2/2 64/2/2 65/2/2
f 65/2/2 64/2/2 66/2/2
f 63/2/2 65/2/2 67/2/2
f 67/2/2 65/2/2 68/2/2
f 69/2/2 70/2/2 71/2/2
f 71/2/2 70/2/2 72/2/2
f 73/2/2 74/2/2 75/2/2
f 75/2/2 74/2/2 76/2/2
f 73/2/2 75/2/2 77/2/2
f 77/2/2 75/2/2 78/2/2
f 79/2/2 80/2/2 81/2/2
f 81/2/2 80/2/2 82/2/2
f 83/2/2 84/2/2 85/2/2
f 85/2/2 84/2/2 86/2/2
f 83/2/2 85/2/2 87/2/2
f 87/2/2 85/2/2 88/2/2
f 89/2/2 90/2/2 91/2/2
f 91/2/2 90/2/2 92/2/2
f 93/2/2 94/2/2 95/2/2
f 95/2/2 94/2/2 96/2/2
f 97/2/2 98/2/2 99/2/2
f 99/2/2 98/2/2 100/2/2
f 101/2/2 102/2/2 103/2/2
f 103/2/2 102/2/2 104/2/2
f 105/2/2 106/2/2 107/2/2
f 107/2/2 106/2/2 108/2/2
f 107/1/2 108/1/2 109/1/2
f 109/1/2 108/1/2 110/1/2
f 109/2/2 110/2/2 111/2/2
f 111/2/2 110/2/2 112/2/2
f 115/2/3 114/2/3 113/2/3
f 116/2/3 114/2/3 115/2/3
f 117/2/3 115/2/3 113/2/3
f 118/2/3 115/2/3 117/2/3
f 119/2/3 117/2/3 113/2/3
f 120/2/3 117/2/3 119/2/3
f 121/2/3 119/2/3 113/2/3
f 122/2/3 119/2/3 121/2/3
f 123/2/3 121/2/3 113/2/3
f 124/2/3 121/2/3 123/2/3
f 125/2/3 123/2/3 113/2/3
f 126/2/3 123/2/3 125/2/3
f 127/2/3 125/2/3 113/2/3
f 128/2/3 125/2/3 127/2/3
f 129/2/3 127/2/3 113/2/3
f 130/2/3 127/2/3 129/2/3
f 131/2/3 129/2/3 113/2/3
f 132/2/3 129/2/3 131/2/3
f 133/2/3 131/2/3 113/2/3
f 134/2/3 131/2/3 133/2/3
f 135/2/3 133/2/3 113/2/3
f 136/2/3 133/2/3 135/2/3
f 137/2/3 135/2/3 113/2/3
f 138/2/3 135/2/3 137/2/3
f 139/2/3 137/2/3 113/2/3
f 140/2/3 137/2/3 139/2/3
f 141/2/3 139/2/3 113/2/3
f 142/2/3 139/2/3 141/2/3
f 143/2/3 141/2/3 113/2/3
f 144/2/3 141/2/3 143/2/3
f 145/2/3 143/2/3 113/2/3
f 146/2/3 143/2/3 145/2/3
f 147/2/3 145/2/3 113/2/3
f 148/2/3 145/2/3 147/2/3
f 149/2/3 147/2/3 113/2/3
f 150/2/3 147/2/3 149/2/3
f 151/2/3 147/2/3 150/2/3
f 152/1/3 148/1/3 147/1/3
f 152/2/3 147/2/3 151/2/3
f 153/2/3 149/2/3 113/2/3
f 154/1/3 150/1/3 149/1/3
f 154/2/3 149/2/3 153/2/3
f 155/2/3 151/2/3 150/2/3
f 155/1/3 150/1/3 154/1/3
f 155/1/3 154/1/3 153/1/3
f 156/1/3 152/1/3 151/1/3
f 156/2/3 151/2/3 155/2/3
f 157/2/3 153/2/3 113/2/3
f 158/1/3 155/1/3 153/1/3
f 158/2/3 153/2/3 157/2/3
f 158/1/3 156/1/3 155/1/3
f 159/2/3 157/2/3 113/2/3
f 160/1/3 158/1/3 157/1/3
f 160/2/3 157/2/3 159/2/3
f 161/2/3 159/2/3 113/2/3
f 162/1/3 160/1/3 159/1/3
f 162/2/3 159/2/3 161/2/3
f 163/2/3 161/2/3 113/2/3
f 163/1/3 162/1/3 161/1/3
f 164/1/3 160/1/3 162/1/3
f 164/1/3 162/1/3 163/1/3
f 165/2/3 164/2/3 163/2/3
f 165/1/3 160/1/3 164/1/3
f 166/1/3 160/1/3 165/1/3
f 167/1/3 156/1/3 158/1/3
f 167/1/3 160/1/3 166/1/3
f 167/1/3 158/1/3 160/1/3
f 168/1/3 156/1/3 167/1/3
f 169/1/3 167/1/3 166/1/3
f 170/1/3 167/1/3 169/1/3
f 171/1/3 152/1/3 156/1/3
f 171/1/3 156/1/3 168/1/3
f 172/1/3 148/1/3 152/1/3
f 172/1/3 152/1/3 171/1/3
f 173/2/3 166/2/3 165/2/3
f 173/1/3 169/1/3 166/1/3
f 174/2/3 170/2/3 169/2/3
f 174/1/3 169/1/3 173/1/3
f 175/1/3 148/1/3 172/1/3
f 175/2/3 172/2/3 171/2/3
f 176/1/3 148/1/3 175/1/3
f 177/2/3 170/2/3 174/2/3
f 177/1/3 167/1/3 170/1/3
f 177/2/3 174/2/3 173/2/3
f 178/2/3 168/2/3 167/2/3
f 178/1/3 167/1/3 177/1/3
f 179/2/3 177/2/3 173/2/3
f 179/2/3 178/2/3 177/2/3
f 180/2/3 178/2/3 179/2/3
f 181/1/3 171/1/3 168/1/3
f 181/2/3 178/2/3 180/2/3
f 181/2/3 168/2/3 178/2/3
f 182/2/3 176/2/3 175/2/3
f 182/1/3 171/1/3 181/1/3
f 182/2/3 175/2/3 171/2/3
f 183/2/3 165/2/3 163/2/3
f 183/2/3 163/2/3 113/2/3
f 183/2/3 173/2/3 165/2/3
f 183/2/3 179/2/3 173/2/3
f 184/1/3 180/1/3 179/1/3
f 184/2/3 179/2/3 183/2/3
f 185/2/3 181/2/3 180/2/3
f 185/1/3 180/1/3 184/1/3
f 185/2/3 182/2/3 181/2/3
f 186/2/3 176/2/3 182/2/3
f 186/2/3 182/2/3 185/2/3
f 187/2/4 188/2/4 189/2/4
f 189/2/4 188/2/4 190/2/4
f 191/2/4 192/2/4 193/2/4
f 193/2/4 192/2/4 194/2/4
f 195/2/4 196/2/4 197/2/4
f 197/2/4 196/2/4 198/2/4
f 195/2/4 197/2/4 199/2/4
f 199/2/4 197/2/4 200/2/4
f 201/2/4 202/2/4 203/2/4
f 203/2/4 202/2/4 204/2/4
f 205/2/4 206/2/4 207/2/4
f 207/2/4 206/2/4 208/2/4
f 209/2/4 210/2/4 211/2/4
f 211/2/4 210/2/4 212/2/4
f 213/2/4 214/2/4 215/2/4
f 215/2/4 214/2/4 216/2/4
f 213/2/4 215/2/4 217/2/4
f 217/2/4 215/2/4 218/2/4
f 219/2/4 220/2/4 221/2/4
f 221/2/4 220/2/4 222/2/4
f 223/2/4 224/2/4 225/2/4
f 225/2/4 224/2/4 226/2/4
f 227/2/4 228/2/4 229/2/4
f 229/2/4 228/2/4 230/2/4
f 227/2/4 229/2/4 231/2/4
f 231/2/4 229/2/4 232/2/4
f 233/2/4 234/2/4 235/2/4
f 235/2/4 234/2/4 236/2/4
f 237/2/4 238/2/4 239/2/4
f 239/2/4 238/2/4 240/2/4
f 237/2/4 239/2/4 241/2/4
f 241/2/4 239/2/4 242/2/4
f 243/2/4 244/2/4 245/2/4
f 245/2/4 244/2/4 246/2/4
f 243/2/4 245/2/4 247/2/4
f 247/2/4 245/2/4 248/2/4
f 249/2/4 250/2/4 251/2/4
f 251/2/4 250/2/4 252/2/4
f 249/2/4 251/2/4 253/2/4
f 253/2/4 251/2/4 254/2/4
f 249/2/4 253/2/4 255/2/4
f 255/2/4 253/2/4 256/2/4
f 249/2/4 255/2/4 257/2/4
f 257/2/4 255/2/4 258/2/4
f 249/2/4 257/2/4 259/2/4
f 259/2/4 257/2/4 260/2/4
f 260/2/4 257/2/4 261/2/4
f 257/1/4 258/1/4 262/1/4
f 261/2/4 257/2/4 262/2/4
f 249/2/4 259/2/4 263/2/4
f 259/1/4 260/1/4 264/1/4
f 263/2/4 259/2/4 264/2/4
f 260/2/4 261/2/4 265/2/4
f 264/1/4 260/1/4 265/1/4
f 263/1/4 264/1/4 265/1/4
f 261/1/4 262/1/4 266/1/4
f 265/2/4 261/2/4 266/2/4
f 249/2/4 263/2/4 267/2/4
f 263/1/4 265/1/4 268/1/4
f 267/2/4 263/2/4 268/2/4
f 265/1/4 266/1/4 268/1/4
f 249/2/4 267/2/4 269/2/4
f 267/1/4 268/1/4 270/1/4
f 269/2/4 267/2/4 270/2/4
f 249/2/4 269/2/4 271/2/4
f 269/1/4 270/1/4 272/1/4
f 271/2/4 269/2/4 272/2/4
f 249/2/4 271/2/4 273/2/4
f 271/1/4 272/1/4 273/1/4
f 272/1/4 270/1/4 274/1/4
f 273/1/4 272/1/4 274/1/4
f 273/2/4 274/2/4 275/2/4
f 274/1/4 270/1/4 275/1/4
f 275/1/4 270/1/4 276/1/4
f 268/1/4 266/1/4 277/1/4
f 276/1/4 270/1/4 277/1/4
f 270/1/4 268/1/4 277/1/4
f 277/1/4 266/1/4 278/1/4
f 276/1/4 277/1/4 279/1/4
f 279/1/4 277/1/4 280/1/4
f 266/1/4 262/1/4 281/1/4
f 278/1/4 266/1/4 281/1/4
f 262/1/4 258/1/4 282/1/4
f 281/1/4 262/1/4 282/1/4
f 275/2/4 276/2/4 283/2/4
f 276/1/4 279/1/4 283/1/4
f 279/2/4 280/2/4 284/2/4
f 283/1/4 279/1/4 284/1/4
f 282/1/4 258/1/4 285/1/4
f 281/2/4 282/2/4 285/2/4
f 285/1/4 258/1/4 286/1/4
f 284/2/4 280/2/4 287/2/4
f 280/1/4 277/1/4 287/1/4
f 283/2/4 284/2/4 287/2/4
f 277/2/4 278/2/4 288/2/4
f 287/1/4 277/1/4 288/1/4
f 283/2/4 287/2/4 289/2/4
f 287/2/4 288/2/4 289/2/4
f 289/2/4 288/2/4 290/2/4
f 278/1/4 281/1/4 291/1/4
f 290/2/4 288/2/4 291/2/4
f 288/2/4 278/2/4 291/2/4
f 285/2/4 286/2/4 292/2/4
f 291/1/4 281/1/4 292/1/4
f 281/2/4 285/2/4 292/2/4
f 273/2/4 275/2/4 293/2/4
f 249/2/4 273/2/4 293/2/4
f 275/2/4 283/2/4 293/2/4
f 283/2/4 289/2/4 293/2/4
f 289/1/4 290/1/4 294/1/4
f 293/2/4 289/2/4 294/2/4
f 290/2/4 291/2/4 295/2/4
f 294/1/4 290/1/4 295/1/4
f 291/2/4 292/2/4 295/2/4
f 292/2/4 286/2/4 296/2/4
f 295/2/4 292/2/4 296/2/4
f 299/2/5 298/2/5 297/2/5
f 300/2/5 298/2/5 299/2/5
f 301/2/6 302/2/6 305/2/6
f 302/1/6 303/1/6 306/1/6
f 305/2/6 302/2/6 306/2/6
f 303/2/6 304/2/6 307/2/6
f 306/1/6 303/1/6 307/1/6
f 307/2/6 304/2/6 308/2/6
f 309/2/6 310/2/6 311/2/6
f 311/2/6 310/2/6 312/2/6
f 313/2/6 314/2/6 315/2/6
f 315/2/6 314/2/6 316/2/6
f 317/2/6 318/2/6 320/2/6
f 319/2/6 320/2/6 321/2/6
f 320/2/6 318/2/6 322/2/6
f 321/2/6 320/2/6 322/2/6
f 323/2/6 324/2/6 325/2/6
f 325/2/6 324/2/6 326/2/6
f 327/2/6 328/2/6 329/2/6
f 329/2/6 328/2/6 330/2/6
f 331/2/6 332/2/6 333/2/6
f 333/2/6 332/2/6 334/2/6
f 335/2/6 336/2/6 338/2/6
f 337/2/6 338/2/6 339/2/6
f 338/2/6 336/2/6 340/2/6
f 339/2/6 338/2/6 340/2/6
f 341/2/6 342/2/6 343/2/6
f 343/2/6 342/2/6 344/2/6
f 345/2/6 346/2/6 347/2/6
f 347/2/6 346/2/6 348/2/6
f 349/2/6 350/2/6 352/2/6
f 351/2/6 352/2/6 353/2/6
f 352/2/6 350/2/6 354/2/6
f 353/2/6 352/2/6 354/2/6
f 355/2/6 356/2/6 357/2/6
f 357/2/6 356/2/6 358/2/6
f 359/2/6 360/2/6 362/2/6
f 361/2/6 362/2/6 363/2/6
f 362/2/6 360/2/6 364/2/6
f 363/2/6 362/2/6 364/2/6
f 365/2/6 366/2/6 367/2/6
f 367/2/6 366/2/6 368/2/6
f 369/2/6 370/2/6 372/2/6
f 371/2/6 372/2/6 373/2/6
f 372/2/6 370/2/6 374/2/6
f 373/2/6 372/2/6 374/2/6
f 375/2/6 376/2/6 377/2/6
f 377/2/6 376/2/6 378/2/6
f 379/2/6 380/2/6 382/2/6
f 381/2/6 382/2/6 383/2/6
f 382/2/6 380/2/6 384/2/6
f 383/2/6 382/2/6 384/2/6
f 385/2/6 386/2/6 388/2/6
f 387/2/6 388/2/6 389/2/6
f 388/2/6 386/2/6 390/2/6
f 389/2/6 388/2/6 390/2/6
f 391/2/6 392/2/6 393/2/6
f 393/2/6 392/2/6 394/2/6
f 395/2/6 396/2/6 398/2/6
f 397/2/6 398/2/6 399/2/6
f 398/2/6 396/2/6 400/2/6
f 399/2/6 398/2/6 400/2/6
f 401/2/6 402/2/6 403/2/6
f 403/2/6 402/2/6 404/2/6
f 405/2/6 406/2/6 407/2/6
f 407/2/6 406/2/6 408/2/6
