# MagicaVoxel @ ephtracy

# material
mtllib sha3.mtl
usemtl palette

# normals
vn -1 0 0
vn 1 0 0
vn 0 0 1
vn 0 0 -1
vn 0 -1 0
vn 0 1 0

# texcoords
vt 0.970703 0.5
vt 0.974609 0.5

# verts
v -25 0 -3
v -25 0 -24
v -25 9 -3
v -25 9 -24
v -25 10 -3
v -25 10 -24
v -4 0 -3
v -4 0 -24
v -4 10 -3
v -4 10 -24
v -25 0 -3
v -25 9 -3
v -25 10 -3
v -22 6 -3
v -22 7 -3
v -19 8 -3
v -19 9 -3
v -17 5 -3
v -17 6 -3
v -16 7 -3
v -16 8 -3
v -13 4 -3
v -13 5 -3
v -9 2 -3
v -9 4 -3
v -5 0 -3
v -5 2 -3
v -4 0 -3
v -4 10 -3
v -25 0 -24
v -25 9 -24
v -25 10 -24
v -22 6 -24
v -22 7 -24
v -19 8 -24
v -19 9 -24
v -17 5 -24
v -17 6 -24
v -16 7 -24
v -16 8 -24
v -13 4 -24
v -13 5 -24
v -9 2 -24
v -9 4 -24
v -5 0 -24
v -5 2 -24
v -4 0 -24
v -4 10 -24
v -25 0 -3
v -5 0 -3
v -4 0 -3
v -25 0 -24
v -5 0 -24
v -4 0 -24
v -25 10 -3
v -4 10 -3
v -25 10 -24
v -4 10 -24

# faces
f 3/2/1 2/2/1 1/2/1
f 4/2/1 2/2/1 3/2/1
f 5/1/1 4/1/1 3/1/1
f 6/1/1 4/1/1 5/1/1
f 7/1/2 8/1/2 9/1/2
f 9/1/2 8/1/2 10/1/2
f 14/2/3 12/2/3 11/2/3
f 15/2/3 12/2/3 14/2/3
f 16/2/3 12/2/3 15/2/3
f 17/1/3 13/1/3 12/1/3
f 17/2/3 12/2/3 16/2/3
f 18/2/3 14/2/3 11/2/3
f 19/1/3 15/1/3 14/1/3
f 19/2/3 14/2/3 18/2/3
f 20/2/3 16/2/3 15/2/3
f 20/1/3 15/1/3 19/1/3
f 20/1/3 19/1/3 18/1/3
f 21/1/3 17/1/3 16/1/3
f 21/2/3 16/2/3 20/2/3
f 22/2/3 18/2/3 11/2/3
f 23/1/3 20/1/3 18/1/3
f 23/2/3 18/2/3 22/2/3
f 23/1/3 21/1/3 20/1/3
f 24/2/3 22/2/3 11/2/3
f 25/1/3 23/1/3 22/1/3
f 25/2/3 22/2/3 24/2/3
f 26/2/3 24/2/3 11/2/3
f 27/1/3 25/1/3 24/1/3
f 27/2/3 24/2/3 26/2/3
f 28/1/3 27/1/3 26/1/3
f 29/1/3 21/1/3 23/1/3
f 29/1/3 27/1/3 28/1/3
f 29/1/3 13/1/3 17/1/3
f 29/1/3 25/1/3 27/1/3
f 29/1/3 17/1/3 21/1/3
f 29/1/3 23/1/3 25/1/3
f 30/2/4 31/2/4 33/2/4
f 33/2/4 31/2/4 34/2/4
f 34/2/4 31/2/4 35/2/4
f 31/1/4 32/1/4 36/1/4
f 35/2/4 31/2/4 36/2/4
f 30/2/4 33/2/4 37/2/4
f 33/1/4 34/1/4 38/1/4
f 37/2/4 33/2/4 38/2/4
f 34/2/4 35/2/4 39/2/4
f 38/1/4 34/1/4 39/1/4
f 37/1/4 38/1/4 39/1/4
f 35/1/4 36/1/4 40/1/4
f 39/2/4 35/2/4 40/2/4
f 30/2/4 37/2/4 41/2/4
f 37/1/4 39/1/4 42/1/4
f 41/2/4 37/2/4 42/2/4
f 39/1/4 40/1/4 42/1/4
f 30/2/4 41/2/4 43/2/4
f 41/1/4 42/1/4 44/1/4
f 43/2/4 41/2/4 44/2/4
f 30/2/4 43/2/4 45/2/4
f 43/1/4 44/1/4 46/1/4
f 45/2/4 43/2/4 46/2/4
f 45/1/4 46/1/4 47/1/4
f 42/1/4 40/1/4 48/1/4
f 47/1/4 46/1/4 48/1/4
f 36/1/4 32/1/4 48/1/4
f 46/1/4 44/1/4 48/1/4
f 40/1/4 36/1/4 48/1/4
f 44/1/4 42/1/4 48/1/4
f 52/2/5 50/2/5 49/2/5
f 53/1/5 51/1/5 50/1/5
f 53/2/5 50/2/5 52/2/5
f 54/1/5 51/1/5 53/1/5
f 55/1/6 56/1/6 57/1/6
f 57/1/6 56/1/6 58/1/6
