# MagicaVoxel @ ephtracy

# material
mtllib sha5.mtl
usemtl palette

# normals
vn -1 0 0
vn 1 0 0
vn 0 0 1
vn 0 0 -1
vn 0 -1 0
vn 0 1 0

# texcoords
vt 0.970703 0.5
vt 0.974609 0.5

# verts
v 5 0 -3
v 5 0 -19
v 5 2 -3
v 5 2 -19
v 5 10 -3
v 5 10 -19
v 21 0 -3
v 21 0 -19
v 21 10 -3
v 21 10 -19
v 5 0 -3
v 5 2 -3
v 5 10 -3
v 10 2 -3
v 10 3 -3
v 12 6 -3
v 12 7 -3
v 13 4 -3
v 13 5 -3
v 13 8 -3
v 13 9 -3
v 14 3 -3
v 14 4 -3
v 15 9 -3
v 15 10 -3
v 16 5 -3
v 16 6 -3
v 18 4 -3
v 18 5 -3
v 18 7 -3
v 18 8 -3
v 20 4 -3
v 20 5 -3
v 21 0 -3
v 21 10 -3
v 5 0 -19
v 5 2 -19
v 5 10 -19
v 10 2 -19
v 10 3 -19
v 12 6 -19
v 12 7 -19
v 13 4 -19
v 13 5 -19
v 13 8 -19
v 13 9 -19
v 14 3 -19
v 14 4 -19
v 15 9 -19
v 15 10 -19
v 16 5 -19
v 16 6 -19
v 18 4 -19
v 18 5 -19
v 18 7 -19
v 18 8 -19
v 20 4 -19
v 20 5 -19
v 21 0 -19
v 21 10 -19
v 5 0 -3
v 21 0 -3
v 5 0 -19
v 21 0 -19
v 5 10 -3
v 15 10 -3
v 21 10 -3
v 5 10 -19
v 15 10 -19
v 21 10 -19

# faces
f 3/2/1 2/2/1 1/2/1
f 4/2/1 2/2/1 3/2/1
f 5/1/1 4/1/1 3/1/1
f 6/1/1 4/1/1 5/1/1
f 7/2/2 8/2/2 9/2/2
f 9/2/2 8/2/2 10/2/2
f 14/2/3 12/2/3 11/2/3
f 14/1/3 13/1/3 12/1/3
f 15/1/3 13/1/3 14/1/3
f 16/1/3 13/1/3 15/1/3
f 17/1/3 13/1/3 16/1/3
f 18/1/3 16/1/3 15/1/3
f 19/1/3 16/1/3 18/1/3
f 20/1/3 13/1/3 17/1/3
f 21/1/3 13/1/3 20/1/3
f 22/2/3 15/2/3 14/2/3
f 22/1/3 18/1/3 15/1/3
f 23/2/3 19/2/3 18/2/3
f 23/1/3 18/1/3 22/1/3
f 24/1/3 13/1/3 21/1/3
f 24/2/3 21/2/3 20/2/3
f 25/1/3 13/1/3 24/1/3
f 26/2/3 19/2/3 23/2/3
f 26/1/3 16/1/3 19/1/3
f 26/2/3 23/2/3 22/2/3
f 27/2/3 17/2/3 16/2/3
f 27/1/3 16/1/3 26/1/3
f 28/2/3 26/2/3 22/2/3
f 28/2/3 27/2/3 26/2/3
f 29/2/3 27/2/3 28/2/3
f 30/2/3 17/2/3 27/2/3
f 30/2/3 27/2/3 29/2/3
f 30/1/3 20/1/3 17/1/3
f 31/2/3 25/2/3 24/2/3
f 31/1/3 20/1/3 30/1/3
f 31/2/3 24/2/3 20/2/3
f 32/1/3 29/1/3 28/1/3
f 32/2/3 28/2/3 22/2/3
f 33/2/3 30/2/3 29/2/3
f 33/1/3 29/1/3 32/1/3
f 33/2/3 31/2/3 30/2/3
f 34/2/3 14/2/3 11/2/3
f 34/2/3 32/2/3 22/2/3
f 34/2/3 33/2/3 32/2/3
f 34/2/3 22/2/3 14/2/3
f 35/2/3 31/2/3 33/2/3
f 35/2/3 33/2/3 34/2/3
f 35/2/3 25/2/3 31/2/3
f 36/2/4 37/2/4 39/2/4
f 37/1/4 38/1/4 39/1/4
f 39/1/4 38/1/4 40/1/4
f 40/1/4 38/1/4 41/1/4
f 41/1/4 38/1/4 42/1/4
f 40/1/4 41/1/4 43/1/4
f 43/1/4 41/1/4 44/1/4
f 42/1/4 38/1/4 45/1/4
f 45/1/4 38/1/4 46/1/4
f 39/2/4 40/2/4 47/2/4
f 40/1/4 43/1/4 47/1/4
f 43/2/4 44/2/4 48/2/4
f 47/1/4 43/1/4 48/1/4
f 46/1/4 38/1/4 49/1/4
f 45/2/4 46/2/4 49/2/4
f 49/1/4 38/1/4 50/1/4
f 48/2/4 44/2/4 51/2/4
f 44/1/4 41/1/4 51/1/4
f 47/2/4 48/2/4 51/2/4
f 41/2/4 42/2/4 52/2/4
f 51/1/4 41/1/4 52/1/4
f 47/2/4 51/2/4 53/2/4
f 51/2/4 52/2/4 53/2/4
f 53/2/4 52/2/4 54/2/4
f 52/2/4 42/2/4 55/2/4
f 54/2/4 52/2/4 55/2/4
f 42/1/4 45/1/4 55/1/4
f 49/2/4 50/2/4 56/2/4
f 55/1/4 45/1/4 56/1/4
f 45/2/4 49/2/4 56/2/4
f 53/1/4 54/1/4 57/1/4
f 47/2/4 53/2/4 57/2/4
f 54/2/4 55/2/4 58/2/4
f 57/1/4 54/1/4 58/1/4
f 55/2/4 56/2/4 58/2/4
f 36/2/4 39/2/4 59/2/4
f 47/2/4 57/2/4 59/2/4
f 57/2/4 58/2/4 59/2/4
f 39/2/4 47/2/4 59/2/4
f 58/2/4 56/2/4 60/2/4
f 59/2/4 58/2/4 60/2/4
f 56/2/4 50/2/4 60/2/4
f 63/2/5 62/2/5 61/2/5
f 64/2/5 62/2/5 63/2/5
f 65/1/6 66/1/6 68/1/6
f 66/2/6 67/2/6 69/2/6
f 68/1/6 66/1/6 69/1/6
f 69/2/6 67/2/6 70/2/6
