# MagicaVoxel @ ephtracy

# material
mtllib ss7.mtl
usemtl palette

# normals
vn -1 0 0
vn 1 0 0
vn 0 0 1
vn 0 0 -1
vn 0 -1 0
vn 0 1 0

# texcoords
vt 0.978516 0.5
vt 0.990234 0.5

# verts
v -31 0 9
v -31 0 8
v -31 0 6
v -31 3 10
v -31 3 9
v -31 3 8
v -31 4 11
v -31 4 10
v -31 5 11
v -31 5 6
v -30 3 10
v -30 3 9
v -30 4 11
v -30 4 10
v -30 4 9
v -30 5 11
v -30 5 10
v -29 4 10
v -29 4 9
v -29 5 10
v -29 5 9
v -26 0 9
v -26 0 8
v -26 0 6
v -26 5 9
v -26 5 8
v -26 5 6
v -31 4 11
v -31 5 11
v -30 4 11
v -30 5 11
v -31 3 10
v -31 4 10
v -30 3 10
v -30 4 10
v -30 5 10
v -29 4 10
v -29 5 10
v -31 0 9
v -31 3 9
v -30 3 9
v -30 4 9
v -29 4 9
v -29 5 9
v -26 0 9
v -26 5 9
v -31 0 6
v -31 5 6
v -26 0 6
v -26 5 6
v -31 0 9
v -26 0 9
v -31 0 8
v -26 0 8
v -31 0 6
v -26 0 6
v -31 3 10
v -30 3 10
v -31 3 9
v -30 3 9
v -31 4 11
v -30 4 11
v -31 4 10
v -30 4 10
v -29 4 10
v -30 4 9
v -29 4 9
v -31 5 11
v -30 5 11
v -30 5 10
v -29 5 10
v -29 5 9
v -26 5 9
v -29 5 8
v -26 5 8
v -31 5 6
v -26 5 6

# faces
f 5/2/1 2/2/1 1/2/1
f 6/1/1 3/1/1 2/1/1
f 6/2/1 2/2/1 5/2/1
f 8/1/1 5/1/1 4/1/1
f 8/1/1 6/1/1 5/1/1
f 9/1/1 8/1/1 7/1/1
f 10/1/1 3/1/1 6/1/1
f 10/1/1 8/1/1 9/1/1
f 10/1/1 6/1/1 8/1/1
f 11/1/2 12/1/2 14/1/2
f 14/1/2 12/1/2 15/1/2
f 13/1/2 14/1/2 16/1/2
f 16/1/2 14/1/2 17/1/2
f 18/1/2 19/1/2 20/1/2
f 20/1/2 19/1/2 21/1/2
f 22/2/2 23/2/2 25/2/2
f 23/1/2 24/1/2 26/1/2
f 25/2/2 23/2/2 26/2/2
f 26/1/2 24/1/2 27/1/2
f 30/1/3 29/1/3 28/1/3
f 31/1/3 29/1/3 30/1/3
f 34/1/3 33/1/3 32/1/3
f 35/1/3 33/1/3 34/1/3
f 37/1/3 36/1/3 35/1/3
f 38/1/3 36/1/3 37/1/3
f 41/2/3 40/2/3 39/2/3
f 43/2/3 42/2/3 41/2/3
f 45/2/3 41/2/3 39/2/3
f 45/2/3 44/2/3 43/2/3
f 45/2/3 43/2/3 41/2/3
f 46/2/3 44/2/3 45/2/3
f 47/1/4 48/1/4 49/1/4
f 49/1/4 48/1/4 50/1/4
f 53/2/5 52/2/5 51/2/5
f 54/2/5 52/2/5 53/2/5
f 55/1/5 54/1/5 53/1/5
f 56/1/5 54/1/5 55/1/5
f 59/1/5 58/1/5 57/1/5
f 60/1/5 58/1/5 59/1/5
f 63/1/5 62/1/5 61/1/5
f 64/1/5 62/1/5 63/1/5
f 66/1/5 65/1/5 64/1/5
f 67/1/5 65/1/5 66/1/5
f 68/1/6 69/1/6 70/1/6
f 70/1/6 71/1/6 72/1/6
f 70/1/6 72/1/6 74/1/6
f 72/2/6 73/2/6 74/2/6
f 74/2/6 73/2/6 75/2/6
f 68/1/6 70/1/6 76/1/6
f 70/1/6 74/1/6 76/1/6
f 74/1/6 75/1/6 76/1/6
f 76/1/6 75/1/6 77/1/6
