# MagicaVoxel @ ephtracy

# material
mtllib ss9.mtl
usemtl palette

# normals
vn -1 0 0
vn 1 0 0
vn 0 0 1
vn 0 0 -1
vn 0 -1 0
vn 0 1 0

# texcoords
vt 0.978516 0.5
vt 0.990234 0.5
vt 0.994141 0.5

# verts
v -22 0 -6
v -22 0 -11
v -22 10 -6
v -22 10 -11
v 3 2 -6
v 3 2 -8
v 3 8 -6
v 3 8 -8
v -21 2 -6
v -21 2 -8
v -21 6 -8
v -21 8 -6
v -21 8 -8
v 4 0 -6
v 4 0 -11
v 4 10 -6
v 4 10 -11
v -22 0 -6
v -22 10 -6
v -21 2 -6
v -21 8 -6
v 3 2 -6
v 3 8 -6
v 4 0 -6
v 4 10 -6
v -21 2 -8
v -21 6 -8
v -21 8 -8
v 2 2 -8
v 2 6 -8
v 3 2 -8
v 3 8 -8
v -22 0 -11
v -22 10 -11
v 4 0 -11
v 4 10 -11
v -22 0 -6
v 4 0 -6
v -22 0 -11
v 4 0 -11
v -21 8 -6
v 3 8 -6
v -21 8 -8
v 3 8 -8
v -21 2 -6
v 3 2 -6
v -21 2 -8
v 2 2 -8
v 3 2 -8
v -22 10 -6
v 4 10 -6
v -22 10 -11
v 4 10 -11

# faces
f 3/1/1 2/1/1 1/1/1
f 4/1/1 2/1/1 3/1/1
f 7/1/1 6/1/1 5/1/1
f 8/1/1 6/1/1 7/1/1
f 9/1/2 10/1/2 11/1/2
f 9/1/2 11/1/2 12/1/2
f 12/1/2 11/1/2 13/1/2
f 14/1/2 15/1/2 16/1/2
f 16/1/2 15/1/2 17/1/2
f 20/1/3 19/1/3 18/1/3
f 21/1/3 19/1/3 20/1/3
f 22/1/3 20/1/3 18/1/3
f 23/1/3 19/1/3 21/1/3
f 24/1/3 22/1/3 18/1/3
f 24/1/3 23/1/3 22/1/3
f 25/1/3 19/1/3 23/1/3
f 25/1/3 23/1/3 24/1/3
f 29/2/3 27/2/3 26/2/3
f 30/3/3 28/3/3 27/3/3
f 30/2/3 27/2/3 29/2/3
f 31/3/3 30/3/3 29/3/3
f 32/3/3 28/3/3 30/3/3
f 32/3/3 30/3/3 31/3/3
f 33/1/4 34/1/4 35/1/4
f 35/1/4 34/1/4 36/1/4
f 39/1/5 38/1/5 37/1/5
f 40/1/5 38/1/5 39/1/5
f 43/1/5 42/1/5 41/1/5
f 44/1/5 42/1/5 43/1/5
f 45/1/6 46/1/6 47/1/6
f 47/1/6 46/1/6 48/1/6
f 48/1/6 46/1/6 49/1/6
f 50/1/6 51/1/6 52/1/6
f 52/1/6 51/1/6 53/1/6
