# MagicaVoxel @ ephtracy

# material
mtllib dw13.mtl
usemtl palette

# normals
vn -1 0 0
vn 1 0 0
vn 0 0 1
vn 0 0 -1
vn 0 -1 0
vn 0 1 0

# texcoords
vt 0.970703 0.5
vt 0.974609 0.5
vt 0.978516 0.5
vt 0.990234 0.5

# verts
v -15.5 10 3
v -15.5 10 -1
v -15.5 13 -1
v -15.5 13 -3
v -15.5 14 3
v -15.5 14 -3
v -15.5 17 5
v -15.5 17 -4
v -15.5 26 -4
v -15.5 26 -5
v -15.5 31 5
v -15.5 31 -5
v -15.5 34 5
v -15.5 34 -5
v -14.5 9 3
v -14.5 9 -1
v -14.5 10 3
v -14.5 10 -1
v -14.5 14 3
v -14.5 14 -3
v -14.5 15 3
v -14.5 15 -3
v -13.5 8 3
v -13.5 8 -1
v -13.5 9 3
v -13.5 9 -1
v -13.5 15 5
v -13.5 15 3
v -13.5 15 -3
v -13.5 15 -4
v -13.5 17 5
v -13.5 17 -4
v -12.5 3 3
v -12.5 3 -1
v -12.5 8 3
v -12.5 8 -1
v -11.5 0 3
v -11.5 0 -1
v -11.5 3 3
v -11.5 3 -1
v -11.5 14 4
v -11.5 14 3
v -11.5 15 4
v -11.5 15 3
v -7.5 14 4
v -7.5 14 3
v -7.5 15 4
v -7.5 15 3
v -4.5 28 -4
v -4.5 28 -5
v -4.5 29 -4
v -4.5 29 -5
v -3.5 25 -4
v -3.5 25 -5
v -3.5 28 -4
v -3.5 28 -5
v -2.5 15 4
v -2.5 15 3
v -2.5 16 4
v -2.5 16 3
v -2.5 19 -4
v -2.5 19 -5
v -2.5 25 -4
v -2.5 25 -5
v 11.5 18 5
v 11.5 18 4
v 11.5 18 -4
v 11.5 18 -5
v 11.5 19 5
v 11.5 19 4
v 11.5 19 -4
v 11.5 19 -5
v -13.5 26 -4
v -13.5 26 -5
v -13.5 27 -4
v -13.5 27 -5
v -12.5 27 -4
v -12.5 27 -5
v -12.5 28 -4
v -12.5 28 -5
v -11.5 28 -4
v -11.5 28 -5
v -11.5 29 -4
v -11.5 29 -5
v -9.5 14 4
v -9.5 14 3
v -9.5 15 5
v -9.5 15 4
v -9.5 15 3
v -9.5 15 -3
v -9.5 15 -4
v -9.5 16 5
v -9.5 16 4
v -9.5 16 -3
v -9.5 16 -4
v -5.5 13 -1
v -5.5 13 -3
v -5.5 14 4
v -5.5 14 3
v -5.5 14 -1
v -5.5 14 -3
v -5.5 15 4
v -5.5 15 3
v -5.5 16 5
v -5.5 16 4
v -5.5 19 5
v -5.5 19 4
v -4.5 15 4
v -4.5 15 3
v -4.5 16 4
v -4.5 16 3
v -1.5 0 3
v -1.5 0 2
v -1.5 10 3
v -1.5 10 2
v 0.5 14 -1
v 0.5 14 -3
v 0.5 15 4
v 0.5 15 3
v 0.5 15 -1
v 0.5 15 -3
v 0.5 16 4
v 0.5 16 3
v 0.5 16 -3
v 0.5 16 -4
v 0.5 17 -3
v 0.5 17 -4
v 2.5 0 2
v 2.5 0 1
v 2.5 6 2
v 2.5 6 1
v 4.5 15 -1
v 4.5 15 -3
v 4.5 16 4
v 4.5 16 3
v 4.5 16 -1
v 4.5 16 -3
v 4.5 17 4
v 4.5 17 3
v 7.5 0 1
v 7.5 0 -0
v 7.5 3 1
v 7.5 3 -0
v 7.5 17 4
v 7.5 17 3
v 7.5 17 -3
v 7.5 17 -4
v 7.5 18 4
v 7.5 18 3
v 7.5 18 -3
v 7.5 18 -4
v 10.5 0 -0
v 10.5 0 -1
v 10.5 3 1
v 10.5 3 -0
v 10.5 6 1
v 10.5 6 -1
v 11.5 6 2
v 11.5 6 -1
v 11.5 10 2
v 11.5 10 -1
v 12.5 10 3
v 12.5 10 -1
v 12.5 16 -1
v 12.5 16 -3
v 12.5 18 3
v 12.5 18 -3
v 14.5 18 5
v 14.5 18 -5
v 14.5 19 5
v 14.5 19 -5
v 15.5 19 5
v 15.5 19 -5
v 15.5 31 5
v 15.5 31 -5
v 15.5 34 5
v 15.5 34 -5
v -15.5 17 5
v -15.5 31 5
v -15.5 34 5
v -13.5 15 5
v -13.5 17 5
v -13.5 26 5
v -13.5 27 5
v -12.5 27 5
v -12.5 28 5
v -11.5 28 5
v -11.5 29 5
v -9.5 15 5
v -9.5 16 5
v -5.5 16 5
v -5.5 19 5
v -5.5 26 5
v -4.5 28 5
v -4.5 29 5
v -3.5 25 5
v -3.5 28 5
v -2.5 19 5
v -2.5 25 5
v 11.5 18 5
v 11.5 19 5
v 14.5 18 5
v 14.5 19 5
v 15.5 19 5
v 15.5 31 5
v 15.5 34 5
v -11.5 14 4
v -11.5 15 4
v -9.5 14 4
v -9.5 15 4
v -9.5 16 4
v -7.5 14 4
v -7.5 15 4
v -5.5 14 4
v -5.5 15 4
v -5.5 16 4
v -5.5 19 4
v -4.5 15 4
v -4.5 16 4
v -2.5 15 4
v -2.5 16 4
v -2.5 19 4
v 0.5 15 4
v 0.5 16 4
v 0.5 17 4
v 4.5 16 4
v 4.5 17 4
v 7.5 17 4
v 7.5 18 4
v 11.5 18 4
v 11.5 19 4
v -15.5 10 3
v -15.5 14 3
v -14.5 9 3
v -14.5 10 3
v -14.5 14 3
v -14.5 15 3
v -13.5 8 3
v -13.5 9 3
v -13.5 15 3
v -12.5 3 3
v -12.5 8 3
v -11.5 0 3
v -11.5 3 3
v -11.5 14 3
v -11.5 15 3
v -9.5 14 3
v -9.5 15 3
v -7.5 14 3
v -7.5 15 3
v -5.5 14 3
v -5.5 15 3
v -4.5 15 3
v -4.5 16 3
v -2.5 15 3
v -2.5 16 3
v -1.5 0 3
v -1.5 10 3
v 0.5 15 3
v 0.5 16 3
v 4.5 16 3
v 4.5 17 3
v 7.5 17 3
v 7.5 18 3
v 11.5 18 3
v 12.5 10 3
v 12.5 18 3
v -1.5 0 2
v -1.5 10 2
v 2.5 0 2
v 2.5 6 2
v 11.5 6 2
v 11.5 10 2
v 2.5 0 1
v 2.5 6 1
v 7.5 0 1
v 7.5 3 1
v 10.5 3 1
v 10.5 6 1
v 7.5 0 -0
v 7.5 3 -0
v 10.5 0 -0
v 10.5 3 -0
v -15.5 10 -1
v -15.5 13 -1
v -14.5 9 -1
v -14.5 10 -1
v -13.5 8 -1
v -13.5 9 -1
v -12.5 3 -1
v -12.5 8 -1
v -11.5 0 -1
v -11.5 3 -1
v -5.5 13 -1
v -5.5 14 -1
v 0.5 14 -1
v 0.5 15 -1
v 4.5 15 -1
v 4.5 16 -1
v 10.5 0 -1
v 10.5 6 -1
v 11.5 6 -1
v 11.5 10 -1
v 12.5 10 -1
v 12.5 16 -1
v -15.5 13 -3
v -15.5 14 -3
v -14.5 14 -3
v -14.5 15 -3
v -13.5 15 -3
v -11.5 14 -3
v -11.5 15 -3
v -9.5 14 -3
v -9.5 15 -3
v -9.5 16 -3
v -7.5 14 -3
v -7.5 15 -3
v -5.5 13 -3
v -5.5 14 -3
v -5.5 15 -3
v -5.5 16 -3
v -4.5 15 -3
v -4.5 16 -3
v -2.5 15 -3
v -2.5 16 -3
v 0.5 14 -3
v 0.5 15 -3
v 0.5 16 -3
v 0.5 17 -3
v 4.5 15 -3
v 4.5 16 -3
v 4.5 17 -3
v 7.5 17 -3
v 7.5 18 -3
v 11.5 18 -3
v 12.5 16 -3
v 12.5 18 -3
v -15.5 17 -4
v -15.5 26 -4
v -13.5 15 -4
v -13.5 17 -4
v -13.5 26 -4
v -13.5 27 -4
v -12.5 27 -4
v -12.5 28 -4
v -11.5 28 -4
v -11.5 29 -4
v -9.5 15 -4
v -9.5 16 -4
v -5.5 16 -4
v -5.5 26 -4
v -4.5 28 -4
v -4.5 29 -4
v -3.5 25 -4
v -3.5 28 -4
v -2.5 19 -4
v -2.5 25 -4
v 0.5 16 -4
v 0.5 17 -4
v 7.5 17 -4
v 7.5 18 -4
v 11.5 18 -4
v 11.5 19 -4
v -15.5 26 -5
v -15.5 31 -5
v -15.5 34 -5
v -13.5 26 -5
v -13.5 27 -5
v -12.5 27 -5
v -12.5 28 -5
v -11.5 28 -5
v -11.5 29 -5
v -4.5 28 -5
v -4.5 29 -5
v -3.5 25 -5
v -3.5 28 -5
v -2.5 19 -5
v -2.5 25 -5
v 11.5 18 -5
v 11.5 19 -5
v 14.5 18 -5
v 14.5 19 -5
v 15.5 19 -5
v 15.5 31 -5
v 15.5 34 -5
v -11.5 0 3
v -1.5 0 3
v -1.5 0 2
v 2.5 0 2
v 2.5 0 1
v 7.5 0 1
v 7.5 0 -0
v 10.5 0 -0
v -11.5 0 -1
v 10.5 0 -1
v -12.5 3 3
v -11.5 3 3
v 7.5 3 1
v 10.5 3 1
v 7.5 3 -0
v 10.5 3 -0
v -12.5 3 -1
v -11.5 3 -1
v 2.5 6 2
v 11.5 6 2
v 2.5 6 1
v 10.5 6 1
v 10.5 6 -1
v 11.5 6 -1
v -13.5 8 3
v -12.5 8 3
v -13.5 8 -1
v -12.5 8 -1
v -14.5 9 3
v -13.5 9 3
v -14.5 9 -1
v -13.5 9 -1
v -15.5 10 3
v -14.5 10 3
v -1.5 10 3
v 12.5 10 3
v -1.5 10 2
v 11.5 10 2
v -15.5 10 -1
v -14.5 10 -1
v 11.5 10 -1
v 12.5 10 -1
v -15.5 13 -1
v -5.5 13 -1
v -15.5 13 -3
v -5.5 13 -3
v -11.5 14 4
v -9.5 14 4
v -7.5 14 4
v -5.5 14 4
v -11.5 14 3
v -9.5 14 3
v -7.5 14 3
v -5.5 14 3
v -5.5 14 -1
v 0.5 14 -1
v -5.5 14 -3
v 0.5 14 -3
v -13.5 15 5
v -9.5 15 5
v -11.5 15 4
v -9.5 15 4
v -7.5 15 4
v -5.5 15 4
v -4.5 15 4
v -2.5 15 4
v 0.5 15 4
v -13.5 15 3
v -11.5 15 3
v -9.5 15 3
v -7.5 15 3
v -5.5 15 3
v -4.5 15 3
v -2.5 15 3
v 0.5 15 3
v 0.5 15 -1
v 4.5 15 -1
v -13.5 15 -3
v -11.5 15 -3
v -9.5 15 -3
v 0.5 15 -3
v 4.5 15 -3
v -13.5 15 -4
v -9.5 15 -4
v -9.5 16 5
v -5.5 16 5
v -9.5 16 4
v -5.5 16 4
v -4.5 16 4
v -2.5 16 4
v 0.5 16 4
v 4.5 16 4
v -4.5 16 3
v -2.5 16 3
v 0.5 16 3
v 4.5 16 3
v 4.5 16 -1
v 12.5 16 -1
v -9.5 16 -3
v -5.5 16 -3
v -4.5 16 -3
v -2.5 16 -3
v 0.5 16 -3
v 4.5 16 -3
v 12.5 16 -3
v -9.5 16 -4
v -5.5 16 -4
v 0.5 16 -4
v -15.5 17 5
v -13.5 17 5
v 4.5 17 4
v 7.5 17 4
v 4.5 17 3
v 7.5 17 3
v 0.5 17 -3
v 4.5 17 -3
v 7.5 17 -3
v -15.5 17 -4
v -13.5 17 -4
v 0.5 17 -4
v 7.5 17 -4
v 11.5 18 5
v 14.5 18 5
v 7.5 18 4
v 11.5 18 4
v 7.5 18 3
v 11.5 18 3
v 12.5 18 3
v 7.5 18 -3
v 11.5 18 -3
v 12.5 18 -3
v 7.5 18 -4
v 11.5 18 -4
v 11.5 18 -5
v 14.5 18 -5
v -5.5 19 5
v -2.5 19 5
v 11.5 19 5
v 14.5 19 5
v 15.5 19 5
v -5.5 19 4
v -2.5 19 4
v 11.5 19 4
v -2.5 19 -4
v 11.5 19 -4
v -2.5 19 -5
v 11.5 19 -5
v 14.5 19 -5
v 15.5 19 -5
v -3.5 25 -4
v -2.5 25 -4
v -3.5 25 -5
v -2.5 25 -5
v -15.5 26 -4
v -13.5 26 -4
v -15.5 26 -5
v -13.5 26 -5
v -13.5 27 -4
v -12.5 27 -4
v -13.5 27 -5
v -12.5 27 -5
v -12.5 28 -4
v -11.5 28 -4
v -4.5 28 -4
v -3.5 28 -4
v -12.5 28 -5
v -11.5 28 -5
v -4.5 28 -5
v -3.5 28 -5
v -11.5 29 -4
v -4.5 29 -4
v -11.5 29 -5
v -4.5 29 -5
v -15.5 14 3
v -14.5 14 3
v -15.5 14 -3
v -14.5 14 -3
v -14.5 15 3
v -13.5 15 3
v -14.5 15 -3
v -13.5 15 -3
v -15.5 34 5
v 15.5 34 5
v -15.5 34 -5
v 15.5 34 -5

# faces
f 3/1/1 2/1/1 1/1/1
f 5/1/1 3/1/1 1/1/1
f 5/1/1 4/1/1 3/1/1
f 6/1/1 4/1/1 5/1/1
f 9/1/1 8/1/1 7/1/1
f 11/1/1 9/1/1 7/1/1
f 11/1/1 10/1/1 9/1/1
f 12/1/1 10/1/1 11/1/1
f 13/2/1 12/2/1 11/2/1
f 14/2/1 12/2/1 13/2/1
f 17/1/1 16/1/1 15/1/1
f 18/1/1 16/1/1 17/1/1
f 21/1/1 20/1/1 19/1/1
f 22/1/1 20/1/1 21/1/1
f 25/1/1 24/1/1 23/1/1
f 26/1/1 24/1/1 25/1/1
f 31/1/1 28/1/1 27/1/1
f 31/1/1 30/1/1 29/1/1
f 31/1/1 29/1/1 28/1/1
f 32/1/1 30/1/1 31/1/1
f 35/1/1 34/1/1 33/1/1
f 36/1/1 34/1/1 35/1/1
f 39/1/1 38/1/1 37/1/1
f 40/1/1 38/1/1 39/1/1
f 43/3/1 42/3/1 41/3/1
f 44/3/1 42/3/1 43/3/1
f 47/4/1 46/4/1 45/4/1
f 48/4/1 46/4/1 47/4/1
f 51/1/1 50/1/1 49/1/1
f 52/1/1 50/1/1 51/1/1
f 55/1/1 54/1/1 53/1/1
f 56/1/1 54/1/1 55/1/1
f 59/4/1 58/4/1 57/4/1
f 60/4/1 58/4/1 59/4/1
f 63/1/1 62/1/1 61/1/1
f 64/1/1 62/1/1 63/1/1
f 69/1/1 66/1/1 65/1/1
f 70/1/1 66/1/1 69/1/1
f 71/1/1 68/1/1 67/1/1
f 72/1/1 68/1/1 71/1/1
f 73/1/2 74/1/2 75/1/2
f 75/1/2 74/1/2 76/1/2
f 77/1/2 78/1/2 79/1/2
f 79/1/2 78/1/2 80/1/2
f 81/1/2 82/1/2 83/1/2
f 83/1/2 82/1/2 84/1/2
f 85/3/2 86/3/2 88/3/2
f 88/3/2 86/3/2 89/3/2
f 87/1/2 88/1/2 92/1/2
f 92/1/2 88/1/2 93/1/2
f 90/1/2 91/1/2 94/1/2
f 94/1/2 91/1/2 95/1/2
f 96/1/2 97/1/2 100/1/2
f 100/1/2 97/1/2 101/1/2
f 98/4/2 99/4/2 102/4/2
f 102/4/2 99/4/2 103/4/2
f 104/1/2 105/1/2 106/1/2
f 106/1/2 105/1/2 107/1/2
f 108/4/2 109/4/2 110/4/2
f 110/4/2 109/4/2 111/4/2
f 112/1/2 113/1/2 114/1/2
f 114/1/2 113/1/2 115/1/2
f 116/1/2 117/1/2 120/1/2
f 120/1/2 117/1/2 121/1/2
f 118/4/2 119/4/2 122/4/2
f 122/4/2 119/4/2 123/4/2
f 124/3/2 125/3/2 126/3/2
f 126/3/2 125/3/2 127/3/2
f 128/1/2 129/1/2 130/1/2
f 130/1/2 129/1/2 131/1/2
f 132/1/2 133/1/2 136/1/2
f 136/1/2 133/1/2 137/1/2
f 134/4/2 135/4/2 138/4/2
f 138/4/2 135/4/2 139/4/2
f 140/1/2 141/1/2 142/1/2
f 142/1/2 141/1/2 143/1/2
f 144/3/2 145/3/2 148/3/2
f 148/3/2 145/3/2 149/3/2
f 146/3/2 147/3/2 150/3/2
f 150/3/2 147/3/2 151/3/2
f 152/1/2 153/1/2 155/1/2
f 154/1/2 155/1/2 156/1/2
f 155/1/2 153/1/2 157/1/2
f 156/1/2 155/1/2 157/1/2
f 158/1/2 159/1/2 160/1/2
f 160/1/2 159/1/2 161/1/2
f 162/1/2 163/1/2 164/1/2
f 162/1/2 164/1/2 166/1/2
f 164/1/2 165/1/2 166/1/2
f 166/1/2 165/1/2 167/1/2
f 168/1/2 169/1/2 170/1/2
f 170/1/2 169/1/2 171/1/2
f 172/1/2 173/1/2 174/1/2
f 174/1/2 173/1/2 175/1/2
f 174/2/2 175/2/2 176/2/2
f 176/2/2 175/2/2 177/2/2
f 182/1/3 179/1/3 178/1/3
f 183/1/3 179/1/3 182/1/3
f 184/1/3 179/1/3 183/1/3
f 185/3/3 184/3/3 183/3/3
f 185/1/3 179/1/3 184/1/3
f 186/1/3 179/1/3 185/1/3
f 187/3/3 186/3/3 185/3/3
f 187/1/3 179/1/3 186/1/3
f 188/1/3 179/1/3 187/1/3
f 189/1/3 182/1/3 181/1/3
f 189/1/3 183/1/3 182/1/3
f 190/1/3 183/1/3 189/1/3
f 191/1/3 183/1/3 190/1/3
f 192/1/3 183/1/3 191/1/3
f 193/3/3 188/3/3 187/3/3
f 193/1/3 183/1/3 192/1/3
f 193/3/3 185/3/3 183/3/3
f 193/3/3 187/3/3 185/3/3
f 194/3/3 188/3/3 193/3/3
f 194/3/3 193/3/3 192/3/3
f 195/1/3 179/1/3 188/1/3
f 195/3/3 188/3/3 194/3/3
f 196/3/3 194/3/3 192/3/3
f 197/1/3 195/1/3 194/1/3
f 197/3/3 194/3/3 196/3/3
f 198/3/3 196/3/3 192/3/3
f 199/1/3 197/1/3 196/1/3
f 199/3/3 196/3/3 198/3/3
f 201/1/3 199/1/3 198/1/3
f 202/1/3 201/1/3 200/1/3
f 203/1/3 199/1/3 201/1/3
f 203/1/3 201/1/3 202/1/3
f 204/1/3 199/1/3 203/1/3
f 205/2/3 180/2/3 179/2/3
f 205/1/3 199/1/3 204/1/3
f 205/1/3 179/1/3 195/1/3
f 205/1/3 195/1/3 197/1/3
f 205/1/3 197/1/3 199/1/3
f 206/2/3 180/2/3 205/2/3
f 209/3/3 208/3/3 207/3/3
f 210/3/3 208/3/3 209/3/3
f 213/3/3 211/3/3 210/3/3
f 214/4/3 213/4/3 212/4/3
f 215/3/3 211/3/3 213/3/3
f 215/4/3 213/4/3 214/4/3
f 216/3/3 211/3/3 215/3/3
f 218/4/3 216/4/3 215/4/3
f 219/3/3 217/3/3 216/3/3
f 219/4/3 216/4/3 218/4/3
f 221/3/3 217/3/3 219/3/3
f 222/3/3 217/3/3 221/3/3
f 223/4/3 221/4/3 220/4/3
f 224/3/3 222/3/3 221/3/3
f 224/4/3 221/4/3 223/4/3
f 225/3/3 222/3/3 224/3/3
f 226/4/3 225/4/3 224/4/3
f 227/3/3 222/3/3 225/3/3
f 227/4/3 225/4/3 226/4/3
f 228/3/3 222/3/3 227/3/3
f 229/3/3 222/3/3 228/3/3
f 230/3/3 222/3/3 229/3/3
f 231/3/3 222/3/3 230/3/3
f 235/1/3 233/1/3 232/1/3
f 236/1/3 233/1/3 235/1/3
f 239/1/3 235/1/3 234/1/3
f 239/1/3 237/1/3 236/1/3
f 239/1/3 236/1/3 235/1/3
f 240/1/3 237/1/3 239/1/3
f 242/1/3 239/1/3 238/1/3
f 242/1/3 240/1/3 239/1/3
f 244/1/3 242/1/3 241/1/3
f 245/1/3 240/1/3 242/1/3
f 245/1/3 242/1/3 244/1/3
f 246/1/3 240/1/3 245/1/3
f 247/1/3 244/1/3 243/1/3
f 247/1/3 245/1/3 244/1/3
f 249/1/3 247/1/3 243/1/3
f 249/1/3 248/1/3 247/1/3
f 250/1/3 248/1/3 249/1/3
f 251/1/3 249/1/3 243/1/3
f 253/1/3 252/1/3 251/1/3
f 255/1/3 253/1/3 251/1/3
f 255/1/3 254/1/3 253/1/3
f 256/1/3 254/1/3 255/1/3
f 257/1/3 251/1/3 243/1/3
f 257/1/3 255/1/3 251/1/3
f 258/1/3 255/1/3 257/1/3
f 259/1/3 255/1/3 258/1/3
f 261/1/3 260/1/3 259/1/3
f 263/1/3 262/1/3 261/1/3
f 265/1/3 264/1/3 263/1/3
f 266/1/3 261/1/3 259/1/3
f 266/1/3 259/1/3 258/1/3
f 266/1/3 265/1/3 263/1/3
f 266/1/3 263/1/3 261/1/3
f 267/1/3 265/1/3 266/1/3
f 270/1/3 269/1/3 268/1/3
f 271/1/3 269/1/3 270/1/3
f 272/1/3 269/1/3 271/1/3
f 273/1/3 269/1/3 272/1/3
f 276/1/3 275/1/3 274/1/3
f 277/1/3 275/1/3 276/1/3
f 278/1/3 275/1/3 277/1/3
f 279/1/3 275/1/3 278/1/3
f 282/1/3 281/1/3 280/1/3
f 283/1/3 281/1/3 282/1/3
f 284/1/4 285/1/4 287/1/4
f 286/1/4 287/1/4 289/1/4
f 288/1/4 289/1/4 291/1/4
f 290/1/4 291/1/4 293/1/4
f 287/1/4 285/1/4 294/1/4
f 292/1/4 293/1/4 294/1/4
f 293/1/4 291/1/4 294/1/4
f 289/1/4 287/1/4 294/1/4
f 291/1/4 289/1/4 294/1/4
f 294/1/4 295/1/4 296/1/4
f 296/1/4 297/1/4 298/1/4
f 292/1/4 294/1/4 300/1/4
f 298/1/4 299/1/4 300/1/4
f 296/1/4 298/1/4 300/1/4
f 294/1/4 296/1/4 300/1/4
f 300/1/4 299/1/4 301/1/4
f 301/1/4 299/1/4 302/1/4
f 302/1/4 299/1/4 303/1/4
f 303/1/4 299/1/4 304/1/4
f 304/1/4 299/1/4 305/1/4
f 306/1/4 307/1/4 308/1/4
f 308/1/4 309/1/4 310/1/4
f 306/1/4 308/1/4 311/1/4
f 308/1/4 310/1/4 311/1/4
f 311/1/4 310/1/4 312/1/4
f 306/1/4 311/1/4 313/1/4
f 311/3/4 312/3/4 313/3/4
f 313/3/4 312/3/4 314/3/4
f 313/1/4 314/1/4 316/1/4
f 306/1/4 313/1/4 316/1/4
f 314/3/4 315/3/4 317/3/4
f 316/1/4 314/1/4 317/1/4
f 306/1/4 316/1/4 318/1/4
f 316/4/4 317/4/4 319/4/4
f 318/1/4 316/1/4 319/1/4
f 317/3/4 315/3/4 320/3/4
f 319/4/4 317/4/4 320/4/4
f 320/3/4 315/3/4 321/3/4
f 319/1/4 320/1/4 322/1/4
f 320/4/4 321/4/4 322/4/4
f 322/4/4 321/4/4 323/4/4
f 319/1/4 322/1/4 324/1/4
f 322/1/4 323/1/4 324/1/4
f 324/1/4 323/1/4 325/1/4
f 319/1/4 324/1/4 326/1/4
f 324/4/4 325/4/4 327/4/4
f 326/1/4 324/1/4 327/1/4
f 327/4/4 325/4/4 328/4/4
f 327/1/4 328/1/4 330/1/4
f 328/4/4 329/4/4 331/4/4
f 330/1/4 328/1/4 331/1/4
f 331/4/4 329/4/4 332/4/4
f 331/1/4 332/1/4 333/1/4
f 333/1/4 334/1/4 335/1/4
f 331/1/4 333/1/4 336/1/4
f 333/1/4 335/1/4 336/1/4
f 336/1/4 335/1/4 337/1/4
f 338/1/4 339/1/4 341/1/4
f 341/1/4 339/1/4 342/1/4
f 342/3/4 343/3/4 344/3/4
f 344/3/4 345/3/4 346/3/4
f 340/1/4 341/1/4 348/1/4
f 341/1/4 342/1/4 348/1/4
f 348/1/4 342/1/4 349/1/4
f 349/1/4 342/1/4 350/1/4
f 346/3/4 347/3/4 351/3/4
f 350/1/4 342/1/4 351/1/4
f 344/3/4 346/3/4 351/3/4
f 342/3/4 344/3/4 351/3/4
f 350/3/4 351/3/4 352/3/4
f 351/3/4 347/3/4 352/3/4
f 352/3/4 347/3/4 353/3/4
f 350/3/4 352/3/4 354/3/4
f 354/3/4 352/3/4 355/3/4
f 350/3/4 354/3/4 356/3/4
f 356/3/4 354/3/4 357/3/4
f 350/3/4 356/3/4 358/3/4
f 358/3/4 356/3/4 359/3/4
f 359/3/4 356/3/4 360/3/4
f 360/3/4 356/3/4 361/3/4
f 361/3/4 356/3/4 362/3/4
f 362/3/4 356/3/4 363/3/4
f 364/1/4 365/1/4 367/1/4
f 367/1/4 365/1/4 368/1/4
f 368/1/4 365/1/4 369/1/4
f 369/1/4 365/1/4 370/1/4
f 370/1/4 365/1/4 371/1/4
f 371/1/4 365/1/4 372/1/4
f 372/1/4 365/1/4 374/1/4
f 373/1/4 374/1/4 376/1/4
f 375/1/4 376/1/4 378/1/4
f 377/1/4 378/1/4 380/1/4
f 379/1/4 380/1/4 381/1/4
f 380/1/4 378/1/4 382/1/4
f 381/1/4 380/1/4 382/1/4
f 382/1/4 378/1/4 383/1/4
f 365/2/4 366/2/4 384/2/4
f 383/1/4 378/1/4 384/1/4
f 374/1/4 365/1/4 384/1/4
f 376/1/4 374/1/4 384/1/4
f 378/1/4 376/1/4 384/1/4
f 384/2/4 366/2/4 385/2/4
f 388/1/5 387/1/5 386/1/5
f 390/1/5 389/1/5 388/1/5
f 392/1/5 391/1/5 390/1/5
f 394/1/5 388/1/5 386/1/5
f 394/1/5 393/1/5 392/1/5
f 394/1/5 392/1/5 390/1/5
f 394/1/5 390/1/5 388/1/5
f 395/1/5 393/1/5 394/1/5
f 400/1/5 399/1/5 398/1/5
f 401/1/5 399/1/5 400/1/5
f 402/1/5 397/1/5 396/1/5
f 403/1/5 397/1/5 402/1/5
f 406/1/5 405/1/5 404/1/5
f 407/1/5 405/1/5 406/1/5
f 408/1/5 405/1/5 407/1/5
f 409/1/5 405/1/5 408/1/5
f 412/1/5 411/1/5 410/1/5
f 413/1/5 411/1/5 412/1/5
f 416/1/5 415/1/5 414/1/5
f 417/1/5 415/1/5 416/1/5
f 422/1/5 421/1/5 420/1/5
f 423/1/5 421/1/5 422/1/5
f 424/1/5 419/1/5 418/1/5
f 425/1/5 419/1/5 424/1/5
f 426/1/5 421/1/5 423/1/5
f 427/1/5 421/1/5 426/1/5
f 430/1/5 429/1/5 428/1/5
f 431/1/5 429/1/5 430/1/5
f 436/3/5 433/3/5 432/3/5
f 437/3/5 433/3/5 436/3/5
f 438/4/5 435/4/5 434/4/5
f 439/4/5 435/4/5 438/4/5
f 442/1/5 441/1/5 440/1/5
f 443/1/5 441/1/5 442/1/5
f 446/1/5 445/1/5 444/1/5
f 447/1/5 445/1/5 446/1/5
f 453/1/5 446/1/5 444/1/5
f 454/1/5 446/1/5 453/1/5
f 455/3/5 448/3/5 447/3/5
f 456/3/5 448/3/5 455/3/5
f 457/4/5 450/4/5 449/4/5
f 458/4/5 450/4/5 457/4/5
f 459/4/5 452/4/5 451/4/5
f 460/4/5 452/4/5 459/4/5
f 466/1/5 462/1/5 461/1/5
f 467/1/5 462/1/5 466/1/5
f 468/1/5 465/1/5 464/1/5
f 468/1/5 464/1/5 463/1/5
f 469/1/5 465/1/5 468/1/5
f 472/1/5 471/1/5 470/1/5
f 473/1/5 471/1/5 472/1/5
f 478/3/5 475/3/5 474/3/5
f 479/3/5 475/3/5 478/3/5
f 480/4/5 477/4/5 476/4/5
f 481/4/5 477/4/5 480/4/5
f 489/1/5 483/1/5 482/1/5
f 490/1/5 483/1/5 489/1/5
f 491/1/5 485/1/5 484/1/5
f 492/3/5 488/3/5 487/3/5
f 492/1/5 485/1/5 491/1/5
f 492/3/5 486/3/5 485/3/5
f 492/3/5 487/3/5 486/3/5
f 493/3/5 488/3/5 492/3/5
f 498/3/5 497/3/5 496/3/5
f 499/3/5 497/3/5 498/3/5
f 503/1/5 495/1/5 494/1/5
f 504/1/5 495/1/5 503/1/5
f 505/3/5 502/3/5 501/3/5
f 505/3/5 501/3/5 500/3/5
f 506/3/5 502/3/5 505/3/5
f 510/1/5 508/1/5 507/1/5
f 511/3/5 510/3/5 509/3/5
f 512/1/5 508/1/5 510/1/5
f 512/3/5 510/3/5 511/3/5
f 513/1/5 508/1/5 512/1/5
f 516/1/5 508/1/5 513/1/5
f 517/3/5 515/3/5 514/3/5
f 518/1/5 516/1/5 515/1/5
f 518/3/5 515/3/5 517/3/5
f 519/1/5 516/1/5 518/1/5
f 520/1/5 508/1/5 516/1/5
f 520/1/5 516/1/5 519/1/5
f 526/3/5 522/3/5 521/3/5
f 527/1/5 523/1/5 522/1/5
f 527/3/5 522/3/5 526/3/5
f 528/1/5 523/1/5 527/1/5
f 531/1/5 530/1/5 529/1/5
f 532/1/5 530/1/5 531/1/5
f 533/1/5 525/1/5 524/1/5
f 534/1/5 525/1/5 533/1/5
f 537/1/5 536/1/5 535/1/5
f 538/1/5 536/1/5 537/1/5
f 541/1/5 540/1/5 539/1/5
f 542/1/5 540/1/5 541/1/5
f 545/1/5 544/1/5 543/1/5
f 546/1/5 544/1/5 545/1/5
f 551/1/5 548/1/5 547/1/5
f 552/1/5 548/1/5 551/1/5
f 553/1/5 550/1/5 549/1/5
f 554/1/5 550/1/5 553/1/5
f 557/1/5 556/1/5 555/1/5
f 558/1/5 556/1/5 557/1/5
f 559/1/6 560/1/6 561/1/6
f 561/1/6 560/1/6 562/1/6
f 563/1/6 564/1/6 565/1/6
f 565/1/6 564/1/6 566/1/6
f 567/2/6 568/2/6 569/2/6
f 569/2/6 568/2/6 570/2/6
