# MagicaVoxel @ ephtracy

# material
mtllib dw16.mtl
usemtl palette

# normals
vn -1 0 0
vn 1 0 0
vn 0 0 1
vn 0 0 -1
vn 0 -1 0
vn 0 1 0

# texcoords
vt 0.970703 0.5
vt 0.974609 0.5
vt 0.978516 0.5
vt 0.986328 0.5
vt 0.990234 0.5

# verts
v -16.5 4 1
v -16.5 4 -0
v -16.5 8 2
v -16.5 8 1
v -16.5 18 3
v -16.5 18 2
v -16.5 18 -0
v -16.5 20 3
v -16.5 20 -0
v -16.5 21 4
v -16.5 21 3
v -16.5 21 -0
v -16.5 34 4
v -16.5 34 -0
v -16.5 34 -4
v -16.5 35 5
v -16.5 35 4
v -16.5 35 -4
v -16.5 35 -5
v -16.5 39 5
v -16.5 39 -5
v -16.5 42 5
v -16.5 42 -5
v -8.5 21 4
v -8.5 21 3
v -8.5 22 4
v -8.5 22 3
v -1.5 18 3
v -1.5 18 2
v -1.5 19 3
v -1.5 19 2
v 2.5 2 1
v 2.5 2 -0
v 2.5 4 1
v 2.5 4 -0
v 3.5 0 1
v 3.5 0 -0
v 3.5 2 1
v 3.5 2 -0
v 3.5 17 3
v 3.5 17 2
v 3.5 18 3
v 3.5 18 2
v 3.5 34 -0
v 3.5 34 -4
v 3.5 35 5
v 3.5 35 4
v 3.5 35 -0
v 3.5 35 -4
v 3.5 35 -5
v 3.5 36 5
v 3.5 36 4
v 3.5 36 -4
v 3.5 36 -5
v 5.5 33 -0
v 5.5 33 -4
v 5.5 34 5
v 5.5 34 4
v 5.5 34 -0
v 5.5 34 -4
v 5.5 34 -5
v 5.5 35 5
v 5.5 35 4
v 5.5 35 -4
v 5.5 35 -5
v 12.5 14 3
v 12.5 14 2
v 12.5 17 3
v 12.5 17 2
v 12.5 34 -0
v 12.5 34 -4
v 12.5 35 -0
v 12.5 35 -4
v 13.5 34 -4
v 13.5 34 -5
v 13.5 35 5
v 13.5 35 4
v 13.5 36 5
v 13.5 36 4
v 13.5 36 -4
v 13.5 36 -5
v -14.5 18 3
v -14.5 18 2
v -14.5 19 3
v -14.5 19 2
v -10.5 21 4
v -10.5 21 3
v -10.5 22 4
v -10.5 22 3
v -3.5 8 2
v -3.5 8 1
v -3.5 12 2
v -3.5 12 1
v 0.5 34 -0
v 0.5 34 -4
v 0.5 35 5
v 0.5 35 4
v 0.5 35 -0
v 0.5 35 -4
v 0.5 35 -5
v 0.5 36 5
v 0.5 36 4
v 0.5 36 -4
v 0.5 36 -5
v 4.5 0 1
v 4.5 0 -0
v 4.5 5 1
v 4.5 5 -0
v 5.5 5 1
v 5.5 5 -0
v 5.5 6 1
v 5.5 6 -0
v 6.5 6 1
v 6.5 6 -0
v 6.5 12 1
v 6.5 12 -0
v 7.5 12 2
v 7.5 12 -0
v 7.5 13 2
v 7.5 13 -0
v 7.5 33 -0
v 7.5 33 -4
v 7.5 34 5
v 7.5 34 4
v 7.5 34 -0
v 7.5 34 -4
v 7.5 34 -5
v 7.5 35 5
v 7.5 35 4
v 7.5 35 -4
v 7.5 35 -5
v 8.5 13 2
v 8.5 13 -0
v 8.5 14 2
v 8.5 14 -0
v 11.5 34 -0
v 11.5 34 -4
v 11.5 35 5
v 11.5 35 4
v 11.5 35 -0
v 11.5 35 -4
v 11.5 35 -5
v 11.5 36 5
v 11.5 36 4
v 11.5 36 -4
v 11.5 36 -5
v 12.5 21 4
v 12.5 21 3
v 12.5 25 4
v 12.5 25 3
v 16.5 14 3
v 16.5 14 -0
v 16.5 25 4
v 16.5 25 3
v 16.5 34 -0
v 16.5 34 -5
v 16.5 35 5
v 16.5 35 4
v 16.5 39 5
v 16.5 39 -5
v 16.5 42 5
v 16.5 42 -5
v -16.5 35 5
v -16.5 39 5
v -16.5 42 5
v 0.5 35 5
v 0.5 36 5
v 3.5 35 5
v 3.5 36 5
v 5.5 34 5
v 5.5 35 5
v 7.5 34 5
v 7.5 35 5
v 11.5 35 5
v 11.5 36 5
v 13.5 35 5
v 13.5 36 5
v 16.5 35 5
v 16.5 39 5
v 16.5 42 5
v -16.5 21 4
v -16.5 34 4
v -16.5 35 4
v -11.5 21 4
v -11.5 22 4
v -10.5 21 4
v -10.5 22 4
v -10.5 33 4
v -10.5 34 4
v -8.5 21 4
v -8.5 22 4
v -8.5 32 4
v -8.5 33 4
v -8.5 34 4
v -7.5 21 4
v -7.5 22 4
v -6.5 32 4
v -6.5 33 4
v -5.5 32 4
v -5.5 33 4
v -4.5 32 4
v -4.5 33 4
v -4.5 34 4
v -3.5 33 4
v -3.5 34 4
v -2.5 33 4
v -2.5 34 4
v 0.5 33 4
v 0.5 34 4
v 0.5 35 4
v 0.5 36 4
v 2.5 33 4
v 2.5 34 4
v 3.5 34 4
v 3.5 35 4
v 3.5 36 4
v 5.5 32 4
v 5.5 33 4
v 5.5 34 4
v 5.5 35 4
v 7.5 32 4
v 7.5 33 4
v 7.5 34 4
v 7.5 35 4
v 8.5 33 4
v 8.5 34 4
v 9.5 33 4
v 9.5 34 4
v 11.5 34 4
v 11.5 35 4
v 11.5 36 4
v 12.5 21 4
v 12.5 25 4
v 12.5 34 4
v 12.5 35 4
v 13.5 34 4
v 13.5 35 4
v 13.5 36 4
v 14.5 33 4
v 14.5 34 4
v 16.5 25 4
v 16.5 35 4
v -16.5 18 3
v -16.5 20 3
v -16.5 21 3
v -14.5 18 3
v -14.5 19 3
v -11.5 19 3
v -11.5 20 3
v -11.5 21 3
v -10.5 20 3
v -10.5 21 3
v -10.5 22 3
v -8.5 19 3
v -8.5 21 3
v -8.5 22 3
v -7.5 20 3
v -7.5 21 3
v -1.5 18 3
v -1.5 19 3
v -0.5 19 3
v -0.5 20 3
v 0.5 19 3
v 0.5 20 3
v 0.5 21 3
v 2.5 18 3
v 2.5 19 3
v 2.5 20 3
v 3.5 17 3
v 3.5 18 3
v 4.5 18 3
v 4.5 20 3
v 4.5 21 3
v 7.5 18 3
v 7.5 19 3
v 8.5 18 3
v 8.5 19 3
v 9.5 18 3
v 9.5 19 3
v 10.5 18 3
v 10.5 19 3
v 12.5 14 3
v 12.5 17 3
v 12.5 21 3
v 12.5 25 3
v 13.5 18 3
v 13.5 19 3
v 13.5 20 3
v 13.5 23 3
v 13.5 24 3
v 14.5 14 3
v 14.5 19 3
v 14.5 24 3
v 14.5 25 3
v 15.5 23 3
v 15.5 25 3
v 16.5 14 3
v 16.5 25 3
v -16.5 8 2
v -16.5 18 2
v -14.5 18 2
v -14.5 19 2
v -11.5 19 2
v -8.5 19 2
v -3.5 8 2
v -3.5 12 2
v -1.5 18 2
v -1.5 19 2
v 2.5 18 2
v 3.5 17 2
v 3.5 18 2
v 7.5 12 2
v 7.5 13 2
v 8.5 13 2
v 8.5 14 2
v 12.5 14 2
v 12.5 17 2
v -16.5 4 1
v -16.5 8 1
v -3.5 8 1
v -3.5 12 1
v 2.5 2 1
v 2.5 4 1
v 3.5 0 1
v 3.5 2 1
v 4.5 0 1
v 4.5 5 1
v 5.5 5 1
v 5.5 6 1
v 6.5 6 1
v 6.5 12 1
v -16.5 4 -0
v -16.5 18 -0
v -16.5 20 -0
v -16.5 21 -0
v -16.5 34 -0
v -14.5 18 -0
v -14.5 19 -0
v -11.5 19 -0
v -11.5 20 -0
v -11.5 21 -0
v -11.5 22 -0
v -10.5 20 -0
v -10.5 21 -0
v -10.5 22 -0
v -10.5 33 -0
v -10.5 34 -0
v -8.5 19 -0
v -8.5 21 -0
v -8.5 22 -0
v -8.5 32 -0
v -8.5 33 -0
v -8.5 34 -0
v -7.5 20 -0
v -7.5 21 -0
v -7.5 22 -0
v -6.5 32 -0
v -6.5 33 -0
v -5.5 32 -0
v -5.5 33 -0
v -4.5 32 -0
v -4.5 33 -0
v -4.5 34 -0
v -3.5 33 -0
v -3.5 34 -0
v -2.5 33 -0
v -2.5 34 -0
v -1.5 18 -0
v -1.5 19 -0
v -0.5 19 -0
v -0.5 20 -0
v 0.5 19 -0
v 0.5 20 -0
v 0.5 21 -0
v 0.5 33 -0
v 0.5 34 -0
v 0.5 35 -0
v 2.5 2 -0
v 2.5 4 -0
v 2.5 18 -0
v 2.5 19 -0
v 2.5 20 -0
v 2.5 33 -0
v 2.5 34 -0
v 3.5 0 -0
v 3.5 2 -0
v 3.5 34 -0
v 3.5 35 -0
v 4.5 0 -0
v 4.5 5 -0
v 4.5 18 -0
v 4.5 20 -0
v 4.5 21 -0
v 5.5 5 -0
v 5.5 6 -0
v 5.5 32 -0
v 5.5 33 -0
v 5.5 34 -0
v 6.5 6 -0
v 6.5 12 -0
v 7.5 12 -0
v 7.5 13 -0
v 7.5 18 -0
v 7.5 19 -0
v 7.5 32 -0
v 7.5 33 -0
v 7.5 34 -0
v 8.5 13 -0
v 8.5 14 -0
v 8.5 18 -0
v 8.5 19 -0
v 8.5 33 -0
v 8.5 34 -0
v 9.5 18 -0
v 9.5 19 -0
v 9.5 33 -0
v 9.5 34 -0
v 10.5 18 -0
v 10.5 19 -0
v 11.5 34 -0
v 11.5 35 -0
v 12.5 21 -0
v 12.5 25 -0
v 12.5 34 -0
v 12.5 35 -0
v 13.5 18 -0
v 13.5 19 -0
v 13.5 20 -0
v 13.5 23 -0
v 13.5 24 -0
v 13.5 34 -0
v 14.5 14 -0
v 14.5 19 -0
v 14.5 24 -0
v 14.5 25 -0
v 14.5 33 -0
v 14.5 34 -0
v 15.5 23 -0
v 15.5 25 -0
v 16.5 14 -0
v 16.5 34 -0
v -16.5 34 -4
v -16.5 35 -4
v 0.5 34 -4
v 0.5 35 -4
v 0.5 36 -4
v 3.5 34 -4
v 3.5 35 -4
v 3.5 36 -4
v 5.5 33 -4
v 5.5 34 -4
v 5.5 35 -4
v 7.5 33 -4
v 7.5 34 -4
v 7.5 35 -4
v 11.5 34 -4
v 11.5 35 -4
v 11.5 36 -4
v 12.5 34 -4
v 12.5 35 -4
v 13.5 34 -4
v 13.5 36 -4
v -16.5 35 -5
v -16.5 39 -5
v -16.5 42 -5
v 0.5 35 -5
v 0.5 36 -5
v 3.5 35 -5
v 3.5 36 -5
v 5.5 34 -5
v 5.5 35 -5
v 7.5 34 -5
v 7.5 35 -5
v 11.5 35 -5
v 11.5 36 -5
v 13.5 34 -5
v 13.5 36 -5
v 16.5 34 -5
v 16.5 39 -5
v 16.5 42 -5
v 3.5 0 1
v 4.5 0 1
v 3.5 0 -0
v 4.5 0 -0
v 2.5 2 1
v 3.5 2 1
v 2.5 2 -0
v 3.5 2 -0
v -16.5 4 1
v 2.5 4 1
v -16.5 4 -0
v 2.5 4 -0
v 4.5 5 1
v 5.5 5 1
v 4.5 5 -0
v 5.5 5 -0
v 5.5 6 1
v 6.5 6 1
v 5.5 6 -0
v 6.5 6 -0
v -16.5 8 2
v -3.5 8 2
v -16.5 8 1
v -3.5 8 1
v -3.5 12 2
v 7.5 12 2
v -3.5 12 1
v 6.5 12 1
v 6.5 12 -0
v 7.5 12 -0
v 7.5 13 2
v 8.5 13 2
v 7.5 13 -0
v 8.5 13 -0
v 12.5 14 3
v 14.5 14 3
v 16.5 14 3
v 8.5 14 2
v 12.5 14 2
v 8.5 14 -0
v 14.5 14 -0
v 16.5 14 -0
v 3.5 17 3
v 12.5 17 3
v 3.5 17 2
v 12.5 17 2
v -16.5 18 3
v -14.5 18 3
v -1.5 18 3
v 2.5 18 3
v 3.5 18 3
v -16.5 18 2
v -14.5 18 2
v -1.5 18 2
v 2.5 18 2
v 3.5 18 2
v -14.5 19 3
v -11.5 19 3
v -8.5 19 3
v -1.5 19 3
v -14.5 19 2
v -11.5 19 2
v -8.5 19 2
v -1.5 19 2
v -16.5 21 4
v -11.5 21 4
v -10.5 21 4
v -8.5 21 4
v -7.5 21 4
v 12.5 21 4
v -16.5 21 3
v -11.5 21 3
v -10.5 21 3
v -8.5 21 3
v -7.5 21 3
v 0.5 21 3
v 4.5 21 3
v 12.5 21 3
v -10.5 22 4
v -8.5 22 4
v -10.5 22 3
v -8.5 22 3
v 12.5 25 4
v 16.5 25 4
v 12.5 25 3
v 14.5 25 3
v 15.5 25 3
v 16.5 25 3
v 5.5 33 -0
v 7.5 33 -0
v 5.5 33 -4
v 7.5 33 -4
v 5.5 34 5
v 7.5 34 5
v 5.5 34 4
v 7.5 34 4
v -16.5 34 -0
v -10.5 34 -0
v -8.5 34 -0
v -4.5 34 -0
v -3.5 34 -0
v -2.5 34 -0
v 0.5 34 -0
v 3.5 34 -0
v 5.5 34 -0
v 7.5 34 -0
v 8.5 34 -0
v 9.5 34 -0
v 11.5 34 -0
v 12.5 34 -0
v 13.5 34 -0
v 14.5 34 -0
v 16.5 34 -0
v -16.5 34 -4
v 0.5 34 -4
v 3.5 34 -4
v 5.5 34 -4
v 7.5 34 -4
v 11.5 34 -4
v 12.5 34 -4
v 13.5 34 -4
v 5.5 34 -5
v 7.5 34 -5
v 13.5 34 -5
v 16.5 34 -5
v -16.5 35 5
v 0.5 35 5
v 3.5 35 5
v 5.5 35 5
v 7.5 35 5
v 11.5 35 5
v 13.5 35 5
v 16.5 35 5
v -16.5 35 4
v 0.5 35 4
v 3.5 35 4
v 5.5 35 4
v 7.5 35 4
v 11.5 35 4
v 13.5 35 4
v 16.5 35 4
v 0.5 35 -0
v 3.5 35 -0
v 11.5 35 -0
v 12.5 35 -0
v -16.5 35 -4
v 0.5 35 -4
v 3.5 35 -4
v 5.5 35 -4
v 7.5 35 -4
v 11.5 35 -4
v 12.5 35 -4
v -16.5 35 -5
v 0.5 35 -5
v 3.5 35 -5
v 5.5 35 -5
v 7.5 35 -5
v 11.5 35 -5
v 0.5 36 5
v 3.5 36 5
v 11.5 36 5
v 13.5 36 5
v 0.5 36 4
v 3.5 36 4
v 11.5 36 4
v 13.5 36 4
v 0.5 36 -4
v 3.5 36 -4
v 11.5 36 -4
v 13.5 36 -4
v 0.5 36 -5
v 3.5 36 -5
v 11.5 36 -5
v 13.5 36 -5
v -16.5 42 5
v 16.5 42 5
v -16.5 42 -5
v 16.5 42 -5

# faces
f 4/4/1 2/4/1 1/4/1
f 6/4/1 4/4/1 3/4/1
f 7/4/1 2/4/1 4/4/1
f 7/4/1 4/4/1 6/4/1
f 8/1/1 6/1/1 5/1/1
f 8/1/1 7/1/1 6/1/1
f 9/1/1 7/1/1 8/1/1
f 11/3/1 9/3/1 8/3/1
f 12/3/1 9/3/1 11/3/1
f 13/1/1 11/1/1 10/1/1
f 13/1/1 12/1/1 11/1/1
f 14/1/1 12/1/1 13/1/1
f 17/3/1 14/3/1 13/3/1
f 17/3/1 15/3/1 14/3/1
f 18/3/1 15/3/1 17/3/1
f 20/1/1 17/1/1 16/1/1
f 20/1/1 19/1/1 18/1/1
f 20/1/1 18/1/1 17/1/1
f 21/1/1 19/1/1 20/1/1
f 22/2/1 21/2/1 20/2/1
f 23/2/1 21/2/1 22/2/1
f 26/3/1 25/3/1 24/3/1
f 27/3/1 25/3/1 26/3/1
f 30/1/1 29/1/1 28/1/1
f 31/1/1 29/1/1 30/1/1
f 34/4/1 33/4/1 32/4/1
f 35/4/1 33/4/1 34/4/1
f 38/4/1 37/4/1 36/4/1
f 39/4/1 37/4/1 38/4/1
f 42/4/1 41/4/1 40/4/1
f 43/4/1 41/4/1 42/4/1
f 48/3/1 45/3/1 44/3/1
f 49/3/1 45/3/1 48/3/1
f 51/1/1 47/1/1 46/1/1
f 52/1/1 47/1/1 51/1/1
f 53/1/1 50/1/1 49/1/1
f 54/1/1 50/1/1 53/1/1
f 59/3/1 56/3/1 55/3/1
f 60/3/1 56/3/1 59/3/1
f 62/1/1 58/1/1 57/1/1
f 63/1/1 58/1/1 62/1/1
f 64/1/1 61/1/1 60/1/1
f 65/1/1 61/1/1 64/1/1
f 68/4/1 67/4/1 66/4/1
f 69/4/1 67/4/1 68/4/1
f 72/3/1 71/3/1 70/3/1
f 73/3/1 71/3/1 72/3/1
f 78/1/1 77/1/1 76/1/1
f 79/1/1 77/1/1 78/1/1
f 80/1/1 75/1/1 74/1/1
f 81/1/1 75/1/1 80/1/1
f 82/1/2 83/1/2 84/1/2
f 84/1/2 83/1/2 85/1/2
f 86/3/2 87/3/2 88/3/2
f 88/3/2 87/3/2 89/3/2
f 90/4/2 91/4/2 92/4/2
f 92/4/2 91/4/2 93/4/2
f 94/3/2 95/3/2 98/3/2
f 98/3/2 95/3/2 99/3/2
f 96/1/2 97/1/2 101/1/2
f 101/1/2 97/1/2 102/1/2
f 99/1/2 100/1/2 103/1/2
f 103/1/2 100/1/2 104/1/2
f 105/4/2 106/4/2 107/4/2
f 107/4/2 106/4/2 108/4/2
f 109/4/2 110/4/2 111/4/2
f 111/4/2 110/4/2 112/4/2
f 113/4/2 114/4/2 115/4/2
f 115/4/2 114/4/2 116/4/2
f 117/4/2 118/4/2 119/4/2
f 119/4/2 118/4/2 120/4/2
f 121/3/2 122/3/2 125/3/2
f 125/3/2 122/3/2 126/3/2
f 123/1/2 124/1/2 128/1/2
f 128/1/2 124/1/2 129/1/2
f 126/1/2 127/1/2 130/1/2
f 130/1/2 127/1/2 131/1/2
f 132/4/2 133/4/2 134/4/2
f 134/4/2 133/4/2 135/4/2
f 136/3/2 137/3/2 140/3/2
f 140/3/2 137/3/2 141/3/2
f 138/1/2 139/1/2 143/1/2
f 143/1/2 139/1/2 144/1/2
f 141/1/2 142/1/2 145/1/2
f 145/1/2 142/1/2 146/1/2
f 147/1/2 148/1/2 149/1/2
f 149/1/2 148/1/2 150/1/2
f 151/1/2 152/1/2 154/1/2
f 154/1/2 152/1/2 155/1/2
f 153/1/2 154/1/2 155/1/2
f 153/1/2 155/1/2 158/1/2
f 155/1/2 156/1/2 158/1/2
f 157/1/2 158/1/2 159/1/2
f 158/1/2 156/1/2 160/1/2
f 159/1/2 158/1/2 160/1/2
f 159/2/2 160/2/2 161/2/2
f 161/2/2 160/2/2 162/2/2
f 166/1/3 164/1/3 163/1/3
f 167/1/3 164/1/3 166/1/3
f 169/1/3 164/1/3 167/1/3
f 171/1/3 169/1/3 168/1/3
f 172/1/3 171/1/3 170/1/3
f 173/1/3 169/1/3 171/1/3
f 173/1/3 171/1/3 172/1/3
f 174/1/3 169/1/3 173/1/3
f 175/1/3 164/1/3 169/1/3
f 175/1/3 169/1/3 174/1/3
f 177/1/3 164/1/3 175/1/3
f 178/1/3 177/1/3 176/1/3
f 179/2/3 165/2/3 164/2/3
f 179/1/3 177/1/3 178/1/3
f 179/1/3 164/1/3 177/1/3
f 180/2/3 165/2/3 179/2/3
f 184/1/3 182/1/3 181/1/3
f 185/1/3 182/1/3 184/1/3
f 186/3/3 185/3/3 184/3/3
f 187/1/3 182/1/3 185/1/3
f 187/3/3 185/3/3 186/3/3
f 188/1/3 182/1/3 187/1/3
f 189/3/3 183/3/3 182/3/3
f 189/1/3 182/1/3 188/1/3
f 191/1/3 188/1/3 187/1/3
f 192/1/3 188/1/3 191/1/3
f 193/5/3 189/5/3 188/5/3
f 193/1/3 188/1/3 192/1/3
f 194/3/3 183/3/3 189/3/3
f 194/5/3 189/5/3 193/5/3
f 195/3/3 191/3/3 190/3/3
f 196/1/3 192/1/3 191/1/3
f 196/3/3 191/3/3 195/3/3
f 197/5/3 193/5/3 192/5/3
f 197/1/3 192/1/3 196/1/3
f 197/1/3 196/1/3 195/1/3
f 198/1/3 194/1/3 193/1/3
f 198/5/3 193/5/3 197/5/3
f 199/1/3 197/1/3 195/1/3
f 199/1/3 198/1/3 197/1/3
f 200/1/3 194/1/3 198/1/3
f 200/1/3 198/1/3 199/1/3
f 201/1/3 199/1/3 195/1/3
f 201/5/3 200/5/3 199/5/3
f 202/1/3 194/1/3 200/1/3
f 202/5/3 200/5/3 201/5/3
f 203/3/3 183/3/3 194/3/3
f 203/1/3 194/1/3 202/1/3
f 204/1/3 202/1/3 201/1/3
f 204/5/3 203/5/3 202/5/3
f 205/3/3 183/3/3 203/3/3
f 205/5/3 203/5/3 204/5/3
f 206/1/3 204/1/3 201/1/3
f 206/1/3 205/1/3 204/1/3
f 207/3/3 183/3/3 205/3/3
f 207/1/3 205/1/3 206/1/3
f 208/1/3 206/1/3 201/1/3
f 208/5/3 207/5/3 206/5/3
f 209/3/3 183/3/3 207/3/3
f 209/5/3 207/5/3 208/5/3
f 210/3/3 183/3/3 209/3/3
f 212/1/3 208/1/3 201/1/3
f 212/1/3 209/1/3 208/1/3
f 213/5/3 210/5/3 209/5/3
f 213/1/3 209/1/3 212/1/3
f 214/5/3 213/5/3 212/5/3
f 214/5/3 210/5/3 213/5/3
f 215/3/3 211/3/3 210/3/3
f 215/5/3 210/5/3 214/5/3
f 216/3/3 211/3/3 215/3/3
f 217/1/3 201/1/3 195/1/3
f 217/1/3 212/1/3 201/1/3
f 218/5/3 214/5/3 212/5/3
f 218/1/3 212/1/3 217/1/3
f 219/3/3 215/3/3 214/3/3
f 219/5/3 214/5/3 218/5/3
f 220/3/3 215/3/3 219/3/3
f 221/1/3 217/1/3 195/1/3
f 221/5/3 218/5/3 217/5/3
f 222/3/3 219/3/3 218/3/3
f 222/5/3 218/5/3 221/5/3
f 223/3/3 219/3/3 222/3/3
f 225/1/3 222/1/3 221/1/3
f 225/5/3 223/5/3 222/5/3
f 226/3/3 224/3/3 223/3/3
f 226/5/3 223/5/3 225/5/3
f 227/1/3 225/1/3 221/1/3
f 227/1/3 226/1/3 225/1/3
f 228/3/3 224/3/3 226/3/3
f 228/1/3 226/1/3 227/1/3
f 229/5/3 228/5/3 227/5/3
f 229/3/3 224/3/3 228/3/3
f 230/3/3 224/3/3 229/3/3
f 232/1/3 221/1/3 195/1/3
f 232/1/3 227/1/3 221/1/3
f 233/1/3 227/1/3 232/1/3
f 234/5/3 230/5/3 229/5/3
f 234/5/3 229/5/3 227/5/3
f 235/3/3 231/3/3 230/3/3
f 235/5/3 230/5/3 234/5/3
f 236/5/3 234/5/3 227/5/3
f 236/3/3 235/3/3 234/3/3
f 237/3/3 231/3/3 235/3/3
f 237/3/3 235/3/3 236/3/3
f 238/3/3 231/3/3 237/3/3
f 239/1/3 227/1/3 233/1/3
f 239/5/3 236/5/3 227/5/3
f 240/1/3 237/1/3 236/1/3
f 240/5/3 236/5/3 239/5/3
f 241/1/3 239/1/3 233/1/3
f 241/1/3 240/1/3 239/1/3
f 242/1/3 237/1/3 240/1/3
f 242/1/3 240/1/3 241/1/3
f 246/1/3 244/1/3 243/1/3
f 247/1/3 244/1/3 246/1/3
f 248/1/3 244/1/3 247/1/3
f 249/3/3 245/3/3 244/3/3
f 249/1/3 244/1/3 248/1/3
f 250/3/3 245/3/3 249/3/3
f 251/4/3 249/4/3 248/4/3
f 251/1/3 250/1/3 249/1/3
f 252/1/3 250/1/3 251/1/3
f 254/4/3 252/4/3 251/4/3
f 254/4/3 251/4/3 248/4/3
f 255/1/3 253/1/3 252/1/3
f 255/4/3 252/4/3 254/4/3
f 256/1/3 253/1/3 255/1/3
f 257/1/3 255/1/3 254/1/3
f 258/1/3 255/1/3 257/1/3
f 260/1/3 257/1/3 254/1/3
f 261/1/3 257/1/3 260/1/3
f 261/1/3 260/1/3 259/1/3
f 262/3/3 258/3/3 257/3/3
f 262/1/3 257/1/3 261/1/3
f 263/1/3 261/1/3 259/1/3
f 263/2/3 262/2/3 261/2/3
f 264/3/3 258/3/3 262/3/3
f 264/2/3 262/2/3 263/2/3
f 265/3/3 258/3/3 264/3/3
f 266/1/3 263/1/3 259/1/3
f 267/3/3 264/3/3 263/3/3
f 267/1/3 263/1/3 266/1/3
f 268/1/3 265/1/3 264/1/3
f 268/3/3 264/3/3 267/3/3
f 270/4/3 267/4/3 266/4/3
f 270/4/3 268/4/3 267/4/3
f 271/4/3 268/4/3 270/4/3
f 271/4/3 270/4/3 269/4/3
f 272/1/3 265/1/3 268/1/3
f 272/4/3 268/4/3 271/4/3
f 273/1/3 265/1/3 272/1/3
f 274/4/3 271/4/3 269/4/3
f 274/1/3 272/1/3 271/1/3
f 275/1/3 272/1/3 274/1/3
f 276/4/3 274/4/3 269/4/3
f 276/4/3 275/4/3 274/4/3
f 277/1/3 272/1/3 275/1/3
f 277/4/3 275/4/3 276/4/3
f 278/4/3 276/4/3 269/4/3
f 278/1/3 277/1/3 276/1/3
f 279/1/3 272/1/3 277/1/3
f 279/1/3 277/1/3 278/1/3
f 280/4/3 278/4/3 269/4/3
f 280/4/3 279/4/3 278/4/3
f 281/1/3 272/1/3 279/1/3
f 281/4/3 279/4/3 280/4/3
f 283/4/3 280/4/3 269/4/3
f 284/3/3 273/3/3 272/3/3
f 286/4/3 280/4/3 283/4/3
f 286/1/3 281/1/3 280/1/3
f 286/4/3 283/4/3 282/4/3
f 287/1/3 272/1/3 281/1/3
f 287/1/3 281/1/3 286/1/3
f 288/3/3 284/3/3 272/3/3
f 288/1/3 272/1/3 287/1/3
f 288/3/3 285/3/3 284/3/3
f 289/3/3 285/3/3 288/3/3
f 290/3/3 285/3/3 289/3/3
f 291/4/3 287/4/3 286/4/3
f 291/4/3 286/4/3 282/4/3
f 292/1/3 288/1/3 287/1/3
f 292/4/3 287/4/3 291/4/3
f 292/1/3 289/1/3 288/1/3
f 293/3/3 285/3/3 290/3/3
f 293/5/3 290/5/3 289/5/3
f 294/3/3 285/3/3 293/3/3
f 295/1/3 289/1/3 292/1/3
f 295/1/3 292/1/3 291/1/3
f 295/5/3 294/5/3 293/5/3
f 295/5/3 293/5/3 289/5/3
f 296/5/3 294/5/3 295/5/3
f 297/1/3 295/1/3 291/1/3
f 297/1/3 296/1/3 295/1/3
f 298/1/3 296/1/3 297/1/3
f 301/4/3 300/4/3 299/4/3
f 303/4/3 302/4/3 301/4/3
f 304/4/3 303/4/3 301/4/3
f 305/4/3 301/4/3 299/4/3
f 305/4/3 304/4/3 301/4/3
f 306/4/3 304/4/3 305/4/3
f 307/4/3 304/4/3 306/4/3
f 308/4/3 304/4/3 307/4/3
f 309/4/3 307/4/3 306/4/3
f 310/4/3 309/4/3 306/4/3
f 311/4/3 309/4/3 310/4/3
f 312/4/3 310/4/3 306/4/3
f 313/4/3 310/4/3 312/4/3
f 314/4/3 310/4/3 313/4/3
f 315/4/3 310/4/3 314/4/3
f 316/4/3 310/4/3 315/4/3
f 317/4/3 310/4/3 316/4/3
f 320/4/3 319/4/3 318/4/3
f 323/4/3 320/4/3 318/4/3
f 323/4/3 321/4/3 320/4/3
f 325/4/3 323/4/3 322/4/3
f 326/4/3 325/4/3 324/4/3
f 327/4/3 321/4/3 323/4/3
f 327/4/3 325/4/3 326/4/3
f 327/4/3 323/4/3 325/4/3
f 328/4/3 321/4/3 327/4/3
f 329/4/3 321/4/3 328/4/3
f 330/4/3 321/4/3 329/4/3
f 331/4/3 321/4/3 330/4/3
f 332/4/4 333/4/4 337/4/4
f 333/1/4 334/1/4 337/1/4
f 337/1/4 334/1/4 338/1/4
f 337/4/4 338/4/4 339/4/4
f 338/1/4 334/1/4 339/1/4
f 334/3/4 335/3/4 340/3/4
f 339/1/4 334/1/4 340/1/4
f 335/1/4 336/1/4 341/1/4
f 340/3/4 335/3/4 341/3/4
f 341/1/4 336/1/4 342/1/4
f 339/4/4 340/4/4 343/4/4
f 340/1/4 341/1/4 343/1/4
f 341/3/4 342/3/4 344/3/4
f 343/1/4 341/1/4 344/1/4
f 342/1/4 336/1/4 345/1/4
f 344/3/4 342/3/4 345/3/4
f 345/1/4 336/1/4 346/1/4
f 346/1/4 336/1/4 347/1/4
f 343/4/4 344/4/4 348/4/4
f 337/4/4 339/4/4 348/4/4
f 339/4/4 343/4/4 348/4/4
f 345/1/4 346/1/4 349/1/4
f 348/4/4 344/4/4 349/4/4
f 344/1/4 345/1/4 349/1/4
f 349/1/4 346/1/4 350/1/4
f 350/1/4 346/1/4 351/1/4
f 346/5/4 347/5/4 352/5/4
f 351/1/4 346/1/4 352/1/4
f 352/5/4 347/5/4 353/5/4
f 348/1/4 349/1/4 354/1/4
f 349/3/4 350/3/4 355/3/4
f 354/1/4 349/1/4 355/1/4
f 350/1/4 351/1/4 356/1/4
f 355/3/4 350/3/4 356/3/4
f 351/5/4 352/5/4 357/5/4
f 356/1/4 351/1/4 357/1/4
f 355/1/4 356/1/4 357/1/4
f 352/1/4 353/1/4 358/1/4
f 357/5/4 352/5/4 358/5/4
f 355/1/4 357/1/4 359/1/4
f 357/1/4 358/1/4 359/1/4
f 358/1/4 353/1/4 360/1/4
f 359/1/4 358/1/4 360/1/4
f 355/1/4 359/1/4 361/1/4
f 359/5/4 360/5/4 361/5/4
f 360/1/4 353/1/4 362/1/4
f 361/5/4 360/5/4 362/5/4
f 362/1/4 353/1/4 363/1/4
f 361/1/4 362/1/4 364/1/4
f 362/5/4 363/5/4 364/5/4
f 364/5/4 363/5/4 365/5/4
f 361/1/4 364/1/4 366/1/4
f 364/1/4 365/1/4 366/1/4
f 366/1/4 365/1/4 367/1/4
f 332/4/4 337/4/4 368/4/4
f 337/4/4 348/4/4 368/4/4
f 348/1/4 354/1/4 369/1/4
f 368/4/4 348/4/4 369/4/4
f 368/1/4 369/1/4 370/1/4
f 369/1/4 354/1/4 370/1/4
f 354/3/4 355/3/4 371/3/4
f 370/1/4 354/1/4 371/1/4
f 368/1/4 370/1/4 372/1/4
f 370/4/4 371/4/4 372/4/4
f 371/3/4 355/3/4 373/3/4
f 372/4/4 371/4/4 373/4/4
f 355/1/4 361/1/4 374/1/4
f 373/3/4 355/3/4 374/3/4
f 361/1/4 366/1/4 374/1/4
f 366/5/4 367/5/4 375/5/4
f 374/1/4 366/1/4 375/1/4
f 375/5/4 367/5/4 376/5/4
f 332/4/4 368/4/4 379/4/4
f 368/1/4 372/1/4 380/1/4
f 379/4/4 368/4/4 380/4/4
f 372/3/4 373/3/4 381/3/4
f 380/1/4 372/1/4 381/1/4
f 375/1/4 376/1/4 382/1/4
f 381/3/4 373/3/4 382/3/4
f 374/1/4 375/1/4 382/1/4
f 373/1/4 374/1/4 382/1/4
f 382/1/4 376/1/4 383/1/4
f 376/5/4 377/5/4 384/5/4
f 383/1/4 376/1/4 384/1/4
f 380/4/4 381/4/4 386/4/4
f 378/4/4 379/4/4 386/4/4
f 379/4/4 380/4/4 386/4/4
f 381/4/4 382/4/4 386/4/4
f 384/5/4 377/5/4 387/5/4
f 383/5/4 384/5/4 387/5/4
f 387/5/4 377/5/4 388/5/4
f 385/4/4 386/4/4 389/4/4
f 386/4/4 382/4/4 390/4/4
f 389/4/4 386/4/4 390/4/4
f 390/4/4 382/4/4 391/4/4
f 382/1/4 383/1/4 392/1/4
f 391/4/4 382/4/4 392/4/4
f 392/1/4 383/1/4 393/1/4
f 390/4/4 391/4/4 394/4/4
f 394/4/4 391/4/4 395/4/4
f 393/1/4 383/1/4 396/1/4
f 383/5/4 387/5/4 397/5/4
f 396/1/4 383/1/4 397/1/4
f 397/5/4 387/5/4 398/5/4
f 395/4/4 391/4/4 399/4/4
f 399/4/4 391/4/4 400/4/4
f 400/4/4 391/4/4 401/4/4
f 401/4/4 391/4/4 402/4/4
f 391/1/4 392/1/4 403/1/4
f 402/4/4 391/4/4 403/4/4
f 403/1/4 392/1/4 404/1/4
f 393/1/4 396/1/4 405/1/4
f 396/5/4 397/5/4 405/5/4
f 405/5/4 397/5/4 406/5/4
f 403/4/4 404/4/4 408/4/4
f 402/4/4 403/4/4 408/4/4
f 408/4/4 404/4/4 409/4/4
f 409/4/4 404/4/4 410/4/4
f 404/1/4 392/1/4 411/1/4
f 410/4/4 404/4/4 411/4/4
f 406/5/4 407/5/4 412/5/4
f 405/1/4 406/1/4 412/1/4
f 412/5/4 407/5/4 413/5/4
f 409/4/4 410/4/4 414/4/4
f 410/1/4 411/1/4 414/1/4
f 411/1/4 392/1/4 415/1/4
f 414/1/4 411/1/4 415/1/4
f 412/1/4 413/1/4 416/1/4
f 405/1/4 412/1/4 416/1/4
f 416/1/4 413/1/4 417/1/4
f 409/4/4 414/4/4 418/4/4
f 414/4/4 415/4/4 418/4/4
f 415/1/4 392/1/4 419/1/4
f 418/4/4 415/4/4 419/4/4
f 416/5/4 417/5/4 420/5/4
f 392/3/4 393/3/4 422/3/4
f 405/1/4 416/1/4 422/1/4
f 393/1/4 405/1/4 422/1/4
f 422/1/4 416/1/4 423/1/4
f 416/5/4 420/5/4 424/5/4
f 420/5/4 421/5/4 424/5/4
f 424/5/4 421/5/4 425/5/4
f 418/1/4 419/1/4 426/1/4
f 409/4/4 418/4/4 426/4/4
f 419/1/4 392/1/4 427/1/4
f 426/1/4 419/1/4 427/1/4
f 422/3/4 423/3/4 428/3/4
f 427/1/4 392/1/4 428/1/4
f 392/3/4 422/3/4 428/3/4
f 428/3/4 423/3/4 429/3/4
f 429/3/4 423/3/4 430/3/4
f 416/5/4 424/5/4 431/5/4
f 426/4/4 427/4/4 432/4/4
f 409/4/4 426/4/4 432/4/4
f 427/1/4 428/1/4 433/1/4
f 432/4/4 427/4/4 433/4/4
f 428/1/4 429/1/4 433/1/4
f 430/3/4 423/3/4 434/3/4
f 429/5/4 430/5/4 434/5/4
f 423/1/4 416/1/4 435/1/4
f 434/3/4 423/3/4 435/3/4
f 416/5/4 431/5/4 436/5/4
f 435/1/4 416/1/4 436/1/4
f 436/5/4 431/5/4 437/5/4
f 429/5/4 434/5/4 438/5/4
f 434/5/4 435/5/4 438/5/4
f 433/1/4 429/1/4 438/1/4
f 432/1/4 433/1/4 438/1/4
f 436/1/4 437/1/4 439/1/4
f 438/5/4 435/5/4 439/5/4
f 435/1/4 436/1/4 439/1/4
f 432/1/4 438/1/4 440/1/4
f 438/1/4 439/1/4 440/1/4
f 439/1/4 437/1/4 441/1/4
f 440/1/4 439/1/4 441/1/4
f 442/3/4 443/3/4 444/3/4
f 444/3/4 443/3/4 445/3/4
f 445/3/4 446/3/4 448/3/4
f 448/3/4 446/3/4 449/3/4
f 447/3/4 448/3/4 451/3/4
f 451/3/4 448/3/4 452/3/4
f 450/3/4 451/3/4 453/3/4
f 453/3/4 451/3/4 454/3/4
f 454/3/4 455/3/4 456/3/4
f 456/3/4 455/3/4 457/3/4
f 457/3/4 458/3/4 460/3/4
f 459/3/4 460/3/4 461/3/4
f 460/3/4 458/3/4 462/3/4
f 461/3/4 460/3/4 462/3/4
f 463/1/4 464/1/4 466/1/4
f 466/1/4 464/1/4 467/1/4
f 467/1/4 464/1/4 469/1/4
f 468/1/4 469/1/4 471/1/4
f 470/1/4 471/1/4 472/1/4
f 471/1/4 469/1/4 473/1/4
f 472/1/4 471/1/4 473/1/4
f 473/1/4 469/1/4 474/1/4
f 469/1/4 464/1/4 475/1/4
f 474/1/4 469/1/4 475/1/4
f 475/1/4 464/1/4 477/1/4
f 476/1/4 477/1/4 478/1/4
f 464/2/4 465/2/4 479/2/4
f 478/1/4 477/1/4 479/1/4
f 477/1/4 464/1/4 479/1/4
f 479/2/4 465/2/4 480/2/4
f 483/4/5 482/4/5 481/4/5
f 484/4/5 482/4/5 483/4/5
f 487/4/5 486/4/5 485/4/5
f 488/4/5 486/4/5 487/4/5
f 491/4/5 490/4/5 489/4/5
f 492/4/5 490/4/5 491/4/5
f 495/4/5 494/4/5 493/4/5
f 496/4/5 494/4/5 495/4/5
f 499/4/5 498/4/5 497/4/5
f 500/4/5 498/4/5 499/4/5
f 503/4/5 502/4/5 501/4/5
f 504/4/5 502/4/5 503/4/5
f 507/4/5 506/4/5 505/4/5
f 508/4/5 506/4/5 507/4/5
f 509/4/5 506/4/5 508/4/5
f 510/4/5 506/4/5 509/4/5
f 513/4/5 512/4/5 511/4/5
f 514/4/5 512/4/5 513/4/5
f 519/4/5 516/4/5 515/4/5
f 520/4/5 519/4/5 518/4/5
f 521/1/5 517/1/5 516/1/5
f 521/4/5 519/4/5 520/4/5
f 521/4/5 516/4/5 519/4/5
f 522/1/5 517/1/5 521/1/5
f 525/4/5 524/4/5 523/4/5
f 526/4/5 524/4/5 525/4/5
f 532/1/5 528/1/5 527/1/5
f 533/1/5 528/1/5 532/1/5
f 534/1/5 530/1/5 529/1/5
f 535/4/5 531/4/5 530/4/5
f 535/1/5 530/1/5 534/1/5
f 536/4/5 531/4/5 535/4/5
f 541/1/5 538/1/5 537/1/5
f 542/4/5 539/4/5 538/4/5
f 542/1/5 538/1/5 541/1/5
f 543/1/5 540/1/5 539/1/5
f 543/4/5 539/4/5 542/4/5
f 544/1/5 540/1/5 543/1/5
f 551/1/5 546/1/5 545/1/5
f 552/3/5 547/3/5 546/3/5
f 552/1/5 546/1/5 551/1/5
f 553/3/5 547/3/5 552/3/5
f 554/3/5 549/3/5 548/3/5
f 555/1/5 550/1/5 549/1/5
f 555/3/5 549/3/5 554/3/5
f 556/1/5 550/1/5 555/1/5
f 557/1/5 550/1/5 556/1/5
f 558/1/5 550/1/5 557/1/5
f 561/1/5 560/1/5 559/1/5
f 562/1/5 560/1/5 561/1/5
f 565/1/5 564/1/5 563/1/5
f 566/1/5 564/1/5 565/1/5
f 567/1/5 564/1/5 566/1/5
f 568/1/5 564/1/5 567/1/5
f 571/3/5 570/3/5 569/3/5
f 572/3/5 570/3/5 571/3/5
f 575/1/5 574/1/5 573/1/5
f 576/1/5 574/1/5 575/1/5
f 594/3/5 578/3/5 577/3/5
f 594/3/5 579/3/5 578/3/5
f 594/3/5 580/3/5 579/3/5
f 594/3/5 581/3/5 580/3/5
f 594/3/5 582/3/5 581/3/5
f 594/3/5 583/3/5 582/3/5
f 595/3/5 583/3/5 594/3/5
f 596/3/5 585/3/5 584/3/5
f 597/3/5 585/3/5 596/3/5
f 598/3/5 589/3/5 588/3/5
f 598/3/5 588/3/5 587/3/5
f 598/3/5 587/3/5 586/3/5
f 599/3/5 589/3/5 598/3/5
f 600/3/5 591/3/5 590/3/5
f 601/1/5 593/1/5 592/1/5
f 601/3/5 591/3/5 600/3/5
f 601/1/5 592/1/5 591/1/5
f 602/1/5 598/1/5 597/1/5
f 603/1/5 598/1/5 602/1/5
f 604/1/5 593/1/5 601/1/5
f 605/1/5 593/1/5 604/1/5
f 614/1/5 607/1/5 606/1/5
f 615/1/5 607/1/5 614/1/5
f 616/1/5 609/1/5 608/1/5
f 617/1/5 609/1/5 616/1/5
f 618/1/5 611/1/5 610/1/5
f 619/1/5 611/1/5 618/1/5
f 620/1/5 613/1/5 612/1/5
f 621/1/5 613/1/5 620/1/5
f 627/3/5 623/3/5 622/3/5
f 628/3/5 623/3/5 627/3/5
f 631/3/5 625/3/5 624/3/5
f 632/3/5 625/3/5 631/3/5
f 633/1/5 627/1/5 626/1/5
f 634/1/5 627/1/5 633/1/5
f 635/1/5 629/1/5 628/1/5
f 636/1/5 629/1/5 635/1/5
f 637/1/5 631/1/5 630/1/5
f 638/1/5 631/1/5 637/1/5
f 643/1/5 640/1/5 639/1/5
f 644/1/5 640/1/5 643/1/5
f 645/1/5 642/1/5 641/1/5
f 646/1/5 642/1/5 645/1/5
f 651/1/5 648/1/5 647/1/5
f 652/1/5 648/1/5 651/1/5
f 653/1/5 650/1/5 649/1/5
f 654/1/5 650/1/5 653/1/5
f 655/2/6 656/2/6 657/2/6
f 657/2/6 656/2/6 658/2/6
