# MagicaVoxel @ ephtracy

# material
mtllib sha4.mtl
usemtl palette

# normals
vn -1 0 0
vn 1 0 0
vn 0 0 1
vn 0 0 -1
vn 0 -1 0
vn 0 1 0

# texcoords
vt 0.970703 0.5
vt 0.974609 0.5
vt 0.978516 0.5

# verts
v -46 0 -3
v -46 0 -24
v -46 7 -23
v -46 7 -24
v -46 8 -7
v -46 8 -8
v -46 8 -9
v -46 8 -16
v -46 8 -17
v -46 8 -19
v -46 8 -20
v -46 8 -21
v -46 8 -23
v -46 8 -24
v -46 9 -7
v -46 9 -8
v -46 9 -9
v -46 9 -13
v -46 9 -16
v -46 9 -17
v -46 9 -18
v -46 9 -19
v -46 9 -20
v -46 9 -21
v -46 10 -7
v -46 10 -8
v -46 10 -9
v -46 10 -13
v -46 10 -17
v -46 10 -18
v -46 12 -19
v -46 12 -24
v -46 13 -19
v -46 13 -24
v -46 15 -18
v -46 15 -19
v -46 17 -16
v -46 17 -17
v -46 17 -18
v -46 18 -16
v -46 18 -17
v -46 20 -15
v -46 20 -16
v -46 21 -13
v -46 21 -14
v -46 21 -15
v -46 22 -13
v -46 22 -14
v -46 23 -12
v -46 23 -13
v -46 24 -12
v -46 24 -13
v -46 25 -11
v -46 25 -12
v -46 26 -9
v -46 26 -10
v -46 26 -11
v -46 27 -9
v -46 27 -10
v -46 28 -8
v -46 28 -9
v -46 29 -8
v -46 29 -9
v -46 30 -3
v -46 30 -7
v -46 30 -8
v -46 31 -3
v -46 31 -7
v -42 29 -3
v -42 29 -8
v -42 30 -3
v -42 30 -7
v -42 30 -8
v -42 31 -3
v -42 31 -7
v -41 28 -3
v -41 28 -9
v -41 29 -3
v -41 29 -9
v -40 27 -3
v -40 27 -9
v -40 28 -3
v -40 28 -9
v -39 26 -3
v -39 26 -10
v -39 27 -3
v -39 27 -10
v -38 24 -3
v -38 24 -12
v -38 25 -11
v -38 25 -12
v -38 26 -3
v -38 26 -11
v -37 23 -3
v -37 23 -13
v -37 24 -3
v -37 24 -13
v -36 22 -3
v -36 22 -13
v -36 23 -3
v -36 23 -13
v -35 20 -3
v -35 20 -15
v -35 21 -3
v -35 21 -14
v -35 21 -15
v -35 22 -3
v -35 22 -14
v -34 19 -3
v -34 19 -16
v -34 20 -3
v -34 20 -16
v -33 17 -3
v -33 17 -4
v -33 17 -6
v -33 17 -7
v -33 17 -16
v -33 17 -17
v -33 18 -3
v -33 18 -4
v -33 18 -6
v -33 18 -7
v -33 18 -16
v -33 18 -17
v -33 19 -3
v -33 19 -16
v -32 16 -3
v -32 16 -17
v -32 16 -18
v -32 17 -3
v -32 17 -17
v -32 17 -18
v -31 14 -3
v -31 14 -12
v -31 14 -13
v -31 14 -17
v -31 14 -18
v -31 14 -19
v -31 15 -3
v -31 15 -12
v -31 15 -13
v -31 15 -17
v -31 15 -18
v -31 15 -19
v -31 16 -3
v -31 16 -18
v -30 13 -3
v -30 13 -19
v -30 14 -3
v -30 14 -19
v -28 12 -3
v -28 12 -24
v -28 13 -3
v -28 13 -24
v -27 11 -3
v -27 11 -24
v -27 12 -3
v -27 12 -24
v -25 0 -3
v -25 0 -24
v -25 6 -11
v -25 6 -15
v -25 7 -3
v -25 7 -7
v -25 7 -8
v -25 7 -9
v -25 7 -10
v -25 7 -11
v -25 7 -14
v -25 7 -15
v -25 7 -16
v -25 7 -21
v -25 8 -3
v -25 8 -5
v -25 8 -7
v -25 8 -8
v -25 8 -9
v -25 8 -10
v -25 8 -11
v -25 8 -14
v -25 8 -16
v -25 8 -17
v -25 8 -21
v -25 8 -22
v -25 8 -24
v -25 9 -5
v -25 9 -7
v -25 9 -9
v -25 9 -10
v -25 9 -16
v -25 9 -17
v -25 9 -22
v -25 9 -24
v -25 11 -3
v -25 11 -24
v -46 0 -3
v -46 30 -3
v -46 31 -3
v -43 6 -3
v -43 7 -3
v -43 8 -3
v -42 6 -3
v -42 7 -3
v -42 8 -3
v -42 28 -3
v -42 29 -3
v -42 30 -3
v -42 31 -3
v -41 6 -3
v -41 7 -3
v -41 28 -3
v -41 29 -3
v -40 7 -3
v -40 8 -3
v -40 26 -3
v -40 27 -3
v -40 28 -3
v -39 26 -3
v -39 27 -3
v -38 6 -3
v -38 7 -3
v -38 8 -3
v -38 23 -3
v -38 24 -3
v -38 26 -3
v -37 23 -3
v -37 24 -3
v -36 6 -3
v -36 7 -3
v -36 21 -3
v -36 22 -3
v -36 23 -3
v -35 6 -3
v -35 7 -3
v -35 20 -3
v -35 21 -3
v -35 22 -3
v -34 18 -3
v -34 19 -3
v -34 20 -3
v -33 6 -3
v -33 7 -3
v -33 17 -3
v -33 18 -3
v -33 19 -3
v -32 14 -3
v -32 15 -3
v -32 16 -3
v -32 17 -3
v -31 14 -3
v -31 15 -3
v -31 16 -3
v -30 7 -3
v -30 8 -3
v -30 12 -3
v -30 13 -3
v -30 14 -3
v -28 12 -3
v -28 13 -3
v -27 6 -3
v -27 7 -3
v -27 8 -3
v -27 11 -3
v -27 12 -3
v -26 7 -3
v -26 8 -3
v -25 0 -3
v -25 7 -3
v -25 8 -3
v -25 11 -3
v -46 30 -7
v -46 31 -7
v -42 30 -7
v -42 31 -7
v -46 29 -8
v -46 30 -8
v -42 29 -8
v -42 30 -8
v -46 27 -9
v -46 28 -9
v -46 29 -9
v -41 28 -9
v -41 29 -9
v -40 27 -9
v -40 28 -9
v -46 26 -10
v -46 27 -10
v -39 26 -10
v -39 27 -10
v -46 25 -11
v -46 26 -11
v -38 25 -11
v -38 26 -11
v -46 24 -12
v -46 25 -12
v -38 24 -12
v -38 25 -12
v -46 22 -13
v -46 23 -13
v -46 24 -13
v -37 23 -13
v -37 24 -13
v -36 22 -13
v -36 23 -13
v -46 21 -14
v -46 22 -14
v -35 21 -14
v -35 22 -14
v -46 20 -15
v -46 21 -15
v -35 20 -15
v -35 21 -15
v -46 18 -16
v -46 20 -16
v -34 18 -16
v -34 19 -16
v -34 20 -16
v -33 18 -16
v -33 19 -16
v -46 17 -17
v -46 18 -17
v -33 17 -17
v -33 18 -17
v -46 15 -18
v -46 17 -18
v -33 16 -18
v -33 17 -18
v -32 15 -18
v -32 16 -18
v -32 17 -18
v -31 15 -18
v -31 16 -18
v -46 13 -19
v -46 15 -19
v -32 14 -19
v -32 15 -19
v -31 14 -19
v -31 15 -19
v -30 13 -19
v -30 14 -19
v -46 0 -24
v -46 7 -24
v -46 8 -24
v -46 12 -24
v -46 13 -24
v -45 7 -24
v -45 8 -24
v -44 8 -24
v -44 9 -24
v -42 9 -24
v -42 10 -24
v -40 9 -24
v -40 10 -24
v -39 8 -24
v -39 9 -24
v -38 7 -24
v -38 8 -24
v -37 7 -24
v -37 8 -24
v -35 7 -24
v -35 8 -24
v -35 9 -24
v -34 8 -24
v -34 9 -24
v -33 8 -24
v -33 9 -24
v -31 8 -24
v -31 9 -24
v -30 7 -24
v -30 8 -24
v -29 7 -24
v -29 8 -24
v -29 9 -24
v -28 7 -24
v -28 8 -24
v -28 9 -24
v -28 12 -24
v -28 13 -24
v -27 8 -24
v -27 9 -24
v -27 11 -24
v -27 12 -24
v -25 0 -24
v -25 8 -24
v -25 9 -24
v -25 11 -24
v -46 0 -3
v -25 0 -3
v -46 0 -24
v -25 0 -24
v -27 11 -3
v -25 11 -3
v -27 11 -24
v -25 11 -24
v -28 12 -3
v -27 12 -3
v -28 12 -24
v -27 12 -24
v -30 13 -3
v -28 13 -3
v -46 13 -19
v -30 13 -19
v -46 13 -24
v -28 13 -24
v -31 14 -3
v -30 14 -3
v -31 14 -12
v -31 14 -13
v -31 14 -17
v -31 14 -18
v -31 14 -19
v -30 14 -19
v -46 15 -18
v -32 15 -18
v -31 15 -18
v -46 15 -19
v -32 15 -19
v -31 15 -19
v -32 16 -3
v -31 16 -3
v -32 16 -17
v -32 16 -18
v -31 16 -18
v -33 17 -3
v -32 17 -3
v -33 17 -4
v -33 17 -6
v -33 17 -7
v -33 17 -16
v -46 17 -17
v -33 17 -17
v -32 17 -17
v -46 17 -18
v -33 17 -18
v -32 17 -18
v -46 18 -16
v -34 18 -16
v -33 18 -16
v -46 18 -17
v -33 18 -17
v -34 19 -3
v -33 19 -3
v -34 19 -16
v -33 19 -16
v -35 20 -3
v -34 20 -3
v -46 20 -15
v -35 20 -15
v -46 20 -16
v -34 20 -16
v -46 21 -14
v -35 21 -14
v -46 21 -15
v -35 21 -15
v -36 22 -3
v -35 22 -3
v -46 22 -13
v -36 22 -13
v -46 22 -14
v -35 22 -14
v -37 23 -3
v -36 23 -3
v -37 23 -13
v -36 23 -13
v -38 24 -3
v -37 24 -3
v -46 24 -12
v -38 24 -12
v -46 24 -13
v -37 24 -13
v -46 25 -11
v -38 25 -11
v -46 25 -12
v -38 25 -12
v -39 26 -3
v -38 26 -3
v -46 26 -10
v -39 26 -10
v -46 26 -11
v -38 26 -11
v -40 27 -3
v -39 27 -3
v -46 27 -9
v -40 27 -9
v -46 27 -10
v -39 27 -10
v -41 28 -3
v -40 28 -3
v -41 28 -9
v -40 28 -9
v -42 29 -3
v -41 29 -3
v -46 29 -8
v -42 29 -8
v -46 29 -9
v -41 29 -9
v -46 30 -7
v -42 30 -7
v -46 30 -8
v -42 30 -8
v -46 31 -3
v -42 31 -3
v -46 31 -7
v -42 31 -7

# faces
f 3/2/1 2/2/1 1/2/1
f 4/2/1 2/2/1 3/2/1
f 5/2/1 3/2/1 1/2/1
f 6/2/1 3/2/1 5/2/1
f 7/2/1 3/2/1 6/2/1
f 8/2/1 3/2/1 7/2/1
f 9/2/1 3/2/1 8/2/1
f 10/2/1 3/2/1 9/2/1
f 11/2/1 3/2/1 10/2/1
f 12/2/1 3/2/1 11/2/1
f 13/3/1 4/3/1 3/3/1
f 13/2/1 3/2/1 12/2/1
f 14/3/1 4/3/1 13/3/1
f 15/2/1 5/2/1 1/2/1
f 15/3/1 6/3/1 5/3/1
f 16/2/1 7/2/1 6/2/1
f 16/3/1 6/3/1 15/3/1
f 17/3/1 8/3/1 7/3/1
f 17/2/1 7/2/1 16/2/1
f 18/3/1 8/3/1 17/3/1
f 19/2/1 9/2/1 8/2/1
f 19/3/1 8/3/1 18/3/1
f 20/3/1 10/3/1 9/3/1
f 20/2/1 9/2/1 19/2/1
f 21/3/1 10/3/1 20/3/1
f 22/2/1 11/2/1 10/2/1
f 22/3/1 10/3/1 21/3/1
f 23/3/1 12/3/1 11/3/1
f 23/2/1 11/2/1 22/2/1
f 24/2/1 14/2/1 13/2/1
f 24/3/1 12/3/1 23/3/1
f 24/2/1 13/2/1 12/2/1
f 25/2/1 15/2/1 1/2/1
f 25/1/1 16/1/1 15/1/1
f 26/2/1 17/2/1 16/2/1
f 26/1/1 16/1/1 25/1/1
f 27/1/1 18/1/1 17/1/1
f 27/2/1 17/2/1 26/2/1
f 28/2/1 19/2/1 18/2/1
f 28/1/1 18/1/1 27/1/1
f 28/2/1 20/2/1 19/2/1
f 29/1/1 21/1/1 20/1/1
f 29/2/1 20/2/1 28/2/1
f 30/2/1 22/2/1 21/2/1
f 30/1/1 21/1/1 29/1/1
f 30/2/1 23/2/1 22/2/1
f 30/2/1 24/2/1 23/2/1
f 31/2/1 29/2/1 28/2/1
f 31/2/1 24/2/1 30/2/1
f 31/2/1 30/2/1 29/2/1
f 31/2/1 27/2/1 26/2/1
f 31/2/1 26/2/1 25/2/1
f 31/2/1 28/2/1 27/2/1
f 32/2/1 14/2/1 24/2/1
f 32/2/1 24/2/1 31/2/1
f 33/2/1 31/2/1 25/2/1
f 33/1/1 32/1/1 31/1/1
f 34/1/1 32/1/1 33/1/1
f 35/2/1 33/2/1 25/2/1
f 36/2/1 33/2/1 35/2/1
f 37/2/1 35/2/1 25/2/1
f 38/2/1 35/2/1 37/2/1
f 39/2/1 35/2/1 38/2/1
f 40/2/1 37/2/1 25/2/1
f 40/1/1 38/1/1 37/1/1
f 41/1/1 38/1/1 40/1/1
f 42/2/1 40/2/1 25/2/1
f 43/2/1 40/2/1 42/2/1
f 44/2/1 42/2/1 25/2/1
f 45/2/1 42/2/1 44/2/1
f 46/2/1 42/2/1 45/2/1
f 47/2/1 44/2/1 25/2/1
f 47/1/1 45/1/1 44/1/1
f 48/1/1 45/1/1 47/1/1
f 49/2/1 47/2/1 25/2/1
f 50/2/1 47/2/1 49/2/1
f 51/2/1 49/2/1 25/2/1
f 51/1/1 50/1/1 49/1/1
f 52/1/1 50/1/1 51/1/1
f 53/2/1 51/2/1 25/2/1
f 54/2/1 51/2/1 53/2/1
f 55/2/1 53/2/1 25/2/1
f 56/2/1 53/2/1 55/2/1
f 57/2/1 53/2/1 56/2/1
f 58/2/1 55/2/1 25/2/1
f 58/1/1 56/1/1 55/1/1
f 59/1/1 56/1/1 58/1/1
f 60/2/1 58/2/1 25/2/1
f 61/2/1 58/2/1 60/2/1
f 62/2/1 60/2/1 25/2/1
f 62/1/1 61/1/1 60/1/1
f 63/1/1 61/1/1 62/1/1
f 64/2/1 25/2/1 1/2/1
f 64/2/1 62/2/1 25/2/1
f 65/2/1 62/2/1 64/2/1
f 66/2/1 62/2/1 65/2/1
f 67/1/1 65/1/1 64/1/1
f 68/1/1 65/1/1 67/1/1
f 69/2/2 70/2/2 71/2/2
f 71/2/2 70/2/2 72/2/2
f 72/2/2 70/2/2 73/2/2
f 71/1/2 72/1/2 74/1/2
f 74/1/2 72/1/2 75/1/2
f 76/1/2 77/1/2 78/1/2
f 78/1/2 77/1/2 79/1/2
f 80/2/2 81/2/2 82/2/2
f 82/2/2 81/2/2 83/2/2
f 84/1/2 85/1/2 86/1/2
f 86/1/2 85/1/2 87/1/2
f 88/2/2 89/2/2 90/2/2
f 90/2/2 89/2/2 91/2/2
f 88/2/2 90/2/2 92/2/2
f 92/2/2 90/2/2 93/2/2
f 94/1/2 95/1/2 96/1/2
f 96/1/2 95/1/2 97/1/2
f 98/2/2 99/2/2 100/2/2
f 100/2/2 99/2/2 101/2/2
f 102/2/2 103/2/2 104/2/2
f 104/2/2 103/2/2 105/2/2
f 105/2/2 103/2/2 106/2/2
f 104/1/2 105/1/2 107/1/2
f 107/1/2 105/1/2 108/1/2
f 109/2/2 110/2/2 111/2/2
f 111/2/2 110/2/2 112/2/2
f 113/2/2 114/2/2 119/2/2
f 114/3/2 115/3/2 120/3/2
f 119/2/2 114/2/2 120/2/2
f 115/2/2 116/2/2 121/2/2
f 120/3/2 115/3/2 121/3/2
f 116/3/2 117/3/2 122/3/2
f 121/2/2 116/2/2 122/2/2
f 117/1/2 118/1/2 123/1/2
f 122/3/2 117/3/2 123/3/2
f 123/1/2 118/1/2 124/1/2
f 121/1/2 122/1/2 125/1/2
f 119/1/2 120/1/2 125/1/2
f 122/1/2 123/1/2 125/1/2
f 120/1/2 121/1/2 125/1/2
f 125/1/2 123/1/2 126/1/2
f 127/2/2 128/2/2 130/2/2
f 128/3/2 129/3/2 131/3/2
f 130/2/2 128/2/2 131/2/2
f 131/3/2 129/3/2 132/3/2
f 133/3/2 134/3/2 139/3/2
f 134/2/2 135/2/2 140/2/2
f 139/3/2 134/3/2 140/3/2
f 135/3/2 136/3/2 141/3/2
f 140/2/2 135/2/2 141/2/2
f 136/2/2 137/2/2 142/2/2
f 141/3/2 136/3/2 142/3/2
f 137/3/2 138/3/2 143/3/2
f 142/2/2 137/2/2 143/2/2
f 143/3/2 138/3/2 144/3/2
f 141/2/2 142/2/2 145/2/2
f 139/2/2 140/2/2 145/2/2
f 142/2/2 143/2/2 145/2/2
f 140/2/2 141/2/2 145/2/2
f 145/2/2 143/2/2 146/2/2
f 147/2/2 148/2/2 149/2/2
f 149/2/2 148/2/2 150/2/2
f 151/1/2 152/1/2 153/1/2
f 153/1/2 152/1/2 154/1/2
f 155/2/2 156/2/2 157/2/2
f 157/2/2 156/2/2 158/2/2
f 159/2/2 160/2/2 161/2/2
f 161/2/2 160/2/2 162/2/2
f 159/2/2 161/2/2 163/2/2
f 163/2/2 161/2/2 164/2/2
f 164/2/2 161/2/2 165/2/2
f 165/2/2 161/2/2 166/2/2
f 166/2/2 161/2/2 167/2/2
f 161/3/2 162/3/2 168/3/2
f 167/2/2 161/2/2 168/2/2
f 168/3/2 162/3/2 169/3/2
f 162/2/2 160/2/2 170/2/2
f 169/3/2 162/3/2 170/3/2
f 170/2/2 160/2/2 171/2/2
f 171/2/2 160/2/2 172/2/2
f 163/3/2 164/3/2 173/3/2
f 173/3/2 164/3/2 174/3/2
f 164/1/2 165/1/2 175/1/2
f 174/3/2 164/3/2 175/3/2
f 165/2/2 166/2/2 176/2/2
f 175/1/2 165/1/2 176/1/2
f 166/3/2 167/3/2 177/3/2
f 176/2/2 166/2/2 177/2/2
f 167/2/2 168/2/2 178/2/2
f 177/3/2 167/3/2 178/3/2
f 168/1/2 169/1/2 179/1/2
f 178/2/2 168/2/2 179/2/2
f 169/2/2 170/2/2 180/2/2
f 179/1/2 169/1/2 180/1/2
f 170/2/2 171/2/2 180/2/2
f 171/3/2 172/3/2 181/3/2
f 180/2/2 171/2/2 181/2/2
f 181/3/2 172/3/2 182/3/2
f 172/2/2 160/2/2 183/2/2
f 182/3/2 172/3/2 183/3/2
f 183/2/2 160/2/2 184/2/2
f 184/2/2 160/2/2 185/2/2
f 173/2/2 174/2/2 186/2/2
f 174/1/2 175/1/2 186/1/2
f 175/2/2 176/2/2 187/2/2
f 186/1/2 175/1/2 187/1/2
f 176/2/2 177/2/2 187/2/2
f 177/1/2 178/1/2 188/1/2
f 187/2/2 177/2/2 188/2/2
f 178/2/2 179/2/2 189/2/2
f 188/1/2 178/1/2 189/1/2
f 179/2/2 180/2/2 189/2/2
f 180/2/2 181/2/2 189/2/2
f 181/1/2 182/1/2 190/1/2
f 189/2/2 181/2/2 190/2/2
f 183/2/2 184/2/2 191/2/2
f 190/1/2 182/1/2 191/1/2
f 182/2/2 183/2/2 191/2/2
f 184/3/2 185/3/2 192/3/2
f 191/2/2 184/2/2 192/2/2
f 192/3/2 185/3/2 193/3/2
f 186/2/2 187/2/2 194/2/2
f 173/2/2 186/2/2 194/2/2
f 192/2/2 193/2/2 194/2/2
f 191/2/2 192/2/2 194/2/2
f 188/2/2 189/2/2 194/2/2
f 187/2/2 188/2/2 194/2/2
f 189/2/2 190/2/2 194/2/2
f 190/2/2 191/2/2 194/2/2
f 194/2/2 193/2/2 195/2/2
f 199/2/3 197/2/3 196/2/3
f 200/2/3 197/2/3 199/2/3
f 201/2/3 197/2/3 200/2/3
f 202/2/3 199/2/3 196/2/3
f 202/3/3 200/3/3 199/3/3
f 203/1/3 201/1/3 200/1/3
f 203/3/3 200/3/3 202/3/3
f 204/2/3 197/2/3 201/2/3
f 204/1/3 201/1/3 203/1/3
f 205/2/3 197/2/3 204/2/3
f 206/2/3 197/2/3 205/2/3
f 207/1/3 198/1/3 197/1/3
f 207/2/3 197/2/3 206/2/3
f 208/1/3 198/1/3 207/1/3
f 209/2/3 203/2/3 202/2/3
f 209/2/3 202/2/3 196/2/3
f 209/2/3 205/2/3 204/2/3
f 209/2/3 204/2/3 203/2/3
f 210/2/3 205/2/3 209/2/3
f 211/1/3 206/1/3 205/1/3
f 211/2/3 205/2/3 210/2/3
f 212/1/3 206/1/3 211/1/3
f 213/3/3 210/3/3 209/3/3
f 213/2/3 211/2/3 210/2/3
f 214/2/3 211/2/3 213/2/3
f 215/2/3 211/2/3 214/2/3
f 216/2/3 211/2/3 215/2/3
f 217/2/3 211/2/3 216/2/3
f 218/2/3 215/2/3 214/2/3
f 218/1/3 216/1/3 215/1/3
f 219/1/3 216/1/3 218/1/3
f 220/2/3 209/2/3 196/2/3
f 220/3/3 213/3/3 209/3/3
f 221/1/3 214/1/3 213/1/3
f 221/3/3 213/3/3 220/3/3
f 222/2/3 218/2/3 214/2/3
f 222/1/3 214/1/3 221/1/3
f 223/2/3 218/2/3 222/2/3
f 224/2/3 218/2/3 223/2/3
f 225/2/3 218/2/3 224/2/3
f 226/2/3 221/2/3 220/2/3
f 226/2/3 222/2/3 221/2/3
f 226/1/3 224/1/3 223/1/3
f 226/2/3 223/2/3 222/2/3
f 227/1/3 224/1/3 226/1/3
f 228/2/3 220/2/3 196/2/3
f 228/2/3 226/2/3 220/2/3
f 229/2/3 226/2/3 228/2/3
f 230/2/3 226/2/3 229/2/3
f 231/2/3 226/2/3 230/2/3
f 232/2/3 226/2/3 231/2/3
f 233/2/3 228/2/3 196/2/3
f 233/3/3 229/3/3 228/3/3
f 234/2/3 230/2/3 229/2/3
f 234/3/3 229/3/3 233/3/3
f 235/2/3 230/2/3 234/2/3
f 236/1/3 231/1/3 230/1/3
f 236/2/3 230/2/3 235/2/3
f 237/1/3 231/1/3 236/1/3
f 238/2/3 235/2/3 234/2/3
f 238/2/3 234/2/3 233/2/3
f 239/2/3 235/2/3 238/2/3
f 240/2/3 235/2/3 239/2/3
f 241/2/3 233/2/3 196/2/3
f 241/2/3 238/2/3 233/2/3
f 242/2/3 238/2/3 241/2/3
f 243/2/3 238/2/3 242/2/3
f 244/1/3 239/1/3 238/1/3
f 244/2/3 238/2/3 243/2/3
f 245/1/3 239/1/3 244/1/3
f 246/2/3 243/2/3 242/2/3
f 247/2/3 243/2/3 246/2/3
f 248/2/3 243/2/3 247/2/3
f 249/2/3 243/2/3 248/2/3
f 250/2/3 246/2/3 242/2/3
f 250/3/3 247/3/3 246/3/3
f 251/2/3 248/2/3 247/2/3
f 251/3/3 247/3/3 250/3/3
f 252/2/3 248/2/3 251/2/3
f 253/3/3 242/3/3 241/3/3
f 253/2/3 250/2/3 242/2/3
f 254/2/3 250/2/3 253/2/3
f 255/2/3 250/2/3 254/2/3
f 256/2/3 250/2/3 255/2/3
f 257/2/3 250/2/3 256/2/3
f 258/2/3 255/2/3 254/2/3
f 258/1/3 256/1/3 255/1/3
f 259/1/3 256/1/3 258/1/3
f 260/2/3 241/2/3 196/2/3
f 260/3/3 253/3/3 241/3/3
f 261/1/3 254/1/3 253/1/3
f 261/3/3 253/3/3 260/3/3
f 262/2/3 258/2/3 254/2/3
f 262/1/3 254/1/3 261/1/3
f 263/2/3 258/2/3 262/2/3
f 264/2/3 258/2/3 263/2/3
f 265/2/3 261/2/3 260/2/3
f 265/2/3 262/2/3 261/2/3
f 265/2/3 263/2/3 262/2/3
f 266/2/3 263/2/3 265/2/3
f 267/2/3 260/2/3 196/2/3
f 267/2/3 265/2/3 260/2/3
f 268/3/3 266/3/3 265/3/3
f 268/2/3 265/2/3 267/2/3
f 269/2/3 263/2/3 266/2/3
f 269/3/3 266/3/3 268/3/3
f 270/2/3 263/2/3 269/2/3
f 271/1/4 272/1/4 273/1/4
f 273/1/4 272/1/4 274/1/4
f 275/2/4 276/2/4 277/2/4
f 277/2/4 276/2/4 278/2/4
f 279/2/4 280/2/4 282/2/4
f 280/1/4 281/1/4 282/1/4
f 282/1/4 281/1/4 283/1/4
f 279/2/4 282/2/4 284/2/4
f 284/2/4 282/2/4 285/2/4
f 286/1/4 287/1/4 288/1/4
f 288/1/4 287/1/4 289/1/4
f 290/2/4 291/2/4 292/2/4
f 292/2/4 291/2/4 293/2/4
f 294/2/4 295/2/4 296/2/4
f 296/2/4 295/2/4 297/2/4
f 298/2/4 299/2/4 301/2/4
f 299/1/4 300/1/4 301/1/4
f 301/1/4 300/1/4 302/1/4
f 298/2/4 301/2/4 303/2/4
f 303/2/4 301/2/4 304/2/4
f 305/1/4 306/1/4 307/1/4
f 307/1/4 306/1/4 308/1/4
f 309/2/4 310/2/4 311/2/4
f 311/2/4 310/2/4 312/2/4
f 313/2/4 314/2/4 315/2/4
f 315/2/4 314/2/4 316/2/4
f 316/2/4 314/2/4 317/2/4
f 315/1/4 316/1/4 318/1/4
f 318/1/4 316/1/4 319/1/4
f 320/1/4 321/1/4 322/1/4
f 322/1/4 321/1/4 323/1/4
f 324/2/4 325/2/4 326/2/4
f 326/2/4 325/2/4 327/2/4
f 324/2/4 326/2/4 328/2/4
f 326/3/4 327/3/4 329/3/4
f 328/2/4 326/2/4 329/2/4
f 329/3/4 327/3/4 330/3/4
f 328/2/4 329/2/4 331/2/4
f 331/2/4 329/2/4 332/2/4
f 333/2/4 334/2/4 335/2/4
f 335/2/4 334/2/4 336/2/4
f 333/2/4 335/2/4 337/2/4
f 335/3/4 336/3/4 337/3/4
f 337/3/4 336/3/4 338/3/4
f 333/2/4 337/2/4 339/2/4
f 339/2/4 337/2/4 340/2/4
f 341/2/4 342/2/4 346/2/4
f 342/3/4 343/3/4 346/3/4
f 343/2/4 344/2/4 347/2/4
f 346/3/4 343/3/4 347/3/4
f 346/2/4 347/2/4 348/2/4
f 347/2/4 344/2/4 348/2/4
f 348/2/4 344/2/4 349/2/4
f 348/3/4 349/3/4 350/3/4
f 349/2/4 344/2/4 350/2/4
f 350/2/4 344/2/4 351/2/4
f 348/3/4 350/3/4 352/3/4
f 350/1/4 351/1/4 352/1/4
f 351/2/4 344/2/4 353/2/4
f 352/1/4 351/1/4 353/1/4
f 346/2/4 348/2/4 354/2/4
f 348/3/4 352/3/4 354/3/4
f 352/2/4 353/2/4 355/2/4
f 354/3/4 352/3/4 355/3/4
f 341/2/4 346/2/4 356/2/4
f 346/2/4 354/2/4 356/2/4
f 354/2/4 355/2/4 356/2/4
f 356/2/4 355/2/4 357/2/4
f 341/2/4 356/2/4 358/2/4
f 356/3/4 357/3/4 358/3/4
f 357/2/4 355/2/4 359/2/4
f 358/3/4 357/3/4 359/3/4
f 341/2/4 358/2/4 360/2/4
f 358/2/4 359/2/4 360/2/4
f 359/2/4 355/2/4 361/2/4
f 360/2/4 359/2/4 361/2/4
f 355/2/4 353/2/4 362/2/4
f 361/2/4 355/2/4 362/2/4
f 360/3/4 361/3/4 363/3/4
f 361/1/4 362/1/4 363/1/4
f 362/2/4 353/2/4 364/2/4
f 363/1/4 362/1/4 364/1/4
f 360/3/4 363/3/4 365/3/4
f 363/2/4 364/2/4 365/2/4
f 364/2/4 353/2/4 366/2/4
f 365/2/4 364/2/4 366/2/4
f 360/3/4 365/3/4 367/3/4
f 365/1/4 366/1/4 367/1/4
f 366/2/4 353/2/4 368/2/4
f 367/1/4 366/1/4 368/1/4
f 360/3/4 367/3/4 369/3/4
f 341/2/4 360/2/4 369/2/4
f 367/2/4 368/2/4 370/2/4
f 369/3/4 367/3/4 370/3/4
f 341/2/4 369/2/4 371/2/4
f 369/2/4 370/2/4 371/2/4
f 370/2/4 368/2/4 372/2/4
f 371/2/4 370/2/4 372/2/4
f 368/2/4 353/2/4 373/2/4
f 372/2/4 368/2/4 373/2/4
f 371/3/4 372/3/4 374/3/4
f 341/2/4 371/2/4 374/2/4
f 372/1/4 373/1/4 375/1/4
f 374/3/4 372/3/4 375/3/4
f 373/2/4 353/2/4 376/2/4
f 375/1/4 373/1/4 376/1/4
f 344/1/4 345/1/4 377/1/4
f 376/2/4 353/2/4 377/2/4
f 353/2/4 344/2/4 377/2/4
f 377/1/4 345/1/4 378/1/4
f 375/2/4 376/2/4 379/2/4
f 374/2/4 375/2/4 379/2/4
f 376/2/4 377/2/4 379/2/4
f 379/2/4 377/2/4 380/2/4
f 380/2/4 377/2/4 381/2/4
f 381/2/4 377/2/4 382/2/4
f 341/2/4 374/2/4 383/2/4
f 374/2/4 379/2/4 383/2/4
f 379/3/4 380/3/4 384/3/4
f 383/2/4 379/2/4 384/2/4
f 380/2/4 381/2/4 385/2/4
f 384/3/4 380/3/4 385/3/4
f 385/2/4 381/2/4 386/2/4
f 389/2/5 388/2/5 387/2/5
f 390/2/5 388/2/5 389/2/5
f 391/2/6 392/2/6 393/2/6
f 393/2/6 392/2/6 394/2/6
f 395/2/6 396/2/6 397/2/6
f 397/2/6 396/2/6 398/2/6
f 399/1/6 400/1/6 402/1/6
f 401/1/6 402/1/6 403/1/6
f 402/1/6 400/1/6 404/1/6
f 403/1/6 402/1/6 404/1/6
f 405/2/6 406/2/6 407/2/6
f 407/2/6 406/2/6 408/2/6
f 408/2/6 406/2/6 409/2/6
f 409/2/6 406/2/6 410/2/6
f 410/2/6 406/2/6 411/2/6
f 411/2/6 406/2/6 412/2/6
f 413/2/6 414/2/6 416/2/6
f 414/3/6 415/3/6 417/3/6
f 416/2/6 414/2/6 417/2/6
f 417/3/6 415/3/6 418/3/6
f 419/2/6 420/2/6 421/2/6
f 421/2/6 420/2/6 422/2/6
f 422/2/6 420/2/6 423/2/6
f 424/2/6 425/2/6 426/2/6
f 426/2/6 425/2/6 427/2/6
f 427/2/6 425/2/6 428/2/6
f 428/2/6 425/2/6 429/2/6
f 429/2/6 425/2/6 431/2/6
f 431/2/6 425/2/6 432/2/6
f 430/2/6 431/2/6 433/2/6
f 431/3/6 432/3/6 434/3/6
f 433/2/6 431/2/6 434/2/6
f 434/3/6 432/3/6 435/3/6
f 436/1/6 437/1/6 439/1/6
f 437/1/6 438/1/6 439/1/6
f 439/1/6 438/1/6 440/1/6
f 441/1/6 442/1/6 443/1/6
f 443/1/6 442/1/6 444/1/6
f 445/2/6 446/2/6 448/2/6
f 447/2/6 448/2/6 449/2/6
f 448/2/6 446/2/6 450/2/6
f 449/2/6 448/2/6 450/2/6
f 451/2/6 452/2/6 453/2/6
f 453/2/6 452/2/6 454/2/6
f 455/1/6 456/1/6 458/1/6
f 457/1/6 458/1/6 459/1/6
f 458/1/6 456/1/6 460/1/6
f 459/1/6 458/1/6 460/1/6
f 461/2/6 462/2/6 463/2/6
f 463/2/6 462/2/6 464/2/6
f 465/1/6 466/1/6 468/1/6
f 467/1/6 468/1/6 469/1/6
f 468/1/6 466/1/6 470/1/6
f 469/1/6 468/1/6 470/1/6
f 471/2/6 472/2/6 473/2/6
f 473/2/6 472/2/6 474/2/6
f 475/2/6 476/2/6 478/2/6
f 477/2/6 478/2/6 479/2/6
f 478/2/6 476/2/6 480/2/6
f 479/2/6 478/2/6 480/2/6
f 481/1/6 482/1/6 484/1/6
f 483/1/6 484/1/6 485/1/6
f 484/1/6 482/1/6 486/1/6
f 485/1/6 484/1/6 486/1/6
f 487/2/6 488/2/6 489/2/6
f 489/2/6 488/2/6 490/2/6
f 491/1/6 492/1/6 494/1/6
f 493/1/6 494/1/6 495/1/6
f 494/1/6 492/1/6 496/1/6
f 495/1/6 494/1/6 496/1/6
f 497/2/6 498/2/6 499/2/6
f 499/2/6 498/2/6 500/2/6
f 501/1/6 502/1/6 503/1/6
f 503/1/6 502/1/6 504/1/6
