# MagicaVoxel @ ephtracy

# material
mtllib ss1.mtl
usemtl palette

# normals
vn -1 0 0
vn 1 0 0
vn 0 0 1
vn 0 0 -1
vn 0 -1 0
vn 0 1 0

# texcoords
vt 0.970703 0.5
vt 0.974609 0.5
vt 0.978516 0.5
vt 0.982422 0.5

# verts
v -23 0 5
v -23 0 -6
v -23 21 5
v -23 21 4
v -23 36 4
v -23 36 -6
v -22 36 4
v -22 36 -6
v -22 39 4
v -22 39 -6
v -21 39 4
v -21 39 -6
v -21 41 4
v -21 41 -6
v -20 41 4
v -20 41 -6
v -20 42 4
v -20 42 -6
v -12 42 4
v -12 42 -6
v -12 43 4
v -12 43 -6
v -5 32 5
v -5 32 4
v -5 43 5
v -5 43 4
v -5 43 3
v -5 43 -6
v -5 44 5
v -5 44 4
v -5 44 -6
v -4 44 4
v -4 44 -6
v -4 45 4
v -4 45 -6
v -3 45 4
v -3 45 -6
v -3 46 4
v -3 46 -6
v 4 31 4
v 4 31 3
v 4 31 2
v 4 31 -6
v 4 32 4
v 4 32 3
v 4 32 2
v 4 32 -6
v 6 21 4
v 6 21 2
v 6 21 -6
v 6 23 4
v 6 23 3
v 6 31 4
v 6 31 3
v 6 31 2
v 6 31 -6
v 11 43 5
v 11 43 4
v 11 44 5
v 11 44 4
v 16 33 5
v 16 33 4
v 16 34 5
v 16 34 4
v 17 19 5
v 17 19 4
v 17 20 4
v 17 21 5
v 17 21 4
v 18 11 1
v 18 11 -0
v 18 11 -6
v 18 14 1
v 18 14 -0
v 18 14 -6
v 18 17 5
v 18 17 4
v 18 19 5
v 18 19 4
v 18 21 5
v 18 21 4
v 18 22 4
v 18 23 4
v 18 29 4
v 18 32 4
v 18 33 5
v 18 33 4
v 19 13 4
v 19 13 3
v 19 13 1
v 19 15 4
v 19 15 3
v 19 15 1
v 20 0 5
v 20 0 -6
v 20 8 5
v 20 8 -6
v 20 12 5
v 20 12 1
v 20 13 4
v 20 13 3
v 20 13 1
v 20 17 5
v 20 17 4
v 21 8 5
v 21 8 -6
v 21 12 5
v 21 12 -6
v -19 21 4
v -19 21 -6
v -19 32 4
v -19 32 -6
v -3 32 5
v -3 32 4
v -3 33 5
v -3 33 4
v 0 43 5
v 0 43 4
v 0 44 5
v 0 44 4
v 3 33 5
v 3 33 4
v 3 34 5
v 3 34 4
v 10 11 5
v 10 11 4
v 10 15 5
v 10 15 4
v 11 2 5
v 11 2 -6
v 11 11 5
v 11 11 4
v 11 11 3
v 11 12 4
v 11 12 3
v 11 12 -6
v 12 12 4
v 12 12 3
v 12 12 -6
v 12 13 4
v 12 13 3
v 12 13 -6
v 12 20 5
v 12 20 4
v 12 21 5
v 12 21 4
v 13 0 5
v 13 0 -6
v 13 2 5
v 13 2 -6
v 13 13 4
v 13 13 3
v 13 14 4
v 13 14 3
v 13 15 5
v 13 15 4
v 13 16 4
v 13 20 5
v 13 20 4
v 14 13 3
v 14 13 2
v 14 13 -6
v 14 14 4
v 14 14 3
v 14 14 2
v 14 14 1
v 14 14 -0
v 14 14 -6
v 14 15 4
v 14 15 1
v 19 11 1
v 19 11 -0
v 19 11 -6
v 19 12 1
v 19 12 -0
v 19 12 -6
v 25 0 5
v 25 0 -6
v 25 43 5
v 25 43 4
v 25 44 5
v 25 44 4
v 25 46 4
v 25 46 -6
v -23 0 5
v -23 21 5
v -5 32 5
v -5 43 5
v -5 44 5
v -3 32 5
v -3 33 5
v -1 42 5
v -1 43 5
v 0 43 5
v 0 44 5
v 3 33 5
v 3 34 5
v 10 11 5
v 10 15 5
v 11 2 5
v 11 11 5
v 11 42 5
v 11 43 5
v 11 44 5
v 12 20 5
v 12 21 5
v 13 0 5
v 13 2 5
v 13 15 5
v 13 20 5
v 16 33 5
v 16 34 5
v 17 19 5
v 17 21 5
v 18 17 5
v 18 19 5
v 18 21 5
v 18 33 5
v 20 0 5
v 20 8 5
v 20 12 5
v 20 17 5
v 21 8 5
v 21 12 5
v 25 0 5
v 25 43 5
v 25 44 5
v -23 21 4
v -23 36 4
v -22 36 4
v -22 39 4
v -21 39 4
v -21 41 4
v -20 41 4
v -20 42 4
v -19 21 4
v -19 32 4
v -12 42 4
v -12 43 4
v -7 32 4
v -7 40 4
v -7 41 4
v -7 43 4
v -6 40 4
v -6 41 4
v -5 32 4
v -5 43 4
v -4 44 4
v -4 45 4
v -3 32 4
v -3 33 4
v -3 45 4
v -3 46 4
v 0 43 4
v 0 44 4
v 3 33 4
v 3 34 4
v 4 31 4
v 4 32 4
v 6 21 4
v 6 23 4
v 6 31 4
v 7 31 4
v 7 32 4
v 8 22 4
v 8 23 4
v 8 30 4
v 8 31 4
v 10 11 4
v 10 15 4
v 10 23 4
v 10 28 4
v 11 11 4
v 11 12 4
v 11 43 4
v 11 44 4
v 12 12 4
v 12 13 4
v 12 20 4
v 12 21 4
v 13 13 4
v 13 14 4
v 13 15 4
v 13 16 4
v 13 20 4
v 13 25 4
v 13 26 4
v 14 14 4
v 14 15 4
v 14 16 4
v 14 20 4
v 14 23 4
v 14 25 4
v 14 26 4
v 14 28 4
v 14 30 4
v 14 34 4
v 15 19 4
v 15 20 4
v 15 21 4
v 15 23 4
v 15 30 4
v 16 15 4
v 16 19 4
v 16 29 4
v 16 30 4
v 16 32 4
v 16 33 4
v 16 34 4
v 17 15 4
v 17 19 4
v 17 20 4
v 17 21 4
v 18 17 4
v 18 19 4
v 18 21 4
v 18 22 4
v 18 23 4
v 18 29 4
v 18 32 4
v 18 33 4
v 19 13 4
v 19 15 4
v 20 13 4
v 20 17 4
v 25 44 4
v 25 46 4
v 13 13 3
v 13 14 3
v 14 13 3
v 14 14 3
v 14 14 1
v 14 15 1
v 18 11 1
v 18 14 1
v 19 11 1
v 19 12 1
v 19 13 1
v 19 15 1
v 20 12 1
v 20 13 1
v -23 0 -6
v -23 36 -6
v -22 36 -6
v -22 39 -6
v -21 39 -6
v -21 41 -6
v -20 41 -6
v -20 42 -6
v -19 21 -6
v -19 32 -6
v -12 42 -6
v -12 43 -6
v -5 43 -6
v -5 44 -6
v -4 44 -6
v -4 45 -6
v -3 45 -6
v -3 46 -6
v 4 31 -6
v 4 32 -6
v 6 21 -6
v 6 31 -6
v 11 2 -6
v 11 12 -6
v 12 12 -6
v 12 13 -6
v 13 0 -6
v 13 2 -6
v 14 13 -6
v 14 14 -6
v 18 11 -6
v 18 14 -6
v 19 11 -6
v 19 12 -6
v 20 0 -6
v 20 8 -6
v 21 8 -6
v 21 12 -6
v 25 0 -6
v 25 46 -6
v -23 0 5
v 13 0 5
v 20 0 5
v 25 0 5
v -23 0 -6
v 13 0 -6
v 20 0 -6
v 25 0 -6
v 18 11 1
v 19 11 1
v 18 11 -0
v 19 11 -0
v 18 11 -6
v 19 11 -6
v 20 12 5
v 21 12 5
v 11 12 4
v 12 12 4
v 11 12 3
v 12 12 3
v 19 12 1
v 20 12 1
v 19 12 -0
v 20 12 -0
v 11 12 -6
v 12 12 -6
v 19 12 -6
v 21 12 -6
v 12 13 4
v 13 13 4
v 19 13 4
v 20 13 4
v 12 13 3
v 13 13 3
v 14 13 3
v 19 13 3
v 20 13 3
v 13 13 2
v 14 13 2
v 19 13 1
v 20 13 1
v 12 13 -6
v 14 13 -6
v 13 14 4
v 14 14 4
v 13 14 3
v 14 14 3
v 14 14 1
v 18 14 1
v 14 14 -0
v 18 14 -0
v 14 14 -6
v 18 14 -6
v 10 15 5
v 13 15 5
v 10 15 4
v 13 15 4
v 14 15 4
v 16 15 4
v 17 15 4
v 19 15 4
v 16 15 3
v 17 15 3
v 19 15 3
v 14 15 1
v 19 15 1
v 18 17 5
v 20 17 5
v 18 17 4
v 20 17 4
v 17 19 5
v 18 19 5
v 17 19 4
v 18 19 4
v 4 31 4
v 6 31 4
v 4 31 3
v 6 31 3
v 4 31 2
v 6 31 2
v 4 31 -6
v 6 31 -6
v -5 32 5
v -3 32 5
v -19 32 4
v -7 32 4
v -5 32 4
v -3 32 4
v 4 32 4
v -7 32 3
v -5 32 3
v -3 32 3
v 4 32 3
v 4 32 2
v -19 32 -6
v 4 32 -6
v -3 33 5
v 3 33 5
v 16 33 5
v 18 33 5
v -3 33 4
v 3 33 4
v 16 33 4
v 18 33 4
v 3 34 5
v 16 34 5
v 3 34 4
v 14 34 4
v 16 34 4
v 11 2 5
v 13 2 5
v 11 2 -6
v 13 2 -6
v 20 8 5
v 21 8 5
v 20 8 -6
v 21 8 -6
v 10 11 5
v 11 11 5
v 10 11 4
v 11 11 4
v 12 20 5
v 13 20 5
v 12 20 4
v 13 20 4
v -23 21 5
v 12 21 5
v 17 21 5
v 18 21 5
v -23 21 4
v -19 21 4
v 6 21 4
v 12 21 4
v 17 21 4
v 18 21 4
v 6 21 2
v -19 21 -6
v 6 21 -6
v -23 36 4
v -22 36 4
v -23 36 -6
v -22 36 -6
v -22 39 4
v -21 39 4
v -22 39 -6
v -21 39 -6
v -21 41 4
v -20 41 4
v -21 41 -6
v -20 41 -6
v -20 42 4
v -12 42 4
v -20 42 -6
v -12 42 -6
v 0 43 5
v 11 43 5
v -12 43 4
v -7 43 4
v -5 43 4
v 0 43 4
v 11 43 4
v -7 43 3
v -5 43 3
v -12 43 -6
v -5 43 -6
v -5 44 5
v 0 44 5
v 11 44 5
v 25 44 5
v -5 44 4
v -4 44 4
v 0 44 4
v 11 44 4
v 25 44 4
v -5 44 -6
v -4 44 -6
v -4 45 4
v -3 45 4
v -4 45 -6
v -3 45 -6
v -3 46 4
v 25 46 4
v -3 46 -6
v 25 46 -6

# faces
f 3/1/1 2/1/1 1/1/1
f 4/1/1 2/1/1 3/1/1
f 5/1/1 2/1/1 4/1/1
f 6/1/1 2/1/1 5/1/1
f 9/1/1 8/1/1 7/1/1
f 10/1/1 8/1/1 9/1/1
f 13/1/1 12/1/1 11/1/1
f 14/1/1 12/1/1 13/1/1
f 17/1/1 16/1/1 15/1/1
f 18/1/1 16/1/1 17/1/1
f 21/1/1 20/1/1 19/1/1
f 22/1/1 20/1/1 21/1/1
f 25/1/1 24/1/1 23/1/1
f 26/1/1 24/1/1 25/1/1
f 29/4/1 26/4/1 25/4/1
f 30/1/1 28/1/1 27/1/1
f 30/4/1 26/4/1 29/4/1
f 30/1/1 27/1/1 26/1/1
f 31/1/1 28/1/1 30/1/1
f 34/1/1 33/1/1 32/1/1
f 35/1/1 33/1/1 34/1/1
f 38/1/1 37/1/1 36/1/1
f 39/1/1 37/1/1 38/1/1
f 44/2/1 41/2/1 40/2/1
f 45/3/1 42/3/1 41/3/1
f 45/2/1 41/2/1 44/2/1
f 46/1/1 43/1/1 42/1/1
f 46/3/1 42/3/1 45/3/1
f 47/1/1 43/1/1 46/1/1
f 51/3/1 49/3/1 48/3/1
f 52/3/1 49/3/1 51/3/1
f 53/2/1 52/2/1 51/2/1
f 54/3/1 49/3/1 52/3/1
f 54/2/1 52/2/1 53/2/1
f 55/1/1 50/1/1 49/1/1
f 55/3/1 49/3/1 54/3/1
f 56/1/1 50/1/1 55/1/1
f 59/4/1 58/4/1 57/4/1
f 60/4/1 58/4/1 59/4/1
f 63/1/1 62/1/1 61/1/1
f 64/1/1 62/1/1 63/1/1
f 67/1/1 66/1/1 65/1/1
f 68/1/1 67/1/1 65/1/1
f 69/1/1 67/1/1 68/1/1
f 73/2/1 71/2/1 70/2/1
f 74/1/1 72/1/1 71/1/1
f 74/2/1 71/2/1 73/2/1
f 75/1/1 72/1/1 74/1/1
f 78/1/1 77/1/1 76/1/1
f 79/1/1 77/1/1 78/1/1
f 82/1/1 81/1/1 80/1/1
f 83/1/1 82/1/1 80/1/1
f 84/1/1 83/1/1 80/1/1
f 85/1/1 84/1/1 80/1/1
f 86/1/1 85/1/1 80/1/1
f 87/1/1 85/1/1 86/1/1
f 91/3/1 89/3/1 88/3/1
f 92/1/1 90/1/1 89/1/1
f 92/3/1 89/3/1 91/3/1
f 93/1/1 90/1/1 92/1/1
f 96/1/1 95/1/1 94/1/1
f 97/1/1 95/1/1 96/1/1
f 100/1/1 99/1/1 98/1/1
f 101/1/1 99/1/1 100/1/1
f 102/1/1 99/1/1 101/1/1
f 103/1/1 100/1/1 98/1/1
f 104/1/1 100/1/1 103/1/1
f 107/1/1 106/1/1 105/1/1
f 108/1/1 106/1/1 107/1/1
f 109/1/2 110/1/2 111/1/2
f 111/1/2 110/1/2 112/1/2
f 113/1/2 114/1/2 115/1/2
f 115/1/2 114/1/2 116/1/2
f 117/4/2 118/4/2 119/4/2
f 119/4/2 118/4/2 120/4/2
f 121/1/2 122/1/2 123/1/2
f 123/1/2 122/1/2 124/1/2
f 125/1/2 126/1/2 127/1/2
f 127/1/2 126/1/2 128/1/2
f 129/1/2 130/1/2 131/1/2
f 131/1/2 130/1/2 132/1/2
f 132/1/2 130/1/2 133/1/2
f 132/3/2 133/3/2 134/3/2
f 133/1/2 130/1/2 135/1/2
f 134/3/2 133/3/2 135/3/2
f 135/1/2 130/1/2 136/1/2
f 137/3/2 138/3/2 140/3/2
f 138/1/2 139/1/2 141/1/2
f 140/3/2 138/3/2 141/3/2
f 141/1/2 139/1/2 142/1/2
f 143/1/2 144/1/2 145/1/2
f 145/1/2 144/1/2 146/1/2
f 147/1/2 148/1/2 149/1/2
f 149/1/2 148/1/2 150/1/2
f 151/3/2 152/3/2 153/3/2
f 153/3/2 152/3/2 154/3/2
f 155/1/2 156/1/2 157/1/2
f 155/1/2 157/1/2 158/1/2
f 158/1/2 157/1/2 159/1/2
f 160/2/2 161/2/2 164/2/2
f 161/1/2 162/1/2 165/1/2
f 164/2/2 161/2/2 165/2/2
f 165/1/2 162/1/2 166/1/2
f 166/1/2 162/1/2 167/1/2
f 167/1/2 162/1/2 168/1/2
f 163/3/2 164/3/2 169/3/2
f 164/3/2 165/3/2 169/3/2
f 165/3/2 166/3/2 169/3/2
f 169/3/2 166/3/2 170/3/2
f 171/2/2 172/2/2 174/2/2
f 172/1/2 173/1/2 175/1/2
f 174/2/2 172/2/2 175/2/2
f 175/1/2 173/1/2 176/1/2
f 177/1/2 178/1/2 179/1/2
f 179/1/2 178/1/2 180/1/2
f 179/4/2 180/4/2 181/4/2
f 180/1/2 178/1/2 182/1/2
f 181/4/2 180/4/2 182/4/2
f 182/1/2 178/1/2 183/1/2
f 183/1/2 178/1/2 184/1/2
f 190/1/3 188/1/3 187/1/3
f 191/1/3 188/1/3 190/1/3
f 192/1/3 188/1/3 191/1/3
f 193/4/3 189/4/3 188/4/3
f 193/1/3 188/1/3 192/1/3
f 194/4/3 193/4/3 192/4/3
f 194/4/3 189/4/3 193/4/3
f 195/4/3 189/4/3 194/4/3
f 196/1/3 192/1/3 191/1/3
f 197/1/3 192/1/3 196/1/3
f 198/1/3 186/1/3 185/1/3
f 199/1/3 186/1/3 198/1/3
f 200/1/3 198/1/3 185/1/3
f 201/1/3 198/1/3 200/1/3
f 202/1/3 192/1/3 197/1/3
f 202/4/3 194/4/3 192/4/3
f 203/4/3 194/4/3 202/4/3
f 205/1/3 186/1/3 199/1/3
f 206/1/3 186/1/3 205/1/3
f 207/1/3 200/1/3 185/1/3
f 208/1/3 200/1/3 207/1/3
f 209/1/3 205/1/3 199/1/3
f 210/1/3 205/1/3 209/1/3
f 212/1/3 203/1/3 202/1/3
f 212/1/3 202/1/3 197/1/3
f 216/1/3 214/1/3 213/1/3
f 217/1/3 214/1/3 216/1/3
f 218/1/3 212/1/3 211/1/3
f 222/1/3 217/1/3 216/1/3
f 222/1/3 216/1/3 215/1/3
f 222/1/3 218/1/3 217/1/3
f 223/1/3 220/1/3 219/1/3
f 224/1/3 222/1/3 221/1/3
f 225/1/3 223/1/3 219/1/3
f 225/1/3 224/1/3 223/1/3
f 226/4/3 204/4/3 203/4/3
f 226/1/3 224/1/3 225/1/3
f 226/1/3 203/1/3 212/1/3
f 226/1/3 222/1/3 224/1/3
f 226/1/3 218/1/3 222/1/3
f 226/1/3 212/1/3 218/1/3
f 227/4/3 204/4/3 226/4/3
f 230/1/3 229/1/3 228/1/3
f 232/1/3 231/1/3 230/1/3
f 234/1/3 233/1/3 232/1/3
f 236/1/3 230/1/3 228/1/3
f 236/1/3 235/1/3 234/1/3
f 236/1/3 234/1/3 232/1/3
f 236/1/3 232/1/3 230/1/3
f 237/1/3 235/1/3 236/1/3
f 238/1/3 235/1/3 237/1/3
f 240/1/3 238/1/3 237/1/3
f 240/1/3 239/1/3 238/1/3
f 241/1/3 239/1/3 240/1/3
f 242/1/3 239/1/3 241/1/3
f 243/1/3 239/1/3 242/1/3
f 244/3/3 241/3/3 240/3/3
f 244/1/3 242/1/3 241/1/3
f 245/3/3 243/3/3 242/3/3
f 245/1/3 242/1/3 244/1/3
f 246/3/3 244/3/3 240/3/3
f 246/3/3 245/3/3 244/3/3
f 247/3/3 243/3/3 245/3/3
f 247/3/3 245/3/3 246/3/3
f 252/1/3 249/1/3 248/1/3
f 255/1/3 252/1/3 248/1/3
f 255/1/3 253/1/3 252/1/3
f 256/3/3 251/3/3 250/3/3
f 259/3/3 256/3/3 250/3/3
f 259/3/3 257/3/3 256/3/3
f 262/2/3 259/2/3 258/2/3
f 263/2/3 259/2/3 262/2/3
f 263/2/3 262/2/3 261/2/3
f 264/3/3 257/3/3 259/3/3
f 264/2/3 259/2/3 263/2/3
f 265/3/3 261/3/3 260/3/3
f 266/2/3 263/2/3 261/2/3
f 266/3/3 261/3/3 265/3/3
f 267/2/3 263/2/3 266/2/3
f 268/3/3 264/3/3 263/3/3
f 268/2/3 263/2/3 267/2/3
f 271/2/3 267/2/3 266/2/3
f 271/2/3 266/2/3 265/2/3
f 272/2/3 267/2/3 271/2/3
f 273/3/3 270/3/3 269/3/3
f 274/3/3 270/3/3 273/3/3
f 275/1/3 255/1/3 254/1/3
f 276/1/3 253/1/3 255/1/3
f 276/1/3 255/1/3 275/1/3
f 277/3/3 270/3/3 274/3/3
f 278/3/3 270/3/3 277/3/3
f 280/3/3 265/3/3 260/3/3
f 281/3/3 270/3/3 278/3/3
f 282/3/3 270/3/3 281/3/3
f 283/3/3 270/3/3 282/3/3
f 285/2/3 280/2/3 279/2/3
f 286/3/3 272/3/3 271/3/3
f 287/3/3 272/3/3 286/3/3
f 288/3/3 284/3/3 283/3/3
f 288/3/3 283/3/3 282/3/3
f 289/3/3 284/3/3 288/3/3
f 290/2/3 285/2/3 284/2/3
f 290/3/3 284/3/3 289/3/3
f 291/2/3 280/2/3 285/2/3
f 291/2/3 285/2/3 290/2/3
f 292/2/3 271/2/3 265/2/3
f 292/3/3 286/3/3 271/3/3
f 293/2/3 287/2/3 286/2/3
f 293/3/3 286/3/3 292/3/3
f 294/3/3 272/3/3 287/3/3
f 294/2/3 287/2/3 293/2/3
f 295/2/3 267/2/3 272/2/3
f 295/3/3 272/3/3 294/3/3
f 296/3/3 268/3/3 267/3/3
f 296/2/3 267/2/3 295/2/3
f 297/3/3 257/3/3 264/3/3
f 297/3/3 268/3/3 296/3/3
f 297/3/3 264/3/3 268/3/3
f 298/3/3 291/3/3 290/3/3
f 298/3/3 290/3/3 289/3/3
f 299/2/3 280/2/3 291/2/3
f 299/3/3 291/3/3 298/3/3
f 300/3/3 265/3/3 280/3/3
f 300/2/3 280/2/3 299/2/3
f 301/2/3 293/2/3 292/2/3
f 301/2/3 296/2/3 295/2/3
f 301/2/3 294/2/3 293/2/3
f 301/2/3 295/2/3 294/2/3
f 301/2/3 297/2/3 296/2/3
f 301/2/3 292/2/3 265/2/3
f 302/2/3 297/2/3 301/2/3
f 303/3/3 298/3/3 289/3/3
f 304/2/3 299/2/3 298/2/3
f 304/3/3 298/3/3 303/3/3
f 305/3/3 302/3/3 301/3/3
f 306/2/3 297/2/3 302/2/3
f 306/3/3 302/3/3 305/3/3
f 307/2/3 297/2/3 306/2/3
f 308/2/3 297/2/3 307/2/3
f 309/2/3 297/2/3 308/2/3
f 310/2/3 304/2/3 303/2/3
f 311/2/3 299/2/3 304/2/3
f 311/2/3 304/2/3 310/2/3
f 312/3/3 300/3/3 299/3/3
f 312/2/3 299/2/3 311/2/3
f 313/3/3 265/3/3 300/3/3
f 313/3/3 300/3/3 312/3/3
f 314/3/3 311/3/3 310/3/3
f 315/3/3 311/3/3 314/3/3
f 316/3/3 265/3/3 313/3/3
f 317/2/3 301/2/3 265/2/3
f 317/3/3 265/3/3 316/3/3
f 318/3/3 305/3/3 301/3/3
f 318/2/3 301/2/3 317/2/3
f 319/2/3 306/2/3 305/2/3
f 319/3/3 305/3/3 318/3/3
f 319/2/3 307/2/3 306/2/3
f 320/3/3 308/3/3 307/3/3
f 320/2/3 307/2/3 319/2/3
f 321/3/3 308/3/3 320/3/3
f 323/3/3 314/3/3 310/3/3
f 324/3/3 323/3/3 322/3/3
f 325/3/3 314/3/3 323/3/3
f 325/3/3 323/3/3 324/3/3
f 326/1/3 253/1/3 276/1/3
f 327/1/3 253/1/3 326/1/3
f 330/2/3 329/2/3 328/2/3
f 331/2/3 329/2/3 330/2/3
f 335/2/3 333/2/3 332/2/3
f 336/2/3 335/2/3 334/2/3
f 337/2/3 335/2/3 336/2/3
f 338/2/3 335/2/3 337/2/3
f 339/2/3 333/2/3 335/2/3
f 339/2/3 335/2/3 338/2/3
f 340/2/3 338/2/3 337/2/3
f 341/2/3 338/2/3 340/2/3
f 342/1/4 343/1/4 344/1/4
f 344/1/4 345/1/4 346/1/4
f 346/1/4 347/1/4 348/1/4
f 342/1/4 344/1/4 350/1/4
f 348/1/4 349/1/4 350/1/4
f 346/1/4 348/1/4 350/1/4
f 344/1/4 346/1/4 350/1/4
f 350/1/4 349/1/4 351/1/4
f 351/1/4 349/1/4 352/1/4
f 352/1/4 353/1/4 354/1/4
f 354/1/4 355/1/4 356/1/4
f 356/1/4 357/1/4 358/1/4
f 351/1/4 352/1/4 361/1/4
f 358/1/4 359/1/4 361/1/4
f 356/1/4 358/1/4 361/1/4
f 354/1/4 356/1/4 361/1/4
f 352/1/4 354/1/4 361/1/4
f 342/1/4 350/1/4 362/1/4
f 360/1/4 361/1/4 363/1/4
f 342/1/4 362/1/4 364/1/4
f 362/1/4 363/1/4 364/1/4
f 364/1/4 363/1/4 365/1/4
f 365/1/4 363/1/4 366/1/4
f 366/1/4 363/1/4 367/1/4
f 342/1/4 364/1/4 368/1/4
f 368/1/4 364/1/4 369/1/4
f 367/1/4 363/1/4 370/1/4
f 370/1/4 363/1/4 371/1/4
f 371/1/4 363/1/4 373/1/4
f 372/1/4 373/1/4 374/1/4
f 374/1/4 373/1/4 375/1/4
f 376/1/4 377/1/4 378/1/4
f 375/1/4 373/1/4 379/1/4
f 376/1/4 378/1/4 380/1/4
f 378/1/4 379/1/4 380/1/4
f 363/1/4 361/1/4 381/1/4
f 380/1/4 379/1/4 381/1/4
f 361/1/4 359/1/4 381/1/4
f 373/1/4 363/1/4 381/1/4
f 379/1/4 373/1/4 381/1/4
f 386/1/5 383/1/5 382/1/5
f 387/1/5 383/1/5 386/1/5
f 388/1/5 385/1/5 384/1/5
f 389/1/5 385/1/5 388/1/5
f 392/2/5 391/2/5 390/2/5
f 393/2/5 391/2/5 392/2/5
f 394/1/5 393/1/5 392/1/5
f 395/1/5 393/1/5 394/1/5
f 400/3/5 399/3/5 398/3/5
f 401/3/5 399/3/5 400/3/5
f 403/1/5 397/1/5 396/1/5
f 404/2/5 403/2/5 402/2/5
f 405/1/5 397/1/5 403/1/5
f 405/2/5 403/2/5 404/2/5
f 406/1/5 401/1/5 400/1/5
f 407/1/5 401/1/5 406/1/5
f 408/1/5 405/1/5 404/1/5
f 409/1/5 397/1/5 405/1/5
f 409/1/5 405/1/5 408/1/5
f 414/3/5 411/3/5 410/3/5
f 415/3/5 411/3/5 414/3/5
f 417/3/5 413/3/5 412/3/5
f 418/3/5 413/3/5 417/3/5
f 419/2/5 416/2/5 415/2/5
f 419/1/5 415/1/5 414/1/5
f 420/2/5 416/2/5 419/2/5
f 421/1/5 418/1/5 417/1/5
f 422/1/5 418/1/5 421/1/5
f 423/1/5 420/1/5 419/1/5
f 423/1/5 419/1/5 414/1/5
f 424/1/5 420/1/5 423/1/5
f 427/3/5 426/3/5 425/3/5
f 428/3/5 426/3/5 427/3/5
f 431/2/5 430/2/5 429/2/5
f 432/2/5 430/2/5 431/2/5
f 433/1/5 432/1/5 431/1/5
f 434/1/5 432/1/5 433/1/5
f 437/1/5 436/1/5 435/1/5
f 438/1/5 436/1/5 437/1/5
f 443/3/5 440/3/5 439/3/5
f 443/2/5 441/2/5 440/2/5
f 444/3/5 442/3/5 441/3/5
f 444/2/5 441/2/5 443/2/5
f 445/3/5 442/3/5 444/3/5
f 446/3/5 443/3/5 439/3/5
f 446/3/5 444/3/5 443/3/5
f 446/3/5 445/3/5 444/3/5
f 447/3/5 445/3/5 446/3/5
f 450/1/5 449/1/5 448/1/5
f 451/1/5 449/1/5 450/1/5
f 454/1/5 453/1/5 452/1/5
f 455/1/5 453/1/5 454/1/5
f 458/2/5 457/2/5 456/2/5
f 459/2/5 457/2/5 458/2/5
f 460/3/5 459/3/5 458/3/5
f 461/3/5 459/3/5 460/3/5
f 462/1/5 461/1/5 460/1/5
f 463/1/5 461/1/5 462/1/5
f 468/1/5 465/1/5 464/1/5
f 469/1/5 465/1/5 468/1/5
f 471/1/5 467/1/5 466/1/5
f 471/3/5 468/3/5 467/3/5
f 472/1/5 469/1/5 468/1/5
f 472/3/5 468/3/5 471/3/5
f 473/3/5 470/3/5 469/3/5
f 473/1/5 469/1/5 472/1/5
f 474/3/5 470/3/5 473/3/5
f 475/1/5 472/1/5 471/1/5
f 475/1/5 473/1/5 472/1/5
f 475/1/5 474/1/5 473/1/5
f 476/1/5 471/1/5 466/1/5
f 476/1/5 475/1/5 471/1/5
f 477/1/5 475/1/5 476/1/5
f 482/1/5 479/1/5 478/1/5
f 483/1/5 479/1/5 482/1/5
f 484/1/5 481/1/5 480/1/5
f 485/1/5 481/1/5 484/1/5
f 488/1/5 487/1/5 486/1/5
f 489/1/5 487/1/5 488/1/5
f 490/1/5 487/1/5 489/1/5
f 491/1/6 492/1/6 493/1/6
f 493/1/6 492/1/6 494/1/6
f 495/1/6 496/1/6 497/1/6
f 497/1/6 496/1/6 498/1/6
f 499/1/6 500/1/6 501/1/6
f 501/1/6 500/1/6 502/1/6
f 503/1/6 504/1/6 505/1/6
f 505/1/6 504/1/6 506/1/6
f 507/1/6 508/1/6 511/1/6
f 511/1/6 508/1/6 512/1/6
f 512/1/6 508/1/6 513/1/6
f 513/1/6 508/1/6 514/1/6
f 509/1/6 510/1/6 515/1/6
f 515/1/6 510/1/6 516/1/6
f 512/1/6 513/1/6 517/1/6
f 512/1/6 517/1/6 518/1/6
f 518/1/6 517/1/6 519/1/6
f 520/1/6 521/1/6 522/1/6
f 522/1/6 521/1/6 523/1/6
f 524/1/6 525/1/6 526/1/6
f 526/1/6 525/1/6 527/1/6
f 528/1/6 529/1/6 530/1/6
f 530/1/6 529/1/6 531/1/6
f 532/1/6 533/1/6 534/1/6
f 534/1/6 533/1/6 535/1/6
f 536/4/6 537/4/6 541/4/6
f 541/4/6 537/4/6 542/4/6
f 539/3/6 540/3/6 543/3/6
f 538/1/6 539/1/6 543/1/6
f 543/3/6 540/3/6 544/3/6
f 538/1/6 543/1/6 545/1/6
f 543/1/6 544/1/6 545/1/6
f 545/1/6 544/1/6 546/1/6
f 547/4/6 548/4/6 551/4/6
f 551/4/6 548/4/6 552/4/6
f 552/4/6 548/4/6 553/4/6
f 549/4/6 550/4/6 554/4/6
f 554/4/6 550/4/6 555/4/6
f 551/1/6 552/1/6 556/1/6
f 556/1/6 552/1/6 557/1/6
f 558/1/6 559/1/6 560/1/6
f 560/1/6 559/1/6 561/1/6
f 562/1/6 563/1/6 564/1/6
f 564/1/6 563/1/6 565/1/6
