# MagicaVoxel @ ephtracy

# material
mtllib ss11.mtl
usemtl palette

# normals
vn -1 0 0
vn 1 0 0
vn 0 0 1
vn 0 0 -1
vn 0 -1 0
vn 0 1 0

# texcoords
vt 0.970703 0.5
vt 0.982422 0.5

# verts
v -14 0 52
v -14 0 51
v -14 31 52
v -14 31 51
v -14 32 52
v -14 32 51
v -14 48 52
v -14 48 51
v 30 0 52
v 30 0 51
v 30 34 52
v 30 34 51
v 30 35 52
v 30 35 51
v 30 48 52
v 30 48 51
v -14 0 52
v -14 31 52
v -14 32 52
v -14 48 52
v 1 31 52
v 1 32 52
v 2 31 52
v 2 32 52
v 14 31 52
v 14 32 52
v 17 32 52
v 17 33 52
v 18 32 52
v 18 33 52
v 19 32 52
v 19 33 52
v 22 32 52
v 22 33 52
v 23 33 52
v 23 34 52
v 24 33 52
v 24 34 52
v 24 35 52
v 30 0 52
v 30 34 52
v 30 35 52
v 30 48 52
v -14 0 51
v -14 31 51
v -14 32 51
v -14 48 51
v 1 31 51
v 1 32 51
v 2 31 51
v 2 32 51
v 14 31 51
v 14 32 51
v 17 32 51
v 17 33 51
v 18 32 51
v 18 33 51
v 19 32 51
v 19 33 51
v 22 32 51
v 22 33 51
v 23 33 51
v 23 34 51
v 24 33 51
v 24 34 51
v 24 35 51
v 30 0 51
v 30 34 51
v 30 35 51
v 30 48 51
v -14 0 52
v 30 0 52
v -14 0 51
v 30 0 51
v -14 48 52
v 30 48 52
v -14 48 51
v 30 48 51

# faces
f 3/1/1 2/1/1 1/1/1
f 4/1/1 2/1/1 3/1/1
f 5/2/1 4/2/1 3/2/1
f 6/2/1 4/2/1 5/2/1
f 7/1/1 6/1/1 5/1/1
f 8/1/1 6/1/1 7/1/1
f 9/1/2 10/1/2 11/1/2
f 11/1/2 10/1/2 12/1/2
f 11/2/2 12/2/2 13/2/2
f 13/2/2 12/2/2 14/2/2
f 13/1/2 14/1/2 15/1/2
f 15/1/2 14/1/2 16/1/2
f 21/1/3 18/1/3 17/1/3
f 21/2/3 19/2/3 18/2/3
f 22/1/3 20/1/3 19/1/3
f 22/2/3 19/2/3 21/2/3
f 23/1/3 21/1/3 17/1/3
f 23/1/3 22/1/3 21/1/3
f 24/1/3 20/1/3 22/1/3
f 24/1/3 22/1/3 23/1/3
f 25/1/3 23/1/3 17/1/3
f 25/2/3 24/2/3 23/2/3
f 26/1/3 20/1/3 24/1/3
f 26/2/3 24/2/3 25/2/3
f 27/1/3 26/1/3 25/1/3
f 27/1/3 20/1/3 26/1/3
f 28/1/3 20/1/3 27/1/3
f 29/1/3 27/1/3 25/1/3
f 29/2/3 28/2/3 27/2/3
f 30/1/3 20/1/3 28/1/3
f 30/2/3 28/2/3 29/2/3
f 31/1/3 29/1/3 25/1/3
f 31/1/3 30/1/3 29/1/3
f 32/1/3 20/1/3 30/1/3
f 32/1/3 30/1/3 31/1/3
f 33/1/3 31/1/3 25/1/3
f 33/2/3 32/2/3 31/2/3
f 34/1/3 20/1/3 32/1/3
f 34/2/3 32/2/3 33/2/3
f 35/1/3 34/1/3 33/1/3
f 35/1/3 20/1/3 34/1/3
f 36/1/3 20/1/3 35/1/3
f 37/1/3 35/1/3 33/1/3
f 37/2/3 36/2/3 35/2/3
f 38/1/3 20/1/3 36/1/3
f 38/2/3 36/2/3 37/2/3
f 39/1/3 20/1/3 38/1/3
f 40/1/3 25/1/3 17/1/3
f 40/1/3 33/1/3 25/1/3
f 40/1/3 37/1/3 33/1/3
f 40/1/3 38/1/3 37/1/3
f 41/2/3 39/2/3 38/2/3
f 41/1/3 38/1/3 40/1/3
f 42/1/3 20/1/3 39/1/3
f 42/2/3 39/2/3 41/2/3
f 43/1/3 20/1/3 42/1/3
f 44/1/4 45/1/4 48/1/4
f 45/2/4 46/2/4 48/2/4
f 46/1/4 47/1/4 49/1/4
f 48/2/4 46/2/4 49/2/4
f 44/1/4 48/1/4 50/1/4
f 48/1/4 49/1/4 50/1/4
f 49/1/4 47/1/4 51/1/4
f 50/1/4 49/1/4 51/1/4
f 44/1/4 50/1/4 52/1/4
f 50/2/4 51/2/4 52/2/4
f 51/1/4 47/1/4 53/1/4
f 52/2/4 51/2/4 53/2/4
f 52/1/4 53/1/4 54/1/4
f 53/1/4 47/1/4 54/1/4
f 54/1/4 47/1/4 55/1/4
f 52/1/4 54/1/4 56/1/4
f 54/2/4 55/2/4 56/2/4
f 55/1/4 47/1/4 57/1/4
f 56/2/4 55/2/4 57/2/4
f 52/1/4 56/1/4 58/1/4
f 56/1/4 57/1/4 58/1/4
f 57/1/4 47/1/4 59/1/4
f 58/1/4 57/1/4 59/1/4
f 52/1/4 58/1/4 60/1/4
f 58/2/4 59/2/4 60/2/4
f 59/1/4 47/1/4 61/1/4
f 60/2/4 59/2/4 61/2/4
f 60/1/4 61/1/4 62/1/4
f 61/1/4 47/1/4 62/1/4
f 62/1/4 47/1/4 63/1/4
f 60/1/4 62/1/4 64/1/4
f 62/2/4 63/2/4 64/2/4
f 63/1/4 47/1/4 65/1/4
f 64/2/4 63/2/4 65/2/4
f 65/1/4 47/1/4 66/1/4
f 44/1/4 52/1/4 67/1/4
f 52/1/4 60/1/4 67/1/4
f 60/1/4 64/1/4 67/1/4
f 64/1/4 65/1/4 67/1/4
f 65/2/4 66/2/4 68/2/4
f 67/1/4 65/1/4 68/1/4
f 66/1/4 47/1/4 69/1/4
f 68/2/4 66/2/4 69/2/4
f 69/1/4 47/1/4 70/1/4
f 73/1/5 72/1/5 71/1/5
f 74/1/5 72/1/5 73/1/5
f 75/1/6 76/1/6 77/1/6
f 77/1/6 76/1/6 78/1/6
