# MagicaVoxel @ ephtracy

# material
mtllib ss12.mtl
usemtl palette

# normals
vn -1 0 0
vn 1 0 0
vn 0 0 1
vn 0 0 -1
vn 0 -1 0
vn 0 1 0

# texcoords
vt 0.970703 0.5
vt 0.982422 0.5

# verts
v -6 0 52
v -6 0 51
v -6 9 52
v -6 9 51
v -5 9 52
v -5 9 51
v -5 11 52
v -5 11 51
v -4 11 52
v -4 11 51
v -4 13 52
v -4 13 51
v -3 13 52
v -3 13 51
v -3 15 52
v -3 15 51
v -2 15 52
v -2 15 51
v -2 17 52
v -2 17 51
v -1 17 52
v -1 17 51
v -1 28 52
v -1 28 51
v -1 31 52
v -1 31 51
v -1 41 52
v -1 41 51
v -1 44 52
v -1 44 51
v 0 31 52
v 0 31 51
v 0 32 52
v 0 32 51
v 0 38 52
v 0 38 51
v 0 41 52
v 0 41 51
v 0 44 52
v 0 44 51
v 0 45 52
v 0 45 51
v 1 32 52
v 1 32 51
v 1 33 52
v 1 33 51
v 1 37 52
v 1 37 51
v 1 38 52
v 1 38 51
v 1 45 52
v 1 45 51
v 1 46 52
v 1 46 51
v 2 33 52
v 2 33 51
v 2 34 52
v 2 34 51
v 2 36 52
v 2 36 51
v 2 37 52
v 2 37 51
v 2 46 52
v 2 46 51
v 2 47 52
v 2 47 51
v 3 34 52
v 3 34 51
v 3 36 52
v 3 36 51
v 4 47 52
v 4 47 51
v 4 48 52
v 4 48 51
v 43 0 52
v 43 0 51
v 43 30 52
v 43 30 51
v 43 31 52
v 43 31 51
v 43 48 52
v 43 48 51
v -6 0 52
v -6 9 52
v -5 9 52
v -5 11 52
v -4 11 52
v -4 13 52
v -3 13 52
v -3 15 52
v -2 15 52
v -2 17 52
v -1 17 52
v -1 28 52
v -1 31 52
v -1 41 52
v -1 44 52
v 0 28 52
v 0 29 52
v 0 31 52
v 0 32 52
v 0 38 52
v 0 41 52
v 0 44 52
v 0 45 52
v 1 29 52
v 1 30 52
v 1 32 52
v 1 33 52
v 1 37 52
v 1 38 52
v 1 45 52
v 1 46 52
v 2 30 52
v 2 31 52
v 2 33 52
v 2 34 52
v 2 36 52
v 2 37 52
v 2 46 52
v 2 47 52
v 3 34 52
v 3 36 52
v 4 47 52
v 4 48 52
v 14 31 52
v 14 32 52
v 15 31 52
v 15 32 52
v 27 31 52
v 27 32 52
v 30 32 52
v 30 33 52
v 31 32 52
v 31 33 52
v 32 32 52
v 32 33 52
v 35 32 52
v 35 33 52
v 36 33 52
v 36 34 52
v 37 30 52
v 37 31 52
v 37 33 52
v 37 34 52
v 43 0 52
v 43 30 52
v 43 31 52
v 43 48 52
v -6 0 51
v -6 9 51
v -5 9 51
v -5 11 51
v -4 11 51
v -4 13 51
v -3 13 51
v -3 15 51
v -2 15 51
v -2 17 51
v -1 17 51
v -1 28 51
v -1 31 51
v -1 41 51
v -1 44 51
v 0 28 51
v 0 29 51
v 0 31 51
v 0 32 51
v 0 38 51
v 0 41 51
v 0 44 51
v 0 45 51
v 1 29 51
v 1 30 51
v 1 32 51
v 1 33 51
v 1 37 51
v 1 38 51
v 1 45 51
v 1 46 51
v 2 30 51
v 2 31 51
v 2 33 51
v 2 34 51
v 2 36 51
v 2 37 51
v 2 46 51
v 2 47 51
v 3 34 51
v 3 36 51
v 4 47 51
v 4 48 51
v 14 31 51
v 14 32 51
v 15 31 51
v 15 32 51
v 27 31 51
v 27 32 51
v 30 32 51
v 30 33 51
v 31 32 51
v 31 33 51
v 32 32 51
v 32 33 51
v 35 32 51
v 35 33 51
v 36 33 51
v 36 34 51
v 37 30 51
v 37 31 51
v 37 33 51
v 37 34 51
v 43 0 51
v 43 30 51
v 43 31 51
v 43 48 51
v -6 0 52
v 43 0 52
v -6 0 51
v 43 0 51
v 2 36 52
v 3 36 52
v 2 36 51
v 3 36 51
v 1 37 52
v 2 37 52
v 1 37 51
v 2 37 51
v 0 38 52
v 1 38 52
v 0 38 51
v 1 38 51
v -1 41 52
v 0 41 52
v -1 41 51
v 0 41 51
v -6 9 52
v -5 9 52
v -6 9 51
v -5 9 51
v -5 11 52
v -4 11 52
v -5 11 51
v -4 11 51
v -4 13 52
v -3 13 52
v -4 13 51
v -3 13 51
v -3 15 52
v -2 15 52
v -3 15 51
v -2 15 51
v -2 17 52
v -1 17 52
v -2 17 51
v -1 17 51
v -1 31 52
v 0 31 52
v -1 31 51
v 0 31 51
v 0 32 52
v 1 32 52
v 0 32 51
v 1 32 51
v 1 33 52
v 2 33 52
v 1 33 51
v 2 33 51
v 2 34 52
v 3 34 52
v 2 34 51
v 3 34 51
v -1 44 52
v 0 44 52
v -1 44 51
v 0 44 51
v 0 45 52
v 1 45 52
v 0 45 51
v 1 45 51
v 1 46 52
v 2 46 52
v 1 46 51
v 2 46 51
v 2 47 52
v 4 47 52
v 2 47 51
v 4 47 51
v 4 48 52
v 43 48 52
v 4 48 51
v 43 48 51

# faces
f 3/1/1 2/1/1 1/1/1
f 4/1/1 2/1/1 3/1/1
f 7/1/1 6/1/1 5/1/1
f 8/1/1 6/1/1 7/1/1
f 11/1/1 10/1/1 9/1/1
f 12/1/1 10/1/1 11/1/1
f 15/1/1 14/1/1 13/1/1
f 16/1/1 14/1/1 15/1/1
f 19/1/1 18/1/1 17/1/1
f 20/1/1 18/1/1 19/1/1
f 23/1/1 22/1/1 21/1/1
f 24/1/1 22/1/1 23/1/1
f 25/2/1 24/2/1 23/2/1
f 26/2/1 24/2/1 25/2/1
f 29/1/1 28/1/1 27/1/1
f 30/1/1 28/1/1 29/1/1
f 33/2/1 32/2/1 31/2/1
f 34/2/1 32/2/1 33/2/1
f 37/1/1 36/1/1 35/1/1
f 38/1/1 36/1/1 37/1/1
f 41/1/1 40/1/1 39/1/1
f 42/1/1 40/1/1 41/1/1
f 45/1/1 44/1/1 43/1/1
f 46/1/1 44/1/1 45/1/1
f 49/1/1 48/1/1 47/1/1
f 50/1/1 48/1/1 49/1/1
f 53/1/1 52/1/1 51/1/1
f 54/1/1 52/1/1 53/1/1
f 57/1/1 56/1/1 55/1/1
f 58/1/1 56/1/1 57/1/1
f 61/1/1 60/1/1 59/1/1
f 62/1/1 60/1/1 61/1/1
f 65/1/1 64/1/1 63/1/1
f 66/1/1 64/1/1 65/1/1
f 69/1/1 68/1/1 67/1/1
f 70/1/1 68/1/1 69/1/1
f 73/1/1 72/1/1 71/1/1
f 74/1/1 72/1/1 73/1/1
f 75/1/2 76/1/2 77/1/2
f 77/1/2 76/1/2 78/1/2
f 77/2/2 78/2/2 79/2/2
f 79/2/2 78/2/2 80/2/2
f 79/1/2 80/1/2 81/1/2
f 81/1/2 80/1/2 82/1/2
f 85/1/3 84/1/3 83/1/3
f 87/1/3 86/1/3 85/1/3
f 89/1/3 88/1/3 87/1/3
f 91/1/3 90/1/3 89/1/3
f 93/1/3 92/1/3 91/1/3
f 98/1/3 94/1/3 93/1/3
f 98/2/3 95/2/3 94/2/3
f 99/2/3 95/2/3 98/2/3
f 100/2/3 95/2/3 99/2/3
f 103/1/3 97/1/3 96/1/3
f 104/1/3 97/1/3 103/1/3
f 106/2/3 101/2/3 100/2/3
f 106/1/3 99/1/3 98/1/3
f 106/2/3 100/2/3 99/2/3
f 107/2/3 101/2/3 106/2/3
f 108/2/3 101/2/3 107/2/3
f 111/1/3 105/1/3 104/1/3
f 111/1/3 104/1/3 103/1/3
f 111/1/3 103/1/3 102/1/3
f 112/1/3 105/1/3 111/1/3
f 114/2/3 108/2/3 107/2/3
f 114/1/3 107/1/3 106/1/3
f 115/2/3 108/2/3 114/2/3
f 116/1/3 109/1/3 108/1/3
f 119/1/3 113/1/3 112/1/3
f 119/1/3 112/1/3 111/1/3
f 119/1/3 111/1/3 110/1/3
f 120/1/3 113/1/3 119/1/3
f 122/1/3 117/1/3 116/1/3
f 123/1/3 121/1/3 120/1/3
f 123/1/3 119/1/3 118/1/3
f 123/1/3 120/1/3 119/1/3
f 124/1/3 121/1/3 123/1/3
f 124/1/3 123/1/3 122/1/3
f 126/2/3 108/2/3 115/2/3
f 126/1/3 115/1/3 114/1/3
f 127/1/3 125/1/3 124/1/3
f 127/2/3 108/2/3 126/2/3
f 127/1/3 122/1/3 116/1/3
f 127/1/3 116/1/3 108/1/3
f 127/1/3 124/1/3 122/1/3
f 128/1/3 126/1/3 114/1/3
f 128/1/3 127/1/3 126/1/3
f 129/1/3 125/1/3 127/1/3
f 129/1/3 127/1/3 128/1/3
f 130/1/3 128/1/3 114/1/3
f 130/2/3 129/2/3 128/2/3
f 131/1/3 125/1/3 129/1/3
f 131/2/3 129/2/3 130/2/3
f 132/1/3 131/1/3 130/1/3
f 132/1/3 125/1/3 131/1/3
f 133/1/3 125/1/3 132/1/3
f 134/1/3 132/1/3 130/1/3
f 134/2/3 133/2/3 132/2/3
f 135/1/3 125/1/3 133/1/3
f 135/2/3 133/2/3 134/2/3
f 136/1/3 134/1/3 130/1/3
f 136/1/3 135/1/3 134/1/3
f 137/1/3 125/1/3 135/1/3
f 137/1/3 135/1/3 136/1/3
f 138/1/3 136/1/3 130/1/3
f 138/2/3 137/2/3 136/2/3
f 139/1/3 125/1/3 137/1/3
f 139/2/3 137/2/3 138/2/3
f 140/1/3 139/1/3 138/1/3
f 140/1/3 125/1/3 139/1/3
f 141/1/3 125/1/3 140/1/3
f 142/1/3 130/1/3 114/1/3
f 142/1/3 114/1/3 106/1/3
f 142/1/3 138/1/3 130/1/3
f 142/1/3 140/1/3 138/1/3
f 143/1/3 140/1/3 142/1/3
f 144/2/3 141/2/3 140/2/3
f 144/1/3 140/1/3 143/1/3
f 145/1/3 125/1/3 141/1/3
f 145/2/3 141/2/3 144/2/3
f 146/1/3 85/1/3 83/1/3
f 146/1/3 87/1/3 85/1/3
f 146/1/3 89/1/3 87/1/3
f 146/1/3 142/1/3 106/1/3
f 146/1/3 91/1/3 89/1/3
f 146/1/3 93/1/3 91/1/3
f 146/1/3 106/1/3 98/1/3
f 146/1/3 98/1/3 93/1/3
f 147/2/3 143/2/3 142/2/3
f 147/1/3 142/1/3 146/1/3
f 148/1/3 145/1/3 144/1/3
f 148/2/3 143/2/3 147/2/3
f 148/1/3 144/1/3 143/1/3
f 149/1/3 125/1/3 145/1/3
f 149/1/3 145/1/3 148/1/3
f 150/1/4 151/1/4 152/1/4
f 152/1/4 153/1/4 154/1/4
f 154/1/4 155/1/4 156/1/4
f 156/1/4 157/1/4 158/1/4
f 158/1/4 159/1/4 160/1/4
f 160/1/4 161/1/4 165/1/4
f 161/2/4 162/2/4 165/2/4
f 165/2/4 162/2/4 166/2/4
f 166/2/4 162/2/4 167/2/4
f 163/1/4 164/1/4 170/1/4
f 170/1/4 164/1/4 171/1/4
f 167/2/4 168/2/4 173/2/4
f 165/1/4 166/1/4 173/1/4
f 166/2/4 167/2/4 173/2/4
f 173/2/4 168/2/4 174/2/4
f 174/2/4 168/2/4 175/2/4
f 171/1/4 172/1/4 178/1/4
f 170/1/4 171/1/4 178/1/4
f 169/1/4 170/1/4 178/1/4
f 178/1/4 172/1/4 179/1/4
f 174/2/4 175/2/4 181/2/4
f 173/1/4 174/1/4 181/1/4
f 181/2/4 175/2/4 182/2/4
f 175/1/4 176/1/4 183/1/4
f 179/1/4 180/1/4 186/1/4
f 178/1/4 179/1/4 186/1/4
f 177/1/4 178/1/4 186/1/4
f 186/1/4 180/1/4 187/1/4
f 183/1/4 184/1/4 189/1/4
f 187/1/4 188/1/4 190/1/4
f 185/1/4 186/1/4 190/1/4
f 186/1/4 187/1/4 190/1/4
f 190/1/4 188/1/4 191/1/4
f 189/1/4 190/1/4 191/1/4
f 182/2/4 175/2/4 193/2/4
f 181/1/4 182/1/4 193/1/4
f 191/1/4 192/1/4 194/1/4
f 193/2/4 175/2/4 194/2/4
f 183/1/4 189/1/4 194/1/4
f 175/1/4 183/1/4 194/1/4
f 189/1/4 191/1/4 194/1/4
f 181/1/4 193/1/4 195/1/4
f 193/1/4 194/1/4 195/1/4
f 194/1/4 192/1/4 196/1/4
f 195/1/4 194/1/4 196/1/4
f 181/1/4 195/1/4 197/1/4
f 195/2/4 196/2/4 197/2/4
f 196/1/4 192/1/4 198/1/4
f 197/2/4 196/2/4 198/2/4
f 197/1/4 198/1/4 199/1/4
f 198/1/4 192/1/4 199/1/4
f 199/1/4 192/1/4 200/1/4
f 197/1/4 199/1/4 201/1/4
f 199/2/4 200/2/4 201/2/4
f 200/1/4 192/1/4 202/1/4
f 201/2/4 200/2/4 202/2/4
f 197/1/4 201/1/4 203/1/4
f 201/1/4 202/1/4 203/1/4
f 202/1/4 192/1/4 204/1/4
f 203/1/4 202/1/4 204/1/4
f 197/1/4 203/1/4 205/1/4
f 203/2/4 204/2/4 205/2/4
f 204/1/4 192/1/4 206/1/4
f 205/2/4 204/2/4 206/2/4
f 205/1/4 206/1/4 207/1/4
f 206/1/4 192/1/4 207/1/4
f 207/1/4 192/1/4 208/1/4
f 181/1/4 197/1/4 209/1/4
f 173/1/4 181/1/4 209/1/4
f 197/1/4 205/1/4 209/1/4
f 205/1/4 207/1/4 209/1/4
f 209/1/4 207/1/4 210/1/4
f 207/2/4 208/2/4 211/2/4
f 210/1/4 207/1/4 211/1/4
f 208/1/4 192/1/4 212/1/4
f 211/2/4 208/2/4 212/2/4
f 150/1/4 152/1/4 213/1/4
f 152/1/4 154/1/4 213/1/4
f 154/1/4 156/1/4 213/1/4
f 173/1/4 209/1/4 213/1/4
f 156/1/4 158/1/4 213/1/4
f 158/1/4 160/1/4 213/1/4
f 165/1/4 173/1/4 213/1/4
f 160/1/4 165/1/4 213/1/4
f 209/2/4 210/2/4 214/2/4
f 213/1/4 209/1/4 214/1/4
f 211/1/4 212/1/4 215/1/4
f 214/2/4 210/2/4 215/2/4
f 210/1/4 211/1/4 215/1/4
f 212/1/4 192/1/4 216/1/4
f 215/1/4 212/1/4 216/1/4
f 219/1/5 218/1/5 217/1/5
f 220/1/5 218/1/5 219/1/5
f 223/1/5 222/1/5 221/1/5
f 224/1/5 222/1/5 223/1/5
f 227/1/5 226/1/5 225/1/5
f 228/1/5 226/1/5 227/1/5
f 231/1/5 230/1/5 229/1/5
f 232/1/5 230/1/5 231/1/5
f 235/1/5 234/1/5 233/1/5
f 236/1/5 234/1/5 235/1/5
f 237/1/6 238/1/6 239/1/6
f 239/1/6 238/1/6 240/1/6
f 241/1/6 242/1/6 243/1/6
f 243/1/6 242/1/6 244/1/6
f 245/1/6 246/1/6 247/1/6
f 247/1/6 246/1/6 248/1/6
f 249/1/6 250/1/6 251/1/6
f 251/1/6 250/1/6 252/1/6
f 253/1/6 254/1/6 255/1/6
f 255/1/6 254/1/6 256/1/6
f 257/2/6 258/2/6 259/2/6
f 259/2/6 258/2/6 260/2/6
f 261/2/6 262/2/6 263/2/6
f 263/2/6 262/2/6 264/2/6
f 265/1/6 266/1/6 267/1/6
f 267/1/6 266/1/6 268/1/6
f 269/1/6 270/1/6 271/1/6
f 271/1/6 270/1/6 272/1/6
f 273/1/6 274/1/6 275/1/6
f 275/1/6 274/1/6 276/1/6
f 277/1/6 278/1/6 279/1/6
f 279/1/6 278/1/6 280/1/6
f 281/1/6 282/1/6 283/1/6
f 283/1/6 282/1/6 284/1/6
f 285/1/6 286/1/6 287/1/6
f 287/1/6 286/1/6 288/1/6
f 289/1/6 290/1/6 291/1/6
f 291/1/6 290/1/6 292/1/6
