# MagicaVoxel @ ephtracy

# material
mtllib pt.mtl
usemtl palette

# normals
vn -1 0 0
vn 1 0 0
vn 0 0 1
vn 0 0 -1
vn 0 -1 0
vn 0 1 0

# texcoords
vt 0.970703 0.5
vt 0.974609 0.5
vt 0.978516 0.5
vt 0.982422 0.5
vt 0.986328 0.5

# verts
v -9 0 4
v -9 0 -1
v -9 5 4
v -9 5 3
v -9 12 19
v -9 12 13
v -9 12 4
v -9 12 3
v -9 14 19
v -9 14 13
v -9 14 4
v -9 15 19
v -9 15 13
v -9 15 9
v -9 16 9
v -9 16 4
v -9 20 4
v -9 20 -1
v -8 16 8
v -8 16 4
v -8 17 8
v -8 17 4
v -7 17 7
v -7 17 4
v -7 18 7
v -7 18 4
v -6 18 6
v -6 18 4
v -6 19 6
v -6 19 4
v -5 0 6
v -5 0 4
v -5 2 8
v -5 2 6
v -5 2 4
v -5 4 10
v -5 4 8
v -5 4 6
v -5 6 12
v -5 6 10
v -5 6 8
v -5 8 14
v -5 8 12
v -5 8 10
v -5 10 16
v -5 10 14
v -5 10 12
v -5 12 16
v -5 12 14
v -5 19 5
v -5 19 4
v -5 20 5
v -5 20 4
v -3 0 6
v -3 0 4
v -3 2 8
v -3 2 6
v -3 2 4
v -3 4 10
v -3 4 8
v -3 4 6
v -3 6 12
v -3 6 10
v -3 6 8
v -3 8 14
v -3 8 12
v -3 8 10
v -3 10 16
v -3 10 14
v -3 10 12
v -3 12 16
v -3 12 14
v -3 19 5
v -3 19 4
v -3 20 5
v -3 20 4
v -2 18 6
v -2 18 4
v -2 19 6
v -2 19 4
v -1 17 7
v -1 17 4
v -1 18 7
v -1 18 4
v 0 16 8
v 0 16 4
v 0 17 8
v 0 17 4
v 1 0 4
v 1 0 -1
v 1 5 4
v 1 5 3
v 1 12 19
v 1 12 13
v 1 12 4
v 1 12 3
v 1 14 19
v 1 14 13
v 1 14 4
v 1 15 19
v 1 15 13
v 1 15 9
v 1 16 9
v 1 16 4
v 1 20 4
v 1 20 -1
v -9 12 19
v -9 14 19
v -9 15 19
v 1 12 19
v 1 14 19
v 1 15 19
v -5 10 16
v -5 12 16
v -3 10 16
v -3 12 16
v -5 8 14
v -5 10 14
v -3 8 14
v -3 10 14
v -5 6 12
v -5 8 12
v -3 6 12
v -3 8 12
v -5 4 10
v -5 6 10
v -3 4 10
v -3 6 10
v -9 15 9
v -9 16 9
v 1 15 9
v 1 16 9
v -8 16 8
v -8 17 8
v -5 2 8
v -5 4 8
v -3 2 8
v -3 4 8
v 0 16 8
v 0 17 8
v -7 17 7
v -7 18 7
v -1 17 7
v -1 18 7
v -6 18 6
v -6 19 6
v -5 0 6
v -5 2 6
v -3 0 6
v -3 2 6
v -2 18 6
v -2 19 6
v -5 19 5
v -5 20 5
v -3 19 5
v -3 20 5
v -9 0 4
v -9 5 4
v -9 12 4
v -9 16 4
v -9 20 4
v -8 16 4
v -8 17 4
v -7 17 4
v -7 18 4
v -6 18 4
v -6 19 4
v -5 0 4
v -5 2 4
v -5 19 4
v -5 20 4
v -3 0 4
v -3 2 4
v -3 19 4
v -3 20 4
v -2 18 4
v -2 19 4
v -1 17 4
v -1 18 4
v 0 16 4
v 0 17 4
v 1 0 4
v 1 5 4
v 1 12 4
v 1 16 4
v 1 20 4
v -5 10 14
v -5 12 14
v -3 10 14
v -3 12 14
v -5 8 12
v -5 10 12
v -3 8 12
v -3 10 12
v -5 6 10
v -5 8 10
v -3 6 10
v -3 8 10
v -5 4 8
v -5 6 8
v -3 4 8
v -3 6 8
v -5 2 6
v -5 4 6
v -3 2 6
v -3 4 6
v -9 0 -1
v -9 20 -1
v 1 0 -1
v 1 20 -1
v -5 0 6
v -3 0 6
v -9 0 4
v -5 0 4
v -3 0 4
v 1 0 4
v -9 0 -1
v 1 0 -1
v -5 2 8
v -3 2 8
v -5 2 6
v -3 2 6
v -5 4 10
v -3 4 10
v -5 4 8
v -3 4 8
v -5 6 12
v -3 6 12
v -5 6 10
v -3 6 10
v -5 8 14
v -3 8 14
v -5 8 12
v -3 8 12
v -5 10 16
v -3 10 16
v -5 10 14
v -3 10 14
v -9 12 19
v 1 12 19
v -5 12 16
v -3 12 16
v -5 12 14
v -3 12 14
v -9 12 13
v 1 12 13
v -9 12 4
v 1 12 4
v -5 2 6
v -3 2 6
v -5 2 4
v -3 2 4
v -5 4 8
v -3 4 8
v -5 4 6
v -3 4 6
v -5 6 10
v -3 6 10
v -5 6 8
v -3 6 8
v -5 8 12
v -3 8 12
v -5 8 10
v -3 8 10
v -5 10 14
v -3 10 14
v -5 10 12
v -3 10 12
v -9 15 19
v 1 15 19
v -9 15 13
v 1 15 13
v -9 15 9
v 1 15 9
v -9 16 9
v 1 16 9
v -8 16 8
v 0 16 8
v -9 16 4
v -8 16 4
v 0 16 4
v 1 16 4
v -8 17 8
v 0 17 8
v -7 17 7
v -1 17 7
v -8 17 4
v -7 17 4
v -1 17 4
v 0 17 4
v -7 18 7
v -1 18 7
v -6 18 6
v -2 18 6
v -7 18 4
v -6 18 4
v -2 18 4
v -1 18 4
v -6 19 6
v -2 19 6
v -5 19 5
v -3 19 5
v -6 19 4
v -5 19 4
v -3 19 4
v -2 19 4
v -5 20 5
v -3 20 5
v -9 20 4
v -5 20 4
v -3 20 4
v 1 20 4
v -9 20 -1
v 1 20 -1

# faces
f 3/3/1 2/3/1 1/3/1
f 4/3/1 2/3/1 3/3/1
f 7/5/1 4/5/1 3/5/1
f 8/3/1 2/3/1 4/3/1
f 8/5/1 4/5/1 7/5/1
f 9/1/1 6/1/1 5/1/1
f 10/3/1 7/3/1 6/3/1
f 10/1/1 6/1/1 9/1/1
f 10/3/1 8/3/1 7/3/1
f 11/3/1 8/3/1 10/3/1
f 12/2/1 10/2/1 9/2/1
f 13/4/1 11/4/1 10/4/1
f 13/2/1 10/2/1 12/2/1
f 14/4/1 11/4/1 13/4/1
f 15/4/1 11/4/1 14/4/1
f 16/3/1 8/3/1 11/3/1
f 16/4/1 11/4/1 15/4/1
f 17/3/1 8/3/1 16/3/1
f 18/3/1 2/3/1 8/3/1
f 18/3/1 8/3/1 17/3/1
f 21/4/1 20/4/1 19/4/1
f 22/4/1 20/4/1 21/4/1
f 25/4/1 24/4/1 23/4/1
f 26/4/1 24/4/1 25/4/1
f 29/4/1 28/4/1 27/4/1
f 30/4/1 28/4/1 29/4/1
f 34/1/1 32/1/1 31/1/1
f 35/1/1 32/1/1 34/1/1
f 37/1/1 34/1/1 33/1/1
f 38/1/1 34/1/1 37/1/1
f 40/1/1 37/1/1 36/1/1
f 41/1/1 37/1/1 40/1/1
f 43/1/1 40/1/1 39/1/1
f 44/1/1 40/1/1 43/1/1
f 46/1/1 43/1/1 42/1/1
f 47/1/1 43/1/1 46/1/1
f 48/1/1 46/1/1 45/1/1
f 49/1/1 46/1/1 48/1/1
f 52/4/1 51/4/1 50/4/1
f 53/4/1 51/4/1 52/4/1
f 54/1/2 55/1/2 57/1/2
f 57/1/2 55/1/2 58/1/2
f 56/1/2 57/1/2 60/1/2
f 60/1/2 57/1/2 61/1/2
f 59/1/2 60/1/2 63/1/2
f 63/1/2 60/1/2 64/1/2
f 62/1/2 63/1/2 66/1/2
f 66/1/2 63/1/2 67/1/2
f 65/1/2 66/1/2 69/1/2
f 69/1/2 66/1/2 70/1/2
f 68/1/2 69/1/2 71/1/2
f 71/1/2 69/1/2 72/1/2
f 73/4/2 74/4/2 75/4/2
f 75/4/2 74/4/2 76/4/2
f 77/4/2 78/4/2 79/4/2
f 79/4/2 78/4/2 80/4/2
f 81/4/2 82/4/2 83/4/2
f 83/4/2 82/4/2 84/4/2
f 85/4/2 86/4/2 87/4/2
f 87/4/2 86/4/2 88/4/2
f 89/3/2 90/3/2 91/3/2
f 91/3/2 90/3/2 92/3/2
f 91/5/2 92/5/2 95/5/2
f 92/3/2 90/3/2 96/3/2
f 95/5/2 92/5/2 96/5/2
f 93/1/2 94/1/2 97/1/2
f 94/3/2 95/3/2 98/3/2
f 97/1/2 94/1/2 98/1/2
f 95/3/2 96/3/2 98/3/2
f 98/3/2 96/3/2 99/3/2
f 97/2/2 98/2/2 100/2/2
f 98/4/2 99/4/2 101/4/2
f 100/2/2 98/2/2 101/2/2
f 101/4/2 99/4/2 102/4/2
f 102/4/2 99/4/2 103/4/2
f 99/3/2 96/3/2 104/3/2
f 103/4/2 99/4/2 104/4/2
f 104/3/2 96/3/2 105/3/2
f 96/3/2 90/3/2 106/3/2
f 105/3/2 96/3/2 106/3/2
f 110/1/3 108/1/3 107/1/3
f 111/2/3 109/2/3 108/2/3
f 111/1/3 108/1/3 110/1/3
f 112/2/3 109/2/3 111/2/3
f 115/1/3 114/1/3 113/1/3
f 116/1/3 114/1/3 115/1/3
f 119/1/3 118/1/3 117/1/3
f 120/1/3 118/1/3 119/1/3
f 123/1/3 122/1/3 121/1/3
f 124/1/3 122/1/3 123/1/3
f 127/1/3 126/1/3 125/1/3
f 128/1/3 126/1/3 127/1/3
f 131/4/3 130/4/3 129/4/3
f 132/4/3 130/4/3 131/4/3
f 137/1/3 136/1/3 135/1/3
f 138/1/3 136/1/3 137/1/3
f 139/4/3 134/4/3 133/4/3
f 140/4/3 134/4/3 139/4/3
f 143/4/3 142/4/3 141/4/3
f 144/4/3 142/4/3 143/4/3
f 149/1/3 148/1/3 147/1/3
f 150/1/3 148/1/3 149/1/3
f 151/4/3 146/4/3 145/4/3
f 152/4/3 146/4/3 151/4/3
f 155/4/3 154/4/3 153/4/3
f 156/4/3 154/4/3 155/4/3
f 162/3/3 161/3/3 160/3/3
f 163/3/3 161/3/3 162/3/3
f 164/3/3 161/3/3 163/3/3
f 165/3/3 161/3/3 164/3/3
f 166/3/3 161/3/3 165/3/3
f 167/3/3 161/3/3 166/3/3
f 168/3/3 158/3/3 157/3/3
f 169/3/3 158/3/3 168/3/3
f 170/3/3 161/3/3 167/3/3
f 171/3/3 161/3/3 170/3/3
f 173/3/3 158/3/3 169/3/3
f 177/3/3 175/3/3 174/3/3
f 179/3/3 177/3/3 176/3/3
f 181/3/3 179/3/3 178/3/3
f 182/3/3 173/3/3 172/3/3
f 183/5/3 159/5/3 158/5/3
f 183/3/3 173/3/3 182/3/3
f 183/3/3 158/3/3 173/3/3
f 184/5/3 159/5/3 183/5/3
f 185/3/3 181/3/3 180/3/3
f 186/3/3 179/3/3 181/3/3
f 186/3/3 181/3/3 185/3/3
f 186/3/3 175/3/3 177/3/3
f 186/3/3 177/3/3 179/3/3
f 187/1/4 188/1/4 189/1/4
f 189/1/4 188/1/4 190/1/4
f 191/1/4 192/1/4 193/1/4
f 193/1/4 192/1/4 194/1/4
f 195/1/4 196/1/4 197/1/4
f 197/1/4 196/1/4 198/1/4
f 199/1/4 200/1/4 201/1/4
f 201/1/4 200/1/4 202/1/4
f 203/1/4 204/1/4 205/1/4
f 205/1/4 204/1/4 206/1/4
f 207/3/4 208/3/4 209/3/4
f 209/3/4 208/3/4 210/3/4
f 214/1/5 212/1/5 211/1/5
f 215/1/5 212/1/5 214/1/5
f 217/3/5 214/3/5 213/3/5
f 217/3/5 216/3/5 215/3/5
f 217/3/5 215/3/5 214/3/5
f 218/3/5 216/3/5 217/3/5
f 221/1/5 220/1/5 219/1/5
f 222/1/5 220/1/5 221/1/5
f 225/1/5 224/1/5 223/1/5
f 226/1/5 224/1/5 225/1/5
f 229/1/5 228/1/5 227/1/5
f 230/1/5 228/1/5 229/1/5
f 233/1/5 232/1/5 231/1/5
f 234/1/5 232/1/5 233/1/5
f 237/1/5 236/1/5 235/1/5
f 238/1/5 236/1/5 237/1/5
f 241/1/5 240/1/5 239/1/5
f 242/1/5 240/1/5 241/1/5
f 243/1/5 241/1/5 239/1/5
f 244/1/5 240/1/5 242/1/5
f 245/1/5 243/1/5 239/1/5
f 245/1/5 244/1/5 243/1/5
f 246/1/5 240/1/5 244/1/5
f 246/1/5 244/1/5 245/1/5
f 247/3/5 246/3/5 245/3/5
f 248/3/5 246/3/5 247/3/5
f 249/1/6 250/1/6 251/1/6
f 251/1/6 250/1/6 252/1/6
f 253/1/6 254/1/6 255/1/6
f 255/1/6 254/1/6 256/1/6
f 257/1/6 258/1/6 259/1/6
f 259/1/6 258/1/6 260/1/6
f 261/1/6 262/1/6 263/1/6
f 263/1/6 262/1/6 264/1/6
f 265/1/6 266/1/6 267/1/6
f 267/1/6 266/1/6 268/1/6
f 269/2/6 270/2/6 271/2/6
f 271/2/6 270/2/6 272/2/6
f 271/4/6 272/4/6 273/4/6
f 273/4/6 272/4/6 274/4/6
f 275/4/6 276/4/6 277/4/6
f 277/4/6 276/4/6 278/4/6
f 275/4/6 277/4/6 279/4/6
f 279/4/6 277/4/6 280/4/6
f 278/4/6 276/4/6 281/4/6
f 281/4/6 276/4/6 282/4/6
f 283/4/6 284/4/6 285/4/6
f 285/4/6 284/4/6 286/4/6
f 283/4/6 285/4/6 287/4/6
f 287/4/6 285/4/6 288/4/6
f 286/4/6 284/4/6 289/4/6
f 289/4/6 284/4/6 290/4/6
f 291/4/6 292/4/6 293/4/6
f 293/4/6 292/4/6 294/4/6
f 291/4/6 293/4/6 295/4/6
f 295/4/6 293/4/6 296/4/6
f 294/4/6 292/4/6 297/4/6
f 297/4/6 292/4/6 298/4/6
f 299/4/6 300/4/6 301/4/6
f 301/4/6 300/4/6 302/4/6
f 299/4/6 301/4/6 303/4/6
f 303/4/6 301/4/6 304/4/6
f 302/4/6 300/4/6 305/4/6
f 305/4/6 300/4/6 306/4/6
f 307/4/6 308/4/6 310/4/6
f 310/4/6 308/4/6 311/4/6
f 309/3/6 310/3/6 313/3/6
f 311/3/6 312/3/6 313/3/6
f 310/3/6 311/3/6 313/3/6
f 313/3/6 312/3/6 314/3/6
