# MagicaVoxel @ ephtracy

# material
mtllib yun2.mtl
usemtl palette

# normals
vn -1 0 0
vn 1 0 0
vn 0 0 1
vn 0 0 -1
vn 0 -1 0
vn 0 1 0

# texcoords
vt 0.970703 0.5
vt 0.974609 0.5

# verts
v -35 4 22
v -35 4 21
v -35 5 22
v -35 5 21
v -35 6 22
v -35 6 21
v -34 6 22
v -34 6 21
v -34 7 22
v -34 7 21
v -33 7 22
v -33 7 21
v -33 8 22
v -33 8 21
v -30 3 22
v -30 3 21
v -30 4 22
v -30 4 21
v -29 4 22
v -29 4 21
v -29 5 22
v -29 5 21
v -28 8 22
v -28 8 21
v -28 13 22
v -28 13 21
v -27 13 22
v -27 13 21
v -27 14 22
v -27 14 21
v -23 14 22
v -23 14 21
v -23 15 22
v -23 15 21
v -10 16 22
v -10 16 21
v -10 19 22
v -10 19 21
v -10 22 22
v -10 22 21
v -9 22 22
v -9 22 21
v -9 23 22
v -9 23 21
v -8 0 22
v -8 0 21
v -8 2 22
v -8 2 21
v -1 2 22
v -1 2 21
v -1 3 22
v -1 3 21
v 1 3 22
v 1 3 21
v 1 4 22
v 1 4 21
v 9 4 22
v 9 4 21
v 9 5 22
v 9 5 21
v 10 5 22
v 10 5 21
v 10 6 22
v 10 6 21
v 13 6 22
v 13 6 21
v 13 7 22
v 13 7 21
v 33 15 22
v 33 15 21
v 33 18 22
v 33 18 21
v 34 7 22
v 34 7 21
v 34 9 22
v 34 9 21
v 38 8 22
v 38 8 21
v 38 10 22
v 38 10 21
v 39 7 22
v 39 7 21
v 39 8 22
v 39 8 21
v -32 4 22
v -32 4 21
v -32 5 22
v -32 5 21
v -9 3 22
v -9 3 21
v -9 4 22
v -9 4 21
v -2 4 22
v -2 4 21
v -2 5 22
v -2 5 21
v 3 5 22
v 3 5 21
v 3 6 22
v 3 6 21
v 8 6 22
v 8 6 21
v 8 7 22
v 8 7 21
v 12 7 22
v 12 7 21
v 12 8 22
v 12 8 21
v 15 0 22
v 15 0 21
v 15 7 22
v 15 7 21
v 16 8 22
v 16 8 21
v 16 9 22
v 16 9 21
v 22 9 22
v 22 9 21
v 22 10 22
v 22 10 21
v 24 22 22
v 24 22 21
v 24 23 22
v 24 23 21
v 28 21 22
v 28 21 21
v 28 22 22
v 28 22 21
v 29 16 22
v 29 16 21
v 29 19 22
v 29 19 21
v 29 21 22
v 29 21 21
v 37 8 22
v 37 8 21
v 37 9 22
v 37 9 21
v 37 14 22
v 37 14 21
v 37 18 22
v 37 18 21
v 38 7 22
v 38 7 21
v 38 8 22
v 38 8 21
v 38 13 22
v 38 13 21
v 38 14 22
v 38 14 21
v 39 10 22
v 39 10 21
v 39 11 22
v 39 11 21
v 39 12 22
v 39 12 21
v 39 13 22
v 39 13 21
v 40 9 22
v 40 9 21
v 40 10 22
v 40 10 21
v 40 11 22
v 40 11 21
v 40 12 22
v 40 12 21
v 41 8 22
v 41 8 21
v 41 9 22
v 41 9 21
v 42 7 22
v 42 7 21
v 42 8 22
v 42 8 21
v -35 4 22
v -35 5 22
v -35 6 22
v -34 6 22
v -34 7 22
v -33 7 22
v -33 8 22
v -32 4 22
v -32 5 22
v -30 3 22
v -30 4 22
v -29 4 22
v -29 5 22
v -28 8 22
v -28 13 22
v -27 13 22
v -27 14 22
v -23 14 22
v -23 15 22
v -10 5 22
v -10 6 22
v -10 16 22
v -10 19 22
v -10 22 22
v -9 3 22
v -9 4 22
v -9 6 22
v -9 7 22
v -9 18 22
v -9 19 22
v -9 22 22
v -9 23 22
v -8 0 22
v -8 2 22
v -8 17 22
v -8 18 22
v -2 4 22
v -2 5 22
v -1 2 22
v -1 3 22
v -1 7 22
v -1 8 22
v 1 3 22
v 1 4 22
v 3 5 22
v 3 6 22
v 6 8 22
v 6 9 22
v 8 6 22
v 8 7 22
v 9 4 22
v 9 5 22
v 9 9 22
v 9 10 22
v 10 5 22
v 10 6 22
v 12 7 22
v 12 8 22
v 13 6 22
v 13 7 22
v 15 0 22
v 15 7 22
v 16 8 22
v 16 9 22
v 18 10 22
v 18 11 22
v 22 9 22
v 22 10 22
v 24 22 22
v 24 23 22
v 27 17 22
v 27 18 22
v 28 18 22
v 28 19 22
v 28 21 22
v 28 22 22
v 29 16 22
v 29 19 22
v 29 21 22
v 31 12 22
v 31 13 22
v 32 11 22
v 32 12 22
v 33 15 22
v 33 18 22
v 34 7 22
v 34 9 22
v 36 12 22
v 36 13 22
v 37 8 22
v 37 9 22
v 37 14 22
v 37 18 22
v 38 7 22
v 38 8 22
v 38 10 22
v 38 13 22
v 38 14 22
v 39 7 22
v 39 8 22
v 39 10 22
v 39 11 22
v 39 12 22
v 39 13 22
v 40 9 22
v 40 10 22
v 40 11 22
v 40 12 22
v 41 8 22
v 41 9 22
v 42 7 22
v 42 8 22
v -35 4 21
v -35 5 21
v -35 6 21
v -34 6 21
v -34 7 21
v -33 7 21
v -33 8 21
v -32 4 21
v -32 5 21
v -30 3 21
v -30 4 21
v -29 4 21
v -29 5 21
v -28 8 21
v -28 13 21
v -27 13 21
v -27 14 21
v -23 14 21
v -23 15 21
v -10 5 21
v -10 6 21
v -10 16 21
v -10 19 21
v -10 22 21
v -9 3 21
v -9 4 21
v -9 6 21
v -9 7 21
v -9 18 21
v -9 19 21
v -9 22 21
v -9 23 21
v -8 0 21
v -8 2 21
v -8 17 21
v -8 18 21
v -2 4 21
v -2 5 21
v -1 2 21
v -1 3 21
v -1 7 21
v -1 8 21
v 1 3 21
v 1 4 21
v 3 5 21
v 3 6 21
v 6 8 21
v 6 9 21
v 8 6 21
v 8 7 21
v 9 4 21
v 9 5 21
v 9 9 21
v 9 10 21
v 10 5 21
v 10 6 21
v 12 7 21
v 12 8 21
v 13 6 21
v 13 7 21
v 15 0 21
v 15 7 21
v 16 8 21
v 16 9 21
v 18 10 21
v 18 11 21
v 22 9 21
v 22 10 21
v 24 22 21
v 24 23 21
v 27 17 21
v 27 18 21
v 28 18 21
v 28 19 21
v 28 21 21
v 28 22 21
v 29 16 21
v 29 19 21
v 29 21 21
v 31 12 21
v 31 13 21
v 32 11 21
v 32 12 21
v 33 15 21
v 33 18 21
v 34 7 21
v 34 9 21
v 36 12 21
v 36 13 21
v 37 8 21
v 37 9 21
v 37 14 21
v 37 18 21
v 38 7 21
v 38 8 21
v 38 10 21
v 38 13 21
v 38 14 21
v 39 7 21
v 39 8 21
v 39 10 21
v 39 11 21
v 39 12 21
v 39 13 21
v 40 9 21
v 40 10 21
v 40 11 21
v 40 12 21
v 41 8 21
v 41 9 21
v 42 7 21
v 42 8 21
v -8 0 22
v 15 0 22
v -8 0 21
v 15 0 21
v -30 3 22
v -9 3 22
v -30 3 21
v -9 3 21
v -35 4 22
v -32 4 22
v -9 4 22
v -2 4 22
v -35 4 21
v -32 4 21
v -9 4 21
v -2 4 21
v -32 5 22
v -29 5 22
v -2 5 22
v 3 5 22
v -32 5 21
v -29 5 21
v -2 5 21
v 3 5 21
v 3 6 22
v 8 6 22
v 3 6 21
v 8 6 21
v 8 7 22
v 12 7 22
v 34 7 22
v 38 7 22
v 39 7 22
v 42 7 22
v 8 7 21
v 12 7 21
v 34 7 21
v 38 7 21
v 39 7 21
v 42 7 21
v 12 8 22
v 16 8 22
v 38 8 22
v 39 8 22
v 12 8 21
v 16 8 21
v 38 8 21
v 39 8 21
v 16 9 22
v 22 9 22
v 16 9 21
v 22 9 21
v 22 10 22
v 38 10 22
v 22 10 21
v 38 10 21
v 39 11 22
v 40 11 22
v 39 11 21
v 40 11 21
v -10 16 22
v 29 16 22
v -10 16 21
v 29 16 21
v -8 2 22
v -1 2 22
v -8 2 21
v -1 2 21
v -1 3 22
v 1 3 22
v -1 3 21
v 1 3 21
v -30 4 22
v -29 4 22
v 1 4 22
v 9 4 22
v -30 4 21
v -29 4 21
v 1 4 21
v 9 4 21
v 9 5 22
v 10 5 22
v 9 5 21
v 10 5 21
v -35 6 22
v -34 6 22
v 10 6 22
v 13 6 22
v -35 6 21
v -34 6 21
v 10 6 21
v 13 6 21
v -34 7 22
v -33 7 22
v 13 7 22
v 15 7 22
v -34 7 21
v -33 7 21
v 13 7 21
v 15 7 21
v -33 8 22
v -28 8 22
v 37 8 22
v 38 8 22
v 41 8 22
v 42 8 22
v -33 8 21
v -28 8 21
v 37 8 21
v 38 8 21
v 41 8 21
v 42 8 21
v 34 9 22
v 37 9 22
v 40 9 22
v 41 9 22
v 34 9 21
v 37 9 21
v 40 9 21
v 41 9 21
v 39 10 22
v 40 10 22
v 39 10 21
v 40 10 21
v 39 12 22
v 40 12 22
v 39 12 21
v 40 12 21
v -28 13 22
v -27 13 22
v 38 13 22
v 39 13 22
v -28 13 21
v -27 13 21
v 38 13 21
v 39 13 21
v -27 14 22
v -23 14 22
v 37 14 22
v 38 14 22
v -27 14 21
v -23 14 21
v 37 14 21
v 38 14 21
v -23 15 22
v 33 15 22
v -23 15 21
v 33 15 21
v 33 18 22
v 37 18 22
v 33 18 21
v 37 18 21
v 28 21 22
v 29 21 22
v 28 21 21
v 29 21 21
v -10 22 22
v -9 22 22
v 24 22 22
v 28 22 22
v -10 22 21
v -9 22 21
v 24 22 21
v 28 22 21
v -9 23 22
v 24 23 22
v -9 23 21
v 24 23 21

# faces
f 3/2/1 2/2/1 1/2/1
f 4/2/1 2/2/1 3/2/1
f 5/1/1 4/1/1 3/1/1
f 6/1/1 4/1/1 5/1/1
f 9/1/1 8/1/1 7/1/1
f 10/1/1 8/1/1 9/1/1
f 13/1/1 12/1/1 11/1/1
f 14/1/1 12/1/1 13/1/1
f 17/2/1 16/2/1 15/2/1
f 18/2/1 16/2/1 17/2/1
f 21/2/1 20/2/1 19/2/1
f 22/2/1 20/2/1 21/2/1
f 25/1/1 24/1/1 23/1/1
f 26/1/1 24/1/1 25/1/1
f 29/1/1 28/1/1 27/1/1
f 30/1/1 28/1/1 29/1/1
f 33/1/1 32/1/1 31/1/1
f 34/1/1 32/1/1 33/1/1
f 37/2/1 36/2/1 35/2/1
f 38/2/1 36/2/1 37/2/1
f 39/1/1 38/1/1 37/1/1
f 40/1/1 38/1/1 39/1/1
f 43/1/1 42/1/1 41/1/1
f 44/1/1 42/1/1 43/1/1
f 47/2/1 46/2/1 45/2/1
f 48/2/1 46/2/1 47/2/1
f 51/2/1 50/2/1 49/2/1
f 52/2/1 50/2/1 51/2/1
f 55/2/1 54/2/1 53/2/1
f 56/2/1 54/2/1 55/2/1
f 59/2/1 58/2/1 57/2/1
f 60/2/1 58/2/1 59/2/1
f 63/2/1 62/2/1 61/2/1
f 64/2/1 62/2/1 63/2/1
f 67/2/1 66/2/1 65/2/1
f 68/2/1 66/2/1 67/2/1
f 71/1/1 70/1/1 69/1/1
f 72/1/1 70/1/1 71/1/1
f 75/2/1 74/2/1 73/2/1
f 76/2/1 74/2/1 75/2/1
f 79/2/1 78/2/1 77/2/1
f 80/2/1 78/2/1 79/2/1
f 83/2/1 82/2/1 81/2/1
f 84/2/1 82/2/1 83/2/1
f 85/2/2 86/2/2 87/2/2
f 87/2/2 86/2/2 88/2/2
f 89/2/2 90/2/2 91/2/2
f 91/2/2 90/2/2 92/2/2
f 93/2/2 94/2/2 95/2/2
f 95/2/2 94/2/2 96/2/2
f 97/2/2 98/2/2 99/2/2
f 99/2/2 98/2/2 100/2/2
f 101/2/2 102/2/2 103/2/2
f 103/2/2 102/2/2 104/2/2
f 105/2/2 106/2/2 107/2/2
f 107/2/2 106/2/2 108/2/2
f 109/2/2 110/2/2 111/2/2
f 111/2/2 110/2/2 112/2/2
f 113/2/2 114/2/2 115/2/2
f 115/2/2 114/2/2 116/2/2
f 117/2/2 118/2/2 119/2/2
f 119/2/2 118/2/2 120/2/2
f 121/1/2 122/1/2 123/1/2
f 123/1/2 122/1/2 124/1/2
f 125/1/2 126/1/2 127/1/2
f 127/1/2 126/1/2 128/1/2
f 129/2/2 130/2/2 131/2/2
f 131/2/2 130/2/2 132/2/2
f 131/1/2 132/1/2 133/1/2
f 133/1/2 132/1/2 134/1/2
f 135/2/2 136/2/2 137/2/2
f 137/2/2 136/2/2 138/2/2
f 139/1/2 140/1/2 141/1/2
f 141/1/2 140/1/2 142/1/2
f 143/2/2 144/2/2 145/2/2
f 145/2/2 144/2/2 146/2/2
f 147/1/2 148/1/2 149/1/2
f 149/1/2 148/1/2 150/1/2
f 151/2/2 152/2/2 153/2/2
f 153/2/2 152/2/2 154/2/2
f 155/1/2 156/1/2 157/1/2
f 157/1/2 156/1/2 158/1/2
f 159/2/2 160/2/2 161/2/2
f 161/2/2 160/2/2 162/2/2
f 163/2/2 164/2/2 165/2/2
f 165/2/2 164/2/2 166/2/2
f 167/2/2 168/2/2 169/2/2
f 169/2/2 168/2/2 170/2/2
f 171/2/2 172/2/2 173/2/2
f 173/2/2 172/2/2 174/2/2
f 178/1/3 177/1/3 176/1/3
f 180/1/3 179/1/3 178/1/3
f 182/2/3 176/2/3 175/2/3
f 183/1/3 181/1/3 180/1/3
f 183/2/3 176/2/3 182/2/3
f 183/1/3 178/1/3 176/1/3
f 183/1/3 180/1/3 178/1/3
f 186/2/3 185/2/3 184/2/3
f 187/1/3 181/1/3 183/1/3
f 188/1/3 181/1/3 187/1/3
f 190/1/3 189/1/3 188/1/3
f 192/1/3 191/1/3 190/1/3
f 194/2/3 187/2/3 186/2/3
f 194/1/3 193/1/3 192/1/3
f 194/1/3 192/1/3 190/1/3
f 194/1/3 190/1/3 188/1/3
f 194/1/3 188/1/3 187/1/3
f 195/1/3 193/1/3 194/1/3
f 199/2/3 186/2/3 184/2/3
f 199/2/3 194/2/3 186/2/3
f 199/2/3 195/2/3 194/2/3
f 200/2/3 195/2/3 199/2/3
f 201/1/3 193/1/3 195/1/3
f 201/2/3 195/2/3 200/2/3
f 202/1/3 193/1/3 201/1/3
f 203/2/3 197/2/3 196/2/3
f 204/1/3 198/1/3 197/1/3
f 204/2/3 197/2/3 203/2/3
f 205/1/3 198/1/3 204/1/3
f 209/2/3 203/2/3 196/2/3
f 210/1/3 206/1/3 205/1/3
f 210/2/3 203/2/3 209/2/3
f 210/1/3 204/1/3 203/1/3
f 210/1/3 205/1/3 204/1/3
f 211/2/3 201/2/3 200/2/3
f 211/2/3 202/2/3 201/2/3
f 212/2/3 202/2/3 211/2/3
f 213/2/3 208/2/3 207/2/3
f 215/2/3 202/2/3 212/2/3
f 215/1/3 193/1/3 202/1/3
f 216/1/3 193/1/3 215/1/3
f 217/2/3 214/2/3 213/2/3
f 219/2/3 215/2/3 212/2/3
f 219/2/3 216/2/3 215/2/3
f 220/2/3 216/2/3 219/2/3
f 221/1/3 193/1/3 216/1/3
f 221/2/3 216/2/3 220/2/3
f 222/1/3 193/1/3 221/1/3
f 223/2/3 221/2/3 220/2/3
f 223/2/3 222/2/3 221/2/3
f 224/2/3 222/2/3 223/2/3
f 225/2/3 218/2/3 217/2/3
f 227/2/3 222/2/3 224/2/3
f 227/1/3 193/1/3 222/1/3
f 228/1/3 193/1/3 227/1/3
f 229/2/3 226/2/3 225/2/3
f 231/2/3 227/2/3 224/2/3
f 231/2/3 228/2/3 227/2/3
f 232/2/3 228/2/3 231/2/3
f 233/2/3 230/2/3 229/2/3
f 235/2/3 213/2/3 207/2/3
f 235/2/3 234/2/3 233/2/3
f 235/2/3 233/2/3 229/2/3
f 235/2/3 217/2/3 213/2/3
f 235/2/3 229/2/3 225/2/3
f 235/2/3 225/2/3 217/2/3
f 236/2/3 234/2/3 235/2/3
f 237/2/3 228/2/3 232/2/3
f 238/2/3 228/2/3 237/2/3
f 239/1/3 193/1/3 228/1/3
f 239/2/3 228/2/3 238/2/3
f 240/1/3 193/1/3 239/1/3
f 241/2/3 239/2/3 238/2/3
f 241/2/3 240/2/3 239/2/3
f 242/2/3 240/2/3 241/2/3
f 243/1/3 206/1/3 210/1/3
f 243/1/3 210/1/3 209/1/3
f 244/1/3 206/1/3 243/1/3
f 245/2/3 209/2/3 196/2/3
f 245/1/3 243/1/3 209/1/3
f 246/1/3 243/1/3 245/1/3
f 247/2/3 246/2/3 245/2/3
f 247/1/3 243/1/3 246/1/3
f 248/1/3 243/1/3 247/1/3
f 249/1/3 243/1/3 248/1/3
f 250/1/3 243/1/3 249/1/3
f 251/2/3 245/2/3 196/2/3
f 251/2/3 247/2/3 245/2/3
f 251/2/3 248/2/3 247/2/3
f 252/1/3 249/1/3 248/1/3
f 252/2/3 248/2/3 251/2/3
f 253/1/3 249/1/3 252/1/3
f 254/1/3 193/1/3 240/1/3
f 255/1/3 193/1/3 254/1/3
f 256/2/3 240/2/3 242/2/3
f 256/1/3 254/1/3 240/1/3
f 257/2/3 255/2/3 254/2/3
f 257/1/3 254/1/3 256/1/3
f 258/1/3 193/1/3 255/1/3
f 262/2/3 255/2/3 257/2/3
f 262/2/3 257/2/3 256/2/3
f 263/1/3 259/1/3 258/1/3
f 263/2/3 255/2/3 262/2/3
f 263/1/3 258/1/3 255/1/3
f 264/2/3 261/2/3 260/2/3
f 265/2/3 261/2/3 264/2/3
f 266/1/3 259/1/3 263/1/3
f 266/1/3 263/1/3 262/1/3
f 267/1/3 259/1/3 266/1/3
f 268/2/3 264/2/3 260/2/3
f 269/2/3 264/2/3 268/2/3
f 270/2/3 256/2/3 242/2/3
f 270/2/3 262/2/3 256/2/3
f 271/1/3 266/1/3 262/1/3
f 272/1/3 266/1/3 271/1/3
f 274/2/3 270/2/3 269/2/3
f 275/2/3 262/2/3 270/2/3
f 275/2/3 270/2/3 274/2/3
f 276/2/3 262/2/3 275/2/3
f 277/1/3 271/1/3 262/1/3
f 277/2/3 262/2/3 276/2/3
f 278/1/3 271/1/3 277/1/3
f 279/2/3 274/2/3 273/2/3
f 279/2/3 275/2/3 274/2/3
f 280/2/3 275/2/3 279/2/3
f 281/2/3 277/2/3 276/2/3
f 282/2/3 277/2/3 281/2/3
f 283/2/3 279/2/3 273/2/3
f 284/2/3 279/2/3 283/2/3
f 285/2/3 283/2/3 273/2/3
f 286/2/3 283/2/3 285/2/3
f 288/1/4 289/1/4 290/1/4
f 290/1/4 291/1/4 292/1/4
f 287/2/4 288/2/4 294/2/4
f 292/1/4 293/1/4 295/1/4
f 294/2/4 288/2/4 295/2/4
f 288/1/4 290/1/4 295/1/4
f 290/1/4 292/1/4 295/1/4
f 296/2/4 297/2/4 298/2/4
f 295/1/4 293/1/4 299/1/4
f 299/1/4 293/1/4 300/1/4
f 300/1/4 301/1/4 302/1/4
f 302/1/4 303/1/4 304/1/4
f 298/2/4 299/2/4 306/2/4
f 304/1/4 305/1/4 306/1/4
f 302/1/4 304/1/4 306/1/4
f 300/1/4 302/1/4 306/1/4
f 299/1/4 300/1/4 306/1/4
f 306/1/4 305/1/4 307/1/4
f 296/2/4 298/2/4 311/2/4
f 298/2/4 306/2/4 311/2/4
f 306/2/4 307/2/4 311/2/4
f 311/2/4 307/2/4 312/2/4
f 307/1/4 305/1/4 313/1/4
f 312/2/4 307/2/4 313/2/4
f 313/1/4 305/1/4 314/1/4
f 308/2/4 309/2/4 315/2/4
f 309/1/4 310/1/4 316/1/4
f 315/2/4 309/2/4 316/2/4
f 316/1/4 310/1/4 317/1/4
f 308/2/4 315/2/4 321/2/4
f 317/1/4 318/1/4 322/1/4
f 321/2/4 315/2/4 322/2/4
f 315/1/4 316/1/4 322/1/4
f 316/1/4 317/1/4 322/1/4
f 312/2/4 313/2/4 323/2/4
f 313/2/4 314/2/4 323/2/4
f 323/2/4 314/2/4 324/2/4
f 319/2/4 320/2/4 325/2/4
f 324/2/4 314/2/4 327/2/4
f 314/1/4 305/1/4 327/1/4
f 327/1/4 305/1/4 328/1/4
f 325/2/4 326/2/4 329/2/4
f 324/2/4 327/2/4 331/2/4
f 327/2/4 328/2/4 331/2/4
f 331/2/4 328/2/4 332/2/4
f 328/1/4 305/1/4 333/1/4
f 332/2/4 328/2/4 333/2/4
f 333/1/4 305/1/4 334/1/4
f 332/2/4 333/2/4 335/2/4
f 333/2/4 334/2/4 335/2/4
f 335/2/4 334/2/4 336/2/4
f 329/2/4 330/2/4 337/2/4
f 336/2/4 334/2/4 339/2/4
f 334/1/4 305/1/4 339/1/4
f 339/1/4 305/1/4 340/1/4
f 337/2/4 338/2/4 341/2/4
f 336/2/4 339/2/4 343/2/4
f 339/2/4 340/2/4 343/2/4
f 343/2/4 340/2/4 344/2/4
f 341/2/4 342/2/4 345/2/4
f 319/2/4 325/2/4 347/2/4
f 345/2/4 346/2/4 347/2/4
f 341/2/4 345/2/4 347/2/4
f 325/2/4 329/2/4 347/2/4
f 337/2/4 341/2/4 347/2/4
f 329/2/4 337/2/4 347/2/4
f 347/2/4 346/2/4 348/2/4
f 344/2/4 340/2/4 349/2/4
f 349/2/4 340/2/4 350/2/4
f 340/1/4 305/1/4 351/1/4
f 350/2/4 340/2/4 351/2/4
f 351/1/4 305/1/4 352/1/4
f 350/2/4 351/2/4 353/2/4
f 351/2/4 352/2/4 353/2/4
f 353/2/4 352/2/4 354/2/4
f 322/1/4 318/1/4 355/1/4
f 321/1/4 322/1/4 355/1/4
f 355/1/4 318/1/4 356/1/4
f 308/2/4 321/2/4 357/2/4
f 321/1/4 355/1/4 357/1/4
f 357/1/4 355/1/4 358/1/4
f 357/2/4 358/2/4 359/2/4
f 358/1/4 355/1/4 359/1/4
f 359/1/4 355/1/4 360/1/4
f 360/1/4 355/1/4 361/1/4
f 361/1/4 355/1/4 362/1/4
f 308/2/4 357/2/4 363/2/4
f 357/2/4 359/2/4 363/2/4
f 359/2/4 360/2/4 363/2/4
f 360/1/4 361/1/4 364/1/4
f 363/2/4 360/2/4 364/2/4
f 364/1/4 361/1/4 365/1/4
f 352/1/4 305/1/4 366/1/4
f 366/1/4 305/1/4 367/1/4
f 354/2/4 352/2/4 368/2/4
f 352/1/4 366/1/4 368/1/4
f 366/2/4 367/2/4 369/2/4
f 368/1/4 366/1/4 369/1/4
f 367/1/4 305/1/4 370/1/4
f 369/2/4 367/2/4 374/2/4
f 368/2/4 369/2/4 374/2/4
f 370/1/4 371/1/4 375/1/4
f 374/2/4 367/2/4 375/2/4
f 367/1/4 370/1/4 375/1/4
f 372/2/4 373/2/4 376/2/4
f 376/2/4 373/2/4 377/2/4
f 375/1/4 371/1/4 378/1/4
f 374/1/4 375/1/4 378/1/4
f 378/1/4 371/1/4 379/1/4
f 372/2/4 376/2/4 380/2/4
f 380/2/4 376/2/4 381/2/4
f 354/2/4 368/2/4 382/2/4
f 368/2/4 374/2/4 382/2/4
f 374/1/4 378/1/4 383/1/4
f 383/1/4 378/1/4 384/1/4
f 381/2/4 382/2/4 386/2/4
f 382/2/4 374/2/4 387/2/4
f 386/2/4 382/2/4 387/2/4
f 387/2/4 374/2/4 388/2/4
f 374/1/4 383/1/4 389/1/4
f 388/2/4 374/2/4 389/2/4
f 389/1/4 383/1/4 390/1/4
f 385/2/4 386/2/4 391/2/4
f 386/2/4 387/2/4 391/2/4
f 391/2/4 387/2/4 392/2/4
f 388/2/4 389/2/4 393/2/4
f 393/2/4 389/2/4 394/2/4
f 385/2/4 391/2/4 395/2/4
f 395/2/4 391/2/4 396/2/4
f 385/2/4 395/2/4 397/2/4
f 397/2/4 395/2/4 398/2/4
f 401/2/5 400/2/5 399/2/5
f 402/2/5 400/2/5 401/2/5
f 405/2/5 404/2/5 403/2/5
f 406/2/5 404/2/5 405/2/5
f 411/2/5 408/2/5 407/2/5
f 412/2/5 408/2/5 411/2/5
f 413/2/5 410/2/5 409/2/5
f 414/2/5 410/2/5 413/2/5
f 419/1/5 416/1/5 415/1/5
f 420/1/5 416/1/5 419/1/5
f 421/2/5 418/2/5 417/2/5
f 422/2/5 418/2/5 421/2/5
f 425/2/5 424/2/5 423/2/5
f 426/2/5 424/2/5 425/2/5
f 433/2/5 428/2/5 427/2/5
f 434/2/5 428/2/5 433/2/5
f 435/2/5 430/2/5 429/2/5
f 436/2/5 430/2/5 435/2/5
f 437/2/5 432/2/5 431/2/5
f 438/2/5 432/2/5 437/2/5
f 443/2/5 440/2/5 439/2/5
f 444/2/5 440/2/5 443/2/5
f 445/2/5 442/2/5 441/2/5
f 446/2/5 442/2/5 445/2/5
f 449/2/5 448/2/5 447/2/5
f 450/2/5 448/2/5 449/2/5
f 453/2/5 452/2/5 451/2/5
f 454/2/5 452/2/5 453/2/5
f 457/2/5 456/2/5 455/2/5
f 458/2/5 456/2/5 457/2/5
f 461/2/5 460/2/5 459/2/5
f 462/2/5 460/2/5 461/2/5
f 463/2/6 464/2/6 465/2/6
f 465/2/6 464/2/6 466/2/6
f 467/2/6 468/2/6 469/2/6
f 469/2/6 468/2/6 470/2/6
f 471/2/6 472/2/6 475/2/6
f 475/2/6 472/2/6 476/2/6
f 473/2/6 474/2/6 477/2/6
f 477/2/6 474/2/6 478/2/6
f 479/2/6 480/2/6 481/2/6
f 481/2/6 480/2/6 482/2/6
f 483/1/6 484/1/6 487/1/6
f 487/1/6 484/1/6 488/1/6
f 485/2/6 486/2/6 489/2/6
f 489/2/6 486/2/6 490/2/6
f 491/1/6 492/1/6 495/1/6
f 495/1/6 492/1/6 496/1/6
f 493/2/6 494/2/6 497/2/6
f 497/2/6 494/2/6 498/2/6
f 499/1/6 500/1/6 505/1/6
f 505/1/6 500/1/6 506/1/6
f 501/2/6 502/2/6 507/2/6
f 507/2/6 502/2/6 508/2/6
f 503/2/6 504/2/6 509/2/6
f 509/2/6 504/2/6 510/2/6
f 511/2/6 512/2/6 515/2/6
f 515/2/6 512/2/6 516/2/6
f 513/2/6 514/2/6 517/2/6
f 517/2/6 514/2/6 518/2/6
f 519/2/6 520/2/6 521/2/6
f 521/2/6 520/2/6 522/2/6
f 523/2/6 524/2/6 525/2/6
f 525/2/6 524/2/6 526/2/6
f 527/1/6 528/1/6 531/1/6
f 531/1/6 528/1/6 532/1/6
f 529/1/6 530/1/6 533/1/6
f 533/1/6 530/1/6 534/1/6
f 535/1/6 536/1/6 539/1/6
f 539/1/6 536/1/6 540/1/6
f 537/1/6 538/1/6 541/1/6
f 541/1/6 538/1/6 542/1/6
f 543/1/6 544/1/6 545/1/6
f 545/1/6 544/1/6 546/1/6
f 547/1/6 548/1/6 549/1/6
f 549/1/6 548/1/6 550/1/6
f 551/1/6 552/1/6 553/1/6
f 553/1/6 552/1/6 554/1/6
f 555/1/6 556/1/6 559/1/6
f 559/1/6 556/1/6 560/1/6
f 557/1/6 558/1/6 561/1/6
f 561/1/6 558/1/6 562/1/6
f 563/1/6 564/1/6 565/1/6
f 565/1/6 564/1/6 566/1/6
