# MagicaVoxel @ ephtracy

# material
mtllib yun3.mtl
usemtl palette

# normals
vn -1 0 0
vn 1 0 0
vn 0 0 1
vn 0 0 -1
vn 0 -1 0
vn 0 1 0

# texcoords
vt 0.970703 0.5
vt 0.974609 0.5

# verts
v -36 0 22
v -36 0 21
v -36 5 22
v -36 5 21
v -36 12 22
v -36 12 21
v -31 12 22
v -31 12 21
v -31 18 22
v -31 18 21
v -19 18 22
v -19 18 21
v -19 19 22
v -19 19 21
v -5 19 22
v -5 19 21
v -5 20 22
v -5 20 21
v 3 4 22
v 3 4 21
v 3 5 22
v 3 5 21
v 5 3 22
v 5 3 21
v 5 4 22
v 5 4 21
v 10 5 22
v 10 5 21
v 10 6 22
v 10 6 21
v 11 4 22
v 11 4 21
v 11 5 22
v 11 5 21
v 15 20 22
v 15 20 21
v 15 21 22
v 15 21 21
v 26 24 22
v 26 24 21
v 26 25 22
v 26 25 21
v 26 26 22
v 26 26 21
v 29 22 22
v 29 22 21
v 29 26 22
v 29 26 21
v 31 20 22
v 31 20 21
v 31 22 22
v 31 22 21
v 33 19 22
v 33 19 21
v 33 20 22
v 33 20 21
v 35 19 22
v 35 19 21
v 35 20 22
v 35 20 21
v 38 19 22
v 38 19 21
v 38 20 22
v 38 20 21
v 38 24 22
v 38 24 21
v 38 25 22
v 38 25 21
v 38 27 22
v 38 27 21
v 39 27 22
v 39 27 21
v 39 28 22
v 39 28 21
v -29 0 22
v -29 0 21
v -29 1 22
v -29 1 21
v -19 1 22
v -19 1 21
v -19 2 22
v -19 2 21
v -8 2 22
v -8 2 21
v -8 3 22
v -8 3 21
v -1 3 22
v -1 3 21
v -1 4 22
v -1 4 21
v 1 4 22
v 1 4 21
v 1 5 22
v 1 5 21
v 7 3 22
v 7 3 21
v 7 6 22
v 7 6 21
v 25 4 22
v 25 4 21
v 25 5 22
v 25 5 21
v 28 24 22
v 28 24 21
v 28 25 22
v 28 25 21
v 28 26 22
v 28 26 21
v 30 19 22
v 30 19 21
v 30 21 22
v 30 21 21
v 33 18 22
v 33 18 21
v 33 19 22
v 33 19 21
v 34 19 22
v 34 19 21
v 34 20 22
v 34 20 21
v 37 19 22
v 37 19 21
v 37 20 22
v 37 20 21
v 37 23 22
v 37 23 21
v 37 24 22
v 37 24 21
v 37 26 22
v 37 26 21
v 38 12 22
v 38 12 21
v 38 14 22
v 38 14 21
v 39 11 22
v 39 11 21
v 39 12 22
v 39 12 21
v 39 19 22
v 39 19 21
v 39 23 22
v 39 23 21
v 40 5 22
v 40 5 21
v 40 11 22
v 40 11 21
v 40 14 22
v 40 14 21
v 40 16 22
v 40 16 21
v 40 18 22
v 40 18 21
v 40 24 22
v 40 24 21
v 40 26 22
v 40 26 21
v 43 26 22
v 43 26 21
v 43 27 22
v 43 27 21
v 43 28 22
v 43 28 21
v -36 0 22
v -36 5 22
v -36 12 22
v -31 12 22
v -31 18 22
v -29 0 22
v -29 1 22
v -28 2 22
v -28 5 22
v -23 2 22
v -23 3 22
v -22 3 22
v -22 4 22
v -22 6 22
v -22 7 22
v -21 7 22
v -21 8 22
v -20 4 22
v -20 6 22
v -19 1 22
v -19 2 22
v -19 8 22
v -19 9 22
v -19 18 22
v -19 19 22
v -18 9 22
v -18 10 22
v -17 9 22
v -17 10 22
v -15 8 22
v -15 9 22
v -14 5 22
v -14 7 22
v -13 7 22
v -13 8 22
v -8 2 22
v -8 3 22
v -7 5 22
v -7 6 22
v -5 19 22
v -5 20 22
v -2 6 22
v -2 7 22
v -1 3 22
v -1 4 22
v 1 4 22
v 1 5 22
v 3 4 22
v 3 5 22
v 4 6 22
v 4 7 22
v 4 8 22
v 4 9 22
v 5 3 22
v 5 4 22
v 5 7 22
v 5 8 22
v 6 6 22
v 6 7 22
v 7 3 22
v 7 6 22
v 7 9 22
v 7 10 22
v 10 5 22
v 10 6 22
v 11 4 22
v 11 5 22
v 13 7 22
v 13 8 22
v 13 9 22
v 13 10 22
v 14 8 22
v 14 9 22
v 15 20 22
v 15 21 22
v 19 10 22
v 19 11 22
v 20 11 22
v 20 12 22
v 21 7 22
v 21 8 22
v 21 12 22
v 21 13 22
v 23 13 22
v 23 14 22
v 24 8 22
v 24 9 22
v 25 4 22
v 25 5 22
v 26 9 22
v 26 10 22
v 26 24 22
v 26 25 22
v 26 26 22
v 27 15 22
v 27 16 22
v 28 24 22
v 28 25 22
v 28 26 22
v 29 22 22
v 29 26 22
v 30 14 22
v 30 15 22
v 30 19 22
v 30 21 22
v 31 20 22
v 31 22 22
v 31 23 22
v 33 18 22
v 33 19 22
v 33 20 22
v 33 23 22
v 33 24 22
v 34 19 22
v 34 20 22
v 35 19 22
v 35 20 22
v 37 19 22
v 37 20 22
v 37 23 22
v 37 24 22
v 37 26 22
v 38 12 22
v 38 14 22
v 38 19 22
v 38 20 22
v 38 24 22
v 38 25 22
v 38 27 22
v 39 11 22
v 39 12 22
v 39 19 22
v 39 23 22
v 39 25 22
v 39 26 22
v 39 27 22
v 39 28 22
v 40 5 22
v 40 11 22
v 40 14 22
v 40 16 22
v 40 18 22
v 40 24 22
v 40 26 22
v 40 27 22
v 43 26 22
v 43 27 22
v 43 28 22
v -36 0 21
v -36 5 21
v -36 12 21
v -31 12 21
v -31 18 21
v -29 0 21
v -29 1 21
v -28 2 21
v -28 5 21
v -23 2 21
v -23 3 21
v -22 3 21
v -22 4 21
v -22 6 21
v -22 7 21
v -21 7 21
v -21 8 21
v -20 4 21
v -20 6 21
v -19 1 21
v -19 2 21
v -19 8 21
v -19 9 21
v -19 18 21
v -19 19 21
v -18 9 21
v -18 10 21
v -17 9 21
v -17 10 21
v -15 8 21
v -15 9 21
v -14 5 21
v -14 7 21
v -13 7 21
v -13 8 21
v -8 2 21
v -8 3 21
v -7 5 21
v -7 6 21
v -5 19 21
v -5 20 21
v -2 6 21
v -2 7 21
v -1 3 21
v -1 4 21
v 1 4 21
v 1 5 21
v 3 4 21
v 3 5 21
v 4 6 21
v 4 7 21
v 4 8 21
v 4 9 21
v 5 3 21
v 5 4 21
v 5 7 21
v 5 8 21
v 6 6 21
v 6 7 21
v 7 3 21
v 7 6 21
v 7 9 21
v 7 10 21
v 10 5 21
v 10 6 21
v 11 4 21
v 11 5 21
v 13 7 21
v 13 8 21
v 13 9 21
v 13 10 21
v 14 8 21
v 14 9 21
v 15 20 21
v 15 21 21
v 19 10 21
v 19 11 21
v 20 11 21
v 20 12 21
v 21 7 21
v 21 8 21
v 21 12 21
v 21 13 21
v 23 13 21
v 23 14 21
v 24 8 21
v 24 9 21
v 25 4 21
v 25 5 21
v 26 9 21
v 26 10 21
v 26 24 21
v 26 25 21
v 26 26 21
v 27 15 21
v 27 16 21
v 28 24 21
v 28 25 21
v 28 26 21
v 29 22 21
v 29 26 21
v 30 14 21
v 30 15 21
v 30 19 21
v 30 21 21
v 31 20 21
v 31 22 21
v 31 23 21
v 33 18 21
v 33 19 21
v 33 20 21
v 33 23 21
v 33 24 21
v 34 19 21
v 34 20 21
v 35 19 21
v 35 20 21
v 37 19 21
v 37 20 21
v 37 23 21
v 37 24 21
v 37 26 21
v 38 12 21
v 38 14 21
v 38 19 21
v 38 20 21
v 38 24 21
v 38 25 21
v 38 27 21
v 39 11 21
v 39 12 21
v 39 19 21
v 39 23 21
v 39 25 21
v 39 26 21
v 39 27 21
v 39 28 21
v 40 5 21
v 40 11 21
v 40 14 21
v 40 16 21
v 40 18 21
v 40 24 21
v 40 26 21
v 40 27 21
v 43 26 21
v 43 27 21
v 43 28 21
v -36 0 22
v -29 0 22
v -36 0 21
v -29 0 21
v -29 1 22
v -19 1 22
v -29 1 21
v -19 1 21
v -19 2 22
v -8 2 22
v -19 2 21
v -8 2 21
v -8 3 22
v -1 3 22
v 5 3 22
v 7 3 22
v -8 3 21
v -1 3 21
v 5 3 21
v 7 3 21
v -1 4 22
v 1 4 22
v 3 4 22
v 5 4 22
v 11 4 22
v 25 4 22
v -1 4 21
v 1 4 21
v 3 4 21
v 5 4 21
v 11 4 21
v 25 4 21
v 1 5 22
v 3 5 22
v 10 5 22
v 11 5 22
v 25 5 22
v 40 5 22
v 1 5 21
v 3 5 21
v 10 5 21
v 11 5 21
v 25 5 21
v 40 5 21
v 7 6 22
v 10 6 22
v 7 6 21
v 10 6 21
v 38 14 22
v 40 14 22
v 38 14 21
v 40 14 21
v 33 19 22
v 34 19 22
v 35 19 22
v 37 19 22
v 38 19 22
v 39 19 22
v 33 19 21
v 34 19 21
v 35 19 21
v 37 19 21
v 38 19 21
v 39 19 21
v 31 20 22
v 33 20 22
v 34 20 22
v 35 20 22
v 37 20 22
v 38 20 22
v 31 20 21
v 33 20 21
v 34 20 21
v 35 20 21
v 37 20 21
v 38 20 21
v 29 22 22
v 31 22 22
v 29 22 21
v 31 22 21
v 26 24 22
v 28 24 22
v 38 24 22
v 40 24 22
v 26 24 21
v 28 24 21
v 38 24 21
v 40 24 21
v 40 26 22
v 43 26 22
v 40 26 21
v 43 26 21
v 39 11 22
v 40 11 22
v 39 11 21
v 40 11 21
v -36 12 22
v -31 12 22
v 38 12 22
v 39 12 22
v -36 12 21
v -31 12 21
v 38 12 21
v 39 12 21
v -31 18 22
v -19 18 22
v 33 18 22
v 40 18 22
v -31 18 21
v -19 18 21
v 33 18 21
v 40 18 21
v -19 19 22
v -5 19 22
v 30 19 22
v 33 19 22
v -19 19 21
v -5 19 21
v 30 19 21
v 33 19 21
v -5 20 22
v 15 20 22
v -5 20 21
v 15 20 21
v 15 21 22
v 30 21 22
v 15 21 21
v 30 21 21
v 37 23 22
v 39 23 22
v 37 23 21
v 39 23 21
v 26 26 22
v 28 26 22
v 29 26 22
v 37 26 22
v 26 26 21
v 28 26 21
v 29 26 21
v 37 26 21
v 38 27 22
v 39 27 22
v 38 27 21
v 39 27 21
v 39 28 22
v 43 28 22
v 39 28 21
v 43 28 21

# faces
f 3/2/1 2/2/1 1/2/1
f 4/2/1 2/2/1 3/2/1
f 5/1/1 4/1/1 3/1/1
f 6/1/1 4/1/1 5/1/1
f 9/1/1 8/1/1 7/1/1
f 10/1/1 8/1/1 9/1/1
f 13/1/1 12/1/1 11/1/1
f 14/1/1 12/1/1 13/1/1
f 17/1/1 16/1/1 15/1/1
f 18/1/1 16/1/1 17/1/1
f 21/2/1 20/2/1 19/2/1
f 22/2/1 20/2/1 21/2/1
f 25/2/1 24/2/1 23/2/1
f 26/2/1 24/2/1 25/2/1
f 29/2/1 28/2/1 27/2/1
f 30/2/1 28/2/1 29/2/1
f 33/2/1 32/2/1 31/2/1
f 34/2/1 32/2/1 33/2/1
f 37/1/1 36/1/1 35/1/1
f 38/1/1 36/1/1 37/1/1
f 41/2/1 40/2/1 39/2/1
f 42/2/1 40/2/1 41/2/1
f 43/1/1 42/1/1 41/1/1
f 44/1/1 42/1/1 43/1/1
f 47/1/1 46/1/1 45/1/1
f 48/1/1 46/1/1 47/1/1
f 51/2/1 50/2/1 49/2/1
f 52/2/1 50/2/1 51/2/1
f 55/2/1 54/2/1 53/2/1
f 56/2/1 54/2/1 55/2/1
f 59/2/1 58/2/1 57/2/1
f 60/2/1 58/2/1 59/2/1
f 63/2/1 62/2/1 61/2/1
f 64/2/1 62/2/1 63/2/1
f 67/2/1 66/2/1 65/2/1
f 68/2/1 66/2/1 67/2/1
f 69/1/1 68/1/1 67/1/1
f 70/1/1 68/1/1 69/1/1
f 73/1/1 72/1/1 71/1/1
f 74/1/1 72/1/1 73/1/1
f 75/2/2 76/2/2 77/2/2
f 77/2/2 76/2/2 78/2/2
f 79/2/2 80/2/2 81/2/2
f 81/2/2 80/2/2 82/2/2
f 83/2/2 84/2/2 85/2/2
f 85/2/2 84/2/2 86/2/2
f 87/2/2 88/2/2 89/2/2
f 89/2/2 88/2/2 90/2/2
f 91/2/2 92/2/2 93/2/2
f 93/2/2 92/2/2 94/2/2
f 95/2/2 96/2/2 97/2/2
f 97/2/2 96/2/2 98/2/2
f 99/2/2 100/2/2 101/2/2
f 101/2/2 100/2/2 102/2/2
f 103/2/2 104/2/2 105/2/2
f 105/2/2 104/2/2 106/2/2
f 105/1/2 106/1/2 107/1/2
f 107/1/2 106/1/2 108/1/2
f 109/1/2 110/1/2 111/1/2
f 111/1/2 110/1/2 112/1/2
f 113/1/2 114/1/2 115/1/2
f 115/1/2 114/1/2 116/1/2
f 117/2/2 118/2/2 119/2/2
f 119/2/2 118/2/2 120/2/2
f 121/2/2 122/2/2 123/2/2
f 123/2/2 122/2/2 124/2/2
f 125/2/2 126/2/2 127/2/2
f 127/2/2 126/2/2 128/2/2
f 127/1/2 128/1/2 129/1/2
f 129/1/2 128/1/2 130/1/2
f 131/2/2 132/2/2 133/2/2
f 133/2/2 132/2/2 134/2/2
f 135/2/2 136/2/2 137/2/2
f 137/2/2 136/2/2 138/2/2
f 139/2/2 140/2/2 141/2/2
f 141/2/2 140/2/2 142/2/2
f 143/2/2 144/2/2 145/2/2
f 145/2/2 144/2/2 146/2/2
f 147/2/2 148/2/2 149/2/2
f 149/2/2 148/2/2 150/2/2
f 149/1/2 150/1/2 151/1/2
f 151/1/2 150/1/2 152/1/2
f 153/2/2 154/2/2 155/2/2
f 155/2/2 154/2/2 156/2/2
f 157/2/2 158/2/2 159/2/2
f 159/2/2 158/2/2 160/2/2
f 159/1/2 160/1/2 161/1/2
f 161/1/2 160/1/2 162/1/2
f 166/1/3 165/1/3 164/1/3
f 168/2/3 164/2/3 163/2/3
f 169/2/3 164/2/3 168/2/3
f 170/2/3 164/2/3 169/2/3
f 171/1/3 167/1/3 166/1/3
f 171/2/3 164/2/3 170/2/3
f 171/1/3 166/1/3 164/1/3
f 172/2/3 170/2/3 169/2/3
f 172/1/3 171/1/3 170/1/3
f 173/1/3 171/1/3 172/1/3
f 174/2/3 173/2/3 172/2/3
f 174/1/3 171/1/3 173/1/3
f 175/1/3 171/1/3 174/1/3
f 176/1/3 167/1/3 171/1/3
f 176/1/3 171/1/3 175/1/3
f 177/1/3 167/1/3 176/1/3
f 178/2/3 177/2/3 176/2/3
f 178/1/3 167/1/3 177/1/3
f 179/1/3 167/1/3 178/1/3
f 180/2/3 175/2/3 174/2/3
f 180/1/3 176/1/3 175/1/3
f 181/2/3 179/2/3 178/2/3
f 181/1/3 176/1/3 180/1/3
f 181/2/3 178/2/3 176/2/3
f 182/2/3 172/2/3 169/2/3
f 182/2/3 174/2/3 172/2/3
f 182/2/3 181/2/3 180/2/3
f 182/2/3 180/2/3 174/2/3
f 183/2/3 181/2/3 182/2/3
f 184/1/3 167/1/3 179/1/3
f 184/2/3 181/2/3 183/2/3
f 184/2/3 179/2/3 181/2/3
f 185/1/3 167/1/3 184/1/3
f 186/1/3 167/1/3 185/1/3
f 188/1/3 187/1/3 186/1/3
f 188/1/3 186/1/3 185/1/3
f 188/2/3 185/2/3 184/2/3
f 188/2/3 184/2/3 183/2/3
f 189/1/3 187/1/3 188/1/3
f 190/2/3 188/2/3 183/2/3
f 190/2/3 189/2/3 188/2/3
f 191/1/3 187/1/3 189/1/3
f 191/2/3 189/2/3 190/2/3
f 192/2/3 190/2/3 183/2/3
f 193/1/3 191/1/3 190/1/3
f 193/2/3 190/2/3 192/2/3
f 194/2/3 192/2/3 183/2/3
f 195/2/3 192/2/3 194/2/3
f 196/1/3 195/1/3 194/1/3
f 196/2/3 192/2/3 195/2/3
f 197/1/3 193/1/3 192/1/3
f 197/2/3 192/2/3 196/2/3
f 198/2/3 194/2/3 183/2/3
f 199/2/3 194/2/3 198/2/3
f 200/1/3 196/1/3 194/1/3
f 200/2/3 194/2/3 199/2/3
f 200/1/3 197/1/3 196/1/3
f 201/1/3 197/1/3 200/1/3
f 202/1/3 187/1/3 191/1/3
f 202/1/3 197/1/3 201/1/3
f 202/1/3 191/1/3 193/1/3
f 202/1/3 193/1/3 197/1/3
f 204/2/3 201/2/3 200/2/3
f 204/1/3 203/1/3 202/1/3
f 204/1/3 202/1/3 201/1/3
f 205/1/3 203/1/3 204/1/3
f 206/2/3 200/2/3 199/2/3
f 206/2/3 204/2/3 200/2/3
f 206/2/3 205/2/3 204/2/3
f 207/2/3 205/2/3 206/2/3
f 208/2/3 205/2/3 207/2/3
f 209/2/3 205/2/3 208/2/3
f 211/2/3 205/2/3 209/2/3
f 212/2/3 205/2/3 211/2/3
f 212/2/3 211/2/3 210/2/3
f 213/1/3 203/1/3 205/1/3
f 213/2/3 205/2/3 212/2/3
f 214/1/3 203/1/3 213/1/3
f 215/1/3 203/1/3 214/1/3
f 217/2/3 212/2/3 210/2/3
f 218/1/3 213/1/3 212/1/3
f 218/1/3 214/1/3 213/1/3
f 219/2/3 215/2/3 214/2/3
f 219/1/3 214/1/3 218/1/3
f 220/2/3 217/2/3 216/2/3
f 220/2/3 212/2/3 217/2/3
f 220/1/3 218/1/3 212/1/3
f 221/2/3 219/2/3 218/2/3
f 221/1/3 218/1/3 220/1/3
f 222/2/3 220/2/3 216/2/3
f 222/2/3 221/2/3 220/2/3
f 223/2/3 221/2/3 222/2/3
f 224/1/3 203/1/3 215/1/3
f 224/2/3 221/2/3 223/2/3
f 224/2/3 215/2/3 219/2/3
f 224/2/3 219/2/3 221/2/3
f 225/1/3 203/1/3 224/1/3
f 227/2/3 224/2/3 223/2/3
f 227/2/3 225/2/3 224/2/3
f 229/2/3 227/2/3 226/2/3
f 230/2/3 225/2/3 227/2/3
f 230/2/3 229/2/3 228/2/3
f 230/2/3 227/2/3 229/2/3
f 231/2/3 225/2/3 230/2/3
f 232/2/3 225/2/3 231/2/3
f 233/1/3 203/1/3 225/1/3
f 233/2/3 225/2/3 232/2/3
f 234/2/3 232/2/3 231/2/3
f 234/1/3 231/1/3 230/1/3
f 235/1/3 233/1/3 232/1/3
f 235/2/3 232/2/3 234/2/3
f 236/1/3 203/1/3 233/1/3
f 236/1/3 233/1/3 235/1/3
f 236/1/3 235/1/3 234/1/3
f 238/1/3 236/1/3 234/1/3
f 238/1/3 237/1/3 236/1/3
f 239/1/3 237/1/3 238/1/3
f 240/2/3 239/2/3 238/2/3
f 240/1/3 237/1/3 239/1/3
f 241/1/3 237/1/3 240/1/3
f 242/1/3 234/1/3 230/1/3
f 242/2/3 230/2/3 228/2/3
f 242/1/3 238/1/3 234/1/3
f 243/1/3 238/1/3 242/1/3
f 244/1/3 237/1/3 241/1/3
f 244/2/3 241/2/3 240/2/3
f 245/1/3 237/1/3 244/1/3
f 246/2/3 245/2/3 244/2/3
f 246/1/3 237/1/3 245/1/3
f 247/1/3 237/1/3 246/1/3
f 248/1/3 238/1/3 243/1/3
f 248/2/3 243/2/3 242/2/3
f 249/1/3 238/1/3 248/1/3
f 250/2/3 242/2/3 228/2/3
f 250/2/3 248/2/3 242/2/3
f 250/2/3 249/2/3 248/2/3
f 251/2/3 249/2/3 250/2/3
f 252/1/3 238/1/3 249/1/3
f 252/2/3 249/2/3 251/2/3
f 253/2/3 247/2/3 246/2/3
f 253/1/3 238/1/3 252/1/3
f 253/2/3 240/2/3 238/2/3
f 253/2/3 246/2/3 244/2/3
f 253/2/3 244/2/3 240/2/3
f 257/1/3 237/1/3 247/1/3
f 258/1/3 237/1/3 257/1/3
f 259/2/3 255/2/3 254/2/3
f 260/1/3 256/1/3 255/1/3
f 260/2/3 255/2/3 259/2/3
f 261/1/3 256/1/3 260/1/3
f 264/2/3 253/2/3 252/2/3
f 264/2/3 247/2/3 253/2/3
f 264/1/3 257/1/3 247/1/3
f 265/2/3 258/2/3 257/2/3
f 265/1/3 257/1/3 264/1/3
f 266/1/3 237/1/3 258/1/3
f 267/1/3 237/1/3 266/1/3
f 269/1/3 263/1/3 262/1/3
f 270/1/3 263/1/3 269/1/3
f 271/1/3 266/1/3 258/1/3
f 272/1/3 266/1/3 271/1/3
f 273/2/3 269/2/3 268/2/3
f 273/2/3 270/2/3 269/2/3
f 274/1/3 263/1/3 270/1/3
f 274/2/3 270/2/3 273/2/3
f 275/1/3 263/1/3 274/1/3
f 276/2/3 273/2/3 272/2/3
f 276/2/3 275/2/3 274/2/3
f 276/2/3 274/2/3 273/2/3
f 277/2/3 275/2/3 276/2/3
f 279/2/3 275/2/3 277/2/3
f 280/2/3 279/2/3 278/2/3
f 281/2/3 275/2/3 279/2/3
f 281/2/3 279/2/3 280/2/3
f 282/2/3 275/2/3 281/2/3
f 283/1/3 263/1/3 275/1/3
f 283/2/3 275/2/3 282/2/3
f 284/1/3 263/1/3 283/1/3
f 285/2/3 264/2/3 252/2/3
f 285/2/3 265/2/3 264/2/3
f 286/2/3 265/2/3 285/2/3
f 288/2/3 282/2/3 281/2/3
f 292/2/3 285/2/3 252/2/3
f 293/2/3 285/2/3 292/2/3
f 294/2/3 288/2/3 287/2/3
f 295/2/3 282/2/3 288/2/3
f 295/2/3 288/2/3 294/2/3
f 296/2/3 290/2/3 289/2/3
f 296/1/3 291/1/3 290/1/3
f 297/1/3 291/1/3 296/1/3
f 298/1/3 291/1/3 297/1/3
f 300/2/3 252/2/3 251/2/3
f 300/2/3 292/2/3 252/2/3
f 301/2/3 292/2/3 300/2/3
f 302/2/3 265/2/3 286/2/3
f 303/2/3 258/2/3 265/2/3
f 303/2/3 265/2/3 302/2/3
f 303/1/3 271/1/3 258/1/3
f 304/1/3 271/1/3 303/1/3
f 305/2/3 297/2/3 296/2/3
f 305/2/3 296/2/3 289/2/3
f 306/1/3 299/1/3 298/1/3
f 306/2/3 297/2/3 305/2/3
f 306/1/3 298/1/3 297/1/3
f 307/1/3 299/1/3 306/1/3
f 308/2/3 307/2/3 306/2/3
f 309/1/3 299/1/3 307/1/3
f 309/2/3 307/2/3 308/2/3
f 310/1/3 299/1/3 309/1/3
f 312/1/4 313/1/4 314/1/4
f 311/2/4 312/2/4 316/2/4
f 316/2/4 312/2/4 317/2/4
f 317/2/4 312/2/4 318/2/4
f 314/1/4 315/1/4 319/1/4
f 318/2/4 312/2/4 319/2/4
f 312/1/4 314/1/4 319/1/4
f 317/2/4 318/2/4 320/2/4
f 318/1/4 319/1/4 320/1/4
f 320/1/4 319/1/4 321/1/4
f 320/2/4 321/2/4 322/2/4
f 321/1/4 319/1/4 322/1/4
f 322/1/4 319/1/4 323/1/4
f 319/1/4 315/1/4 324/1/4
f 323/1/4 319/1/4 324/1/4
f 324/1/4 315/1/4 325/1/4
f 324/2/4 325/2/4 326/2/4
f 325/1/4 315/1/4 326/1/4
f 326/1/4 315/1/4 327/1/4
f 322/2/4 323/2/4 328/2/4
f 323/1/4 324/1/4 328/1/4
f 326/2/4 327/2/4 329/2/4
f 328/1/4 324/1/4 329/1/4
f 324/2/4 326/2/4 329/2/4
f 317/2/4 320/2/4 330/2/4
f 320/2/4 322/2/4 330/2/4
f 328/2/4 329/2/4 330/2/4
f 322/2/4 328/2/4 330/2/4
f 330/2/4 329/2/4 331/2/4
f 327/1/4 315/1/4 332/1/4
f 331/2/4 329/2/4 332/2/4
f 329/2/4 327/2/4 332/2/4
f 332/1/4 315/1/4 333/1/4
f 333/1/4 315/1/4 334/1/4
f 334/1/4 335/1/4 336/1/4
f 333/1/4 334/1/4 336/1/4
f 332/2/4 333/2/4 336/2/4
f 331/2/4 332/2/4 336/2/4
f 336/1/4 335/1/4 337/1/4
f 331/2/4 336/2/4 338/2/4
f 336/2/4 337/2/4 338/2/4
f 337/1/4 335/1/4 339/1/4
f 338/2/4 337/2/4 339/2/4
f 331/2/4 338/2/4 340/2/4
f 338/1/4 339/1/4 341/1/4
f 340/2/4 338/2/4 341/2/4
f 331/2/4 340/2/4 342/2/4
f 342/2/4 340/2/4 343/2/4
f 342/1/4 343/1/4 344/1/4
f 343/2/4 340/2/4 344/2/4
f 340/1/4 341/1/4 345/1/4
f 344/2/4 340/2/4 345/2/4
f 331/2/4 342/2/4 346/2/4
f 346/2/4 342/2/4 347/2/4
f 342/1/4 344/1/4 348/1/4
f 347/2/4 342/2/4 348/2/4
f 344/1/4 345/1/4 348/1/4
f 348/1/4 345/1/4 349/1/4
f 339/1/4 335/1/4 350/1/4
f 349/1/4 345/1/4 350/1/4
f 341/1/4 339/1/4 350/1/4
f 345/1/4 341/1/4 350/1/4
f 348/2/4 349/2/4 352/2/4
f 350/1/4 351/1/4 352/1/4
f 349/1/4 350/1/4 352/1/4
f 352/1/4 351/1/4 353/1/4
f 347/2/4 348/2/4 354/2/4
f 348/2/4 352/2/4 354/2/4
f 352/2/4 353/2/4 354/2/4
f 354/2/4 353/2/4 355/2/4
f 355/2/4 353/2/4 356/2/4
f 356/2/4 353/2/4 357/2/4
f 357/2/4 353/2/4 359/2/4
f 359/2/4 353/2/4 360/2/4
f 358/2/4 359/2/4 360/2/4
f 353/1/4 351/1/4 361/1/4
f 360/2/4 353/2/4 361/2/4
f 361/1/4 351/1/4 362/1/4
f 362/1/4 351/1/4 363/1/4
f 358/2/4 360/2/4 365/2/4
f 360/1/4 361/1/4 366/1/4
f 361/1/4 362/1/4 366/1/4
f 362/2/4 363/2/4 367/2/4
f 366/1/4 362/1/4 367/1/4
f 364/2/4 365/2/4 368/2/4
f 365/2/4 360/2/4 368/2/4
f 360/1/4 366/1/4 368/1/4
f 366/2/4 367/2/4 369/2/4
f 368/1/4 366/1/4 369/1/4
f 364/2/4 368/2/4 370/2/4
f 368/2/4 369/2/4 370/2/4
f 370/2/4 369/2/4 371/2/4
f 363/1/4 351/1/4 372/1/4
f 371/2/4 369/2/4 372/2/4
f 367/2/4 363/2/4 372/2/4
f 369/2/4 367/2/4 372/2/4
f 372/1/4 351/1/4 373/1/4
f 371/2/4 372/2/4 375/2/4
f 372/2/4 373/2/4 375/2/4
f 374/2/4 375/2/4 377/2/4
f 375/2/4 373/2/4 378/2/4
f 376/2/4 377/2/4 378/2/4
f 377/2/4 375/2/4 378/2/4
f 378/2/4 373/2/4 379/2/4
f 379/2/4 373/2/4 380/2/4
f 373/1/4 351/1/4 381/1/4
f 380/2/4 373/2/4 381/2/4
f 379/2/4 380/2/4 382/2/4
f 378/1/4 379/1/4 382/1/4
f 380/1/4 381/1/4 383/1/4
f 382/2/4 380/2/4 383/2/4
f 381/1/4 351/1/4 384/1/4
f 383/1/4 381/1/4 384/1/4
f 382/1/4 383/1/4 384/1/4
f 382/1/4 384/1/4 386/1/4
f 384/1/4 385/1/4 386/1/4
f 386/1/4 385/1/4 387/1/4
f 386/2/4 387/2/4 388/2/4
f 387/1/4 385/1/4 388/1/4
f 388/1/4 385/1/4 389/1/4
f 378/1/4 382/1/4 390/1/4
f 376/2/4 378/2/4 390/2/4
f 382/1/4 386/1/4 390/1/4
f 390/1/4 386/1/4 391/1/4
f 389/1/4 385/1/4 392/1/4
f 388/2/4 389/2/4 392/2/4
f 392/1/4 385/1/4 393/1/4
f 392/2/4 393/2/4 394/2/4
f 393/1/4 385/1/4 394/1/4
f 394/1/4 385/1/4 395/1/4
f 391/1/4 386/1/4 396/1/4
f 390/2/4 391/2/4 396/2/4
f 396/1/4 386/1/4 397/1/4
f 376/2/4 390/2/4 398/2/4
f 390/2/4 396/2/4 398/2/4
f 396/2/4 397/2/4 398/2/4
f 398/2/4 397/2/4 399/2/4
f 397/1/4 386/1/4 400/1/4
f 399/2/4 397/2/4 400/2/4
f 394/2/4 395/2/4 401/2/4
f 400/1/4 386/1/4 401/1/4
f 386/2/4 388/2/4 401/2/4
f 392/2/4 394/2/4 401/2/4
f 388/2/4 392/2/4 401/2/4
f 395/1/4 385/1/4 405/1/4
f 405/1/4 385/1/4 406/1/4
f 402/2/4 403/2/4 407/2/4
f 403/1/4 404/1/4 408/1/4
f 407/2/4 403/2/4 408/2/4
f 408/1/4 404/1/4 409/1/4
f 400/2/4 401/2/4 412/2/4
f 401/2/4 395/2/4 412/2/4
f 395/1/4 405/1/4 412/1/4
f 405/2/4 406/2/4 413/2/4
f 412/1/4 405/1/4 413/1/4
f 406/1/4 385/1/4 414/1/4
f 414/1/4 385/1/4 415/1/4
f 410/1/4 411/1/4 417/1/4
f 417/1/4 411/1/4 418/1/4
f 406/1/4 414/1/4 419/1/4
f 419/1/4 414/1/4 420/1/4
f 416/2/4 417/2/4 421/2/4
f 417/2/4 418/2/4 421/2/4
f 418/1/4 411/1/4 422/1/4
f 421/2/4 418/2/4 422/2/4
f 422/1/4 411/1/4 423/1/4
f 420/2/4 421/2/4 424/2/4
f 422/2/4 423/2/4 424/2/4
f 421/2/4 422/2/4 424/2/4
f 424/2/4 423/2/4 425/2/4
f 425/2/4 423/2/4 427/2/4
f 426/2/4 427/2/4 428/2/4
f 427/2/4 423/2/4 429/2/4
f 428/2/4 427/2/4 429/2/4
f 429/2/4 423/2/4 430/2/4
f 423/1/4 411/1/4 431/1/4
f 430/2/4 423/2/4 431/2/4
f 431/1/4 411/1/4 432/1/4
f 400/2/4 412/2/4 433/2/4
f 412/2/4 413/2/4 433/2/4
f 433/2/4 413/2/4 434/2/4
f 429/2/4 430/2/4 436/2/4
f 400/2/4 433/2/4 440/2/4
f 440/2/4 433/2/4 441/2/4
f 435/2/4 436/2/4 442/2/4
f 436/2/4 430/2/4 443/2/4
f 442/2/4 436/2/4 443/2/4
f 437/2/4 438/2/4 444/2/4
f 438/1/4 439/1/4 444/1/4
f 444/1/4 439/1/4 445/1/4
f 445/1/4 439/1/4 446/1/4
f 399/2/4 400/2/4 448/2/4
f 400/2/4 440/2/4 448/2/4
f 448/2/4 440/2/4 449/2/4
f 434/2/4 413/2/4 450/2/4
f 413/2/4 406/2/4 451/2/4
f 450/2/4 413/2/4 451/2/4
f 406/1/4 419/1/4 451/1/4
f 451/1/4 419/1/4 452/1/4
f 444/2/4 445/2/4 453/2/4
f 437/2/4 444/2/4 453/2/4
f 446/1/4 447/1/4 454/1/4
f 453/2/4 445/2/4 454/2/4
f 445/1/4 446/1/4 454/1/4
f 454/1/4 447/1/4 455/1/4
f 454/2/4 455/2/4 456/2/4
f 455/1/4 447/1/4 457/1/4
f 456/2/4 455/2/4 457/2/4
f 457/1/4 447/1/4 458/1/4
f 461/2/5 460/2/5 459/2/5
f 462/2/5 460/2/5 461/2/5
f 465/2/5 464/2/5 463/2/5
f 466/2/5 464/2/5 465/2/5
f 469/2/5 468/2/5 467/2/5
f 470/2/5 468/2/5 469/2/5
f 475/2/5 472/2/5 471/2/5
f 476/2/5 472/2/5 475/2/5
f 477/2/5 474/2/5 473/2/5
f 478/2/5 474/2/5 477/2/5
f 485/2/5 480/2/5 479/2/5
f 486/2/5 480/2/5 485/2/5
f 487/2/5 482/2/5 481/2/5
f 488/2/5 482/2/5 487/2/5
f 489/2/5 484/2/5 483/2/5
f 490/2/5 484/2/5 489/2/5
f 497/2/5 492/2/5 491/2/5
f 498/2/5 492/2/5 497/2/5
f 499/2/5 494/2/5 493/2/5
f 500/2/5 494/2/5 499/2/5
f 501/2/5 496/2/5 495/2/5
f 502/2/5 496/2/5 501/2/5
f 505/2/5 504/2/5 503/2/5
f 506/2/5 504/2/5 505/2/5
f 509/2/5 508/2/5 507/2/5
f 510/2/5 508/2/5 509/2/5
f 517/2/5 512/2/5 511/2/5
f 518/2/5 512/2/5 517/2/5
f 519/2/5 514/2/5 513/2/5
f 520/2/5 514/2/5 519/2/5
f 521/2/5 516/2/5 515/2/5
f 522/2/5 516/2/5 521/2/5
f 529/2/5 524/2/5 523/2/5
f 530/2/5 524/2/5 529/2/5
f 531/2/5 526/2/5 525/2/5
f 532/2/5 526/2/5 531/2/5
f 533/2/5 528/2/5 527/2/5
f 534/2/5 528/2/5 533/2/5
f 537/1/5 536/1/5 535/1/5
f 538/1/5 536/1/5 537/1/5
f 543/2/5 540/2/5 539/2/5
f 544/2/5 540/2/5 543/2/5
f 545/2/5 542/2/5 541/2/5
f 546/2/5 542/2/5 545/2/5
f 549/2/5 548/2/5 547/2/5
f 550/2/5 548/2/5 549/2/5
f 551/2/6 552/2/6 553/2/6
f 553/2/6 552/2/6 554/2/6
f 555/1/6 556/1/6 559/1/6
f 559/1/6 556/1/6 560/1/6
f 557/2/6 558/2/6 561/2/6
f 561/2/6 558/2/6 562/2/6
f 563/1/6 564/1/6 567/1/6
f 567/1/6 564/1/6 568/1/6
f 565/1/6 566/1/6 569/1/6
f 569/1/6 566/1/6 570/1/6
f 571/1/6 572/1/6 575/1/6
f 575/1/6 572/1/6 576/1/6
f 573/1/6 574/1/6 577/1/6
f 577/1/6 574/1/6 578/1/6
f 579/1/6 580/1/6 581/1/6
f 581/1/6 580/1/6 582/1/6
f 583/1/6 584/1/6 585/1/6
f 585/1/6 584/1/6 586/1/6
f 587/2/6 588/2/6 589/2/6
f 589/2/6 588/2/6 590/2/6
f 591/1/6 592/1/6 595/1/6
f 595/1/6 592/1/6 596/1/6
f 593/1/6 594/1/6 597/1/6
f 597/1/6 594/1/6 598/1/6
f 599/1/6 600/1/6 601/1/6
f 601/1/6 600/1/6 602/1/6
f 603/1/6 604/1/6 605/1/6
f 605/1/6 604/1/6 606/1/6
