# MagicaVoxel @ ephtracy

# material
mtllib qiaoban.mtl
usemtl palette

# normals
vn -1 0 0
vn 1 0 0
vn 0 0 1
vn 0 0 -1
vn 0 -1 0
vn 0 1 0

# texcoords
vt 0.876953 0.5
vt 0.908203 0.5
vt 0.939453 0.5
vt 0.970703 0.5

# verts
v -58 10 -9
v -58 10 -22
v -58 14 -9
v -58 14 -22
v -58 15 -9
v -58 15 -22
v 62 10 -9
v 62 10 -22
v 62 14 -9
v 62 14 -22
v 62 15 -9
v 62 15 -22
v -58 10 -9
v -58 14 -9
v -58 15 -9
v -53 10 -9
v -53 14 -9
v -53 15 -9
v -46 10 -9
v -46 14 -9
v -46 15 -9
v -41 10 -9
v -41 14 -9
v -41 15 -9
v -34 10 -9
v -34 14 -9
v -34 15 -9
v -29 10 -9
v -29 14 -9
v -29 15 -9
v -22 10 -9
v -22 14 -9
v -22 15 -9
v -17 10 -9
v -17 14 -9
v -17 15 -9
v -10 10 -9
v -10 14 -9
v -10 15 -9
v -5 10 -9
v -5 14 -9
v -5 15 -9
v 2 10 -9
v 2 14 -9
v 2 15 -9
v 7 10 -9
v 7 14 -9
v 7 15 -9
v 14 10 -9
v 14 14 -9
v 14 15 -9
v 19 10 -9
v 19 14 -9
v 19 15 -9
v 26 10 -9
v 26 14 -9
v 26 15 -9
v 31 10 -9
v 31 14 -9
v 31 15 -9
v 38 10 -9
v 38 14 -9
v 38 15 -9
v 43 10 -9
v 43 14 -9
v 43 15 -9
v 50 10 -9
v 50 14 -9
v 50 15 -9
v 55 10 -9
v 55 14 -9
v 55 15 -9
v 62 10 -9
v 62 14 -9
v 62 15 -9
v -58 10 -22
v -58 14 -22
v -58 15 -22
v -53 10 -22
v -53 14 -22
v -53 15 -22
v -46 10 -22
v -46 14 -22
v -46 15 -22
v -41 10 -22
v -41 14 -22
v -41 15 -22
v -34 10 -22
v -34 14 -22
v -34 15 -22
v -29 10 -22
v -29 14 -22
v -29 15 -22
v -22 10 -22
v -22 14 -22
v -22 15 -22
v -17 10 -22
v -17 14 -22
v -17 15 -22
v -10 10 -22
v -10 14 -22
v -10 15 -22
v -5 10 -22
v -5 14 -22
v -5 15 -22
v 2 10 -22
v 2 14 -22
v 2 15 -22
v 7 10 -22
v 7 14 -22
v 7 15 -22
v 14 10 -22
v 14 14 -22
v 14 15 -22
v 19 10 -22
v 19 14 -22
v 19 15 -22
v 26 10 -22
v 26 14 -22
v 26 15 -22
v 31 10 -22
v 31 14 -22
v 31 15 -22
v 38 10 -22
v 38 14 -22
v 38 15 -22
v 43 10 -22
v 43 14 -22
v 43 15 -22
v 50 10 -22
v 50 14 -22
v 50 15 -22
v 55 10 -22
v 55 14 -22
v 55 15 -22
v 62 10 -22
v 62 14 -22
v 62 15 -22
v -58 10 -9
v -53 10 -9
v -46 10 -9
v -41 10 -9
v -34 10 -9
v -29 10 -9
v -22 10 -9
v -17 10 -9
v -10 10 -9
v -5 10 -9
v 2 10 -9
v 7 10 -9
v 14 10 -9
v 19 10 -9
v 26 10 -9
v 31 10 -9
v 38 10 -9
v 43 10 -9
v 50 10 -9
v 55 10 -9
v 62 10 -9
v -58 10 -22
v -53 10 -22
v -46 10 -22
v -41 10 -22
v -34 10 -22
v -29 10 -22
v -22 10 -22
v -17 10 -22
v -10 10 -22
v -5 10 -22
v 2 10 -22
v 7 10 -22
v 14 10 -22
v 19 10 -22
v 26 10 -22
v 31 10 -22
v 38 10 -22
v 43 10 -22
v 50 10 -22
v 55 10 -22
v 62 10 -22
v -58 15 -9
v -53 15 -9
v -46 15 -9
v -41 15 -9
v -34 15 -9
v -29 15 -9
v -22 15 -9
v -17 15 -9
v -10 15 -9
v -5 15 -9
v 2 15 -9
v 7 15 -9
v 14 15 -9
v 19 15 -9
v 26 15 -9
v 31 15 -9
v 38 15 -9
v 43 15 -9
v 50 15 -9
v 55 15 -9
v 62 15 -9
v -58 15 -22
v -53 15 -22
v -46 15 -22
v -41 15 -22
v -34 15 -22
v -29 15 -22
v -22 15 -22
v -17 15 -22
v -10 15 -22
v -5 15 -22
v 2 15 -22
v 7 15 -22
v 14 15 -22
v 19 15 -22
v 26 15 -22
v 31 15 -22
v 38 15 -22
v 43 15 -22
v 50 15 -22
v 55 15 -22
v 62 15 -22

# faces
f 3/4/1 2/4/1 1/4/1
f 4/4/1 2/4/1 3/4/1
f 5/1/1 4/1/1 3/1/1
f 6/1/1 4/1/1 5/1/1
f 7/3/2 8/3/2 9/3/2
f 9/3/2 8/3/2 10/3/2
f 9/2/2 10/2/2 11/2/2
f 11/2/2 10/2/2 12/2/2
f 16/4/3 14/4/3 13/4/3
f 17/1/3 15/1/3 14/1/3
f 17/4/3 14/4/3 16/4/3
f 18/1/3 15/1/3 17/1/3
f 19/3/3 17/3/3 16/3/3
f 20/2/3 18/2/3 17/2/3
f 20/3/3 17/3/3 19/3/3
f 21/2/3 18/2/3 20/2/3
f 22/4/3 20/4/3 19/4/3
f 23/1/3 21/1/3 20/1/3
f 23/4/3 20/4/3 22/4/3
f 24/1/3 21/1/3 23/1/3
f 25/3/3 23/3/3 22/3/3
f 26/2/3 24/2/3 23/2/3
f 26/3/3 23/3/3 25/3/3
f 27/2/3 24/2/3 26/2/3
f 28/4/3 26/4/3 25/4/3
f 29/1/3 27/1/3 26/1/3
f 29/4/3 26/4/3 28/4/3
f 30/1/3 27/1/3 29/1/3
f 31/3/3 29/3/3 28/3/3
f 32/2/3 30/2/3 29/2/3
f 32/3/3 29/3/3 31/3/3
f 33/2/3 30/2/3 32/2/3
f 34/4/3 32/4/3 31/4/3
f 35/1/3 33/1/3 32/1/3
f 35/4/3 32/4/3 34/4/3
f 36/1/3 33/1/3 35/1/3
f 37/3/3 35/3/3 34/3/3
f 38/2/3 36/2/3 35/2/3
f 38/3/3 35/3/3 37/3/3
f 39/2/3 36/2/3 38/2/3
f 40/4/3 38/4/3 37/4/3
f 41/1/3 39/1/3 38/1/3
f 41/4/3 38/4/3 40/4/3
f 42/1/3 39/1/3 41/1/3
f 43/3/3 41/3/3 40/3/3
f 44/2/3 42/2/3 41/2/3
f 44/3/3 41/3/3 43/3/3
f 45/2/3 42/2/3 44/2/3
f 46/4/3 44/4/3 43/4/3
f 47/1/3 45/1/3 44/1/3
f 47/4/3 44/4/3 46/4/3
f 48/1/3 45/1/3 47/1/3
f 49/3/3 47/3/3 46/3/3
f 50/2/3 48/2/3 47/2/3
f 50/3/3 47/3/3 49/3/3
f 51/2/3 48/2/3 50/2/3
f 52/4/3 50/4/3 49/4/3
f 53/1/3 51/1/3 50/1/3
f 53/4/3 50/4/3 52/4/3
f 54/1/3 51/1/3 53/1/3
f 55/3/3 53/3/3 52/3/3
f 56/2/3 54/2/3 53/2/3
f 56/3/3 53/3/3 55/3/3
f 57/2/3 54/2/3 56/2/3
f 58/4/3 56/4/3 55/4/3
f 59/1/3 57/1/3 56/1/3
f 59/4/3 56/4/3 58/4/3
f 60/1/3 57/1/3 59/1/3
f 61/3/3 59/3/3 58/3/3
f 62/2/3 60/2/3 59/2/3
f 62/3/3 59/3/3 61/3/3
f 63/2/3 60/2/3 62/2/3
f 64/4/3 62/4/3 61/4/3
f 65/1/3 63/1/3 62/1/3
f 65/4/3 62/4/3 64/4/3
f 66/1/3 63/1/3 65/1/3
f 67/3/3 65/3/3 64/3/3
f 68/2/3 66/2/3 65/2/3
f 68/3/3 65/3/3 67/3/3
f 69/2/3 66/2/3 68/2/3
f 70/4/3 68/4/3 67/4/3
f 71/1/3 69/1/3 68/1/3
f 71/4/3 68/4/3 70/4/3
f 72/1/3 69/1/3 71/1/3
f 73/3/3 71/3/3 70/3/3
f 74/2/3 72/2/3 71/2/3
f 74/3/3 71/3/3 73/3/3
f 75/2/3 72/2/3 74/2/3
f 76/4/4 77/4/4 79/4/4
f 77/1/4 78/1/4 80/1/4
f 79/4/4 77/4/4 80/4/4
f 80/1/4 78/1/4 81/1/4
f 79/3/4 80/3/4 82/3/4
f 80/2/4 81/2/4 83/2/4
f 82/3/4 80/3/4 83/3/4
f 83/2/4 81/2/4 84/2/4
f 82/4/4 83/4/4 85/4/4
f 83/1/4 84/1/4 86/1/4
f 85/4/4 83/4/4 86/4/4
f 86/1/4 84/1/4 87/1/4
f 85/3/4 86/3/4 88/3/4
f 86/2/4 87/2/4 89/2/4
f 88/3/4 86/3/4 89/3/4
f 89/2/4 87/2/4 90/2/4
f 88/4/4 89/4/4 91/4/4
f 89/1/4 90/1/4 92/1/4
f 91/4/4 89/4/4 92/4/4
f 92/1/4 90/1/4 93/1/4
f 91/3/4 92/3/4 94/3/4
f 92/2/4 93/2/4 95/2/4
f 94/3/4 92/3/4 95/3/4
f 95/2/4 93/2/4 96/2/4
f 94/4/4 95/4/4 97/4/4
f 95/1/4 96/1/4 98/1/4
f 97/4/4 95/4/4 98/4/4
f 98/1/4 96/1/4 99/1/4
f 97/3/4 98/3/4 100/3/4
f 98/2/4 99/2/4 101/2/4
f 100/3/4 98/3/4 101/3/4
f 101/2/4 99/2/4 102/2/4
f 100/4/4 101/4/4 103/4/4
f 101/1/4 102/1/4 104/1/4
f 103/4/4 101/4/4 104/4/4
f 104/1/4 102/1/4 105/1/4
f 103/3/4 104/3/4 106/3/4
f 104/2/4 105/2/4 107/2/4
f 106/3/4 104/3/4 107/3/4
f 107/2/4 105/2/4 108/2/4
f 106/4/4 107/4/4 109/4/4
f 107/1/4 108/1/4 110/1/4
f 109/4/4 107/4/4 110/4/4
f 110/1/4 108/1/4 111/1/4
f 109/3/4 110/3/4 112/3/4
f 110/2/4 111/2/4 113/2/4
f 112/3/4 110/3/4 113/3/4
f 113/2/4 111/2/4 114/2/4
f 112/4/4 113/4/4 115/4/4
f 113/1/4 114/1/4 116/1/4
f 115/4/4 113/4/4 116/4/4
f 116/1/4 114/1/4 117/1/4
f 115/3/4 116/3/4 118/3/4
f 116/2/4 117/2/4 119/2/4
f 118/3/4 116/3/4 119/3/4
f 119/2/4 117/2/4 120/2/4
f 118/4/4 119/4/4 121/4/4
f 119/1/4 120/1/4 122/1/4
f 121/4/4 119/4/4 122/4/4
f 122/1/4 120/1/4 123/1/4
f 121/3/4 122/3/4 124/3/4
f 122/2/4 123/2/4 125/2/4
f 124/3/4 122/3/4 125/3/4
f 125/2/4 123/2/4 126/2/4
f 124/4/4 125/4/4 127/4/4
f 125/1/4 126/1/4 128/1/4
f 127/4/4 125/4/4 128/4/4
f 128/1/4 126/1/4 129/1/4
f 127/3/4 128/3/4 130/3/4
f 128/2/4 129/2/4 131/2/4
f 130/3/4 128/3/4 131/3/4
f 131/2/4 129/2/4 132/2/4
f 130/4/4 131/4/4 133/4/4
f 131/1/4 132/1/4 134/1/4
f 133/4/4 131/4/4 134/4/4
f 134/1/4 132/1/4 135/1/4
f 133/3/4 134/3/4 136/3/4
f 134/2/4 135/2/4 137/2/4
f 136/3/4 134/3/4 137/3/4
f 137/2/4 135/2/4 138/2/4
f 160/4/5 140/4/5 139/4/5
f 161/3/5 141/3/5 140/3/5
f 161/4/5 140/4/5 160/4/5
f 162/4/5 142/4/5 141/4/5
f 162/3/5 141/3/5 161/3/5
f 163/3/5 143/3/5 142/3/5
f 163/4/5 142/4/5 162/4/5
f 164/4/5 144/4/5 143/4/5
f 164/3/5 143/3/5 163/3/5
f 165/3/5 145/3/5 144/3/5
f 165/4/5 144/4/5 164/4/5
f 166/4/5 146/4/5 145/4/5
f 166/3/5 145/3/5 165/3/5
f 167/3/5 147/3/5 146/3/5
f 167/4/5 146/4/5 166/4/5
f 168/4/5 148/4/5 147/4/5
f 168/3/5 147/3/5 167/3/5
f 169/3/5 149/3/5 148/3/5
f 169/4/5 148/4/5 168/4/5
f 170/4/5 150/4/5 149/4/5
f 170/3/5 149/3/5 169/3/5
f 171/3/5 151/3/5 150/3/5
f 171/4/5 150/4/5 170/4/5
f 172/4/5 152/4/5 151/4/5
f 172/3/5 151/3/5 171/3/5
f 173/3/5 153/3/5 152/3/5
f 173/4/5 152/4/5 172/4/5
f 174/4/5 154/4/5 153/4/5
f 174/3/5 153/3/5 173/3/5
f 175/3/5 155/3/5 154/3/5
f 175/4/5 154/4/5 174/4/5
f 176/4/5 156/4/5 155/4/5
f 176/3/5 155/3/5 175/3/5
f 177/3/5 157/3/5 156/3/5
f 177/4/5 156/4/5 176/4/5
f 178/4/5 158/4/5 157/4/5
f 178/3/5 157/3/5 177/3/5
f 179/3/5 159/3/5 158/3/5
f 179/4/5 158/4/5 178/4/5
f 180/3/5 159/3/5 179/3/5
f 181/1/6 182/1/6 202/1/6
f 182/2/6 183/2/6 203/2/6
f 202/1/6 182/1/6 203/1/6
f 183/1/6 184/1/6 204/1/6
f 203/2/6 183/2/6 204/2/6
f 184/2/6 185/2/6 205/2/6
f 204/1/6 184/1/6 205/1/6
f 185/1/6 186/1/6 206/1/6
f 205/2/6 185/2/6 206/2/6
f 186/2/6 187/2/6 207/2/6
f 206/1/6 186/1/6 207/1/6
f 187/1/6 188/1/6 208/1/6
f 207/2/6 187/2/6 208/2/6
f 188/2/6 189/2/6 209/2/6
f 208/1/6 188/1/6 209/1/6
f 189/1/6 190/1/6 210/1/6
f 209/2/6 189/2/6 210/2/6
f 190/2/6 191/2/6 211/2/6
f 210/1/6 190/1/6 211/1/6
f 191/1/6 192/1/6 212/1/6
f 211/2/6 191/2/6 212/2/6
f 192/2/6 193/2/6 213/2/6
f 212/1/6 192/1/6 213/1/6
f 193/1/6 194/1/6 214/1/6
f 213/2/6 193/2/6 214/2/6
f 194/2/6 195/2/6 215/2/6
f 214/1/6 194/1/6 215/1/6
f 195/1/6 196/1/6 216/1/6
f 215/2/6 195/2/6 216/2/6
f 196/2/6 197/2/6 217/2/6
f 216/1/6 196/1/6 217/1/6
f 197/1/6 198/1/6 218/1/6
f 217/2/6 197/2/6 218/2/6
f 198/2/6 199/2/6 219/2/6
f 218/1/6 198/1/6 219/1/6
f 199/1/6 200/1/6 220/1/6
f 219/2/6 199/2/6 220/2/6
f 200/2/6 201/2/6 221/2/6
f 220/1/6 200/1/6 221/1/6
f 221/2/6 201/2/6 222/2/6
