# MagicaVoxel @ ephtracy

# material
mtllib shanti2.mtl
usemtl palette

# normals
vn -1 0 0
vn 1 0 0
vn 0 0 1
vn 0 0 -1
vn 0 -1 0
vn 0 1 0

# texcoords
vt 0.970703 0.5
vt 0.974609 0.5
vt 0.978516 0.5
vt 0.982422 0.5
vt 0.986328 0.5

# verts
v -63 0 29
v -63 0 19
v -63 1 29
v -63 1 19
v -62 1 28
v -62 1 27
v -62 1 19
v -62 2 28
v -62 2 27
v -62 2 19
v -60 2 28
v -60 2 27
v -60 2 19
v -60 3 28
v -60 3 27
v -60 3 19
v -57 3 28
v -57 3 27
v -57 3 19
v -57 4 28
v -57 4 27
v -57 4 19
v -55 2 29
v -55 2 28
v -55 3 29
v -55 3 28
v -55 4 28
v -55 4 27
v -55 4 19
v -55 5 28
v -55 5 27
v -55 5 19
v -53 0 30
v -53 0 28
v -53 1 30
v -53 1 29
v -53 1 28
v -53 2 29
v -53 2 28
v -53 5 28
v -53 5 27
v -53 5 19
v -53 6 28
v -53 6 27
v -53 6 19
v -52 4 29
v -52 4 28
v -52 5 29
v -52 5 28
v -49 3 29
v -49 3 28
v -49 4 29
v -49 4 28
v -49 5 29
v -49 5 28
v -49 6 29
v -49 6 28
v -49 6 27
v -49 6 19
v -49 9 28
v -49 9 27
v -49 9 19
v -48 1 30
v -48 1 29
v -48 2 30
v -48 2 29
v -48 9 28
v -48 9 27
v -48 9 19
v -48 10 28
v -48 10 27
v -48 10 19
v -47 6 29
v -47 6 28
v -47 8 29
v -47 8 28
v -47 10 28
v -47 10 27
v -47 10 19
v -47 11 28
v -47 11 27
v -47 11 19
v -46 11 28
v -46 11 27
v -46 11 19
v -46 13 28
v -46 13 27
v -46 13 19
v -45 13 28
v -45 13 27
v -45 13 19
v -45 17 28
v -45 17 27
v -45 17 19
v -45 18 28
v -45 18 19
v -40 9 29
v -40 9 28
v -40 10 29
v -40 10 28
v -40 12 29
v -40 12 28
v -40 13 29
v -40 13 28
v -39 8 29
v -39 8 28
v -39 9 29
v -39 9 28
v -39 11 29
v -39 11 28
v -39 12 29
v -39 12 28
v -39 13 29
v -39 13 28
v -39 15 29
v -39 15 28
v -38 10 29
v -38 10 28
v -38 11 29
v -38 11 28
v -38 15 29
v -38 15 28
v -38 16 29
v -38 16 28
v -37 1 30
v -37 1 29
v -37 2 30
v -37 2 29
v -37 16 29
v -37 16 28
v -37 17 29
v -37 17 28
v -37 18 29
v -37 18 28
v -57 0 29
v -57 0 28
v -57 1 29
v -57 1 28
v -44 1 30
v -44 1 29
v -44 2 30
v -44 2 29
v -33 1 30
v -33 1 29
v -33 2 30
v -33 2 29
v -30 0 30
v -30 0 19
v -30 1 30
v -30 1 29
v -30 1 19
v -30 7 29
v -30 7 27
v -30 8 29
v -30 8 27
v -30 10 29
v -30 10 27
v -30 11 29
v -30 11 27
v -30 17 29
v -30 17 19
v -30 18 29
v -30 18 19
v -53 0 30
v -53 1 30
v -48 1 30
v -48 2 30
v -44 1 30
v -44 2 30
v -37 1 30
v -37 2 30
v -33 1 30
v -33 2 30
v -30 0 30
v -30 1 30
v -63 0 29
v -63 1 29
v -57 0 29
v -57 1 29
v -55 2 29
v -55 3 29
v -53 1 29
v -53 2 29
v -52 4 29
v -52 5 29
v -49 3 29
v -49 4 29
v -49 5 29
v -49 6 29
v -48 1 29
v -48 2 29
v -47 6 29
v -47 8 29
v -46 2 29
v -46 3 29
v -44 1 29
v -44 2 29
v -44 3 29
v -42 6 29
v -42 7 29
v -41 1 29
v -41 2 29
v -40 9 29
v -40 10 29
v -40 12 29
v -40 13 29
v -39 6 29
v -39 7 29
v -39 8 29
v -39 9 29
v -39 11 29
v -39 12 29
v -39 13 29
v -39 15 29
v -38 10 29
v -38 11 29
v -38 15 29
v -38 16 29
v -37 1 29
v -37 2 29
v -37 16 29
v -37 17 29
v -37 18 29
v -34 7 29
v -34 8 29
v -34 10 29
v -34 11 29
v -33 1 29
v -33 2 29
v -33 7 29
v -33 8 29
v -33 10 29
v -33 11 29
v -32 10 29
v -32 11 29
v -31 10 29
v -31 11 29
v -30 1 29
v -30 7 29
v -30 8 29
v -30 10 29
v -30 11 29
v -30 17 29
v -30 18 29
v -62 1 28
v -62 2 28
v -60 2 28
v -60 3 28
v -57 0 28
v -57 1 28
v -57 3 28
v -57 4 28
v -55 2 28
v -55 3 28
v -55 4 28
v -55 5 28
v -53 0 28
v -53 1 28
v -53 2 28
v -53 5 28
v -53 6 28
v -52 4 28
v -52 5 28
v -49 3 28
v -49 4 28
v -49 5 28
v -49 6 28
v -49 9 28
v -48 9 28
v -48 10 28
v -47 6 28
v -47 8 28
v -47 10 28
v -47 11 28
v -46 11 28
v -46 13 28
v -45 13 28
v -45 17 28
v -45 18 28
v -44 10 28
v -44 11 28
v -43 8 28
v -43 9 28
v -43 11 28
v -43 12 28
v -42 9 28
v -42 10 28
v -42 12 28
v -42 13 28
v -41 13 28
v -41 14 28
v -40 9 28
v -40 10 28
v -40 12 28
v -40 13 28
v -40 14 28
v -40 15 28
v -40 16 28
v -40 17 28
v -39 8 28
v -39 9 28
v -39 11 28
v -39 12 28
v -39 13 28
v -39 15 28
v -39 16 28
v -38 10 28
v -38 11 28
v -38 15 28
v -38 16 28
v -37 16 28
v -37 17 28
v -37 18 28
v -63 0 19
v -63 1 19
v -62 1 19
v -62 2 19
v -60 2 19
v -60 3 19
v -57 0 19
v -57 1 19
v -57 3 19
v -57 4 19
v -55 4 19
v -55 5 19
v -53 0 19
v -53 1 19
v -53 5 19
v -53 6 19
v -49 6 19
v -49 9 19
v -48 1 19
v -48 2 19
v -48 9 19
v -48 10 19
v -47 10 19
v -47 11 19
v -46 11 19
v -46 13 19
v -45 13 19
v -45 17 19
v -45 18 19
v -44 1 19
v -44 2 19
v -37 1 19
v -37 2 19
v -33 1 19
v -33 2 19
v -30 0 19
v -30 1 19
v -30 17 19
v -30 18 19
v -53 0 30
v -30 0 30
v -63 0 29
v -57 0 29
v -57 0 28
v -53 0 28
v -57 0 27
v -53 0 27
v -63 0 19
v -57 0 19
v -53 0 19
v -30 0 19
v -55 2 29
v -53 2 29
v -55 2 28
v -53 2 28
v -52 4 29
v -49 4 29
v -52 4 28
v -49 4 28
v -40 9 29
v -39 9 29
v -40 9 28
v -39 9 28
v -39 11 29
v -38 11 29
v -39 11 28
v -38 11 28
v -40 12 29
v -39 12 29
v -40 12 28
v -39 12 28
v -53 1 30
v -48 1 30
v -44 1 30
v -37 1 30
v -33 1 30
v -30 1 30
v -63 1 29
v -57 1 29
v -53 1 29
v -48 1 29
v -44 1 29
v -41 1 29
v -37 1 29
v -33 1 29
v -30 1 29
v -62 1 28
v -57 1 28
v -62 1 27
v -63 1 19
v -62 1 19
v -48 2 30
v -44 2 30
v -37 2 30
v -33 2 30
v -48 2 29
v -46 2 29
v -44 2 29
v -37 2 29
v -33 2 29
v -62 2 28
v -60 2 28
v -62 2 27
v -60 2 27
v -62 2 19
v -60 2 19
v -55 3 29
v -49 3 29
v -60 3 28
v -57 3 28
v -55 3 28
v -49 3 28
v -60 3 27
v -57 3 27
v -60 3 19
v -57 3 19
v -57 4 28
v -55 4 28
v -57 4 27
v -55 4 27
v -57 4 19
v -55 4 19
v -52 5 29
v -49 5 29
v -55 5 28
v -53 5 28
v -52 5 28
v -49 5 28
v -55 5 27
v -53 5 27
v -55 5 19
v -53 5 19
v -49 6 29
v -47 6 29
v -53 6 28
v -49 6 28
v -47 6 28
v -53 6 27
v -49 6 27
v -53 6 19
v -49 6 19
v -47 8 29
v -39 8 29
v -47 8 28
v -43 8 28
v -39 8 28
v -49 9 28
v -48 9 28
v -49 9 27
v -48 9 27
v -49 9 19
v -48 9 19
v -40 10 29
v -38 10 29
v -48 10 28
v -47 10 28
v -40 10 28
v -38 10 28
v -48 10 27
v -47 10 27
v -48 10 19
v -47 10 19
v -47 11 28
v -46 11 28
v -47 11 27
v -46 11 27
v -47 11 19
v -46 11 19
v -40 13 29
v -39 13 29
v -46 13 28
v -45 13 28
v -40 13 28
v -39 13 28
v -46 13 27
v -45 13 27
v -46 13 19
v -45 13 19
v -39 15 29
v -38 15 29
v -39 15 28
v -38 15 28
v -38 16 29
v -37 16 29
v -38 16 28
v -37 16 28
v -37 18 29
v -30 18 29
v -45 18 28
v -37 18 28
v -45 18 19
v -30 18 19

# faces
f 3/5/1 2/5/1 1/5/1
f 4/5/1 2/5/1 3/5/1
f 8/2/1 6/2/1 5/2/1
f 9/1/1 7/1/1 6/1/1
f 9/2/1 6/2/1 8/2/1
f 10/1/1 7/1/1 9/1/1
f 14/2/1 12/2/1 11/2/1
f 15/1/1 13/1/1 12/1/1
f 15/2/1 12/2/1 14/2/1
f 16/1/1 13/1/1 15/1/1
f 20/2/1 18/2/1 17/2/1
f 21/1/1 19/1/1 18/1/1
f 21/2/1 18/2/1 20/2/1
f 22/1/1 19/1/1 21/1/1
f 25/1/1 24/1/1 23/1/1
f 26/1/1 24/1/1 25/1/1
f 30/2/1 28/2/1 27/2/1
f 31/1/1 29/1/1 28/1/1
f 31/2/1 28/2/1 30/2/1
f 32/1/1 29/1/1 31/1/1
f 35/5/1 34/5/1 33/5/1
f 36/5/1 34/5/1 35/5/1
f 37/5/1 34/5/1 36/5/1
f 38/1/1 37/1/1 36/1/1
f 39/1/1 37/1/1 38/1/1
f 43/2/1 41/2/1 40/2/1
f 44/1/1 42/1/1 41/1/1
f 44/2/1 41/2/1 43/2/1
f 45/1/1 42/1/1 44/1/1
f 48/1/1 47/1/1 46/1/1
f 49/1/1 47/1/1 48/1/1
f 52/1/1 51/1/1 50/1/1
f 53/1/1 51/1/1 52/1/1
f 56/1/1 55/1/1 54/1/1
f 57/1/1 55/1/1 56/1/1
f 60/2/1 58/2/1 57/2/1
f 61/1/1 59/1/1 58/1/1
f 61/2/1 58/2/1 60/2/1
f 62/1/1 59/1/1 61/1/1
f 65/5/1 64/5/1 63/5/1
f 66/5/1 64/5/1 65/5/1
f 70/2/1 68/2/1 67/2/1
f 71/1/1 69/1/1 68/1/1
f 71/2/1 68/2/1 70/2/1
f 72/1/1 69/1/1 71/1/1
f 75/1/1 74/1/1 73/1/1
f 76/1/1 74/1/1 75/1/1
f 80/2/1 78/2/1 77/2/1
f 81/1/1 79/1/1 78/1/1
f 81/2/1 78/2/1 80/2/1
f 82/1/1 79/1/1 81/1/1
f 86/2/1 84/2/1 83/2/1
f 87/1/1 85/1/1 84/1/1
f 87/2/1 84/2/1 86/2/1
f 88/1/1 85/1/1 87/1/1
f 92/2/1 90/2/1 89/2/1
f 93/1/1 91/1/1 90/1/1
f 93/2/1 90/2/1 92/2/1
f 94/1/1 91/1/1 93/1/1
f 95/3/1 93/3/1 92/3/1
f 95/3/1 94/3/1 93/3/1
f 96/3/1 94/3/1 95/3/1
f 99/1/1 98/1/1 97/1/1
f 100/1/1 98/1/1 99/1/1
f 103/1/1 102/1/1 101/1/1
f 104/1/1 102/1/1 103/1/1
f 107/1/1 106/1/1 105/1/1
f 108/1/1 106/1/1 107/1/1
f 111/1/1 110/1/1 109/1/1
f 112/1/1 110/1/1 111/1/1
f 115/1/1 114/1/1 113/1/1
f 116/1/1 114/1/1 115/1/1
f 119/2/1 118/2/1 117/2/1
f 120/2/1 118/2/1 119/2/1
f 123/1/1 122/1/1 121/1/1
f 124/1/1 122/1/1 123/1/1
f 127/5/1 126/5/1 125/5/1
f 128/5/1 126/5/1 127/5/1
f 131/1/1 130/1/1 129/1/1
f 132/1/1 130/1/1 131/1/1
f 133/3/1 132/3/1 131/3/1
f 134/3/1 132/3/1 133/3/1
f 135/5/2 136/5/2 137/5/2
f 137/5/2 136/5/2 138/5/2
f 139/5/2 140/5/2 141/5/2
f 141/5/2 140/5/2 142/5/2
f 143/5/2 144/5/2 145/5/2
f 145/5/2 144/5/2 146/5/2
f 147/5/2 148/5/2 149/5/2
f 149/5/2 148/5/2 150/5/2
f 150/5/2 148/5/2 151/5/2
f 150/1/2 151/1/2 152/1/2
f 152/1/2 151/1/2 153/1/2
f 152/2/2 153/2/2 154/2/2
f 153/1/2 151/1/2 155/1/2
f 154/2/2 153/2/2 155/2/2
f 154/1/2 155/1/2 156/1/2
f 155/1/2 151/1/2 157/1/2
f 156/1/2 155/1/2 157/1/2
f 156/2/2 157/2/2 158/2/2
f 157/1/2 151/1/2 159/1/2
f 158/2/2 157/2/2 159/2/2
f 158/1/2 159/1/2 160/1/2
f 159/1/2 151/1/2 161/1/2
f 160/1/2 159/1/2 161/1/2
f 160/3/2 161/3/2 162/3/2
f 162/3/2 161/3/2 163/3/2
f 166/5/3 165/5/3 164/5/3
f 168/5/3 166/5/3 164/5/3
f 168/5/3 167/5/3 166/5/3
f 169/5/3 167/5/3 168/5/3
f 170/5/3 168/5/3 164/5/3
f 172/5/3 170/5/3 164/5/3
f 172/5/3 171/5/3 170/5/3
f 173/5/3 171/5/3 172/5/3
f 174/5/3 172/5/3 164/5/3
f 175/5/3 172/5/3 174/5/3
f 178/5/3 177/5/3 176/5/3
f 179/5/3 177/5/3 178/5/3
f 183/1/3 181/1/3 180/1/3
f 186/1/3 181/1/3 183/1/3
f 186/1/3 183/1/3 182/1/3
f 187/1/3 185/1/3 184/1/3
f 188/1/3 185/1/3 187/1/3
f 190/1/3 186/1/3 182/1/3
f 190/1/3 189/1/3 188/1/3
f 190/1/3 188/1/3 187/1/3
f 190/1/3 187/1/3 186/1/3
f 191/1/3 189/1/3 190/1/3
f 192/1/3 189/1/3 191/1/3
f 194/1/3 192/1/3 191/1/3
f 194/1/3 193/1/3 192/1/3
f 195/1/3 193/1/3 194/1/3
f 197/2/3 195/2/3 194/2/3
f 198/1/3 193/1/3 195/1/3
f 198/2/3 195/2/3 197/2/3
f 199/1/3 198/1/3 197/1/3
f 199/1/3 193/1/3 198/1/3
f 200/1/3 193/1/3 199/1/3
f 201/2/3 197/2/3 196/2/3
f 202/1/3 199/1/3 197/1/3
f 202/2/3 197/2/3 201/2/3
f 207/2/3 200/2/3 199/2/3
f 207/1/3 202/1/3 201/1/3
f 207/1/3 199/1/3 202/1/3
f 208/1/3 193/1/3 200/1/3
f 208/2/3 200/2/3 207/2/3
f 209/1/3 193/1/3 208/1/3
f 210/1/3 204/1/3 203/1/3
f 212/1/3 206/1/3 205/1/3
f 213/1/3 206/1/3 212/1/3
f 215/1/3 210/1/3 209/1/3
f 215/1/3 204/1/3 210/1/3
f 216/1/3 214/1/3 213/1/3
f 216/1/3 213/1/3 212/1/3
f 216/1/3 212/1/3 211/1/3
f 217/1/3 214/1/3 216/1/3
f 219/1/3 207/1/3 201/1/3
f 219/1/3 208/1/3 207/1/3
f 220/1/3 208/1/3 219/1/3
f 221/1/3 218/1/3 217/1/3
f 221/1/3 217/1/3 216/1/3
f 224/1/3 208/1/3 220/1/3
f 224/2/3 209/2/3 208/2/3
f 225/1/3 215/1/3 209/1/3
f 225/2/3 209/2/3 224/2/3
f 226/2/3 216/2/3 215/2/3
f 226/1/3 215/1/3 225/1/3
f 227/1/3 222/1/3 221/1/3
f 227/2/3 216/2/3 226/2/3
f 227/1/3 221/1/3 216/1/3
f 229/1/3 224/1/3 220/1/3
f 229/1/3 226/1/3 225/1/3
f 229/1/3 227/1/3 226/1/3
f 229/1/3 225/1/3 224/1/3
f 230/1/3 227/1/3 229/1/3
f 231/1/3 227/1/3 230/1/3
f 232/1/3 227/1/3 231/1/3
f 233/1/3 222/1/3 227/1/3
f 233/1/3 227/1/3 232/1/3
f 234/1/3 232/1/3 231/1/3
f 234/2/3 233/2/3 232/2/3
f 235/1/3 222/1/3 233/1/3
f 235/2/3 233/2/3 234/2/3
f 236/1/3 234/1/3 231/1/3
f 236/1/3 235/1/3 234/1/3
f 237/1/3 222/1/3 235/1/3
f 237/1/3 235/1/3 236/1/3
f 238/1/3 229/1/3 228/1/3
f 238/1/3 230/1/3 229/1/3
f 239/2/3 231/2/3 230/2/3
f 239/1/3 230/1/3 238/1/3
f 240/1/3 236/1/3 231/1/3
f 240/2/3 231/2/3 239/2/3
f 241/2/3 237/2/3 236/2/3
f 241/1/3 236/1/3 240/1/3
f 242/1/3 222/1/3 237/1/3
f 242/2/3 237/2/3 241/2/3
f 243/3/3 223/3/3 222/3/3
f 243/1/3 222/1/3 242/1/3
f 244/3/3 223/3/3 243/3/3
f 247/2/3 246/2/3 245/2/3
f 250/2/3 247/2/3 245/2/3
f 250/2/3 248/2/3 247/2/3
f 251/2/3 248/2/3 250/2/3
f 253/2/3 250/2/3 249/2/3
f 253/2/3 252/2/3 251/2/3
f 253/2/3 251/2/3 250/2/3
f 254/2/3 252/2/3 253/2/3
f 255/2/3 252/2/3 254/2/3
f 257/2/3 253/2/3 249/2/3
f 258/2/3 253/2/3 257/2/3
f 259/2/3 253/2/3 258/2/3
f 260/2/3 256/2/3 255/2/3
f 260/2/3 255/2/3 254/2/3
f 262/2/3 261/2/3 260/2/3
f 262/2/3 260/2/3 254/2/3
f 263/2/3 261/2/3 262/2/3
f 264/2/3 262/2/3 254/2/3
f 265/2/3 262/2/3 264/2/3
f 266/2/3 261/2/3 263/2/3
f 267/2/3 261/2/3 266/2/3
f 269/2/3 268/2/3 267/2/3
f 271/2/3 269/2/3 267/2/3
f 271/2/3 270/2/3 269/2/3
f 272/2/3 270/2/3 271/2/3
f 273/2/3 270/2/3 272/2/3
f 275/2/3 274/2/3 273/2/3
f 275/2/3 273/2/3 272/2/3
f 277/2/3 276/2/3 275/2/3
f 280/2/3 275/2/3 272/2/3
f 280/2/3 277/2/3 275/2/3
f 280/2/3 278/2/3 277/2/3
f 281/2/3 278/2/3 280/2/3
f 282/2/3 280/2/3 272/2/3
f 283/2/3 280/2/3 282/2/3
f 284/2/3 278/2/3 281/2/3
f 284/4/3 281/4/3 280/4/3
f 285/2/3 278/2/3 284/2/3
f 286/2/3 280/2/3 283/2/3
f 286/4/3 283/4/3 282/4/3
f 287/4/3 285/4/3 284/4/3
f 287/2/3 280/2/3 286/2/3
f 287/4/3 284/4/3 280/4/3
f 288/2/3 278/2/3 285/2/3
f 288/4/3 285/4/3 287/4/3
f 289/2/3 278/2/3 288/2/3
f 290/4/3 287/4/3 286/4/3
f 290/2/3 278/2/3 289/2/3
f 290/4/3 289/4/3 288/4/3
f 290/4/3 288/4/3 287/4/3
f 291/2/3 278/2/3 290/2/3
f 292/4/3 286/4/3 282/4/3
f 292/4/3 290/4/3 286/4/3
f 292/4/3 291/4/3 290/4/3
f 293/4/3 291/4/3 292/4/3
f 294/4/3 291/4/3 293/4/3
f 295/4/3 291/4/3 294/4/3
f 296/2/3 278/2/3 291/2/3
f 296/4/3 291/4/3 295/4/3
f 297/2/3 278/2/3 296/2/3
f 298/2/3 278/2/3 297/2/3
f 299/3/3 279/3/3 278/3/3
f 299/2/3 278/2/3 298/2/3
f 300/4/3 292/4/3 282/4/3
f 301/4/3 292/4/3 300/4/3
f 302/4/3 294/4/3 293/4/3
f 303/4/3 294/4/3 302/4/3
f 304/4/3 297/4/3 296/4/3
f 304/4/3 296/4/3 295/4/3
f 305/2/3 298/2/3 297/2/3
f 305/4/3 297/4/3 304/4/3
f 306/4/3 299/4/3 298/4/3
f 306/2/3 298/2/3 305/2/3
f 307/4/3 302/4/3 293/4/3
f 308/4/3 302/4/3 307/4/3
f 309/4/3 306/4/3 305/4/3
f 310/4/3 299/4/3 306/4/3
f 310/4/3 306/4/3 309/4/3
f 311/4/3 299/4/3 310/4/3
f 312/3/3 279/3/3 299/3/3
f 312/4/3 299/4/3 311/4/3
f 313/3/3 279/3/3 312/3/3
f 314/5/4 315/5/4 316/5/4
f 316/1/4 317/1/4 318/1/4
f 314/5/4 316/5/4 320/5/4
f 318/1/4 319/1/4 321/1/4
f 320/5/4 316/5/4 321/5/4
f 316/1/4 318/1/4 321/1/4
f 321/1/4 319/1/4 322/1/4
f 320/1/4 321/1/4 324/1/4
f 322/1/4 323/1/4 324/1/4
f 321/1/4 322/1/4 324/1/4
f 320/1/4 324/1/4 326/1/4
f 324/1/4 325/1/4 326/1/4
f 326/1/4 325/1/4 327/1/4
f 327/1/4 325/1/4 328/1/4
f 327/1/4 328/1/4 330/1/4
f 328/1/4 329/1/4 330/1/4
f 326/5/4 327/5/4 332/5/4
f 330/1/4 331/1/4 332/1/4
f 327/1/4 330/1/4 332/1/4
f 332/1/4 331/1/4 333/1/4
f 333/1/4 331/1/4 334/1/4
f 333/1/4 334/1/4 336/1/4
f 334/1/4 335/1/4 336/1/4
f 336/1/4 337/1/4 338/1/4
f 338/1/4 339/1/4 340/1/4
f 326/5/4 332/5/4 343/5/4
f 332/5/4 333/5/4 343/5/4
f 340/1/4 341/1/4 344/1/4
f 343/5/4 333/5/4 344/5/4
f 333/1/4 336/1/4 344/1/4
f 338/1/4 340/1/4 344/1/4
f 336/1/4 338/1/4 344/1/4
f 326/5/4 343/5/4 345/5/4
f 343/1/4 344/1/4 345/1/4
f 344/1/4 341/1/4 346/1/4
f 345/1/4 344/1/4 346/1/4
f 326/5/4 345/5/4 347/5/4
f 345/5/4 346/5/4 347/5/4
f 346/1/4 341/1/4 348/1/4
f 347/5/4 346/5/4 348/5/4
f 326/5/4 347/5/4 349/5/4
f 347/1/4 348/1/4 350/1/4
f 349/5/4 347/5/4 350/5/4
f 341/3/4 342/3/4 351/3/4
f 350/1/4 348/1/4 351/1/4
f 348/1/4 341/1/4 351/1/4
f 351/3/4 342/3/4 352/3/4
f 357/5/5 356/5/5 355/5/5
f 358/5/5 354/5/5 353/5/5
f 359/5/5 357/5/5 355/5/5
f 359/2/5 358/2/5 357/2/5
f 360/5/5 354/5/5 358/5/5
f 360/2/5 358/2/5 359/2/5
f 361/5/5 359/5/5 355/5/5
f 362/1/5 360/1/5 359/1/5
f 362/5/5 359/5/5 361/5/5
f 363/5/5 354/5/5 360/5/5
f 363/1/5 360/1/5 362/1/5
f 364/5/5 354/5/5 363/5/5
f 367/1/5 366/1/5 365/1/5
f 368/1/5 366/1/5 367/1/5
f 371/1/5 370/1/5 369/1/5
f 372/1/5 370/1/5 371/1/5
f 375/1/5 374/1/5 373/1/5
f 376/1/5 374/1/5 375/1/5
f 379/1/5 378/1/5 377/1/5
f 380/1/5 378/1/5 379/1/5
f 383/1/5 382/1/5 381/1/5
f 384/1/5 382/1/5 383/1/5
f 385/5/6 386/5/6 393/5/6
f 393/5/6 386/5/6 394/5/6
f 387/5/6 388/5/6 395/5/6
f 395/5/6 388/5/6 396/5/6
f 396/5/6 388/5/6 397/5/6
f 389/5/6 390/5/6 398/5/6
f 398/5/6 390/5/6 399/5/6
f 391/5/6 392/5/6 400/5/6
f 400/5/6 392/5/6 401/5/6
f 391/5/6 400/5/6 402/5/6
f 391/5/6 402/5/6 403/5/6
f 403/5/6 402/5/6 404/5/6
f 405/5/6 406/5/6 409/5/6
f 409/5/6 406/5/6 410/5/6
f 410/5/6 406/5/6 411/5/6
f 407/5/6 408/5/6 412/5/6
f 412/5/6 408/5/6 413/5/6
f 414/2/6 415/2/6 416/2/6
f 416/2/6 415/2/6 417/2/6
f 416/1/6 417/1/6 418/1/6
f 418/1/6 417/1/6 419/1/6
f 420/1/6 421/1/6 424/1/6
f 424/1/6 421/1/6 425/1/6
f 422/2/6 423/2/6 426/2/6
f 426/2/6 423/2/6 427/2/6
f 426/1/6 427/1/6 428/1/6
f 428/1/6 427/1/6 429/1/6
f 430/2/6 431/2/6 432/2/6
f 432/2/6 431/2/6 433/2/6
f 432/1/6 433/1/6 434/1/6
f 434/1/6 433/1/6 435/1/6
f 436/1/6 437/1/6 440/1/6
f 440/1/6 437/1/6 441/1/6
f 438/2/6 439/2/6 442/2/6
f 442/2/6 439/2/6 443/2/6
f 442/1/6 443/1/6 444/1/6
f 444/1/6 443/1/6 445/1/6
f 446/1/6 447/1/6 449/1/6
f 449/1/6 447/1/6 450/1/6
f 448/2/6 449/2/6 451/2/6
f 451/2/6 449/2/6 452/2/6
f 451/1/6 452/1/6 453/1/6
f 453/1/6 452/1/6 454/1/6
f 455/1/6 456/1/6 457/1/6
f 457/1/6 456/1/6 458/1/6
f 458/1/6 456/1/6 459/1/6
f 460/2/6 461/2/6 462/2/6
f 462/2/6 461/2/6 463/2/6
f 462/1/6 463/1/6 464/1/6
f 464/1/6 463/1/6 465/1/6
f 466/1/6 467/1/6 470/1/6
f 470/1/6 467/1/6 471/1/6
f 468/2/6 469/2/6 472/2/6
f 472/2/6 469/2/6 473/2/6
f 472/1/6 473/1/6 474/1/6
f 474/1/6 473/1/6 475/1/6
f 476/2/6 477/2/6 478/2/6
f 478/2/6 477/2/6 479/2/6
f 478/1/6 479/1/6 480/1/6
f 480/1/6 479/1/6 481/1/6
f 482/1/6 483/1/6 486/1/6
f 486/1/6 483/1/6 487/1/6
f 484/2/6 485/2/6 488/2/6
f 488/2/6 485/2/6 489/2/6
f 488/1/6 489/1/6 490/1/6
f 490/1/6 489/1/6 491/1/6
f 492/1/6 493/1/6 494/1/6
f 494/1/6 493/1/6 495/1/6
f 496/1/6 497/1/6 498/1/6
f 498/1/6 497/1/6 499/1/6
f 500/3/6 501/3/6 503/3/6
f 502/3/6 503/3/6 504/3/6
f 503/3/6 501/3/6 505/3/6
f 504/3/6 503/3/6 505/3/6
