# MagicaVoxel @ ephtracy

# material
mtllib shanti3.mtl
usemtl palette

# normals
vn -1 0 0
vn 1 0 0
vn 0 0 1
vn 0 0 -1
vn 0 -1 0
vn 0 1 0

# texcoords
vt 0.970703 0.5
vt 0.974609 0.5
vt 0.978516 0.5
vt 0.982422 0.5
vt 0.986328 0.5

# verts
v -30 0 31
v -30 0 19
v -30 1 31
v -30 1 29
v -30 1 19
v -30 7 29
v -30 7 27
v -30 8 29
v -30 8 27
v -30 17 29
v -30 17 27
v -30 18 29
v -30 18 27
v -30 21 29
v -30 21 19
v -29 21 29
v -29 21 19
v -29 24 29
v -29 24 27
v -29 26 29
v -29 26 27
v -29 29 29
v -29 29 19
v -28 1 30
v -28 1 29
v -28 2 30
v -28 2 29
v -27 29 29
v -27 29 19
v -27 33 29
v -27 33 19
v -27 34 29
v -27 34 19
v -13 2 30
v -13 2 29
v -13 3 30
v -13 3 29
v -9 1 30
v -9 1 29
v -9 2 30
v -9 2 29
v -4 7 29
v -4 7 28
v -4 8 29
v -4 8 28
v -1 5 30
v -1 5 29
v -1 6 30
v -1 6 29
v 0 6 30
v 0 6 29
v 0 8 30
v 0 8 29
v -19 1 30
v -19 1 29
v -19 2 30
v -19 2 29
v -9 7 29
v -9 7 28
v -9 8 29
v -9 8 28
v -8 29 29
v -8 29 19
v -8 30 29
v -8 30 27
v -8 31 29
v -8 31 27
v -8 33 29
v -8 33 19
v -8 34 29
v -8 34 19
v -7 28 29
v -7 28 19
v -7 29 29
v -7 29 19
v -6 8 29
v -6 8 28
v -6 9 29
v -6 9 28
v -6 27 29
v -6 27 19
v -6 28 29
v -6 28 19
v -5 9 29
v -5 9 28
v -5 10 29
v -5 10 28
v -4 2 30
v -4 2 29
v -4 3 30
v -4 3 29
v -4 10 29
v -4 10 28
v -4 11 29
v -4 11 28
v -3 26 29
v -3 26 19
v -3 27 29
v -3 27 19
v -2 0 31
v -2 0 30
v -2 1 31
v -2 1 30
v -2 18 29
v -2 18 27
v -2 18 19
v -2 19 29
v -2 19 19
v -2 21 29
v -2 21 27
v -2 22 29
v -2 22 27
v -2 25 29
v -2 25 19
v -2 26 29
v -2 26 19
v -1 1 30
v -1 1 29
v -1 2 30
v -1 2 29
v -1 9 28
v -1 9 27
v -1 9 19
v -1 11 28
v -1 11 27
v -1 11 19
v 0 8 28
v 0 8 27
v 0 8 19
v 0 9 28
v 0 9 27
v 0 9 19
v 0 11 29
v 0 11 19
v 0 17 29
v 0 17 19
v 0 18 29
v 0 18 19
v 1 3 29
v 1 3 19
v 1 5 30
v 1 5 29
v 1 5 19
v 1 8 30
v 1 8 19
v 2 1 29
v 2 1 19
v 2 3 29
v 2 3 19
v 4 0 30
v 4 0 19
v 4 1 30
v 4 1 19
v -30 0 31
v -30 1 31
v -2 0 31
v -2 1 31
v -28 1 30
v -28 2 30
v -19 1 30
v -19 2 30
v -13 2 30
v -13 3 30
v -9 1 30
v -9 2 30
v -4 2 30
v -4 3 30
v -2 0 30
v -2 1 30
v -1 1 30
v -1 2 30
v -1 5 30
v -1 6 30
v 0 6 30
v 0 8 30
v 1 5 30
v 1 8 30
v 4 0 30
v 4 1 30
v -30 1 29
v -30 7 29
v -30 8 29
v -30 17 29
v -30 18 29
v -30 21 29
v -29 20 29
v -29 21 29
v -29 24 29
v -29 26 29
v -29 29 29
v -28 1 29
v -28 2 29
v -28 7 29
v -28 8 29
v -28 24 29
v -28 25 29
v -27 7 29
v -27 8 29
v -27 25 29
v -27 26 29
v -27 29 29
v -27 33 29
v -27 34 29
v -26 19 29
v -26 20 29
v -26 21 29
v -26 25 29
v -26 26 29
v -25 19 29
v -25 20 29
v -25 21 29
v -25 26 29
v -25 27 29
v -24 25 29
v -24 26 29
v -22 27 29
v -22 28 29
v -21 26 29
v -21 28 29
v -21 29 29
v -20 28 29
v -20 29 29
v -20 30 29
v -19 1 29
v -19 2 29
v -18 20 29
v -18 21 29
v -18 22 29
v -17 20 29
v -17 21 29
v -17 22 29
v -13 2 29
v -13 3 29
v -11 7 29
v -11 8 29
v -11 17 29
v -11 18 29
v -11 20 29
v -11 21 29
v -11 22 29
v -10 21 29
v -10 22 29
v -9 1 29
v -9 2 29
v -9 7 29
v -9 8 29
v -9 17 29
v -9 18 29
v -9 20 29
v -9 21 29
v -9 29 29
v -9 30 29
v -9 31 29
v -8 29 29
v -8 30 29
v -8 31 29
v -8 33 29
v -8 34 29
v -7 20 29
v -7 21 29
v -7 28 29
v -7 29 29
v -6 8 29
v -6 9 29
v -6 20 29
v -6 21 29
v -6 26 29
v -6 27 29
v -6 28 29
v -5 9 29
v -5 10 29
v -4 2 29
v -4 3 29
v -4 7 29
v -4 8 29
v -4 10 29
v -4 11 29
v -3 18 29
v -3 19 29
v -3 20 29
v -3 21 29
v -3 22 29
v -3 25 29
v -3 26 29
v -3 27 29
v -2 18 29
v -2 19 29
v -2 21 29
v -2 22 29
v -2 25 29
v -2 26 29
v -1 1 29
v -1 2 29
v -1 5 29
v -1 6 29
v -1 17 29
v -1 18 29
v 0 6 29
v 0 8 29
v 0 11 29
v 0 17 29
v 0 18 29
v 1 3 29
v 1 5 29
v 2 1 29
v 2 3 29
v -9 7 28
v -9 8 28
v -6 8 28
v -6 9 28
v -5 8 28
v -5 9 28
v -5 10 28
v -4 7 28
v -4 8 28
v -4 10 28
v -4 11 28
v -3 8 28
v -3 9 28
v -1 9 28
v -1 11 28
v 0 8 28
v 0 9 28
v -30 0 19
v -30 1 19
v -30 21 19
v -29 21 19
v -29 29 19
v -28 1 19
v -28 2 19
v -27 29 19
v -27 33 19
v -27 34 19
v -19 1 19
v -19 2 19
v -13 2 19
v -13 3 19
v -9 1 19
v -9 2 19
v -8 29 19
v -8 33 19
v -8 34 19
v -7 28 19
v -7 29 19
v -6 26 19
v -6 27 19
v -6 28 19
v -4 2 19
v -4 3 19
v -3 18 19
v -3 19 19
v -3 25 19
v -3 26 19
v -3 27 19
v -2 18 19
v -2 19 19
v -2 25 19
v -2 26 19
v -1 1 19
v -1 2 19
v -1 5 19
v -1 6 19
v -1 9 19
v -1 11 19
v -1 17 19
v -1 18 19
v 0 6 19
v 0 8 19
v 0 9 19
v 0 11 19
v 0 17 19
v 0 18 19
v 1 3 19
v 1 5 19
v 1 8 19
v 2 1 19
v 2 3 19
v 4 0 19
v 4 1 19
v -30 0 31
v -2 0 31
v -2 0 30
v 4 0 30
v -30 0 19
v 4 0 19
v -13 2 30
v -9 2 30
v -13 2 29
v -9 2 29
v -1 5 30
v 1 5 30
v -1 5 29
v 1 5 29
v -9 8 29
v -6 8 29
v -9 8 28
v -6 8 28
v -6 9 29
v -5 9 29
v -6 9 28
v -5 9 28
v -5 10 29
v -4 10 29
v -5 10 28
v -4 10 28
v -4 11 29
v 0 11 29
v -4 11 28
v -1 11 28
v -1 11 27
v -1 11 19
v 0 11 19
v -30 1 31
v -2 1 31
v -28 1 30
v -19 1 30
v -9 1 30
v -2 1 30
v -1 1 30
v 4 1 30
v -30 1 29
v -28 1 29
v -19 1 29
v -9 1 29
v -1 1 29
v 2 1 29
v 2 1 19
v 4 1 19
v -28 2 30
v -19 2 30
v -4 2 30
v -1 2 30
v -28 2 29
v -19 2 29
v -4 2 29
v -1 2 29
v -13 3 30
v -4 3 30
v -13 3 29
v -4 3 29
v 1 3 29
v 2 3 29
v 1 3 19
v 2 3 19
v -1 6 30
v 0 6 30
v -1 6 29
v 0 6 29
v -9 7 29
v -4 7 29
v -9 7 28
v -4 7 28
v 0 8 30
v 1 8 30
v -4 8 29
v 0 8 29
v -4 8 28
v -3 8 28
v 0 8 28
v 0 8 27
v 0 8 19
v 1 8 19
v -1 9 28
v 0 9 28
v -1 9 27
v 0 9 27
v -1 9 19
v 0 9 19
v -2 18 29
v -1 18 29
v 0 18 29
v -2 18 27
v -1 18 27
v -2 18 19
v -1 18 19
v 0 18 19
v -30 21 29
v -29 21 29
v -30 21 19
v -29 21 19
v -3 26 29
v -2 26 29
v -3 26 19
v -2 26 19
v -6 27 29
v -3 27 29
v -6 27 19
v -3 27 19
v -7 28 29
v -6 28 29
v -7 28 19
v -6 28 19
v -29 29 29
v -27 29 29
v -8 29 29
v -7 29 29
v -29 29 19
v -27 29 19
v -8 29 19
v -7 29 19
v -27 34 29
v -8 34 29
v -27 34 19
v -8 34 19

# faces
f 3/5/1 2/5/1 1/5/1
f 4/5/1 2/5/1 3/5/1
f 5/5/1 2/5/1 4/5/1
f 6/1/1 5/1/1 4/1/1
f 7/1/1 5/1/1 6/1/1
f 8/2/1 7/2/1 6/2/1
f 9/1/1 5/1/1 7/1/1
f 9/2/1 7/2/1 8/2/1
f 10/1/1 9/1/1 8/1/1
f 11/1/1 5/1/1 9/1/1
f 11/1/1 9/1/1 10/1/1
f 12/2/1 11/2/1 10/2/1
f 13/1/1 5/1/1 11/1/1
f 13/2/1 11/2/1 12/2/1
f 14/1/1 13/1/1 12/1/1
f 15/1/1 5/1/1 13/1/1
f 15/1/1 13/1/1 14/1/1
f 18/1/1 17/1/1 16/1/1
f 19/1/1 17/1/1 18/1/1
f 20/2/1 19/2/1 18/2/1
f 21/1/1 17/1/1 19/1/1
f 21/2/1 19/2/1 20/2/1
f 22/1/1 21/1/1 20/1/1
f 23/1/1 17/1/1 21/1/1
f 23/1/1 21/1/1 22/1/1
f 26/5/1 25/5/1 24/5/1
f 27/5/1 25/5/1 26/5/1
f 30/1/1 29/1/1 28/1/1
f 31/1/1 29/1/1 30/1/1
f 32/3/1 31/3/1 30/3/1
f 33/3/1 31/3/1 32/3/1
f 36/5/1 35/5/1 34/5/1
f 37/5/1 35/5/1 36/5/1
f 40/5/1 39/5/1 38/5/1
f 41/5/1 39/5/1 40/5/1
f 44/1/1 43/1/1 42/1/1
f 45/1/1 43/1/1 44/1/1
f 48/5/1 47/5/1 46/5/1
f 49/5/1 47/5/1 48/5/1
f 52/5/1 51/5/1 50/5/1
f 53/5/1 51/5/1 52/5/1
f 54/5/2 55/5/2 56/5/2
f 56/5/2 55/5/2 57/5/2
f 58/1/2 59/1/2 60/1/2
f 60/1/2 59/1/2 61/1/2
f 62/1/2 63/1/2 64/1/2
f 64/1/2 63/1/2 65/1/2
f 64/2/2 65/2/2 66/2/2
f 65/1/2 63/1/2 67/1/2
f 66/2/2 65/2/2 67/2/2
f 66/1/2 67/1/2 68/1/2
f 67/1/2 63/1/2 69/1/2
f 68/1/2 67/1/2 69/1/2
f 68/3/2 69/3/2 70/3/2
f 70/3/2 69/3/2 71/3/2
f 72/1/2 73/1/2 74/1/2
f 74/1/2 73/1/2 75/1/2
f 76/1/2 77/1/2 78/1/2
f 78/1/2 77/1/2 79/1/2
f 80/1/2 81/1/2 82/1/2
f 82/1/2 81/1/2 83/1/2
f 84/1/2 85/1/2 86/1/2
f 86/1/2 85/1/2 87/1/2
f 88/5/2 89/5/2 90/5/2
f 90/5/2 89/5/2 91/5/2
f 92/1/2 93/1/2 94/1/2
f 94/1/2 93/1/2 95/1/2
f 96/5/2 97/5/2 98/5/2
f 98/5/2 97/5/2 99/5/2
f 100/5/2 101/5/2 102/5/2
f 102/5/2 101/5/2 103/5/2
f 104/5/2 105/5/2 107/5/2
f 105/5/2 106/5/2 107/5/2
f 107/5/2 106/5/2 108/5/2
f 107/1/2 108/1/2 109/1/2
f 109/1/2 108/1/2 110/1/2
f 109/2/2 110/2/2 111/2/2
f 110/1/2 108/1/2 112/1/2
f 111/2/2 110/2/2 112/2/2
f 111/1/2 112/1/2 113/1/2
f 112/1/2 108/1/2 114/1/2
f 113/1/2 112/1/2 114/1/2
f 113/5/2 114/5/2 115/5/2
f 115/5/2 114/5/2 116/5/2
f 117/5/2 118/5/2 119/5/2
f 119/5/2 118/5/2 120/5/2
f 121/2/2 122/2/2 124/2/2
f 122/1/2 123/1/2 125/1/2
f 124/2/2 122/2/2 125/2/2
f 125/1/2 123/1/2 126/1/2
f 127/2/2 128/2/2 130/2/2
f 128/1/2 129/1/2 131/1/2
f 130/2/2 128/2/2 131/2/2
f 131/1/2 129/1/2 132/1/2
f 133/1/2 134/1/2 135/1/2
f 135/1/2 134/1/2 136/1/2
f 135/5/2 136/5/2 137/5/2
f 137/5/2 136/5/2 138/5/2
f 139/1/2 140/1/2 142/1/2
f 142/1/2 140/1/2 143/1/2
f 141/5/2 142/5/2 144/5/2
f 142/5/2 143/5/2 144/5/2
f 144/5/2 143/5/2 145/5/2
f 146/1/2 147/1/2 148/1/2
f 148/1/2 147/1/2 149/1/2
f 150/5/2 151/5/2 152/5/2
f 152/5/2 151/5/2 153/5/2
f 156/5/3 155/5/3 154/5/3
f 157/5/3 155/5/3 156/5/3
f 160/5/3 159/5/3 158/5/3
f 161/5/3 159/5/3 160/5/3
f 165/5/3 163/5/3 162/5/3
f 166/5/3 163/5/3 165/5/3
f 166/5/3 165/5/3 164/5/3
f 167/5/3 163/5/3 166/5/3
f 169/5/3 166/5/3 164/5/3
f 170/5/3 166/5/3 169/5/3
f 170/5/3 169/5/3 168/5/3
f 171/5/3 166/5/3 170/5/3
f 174/5/3 173/5/3 172/5/3
f 176/5/3 174/5/3 172/5/3
f 176/5/3 175/5/3 174/5/3
f 177/5/3 175/5/3 176/5/3
f 178/5/3 170/5/3 168/5/3
f 179/5/3 170/5/3 178/5/3
f 186/1/3 185/1/3 184/1/3
f 187/1/3 185/1/3 186/1/3
f 191/1/3 181/1/3 180/1/3
f 192/1/3 181/1/3 191/1/3
f 193/2/3 182/2/3 181/2/3
f 193/1/3 181/1/3 192/1/3
f 194/1/3 183/1/3 182/1/3
f 194/2/3 182/2/3 193/2/3
f 195/1/3 188/1/3 187/1/3
f 195/2/3 189/2/3 188/2/3
f 196/2/3 189/2/3 195/2/3
f 197/1/3 193/1/3 192/1/3
f 197/1/3 194/1/3 193/1/3
f 198/1/3 183/1/3 194/1/3
f 198/1/3 194/1/3 197/1/3
f 199/2/3 189/2/3 196/2/3
f 199/1/3 196/1/3 195/1/3
f 200/1/3 190/1/3 189/1/3
f 200/2/3 189/2/3 199/2/3
f 201/1/3 190/1/3 200/1/3
f 204/1/3 186/1/3 184/1/3
f 205/2/3 187/2/3 186/2/3
f 205/1/3 186/1/3 204/1/3
f 206/1/3 199/1/3 195/1/3
f 206/2/3 187/2/3 205/2/3
f 206/1/3 195/1/3 187/1/3
f 206/1/3 202/1/3 201/1/3
f 206/1/3 201/1/3 200/1/3
f 206/1/3 200/1/3 199/1/3
f 207/1/3 202/1/3 206/1/3
f 208/1/3 202/1/3 207/1/3
f 209/2/3 205/2/3 204/2/3
f 209/1/3 204/1/3 184/1/3
f 210/1/3 206/1/3 205/1/3
f 210/2/3 205/2/3 209/2/3
f 210/1/3 207/1/3 206/1/3
f 211/1/3 207/1/3 210/1/3
f 212/1/3 202/1/3 208/1/3
f 212/2/3 208/2/3 207/2/3
f 213/1/3 202/1/3 212/1/3
f 214/1/3 207/1/3 211/1/3
f 214/2/3 212/2/3 207/2/3
f 214/2/3 213/2/3 212/2/3
f 215/2/3 213/2/3 214/2/3
f 216/1/3 202/1/3 213/1/3
f 216/2/3 213/2/3 215/2/3
f 217/1/3 202/1/3 216/1/3
f 218/1/3 215/1/3 214/1/3
f 218/2/3 216/2/3 215/2/3
f 218/2/3 217/2/3 216/2/3
f 219/1/3 202/1/3 217/1/3
f 219/2/3 217/2/3 218/2/3
f 220/1/3 202/1/3 219/1/3
f 221/1/3 219/1/3 218/1/3
f 221/2/3 220/2/3 219/2/3
f 222/1/3 202/1/3 220/1/3
f 222/2/3 220/2/3 221/2/3
f 223/1/3 202/1/3 222/1/3
f 225/1/3 197/1/3 192/1/3
f 226/2/3 211/2/3 210/2/3
f 226/1/3 210/1/3 209/1/3
f 227/1/3 218/1/3 214/1/3
f 227/2/3 211/2/3 226/2/3
f 227/1/3 214/1/3 211/1/3
f 227/1/3 221/1/3 218/1/3
f 227/1/3 222/1/3 221/1/3
f 228/1/3 222/1/3 227/1/3
f 229/1/3 226/1/3 209/1/3
f 229/1/3 227/1/3 226/1/3
f 230/2/3 228/2/3 227/2/3
f 230/1/3 227/1/3 229/1/3
f 231/1/3 222/1/3 228/1/3
f 231/2/3 228/2/3 230/2/3
f 232/1/3 225/1/3 224/1/3
f 232/1/3 197/1/3 225/1/3
f 233/1/3 197/1/3 232/1/3
f 234/2/3 198/2/3 197/2/3
f 234/1/3 197/1/3 233/1/3
f 235/1/3 183/1/3 198/1/3
f 235/2/3 198/2/3 234/2/3
f 236/2/3 184/2/3 183/2/3
f 236/1/3 183/1/3 235/1/3
f 237/1/3 209/1/3 184/1/3
f 237/2/3 184/2/3 236/2/3
f 237/1/3 229/1/3 209/1/3
f 238/2/3 230/2/3 229/2/3
f 238/1/3 229/1/3 237/1/3
f 239/1/3 231/1/3 230/1/3
f 239/2/3 230/2/3 238/2/3
f 240/1/3 222/1/3 231/1/3
f 240/1/3 231/1/3 239/1/3
f 241/1/3 237/1/3 236/1/3
f 241/1/3 235/1/3 234/1/3
f 241/2/3 240/2/3 239/2/3
f 241/1/3 239/1/3 238/1/3
f 241/1/3 236/1/3 235/1/3
f 241/1/3 238/1/3 237/1/3
f 242/1/3 222/1/3 240/1/3
f 242/2/3 240/2/3 241/2/3
f 243/1/3 232/1/3 224/1/3
f 244/1/3 232/1/3 243/1/3
f 245/1/3 241/1/3 234/1/3
f 245/1/3 234/1/3 233/1/3
f 245/1/3 242/1/3 241/1/3
f 246/1/3 242/1/3 245/1/3
f 247/1/3 242/1/3 246/1/3
f 248/1/3 242/1/3 247/1/3
f 249/1/3 242/1/3 248/1/3
f 250/1/3 242/1/3 249/1/3
f 251/1/3 222/1/3 242/1/3
f 251/1/3 242/1/3 250/1/3
f 251/2/3 223/2/3 222/2/3
f 252/1/3 202/1/3 223/1/3
f 252/2/3 223/2/3 251/2/3
f 253/1/3 202/1/3 252/1/3
f 254/1/3 251/1/3 250/1/3
f 254/1/3 252/1/3 251/1/3
f 255/2/3 253/2/3 252/2/3
f 255/1/3 252/1/3 254/1/3
f 256/1/3 202/1/3 253/1/3
f 256/2/3 253/2/3 255/2/3
f 257/3/3 203/3/3 202/3/3
f 257/1/3 202/1/3 256/1/3
f 258/3/3 203/3/3 257/3/3
f 259/2/3 250/2/3 249/2/3
f 259/1/3 249/1/3 248/1/3
f 260/1/3 254/1/3 250/1/3
f 260/2/3 250/2/3 259/2/3
f 261/1/3 254/1/3 260/1/3
f 262/1/3 254/1/3 261/1/3
f 263/1/3 247/1/3 246/1/3
f 264/1/3 247/1/3 263/1/3
f 265/1/3 259/1/3 248/1/3
f 265/1/3 260/1/3 259/1/3
f 265/1/3 261/1/3 260/1/3
f 266/1/3 261/1/3 265/1/3
f 267/1/3 261/1/3 266/1/3
f 268/1/3 261/1/3 267/1/3
f 269/1/3 261/1/3 268/1/3
f 270/1/3 247/1/3 264/1/3
f 271/1/3 247/1/3 270/1/3
f 273/1/3 245/1/3 233/1/3
f 274/1/3 245/1/3 273/1/3
f 276/1/3 247/1/3 271/1/3
f 277/1/3 247/1/3 276/1/3
f 278/2/3 248/2/3 247/2/3
f 278/1/3 265/1/3 248/1/3
f 279/1/3 265/1/3 278/1/3
f 280/2/3 266/2/3 265/2/3
f 280/1/3 265/1/3 279/1/3
f 281/1/3 267/1/3 266/1/3
f 281/2/3 266/2/3 280/2/3
f 282/1/3 267/1/3 281/1/3
f 283/1/3 267/1/3 282/1/3
f 284/5/3 268/5/3 267/5/3
f 284/1/3 267/1/3 283/1/3
f 285/5/3 268/5/3 284/5/3
f 286/5/3 279/5/3 278/5/3
f 286/2/3 278/2/3 247/2/3
f 287/1/3 280/1/3 279/1/3
f 287/5/3 279/5/3 286/5/3
f 287/1/3 281/1/3 280/1/3
f 288/2/3 282/2/3 281/2/3
f 288/1/3 281/1/3 287/1/3
f 289/1/3 283/1/3 282/1/3
f 289/2/3 282/2/3 288/2/3
f 290/5/3 284/5/3 283/5/3
f 290/1/3 283/1/3 289/1/3
f 291/5/3 284/5/3 290/5/3
f 293/1/3 275/1/3 274/1/3
f 293/1/3 274/1/3 273/1/3
f 293/1/3 273/1/3 272/1/3
f 294/1/3 275/1/3 293/1/3
f 295/1/3 275/1/3 294/1/3
f 296/1/3 247/1/3 277/1/3
f 296/2/3 286/2/3 247/2/3
f 297/2/3 286/2/3 296/2/3
f 298/1/3 275/1/3 295/1/3
f 299/1/3 275/1/3 298/1/3
f 300/1/3 296/1/3 277/1/3
f 301/5/3 297/5/3 296/5/3
f 301/1/3 296/1/3 300/1/3
f 302/5/3 297/5/3 301/5/3
f 303/1/3 293/1/3 292/1/3
f 303/1/3 294/1/3 293/1/3
f 304/1/3 294/1/3 303/1/3
f 305/1/3 303/1/3 292/1/3
f 306/1/3 303/1/3 305/1/3
f 309/2/3 308/2/3 307/2/3
f 311/2/3 309/2/3 307/2/3
f 311/2/3 310/2/3 309/2/3
f 312/2/3 310/2/3 311/2/3
f 314/2/3 311/2/3 307/2/3
f 315/4/3 312/4/3 311/4/3
f 315/2/3 311/2/3 314/2/3
f 316/2/3 313/2/3 312/2/3
f 318/4/3 312/4/3 315/4/3
f 319/2/3 317/2/3 316/2/3
f 319/4/3 312/4/3 318/4/3
f 319/2/3 316/2/3 312/2/3
f 320/2/3 319/2/3 318/2/3
f 320/2/3 317/2/3 319/2/3
f 321/2/3 317/2/3 320/2/3
f 322/2/3 320/2/3 318/2/3
f 323/2/3 320/2/3 322/2/3
f 325/1/4 326/1/4 327/1/4
f 324/5/4 325/5/4 329/5/4
f 327/1/4 328/1/4 329/1/4
f 325/1/4 327/1/4 329/1/4
f 329/1/4 328/1/4 330/1/4
f 330/1/4 328/1/4 331/1/4
f 324/5/4 329/5/4 334/5/4
f 329/5/4 330/5/4 334/5/4
f 331/1/4 332/1/4 335/1/4
f 334/5/4 330/5/4 335/5/4
f 330/1/4 331/1/4 335/1/4
f 334/1/4 335/1/4 336/1/4
f 335/1/4 332/1/4 336/1/4
f 336/1/4 332/1/4 337/1/4
f 324/5/4 334/5/4 338/5/4
f 334/1/4 336/1/4 338/1/4
f 336/5/4 337/5/4 339/5/4
f 338/1/4 336/1/4 339/1/4
f 337/1/4 332/1/4 340/1/4
f 332/3/4 333/3/4 341/3/4
f 340/1/4 332/1/4 341/1/4
f 341/3/4 333/3/4 342/3/4
f 337/1/4 340/1/4 343/1/4
f 343/1/4 340/1/4 344/1/4
f 337/1/4 343/1/4 345/1/4
f 345/1/4 343/1/4 346/1/4
f 346/1/4 343/1/4 347/1/4
f 339/5/4 337/5/4 348/5/4
f 338/5/4 339/5/4 348/5/4
f 337/1/4 345/1/4 349/1/4
f 348/5/4 337/5/4 349/5/4
f 348/1/4 349/1/4 350/1/4
f 349/1/4 345/1/4 350/1/4
f 350/1/4 345/1/4 351/1/4
f 351/1/4 345/1/4 352/1/4
f 345/5/4 346/5/4 353/5/4
f 352/1/4 345/1/4 353/1/4
f 353/5/4 346/5/4 354/5/4
f 348/1/4 350/1/4 355/1/4
f 350/5/4 351/5/4 355/5/4
f 351/1/4 352/1/4 356/1/4
f 355/5/4 351/5/4 356/5/4
f 352/5/4 353/5/4 357/5/4
f 356/1/4 352/1/4 357/1/4
f 357/5/4 353/5/4 358/5/4
f 324/5/4 338/5/4 359/5/4
f 338/5/4 348/5/4 359/5/4
f 348/1/4 355/1/4 360/1/4
f 359/5/4 348/5/4 360/5/4
f 360/1/4 355/1/4 361/1/4
f 361/1/4 355/1/4 362/1/4
f 362/1/4 355/1/4 363/1/4
f 363/1/4 355/1/4 364/1/4
f 364/1/4 355/1/4 365/1/4
f 365/1/4 355/1/4 366/1/4
f 361/5/4 362/5/4 367/5/4
f 362/1/4 363/1/4 367/1/4
f 367/1/4 363/1/4 368/1/4
f 368/1/4 363/1/4 369/1/4
f 364/1/4 365/1/4 370/1/4
f 365/5/4 366/5/4 371/5/4
f 370/1/4 365/1/4 371/1/4
f 371/5/4 366/5/4 372/5/4
f 359/1/4 360/1/4 373/1/4
f 360/1/4 361/1/4 373/1/4
f 367/5/4 368/5/4 374/5/4
f 373/1/4 361/1/4 374/1/4
f 361/5/4 367/5/4 374/5/4
f 374/5/4 368/5/4 375/5/4
f 324/5/4 359/5/4 376/5/4
f 359/1/4 373/1/4 376/1/4
f 376/1/4 373/1/4 377/1/4
f 324/5/4 376/5/4 378/5/4
f 378/5/4 376/5/4 379/5/4
f 382/5/5 381/5/5 380/5/5
f 384/5/5 382/5/5 380/5/5
f 384/5/5 383/5/5 382/5/5
f 385/5/5 383/5/5 384/5/5
f 388/5/5 387/5/5 386/5/5
f 389/5/5 387/5/5 388/5/5
f 392/5/5 391/5/5 390/5/5
f 393/5/5 391/5/5 392/5/5
f 396/1/5 395/1/5 394/1/5
f 397/1/5 395/1/5 396/1/5
f 400/1/5 399/1/5 398/1/5
f 401/1/5 399/1/5 400/1/5
f 404/1/5 403/1/5 402/1/5
f 405/1/5 403/1/5 404/1/5
f 408/1/5 407/1/5 406/1/5
f 409/1/5 407/1/5 408/1/5
f 410/1/5 407/1/5 409/1/5
f 411/1/5 407/1/5 410/1/5
f 412/1/5 407/1/5 411/1/5
f 413/5/6 414/5/6 415/5/6
f 415/5/6 414/5/6 416/5/6
f 416/5/6 414/5/6 417/5/6
f 417/5/6 414/5/6 418/5/6
f 413/5/6 415/5/6 421/5/6
f 421/5/6 415/5/6 422/5/6
f 416/5/6 417/5/6 423/5/6
f 423/5/6 417/5/6 424/5/6
f 419/5/6 420/5/6 425/5/6
f 425/5/6 420/5/6 426/5/6
f 426/5/6 420/5/6 427/5/6
f 427/5/6 420/5/6 428/5/6
f 429/5/6 430/5/6 433/5/6
f 433/5/6 430/5/6 434/5/6
f 431/5/6 432/5/6 435/5/6
f 435/5/6 432/5/6 436/5/6
f 437/5/6 438/5/6 439/5/6
f 439/5/6 438/5/6 440/5/6
f 441/1/6 442/1/6 443/1/6
f 443/1/6 442/1/6 444/1/6
f 445/5/6 446/5/6 447/5/6
f 447/5/6 446/5/6 448/5/6
f 449/1/6 450/1/6 451/1/6
f 451/1/6 450/1/6 452/1/6
f 453/5/6 454/5/6 456/5/6
f 455/1/6 456/1/6 457/1/6
f 457/1/6 456/1/6 458/1/6
f 456/5/6 454/5/6 459/5/6
f 458/1/6 456/1/6 459/1/6
f 459/5/6 454/5/6 460/5/6
f 460/5/6 454/5/6 461/5/6
f 461/5/6 454/5/6 462/5/6
f 463/2/6 464/2/6 465/2/6
f 465/2/6 464/2/6 466/2/6
f 465/1/6 466/1/6 467/1/6
f 467/1/6 466/1/6 468/1/6
f 469/2/6 470/2/6 472/2/6
f 470/5/6 471/5/6 473/5/6
f 472/2/6 470/2/6 473/2/6
f 472/1/6 473/1/6 474/1/6
f 473/5/6 471/5/6 475/5/6
f 474/1/6 473/1/6 475/1/6
f 475/5/6 471/5/6 476/5/6
f 477/1/6 478/1/6 479/1/6
f 479/1/6 478/1/6 480/1/6
f 481/5/6 482/5/6 483/5/6
f 483/5/6 482/5/6 484/5/6
f 485/5/6 486/5/6 487/5/6
f 487/5/6 486/5/6 488/5/6
f 489/1/6 490/1/6 491/1/6
f 491/1/6 490/1/6 492/1/6
f 493/1/6 494/1/6 497/1/6
f 497/1/6 494/1/6 498/1/6
f 495/1/6 496/1/6 499/1/6
f 499/1/6 496/1/6 500/1/6
f 501/3/6 502/3/6 503/3/6
f 503/3/6 502/3/6 504/3/6
