# MagicaVoxel @ ephtracy

# material
mtllib shanti8.mtl
usemtl palette

# normals
vn -1 0 0
vn 1 0 0
vn 0 0 1
vn 0 0 -1
vn 0 -1 0
vn 0 1 0

# texcoords
vt 0.970703 0.5
vt 0.974609 0.5

# verts
v -30 7 29
v -30 7 27
v -30 7 19
v -30 8 29
v -30 8 27
v -30 17 29
v -30 17 27
v -30 18 29
v -30 18 27
v -30 18 19
v -11 7 29
v -11 7 27
v -11 7 19
v -11 8 29
v -11 8 27
v -11 17 29
v -11 17 27
v -11 18 29
v -11 18 27
v -11 18 19
v -30 7 29
v -30 8 29
v -30 17 29
v -30 18 29
v -28 7 29
v -28 8 29
v -27 7 29
v -27 8 29
v -11 7 29
v -11 8 29
v -11 17 29
v -11 18 29
v -30 7 19
v -30 18 19
v -11 7 19
v -11 18 19
v -30 7 29
v -28 7 29
v -27 7 29
v -11 7 29
v -30 7 27
v -28 7 27
v -27 7 27
v -11 7 27
v -30 7 19
v -11 7 19
v -30 18 29
v -11 18 29
v -30 18 27
v -11 18 27
v -30 18 19
v -11 18 19

# faces
f 4/2/1 2/2/1 1/2/1
f 5/1/1 3/1/1 2/1/1
f 5/2/1 2/2/1 4/2/1
f 6/1/1 5/1/1 4/1/1
f 7/1/1 3/1/1 5/1/1
f 7/1/1 5/1/1 6/1/1
f 8/2/1 7/2/1 6/2/1
f 9/1/1 3/1/1 7/1/1
f 9/2/1 7/2/1 8/2/1
f 10/1/1 3/1/1 9/1/1
f 11/2/2 12/2/2 14/2/2
f 12/1/2 13/1/2 15/1/2
f 14/2/2 12/2/2 15/2/2
f 14/1/2 15/1/2 16/1/2
f 15/1/2 13/1/2 17/1/2
f 16/1/2 15/1/2 17/1/2
f 16/2/2 17/2/2 18/2/2
f 17/1/2 13/1/2 19/1/2
f 18/2/2 17/2/2 19/2/2
f 19/1/2 13/1/2 20/1/2
f 25/2/3 22/2/3 21/2/3
f 26/1/3 23/1/3 22/1/3
f 26/2/3 22/2/3 25/2/3
f 27/1/3 26/1/3 25/1/3
f 28/1/3 23/1/3 26/1/3
f 28/1/3 26/1/3 27/1/3
f 29/2/3 28/2/3 27/2/3
f 30/1/3 23/1/3 28/1/3
f 30/2/3 28/2/3 29/2/3
f 31/2/3 24/2/3 23/2/3
f 31/1/3 23/1/3 30/1/3
f 32/2/3 24/2/3 31/2/3
f 33/1/4 34/1/4 35/1/4
f 35/1/4 34/1/4 36/1/4
f 41/2/5 38/2/5 37/2/5
f 42/1/5 39/1/5 38/1/5
f 42/2/5 38/2/5 41/2/5
f 43/2/5 40/2/5 39/2/5
f 43/1/5 39/1/5 42/1/5
f 44/2/5 40/2/5 43/2/5
f 45/1/5 42/1/5 41/1/5
f 45/1/5 43/1/5 42/1/5
f 45/1/5 44/1/5 43/1/5
f 46/1/5 44/1/5 45/1/5
f 47/2/6 48/2/6 49/2/6
f 49/2/6 48/2/6 50/2/6
f 49/1/6 50/1/6 51/1/6
f 51/1/6 50/1/6 52/1/6
