# MagicaVoxel @ ephtracy

# material
mtllib shanti6.mtl
usemtl palette

# normals
vn -1 0 0
vn 1 0 0
vn 0 0 1
vn 0 0 -1
vn 0 -1 0
vn 0 1 0

# texcoords
vt 0.970703 0.5
vt 0.974609 0.5
vt 0.986328 0.5

# verts
v -63 0 30
v -63 0 19
v -63 1 30
v -63 1 19
v -62 1 28
v -62 1 27
v -62 1 19
v -62 2 28
v -62 2 27
v -62 2 19
v -60 2 28
v -60 2 27
v -60 2 19
v -60 3 28
v -60 3 27
v -60 3 19
v -57 3 28
v -57 3 27
v -57 3 19
v -57 4 28
v -57 4 27
v -57 4 19
v -55 2 29
v -55 2 28
v -55 3 29
v -55 3 28
v -55 4 28
v -55 4 27
v -55 4 19
v -55 5 28
v -55 5 27
v -55 5 19
v -53 0 30
v -53 0 28
v -53 1 30
v -53 1 29
v -53 1 28
v -53 2 29
v -53 2 28
v -53 5 28
v -53 5 27
v -53 5 19
v -53 6 28
v -53 6 27
v -53 6 19
v -52 4 29
v -52 4 28
v -52 5 29
v -52 5 28
v -49 3 29
v -49 3 28
v -49 4 29
v -49 4 28
v -49 5 29
v -49 5 28
v -49 6 29
v -49 6 28
v -48 0 31
v -48 0 30
v -48 1 31
v -48 1 30
v -48 1 29
v -48 2 30
v -48 2 29
v -47 6 29
v -47 6 19
v -47 8 29
v -47 8 19
v -37 1 30
v -37 1 29
v -37 2 30
v -37 2 29
v -28 1 30
v -28 1 29
v -28 2 30
v -28 2 29
v -13 2 30
v -13 2 29
v -13 3 30
v -13 3 29
v -9 1 30
v -9 1 29
v -9 2 30
v -9 2 29
v -57 0 30
v -57 0 28
v -57 1 30
v -57 1 28
v -44 1 30
v -44 1 29
v -44 2 30
v -44 2 29
v -33 1 30
v -33 1 29
v -33 2 30
v -33 2 29
v -19 1 30
v -19 1 29
v -19 2 30
v -19 2 29
v -4 2 30
v -4 2 29
v -4 3 30
v -4 3 29
v -2 0 31
v -2 0 30
v -2 1 31
v -2 1 30
v -1 1 30
v -1 1 29
v -1 2 30
v -1 2 29
v 0 7 29
v 0 7 19
v 0 8 29
v 0 8 19
v 1 3 29
v 1 3 19
v 1 5 29
v 1 5 19
v 1 7 29
v 1 7 19
v 2 1 29
v 2 1 19
v 2 3 29
v 2 3 19
v 4 0 30
v 4 0 19
v 4 1 30
v 4 1 19
v -48 0 31
v -48 1 31
v -2 0 31
v -2 1 31
v -63 0 30
v -63 1 30
v -57 0 30
v -57 1 30
v -53 0 30
v -53 1 30
v -48 0 30
v -48 1 30
v -48 2 30
v -44 1 30
v -44 2 30
v -37 1 30
v -37 2 30
v -33 1 30
v -33 2 30
v -28 1 30
v -28 2 30
v -19 1 30
v -19 2 30
v -13 2 30
v -13 3 30
v -9 1 30
v -9 2 30
v -4 2 30
v -4 3 30
v -2 0 30
v -2 1 30
v -1 1 30
v -1 2 30
v 4 0 30
v 4 1 30
v -55 2 29
v -55 3 29
v -53 1 29
v -53 2 29
v -52 4 29
v -52 5 29
v -49 3 29
v -49 4 29
v -49 5 29
v -49 6 29
v -48 1 29
v -48 2 29
v -47 6 29
v -47 8 29
v -46 2 29
v -46 3 29
v -44 1 29
v -44 2 29
v -44 3 29
v -42 6 29
v -42 7 29
v -41 1 29
v -41 2 29
v -39 6 29
v -39 7 29
v -39 8 29
v -37 1 29
v -37 2 29
v -34 7 29
v -34 8 29
v -33 1 29
v -33 2 29
v -33 7 29
v -33 8 29
v -28 1 29
v -28 2 29
v -28 7 29
v -28 8 29
v -27 7 29
v -27 8 29
v -19 1 29
v -19 2 29
v -13 2 29
v -13 3 29
v -11 7 29
v -11 8 29
v -9 1 29
v -9 2 29
v -9 7 29
v -9 8 29
v -4 2 29
v -4 3 29
v -4 7 29
v -4 8 29
v -1 1 29
v -1 2 29
v -1 5 29
v -1 6 29
v 0 6 29
v 0 7 29
v 0 8 29
v 1 3 29
v 1 5 29
v 1 7 29
v 2 1 29
v 2 3 29
v -62 1 28
v -62 2 28
v -60 2 28
v -60 3 28
v -57 0 28
v -57 1 28
v -57 3 28
v -57 4 28
v -55 2 28
v -55 3 28
v -55 4 28
v -55 5 28
v -53 0 28
v -53 1 28
v -53 2 28
v -53 5 28
v -53 6 28
v -52 4 28
v -52 5 28
v -49 3 28
v -49 4 28
v -49 5 28
v -49 6 28
v -63 0 19
v -63 1 19
v -62 1 19
v -62 2 19
v -60 2 19
v -60 3 19
v -57 0 19
v -57 1 19
v -57 3 19
v -57 4 19
v -55 4 19
v -55 5 19
v -53 0 19
v -53 1 19
v -53 5 19
v -53 6 19
v -48 1 19
v -48 2 19
v -47 6 19
v -47 8 19
v -44 1 19
v -44 2 19
v -37 1 19
v -37 2 19
v -33 1 19
v -33 2 19
v -28 1 19
v -28 2 19
v -19 1 19
v -19 2 19
v -13 2 19
v -13 3 19
v -9 1 19
v -9 2 19
v -4 2 19
v -4 3 19
v -1 1 19
v -1 2 19
v -1 5 19
v -1 6 19
v 0 6 19
v 0 7 19
v 0 8 19
v 1 3 19
v 1 5 19
v 1 7 19
v 2 1 19
v 2 3 19
v 4 0 19
v 4 1 19
v -48 0 31
v -2 0 31
v -63 0 30
v -57 0 30
v -53 0 30
v -48 0 30
v -2 0 30
v 4 0 30
v -57 0 28
v -53 0 28
v -57 0 27
v -53 0 27
v -63 0 19
v -57 0 19
v -53 0 19
v 4 0 19
v -13 2 30
v -9 2 30
v -55 2 29
v -53 2 29
v -13 2 29
v -9 2 29
v -55 2 28
v -53 2 28
v -52 4 29
v -49 4 29
v -52 4 28
v -49 4 28
v -48 1 31
v -2 1 31
v -63 1 30
v -57 1 30
v -53 1 30
v -48 1 30
v -44 1 30
v -37 1 30
v -33 1 30
v -28 1 30
v -19 1 30
v -9 1 30
v -2 1 30
v -1 1 30
v 4 1 30
v -53 1 29
v -48 1 29
v -44 1 29
v -41 1 29
v -37 1 29
v -33 1 29
v -28 1 29
v -19 1 29
v -9 1 29
v -1 1 29
v 2 1 29
v -62 1 28
v -57 1 28
v -62 1 27
v -63 1 19
v -62 1 19
v 2 1 19
v 4 1 19
v -48 2 30
v -44 2 30
v -37 2 30
v -33 2 30
v -28 2 30
v -19 2 30
v -4 2 30
v -1 2 30
v -48 2 29
v -46 2 29
v -44 2 29
v -37 2 29
v -33 2 29
v -28 2 29
v -19 2 29
v -4 2 29
v -1 2 29
v -62 2 28
v -60 2 28
v -62 2 27
v -60 2 27
v -62 2 19
v -60 2 19
v -13 3 30
v -4 3 30
v -55 3 29
v -49 3 29
v -13 3 29
v -4 3 29
v 1 3 29
v 2 3 29
v -60 3 28
v -57 3 28
v -55 3 28
v -49 3 28
v -60 3 27
v -57 3 27
v -60 3 19
v -57 3 19
v 1 3 19
v 2 3 19
v -57 4 28
v -55 4 28
v -57 4 27
v -55 4 27
v -57 4 19
v -55 4 19
v -52 5 29
v -49 5 29
v -55 5 28
v -53 5 28
v -52 5 28
v -49 5 28
v -55 5 27
v -53 5 27
v -55 5 19
v -53 5 19
v -49 6 29
v -47 6 29
v -53 6 28
v -49 6 28
v -53 6 27
v -49 6 27
v -53 6 19
v -47 6 19
v 0 7 29
v 1 7 29
v 0 7 19
v 1 7 19
v -47 8 29
v -39 8 29
v -34 8 29
v -33 8 29
v -28 8 29
v -27 8 29
v -11 8 29
v -9 8 29
v -4 8 29
v 0 8 29
v -39 8 27
v -34 8 27
v -33 8 27
v -28 8 27
v -27 8 27
v -11 8 27
v -9 8 27
v -4 8 27
v -47 8 19
v 0 8 19

# faces
f 3/3/1 2/3/1 1/3/1
f 4/3/1 2/3/1 3/3/1
f 8/2/1 6/2/1 5/2/1
f 9/1/1 7/1/1 6/1/1
f 9/2/1 6/2/1 8/2/1
f 10/1/1 7/1/1 9/1/1
f 14/2/1 12/2/1 11/2/1
f 15/1/1 13/1/1 12/1/1
f 15/2/1 12/2/1 14/2/1
f 16/1/1 13/1/1 15/1/1
f 20/2/1 18/2/1 17/2/1
f 21/1/1 19/1/1 18/1/1
f 21/2/1 18/2/1 20/2/1
f 22/1/1 19/1/1 21/1/1
f 25/1/1 24/1/1 23/1/1
f 26/1/1 24/1/1 25/1/1
f 30/2/1 28/2/1 27/2/1
f 31/1/1 29/1/1 28/1/1
f 31/2/1 28/2/1 30/2/1
f 32/1/1 29/1/1 31/1/1
f 35/3/1 34/3/1 33/3/1
f 36/3/1 34/3/1 35/3/1
f 37/3/1 34/3/1 36/3/1
f 38/1/1 37/1/1 36/1/1
f 39/1/1 37/1/1 38/1/1
f 43/2/1 41/2/1 40/2/1
f 44/1/1 42/1/1 41/1/1
f 44/2/1 41/2/1 43/2/1
f 45/1/1 42/1/1 44/1/1
f 48/1/1 47/1/1 46/1/1
f 49/1/1 47/1/1 48/1/1
f 52/1/1 51/1/1 50/1/1
f 53/1/1 51/1/1 52/1/1
f 56/1/1 55/1/1 54/1/1
f 57/1/1 55/1/1 56/1/1
f 60/3/1 59/3/1 58/3/1
f 61/3/1 59/3/1 60/3/1
f 63/3/1 62/3/1 61/3/1
f 64/3/1 62/3/1 63/3/1
f 67/1/1 66/1/1 65/1/1
f 68/1/1 66/1/1 67/1/1
f 71/3/1 70/3/1 69/3/1
f 72/3/1 70/3/1 71/3/1
f 75/3/1 74/3/1 73/3/1
f 76/3/1 74/3/1 75/3/1
f 79/3/1 78/3/1 77/3/1
f 80/3/1 78/3/1 79/3/1
f 83/3/1 82/3/1 81/3/1
f 84/3/1 82/3/1 83/3/1
f 85/3/2 86/3/2 87/3/2
f 87/3/2 86/3/2 88/3/2
f 89/3/2 90/3/2 91/3/2
f 91/3/2 90/3/2 92/3/2
f 93/3/2 94/3/2 95/3/2
f 95/3/2 94/3/2 96/3/2
f 97/3/2 98/3/2 99/3/2
f 99/3/2 98/3/2 100/3/2
f 101/3/2 102/3/2 103/3/2
f 103/3/2 102/3/2 104/3/2
f 105/3/2 106/3/2 107/3/2
f 107/3/2 106/3/2 108/3/2
f 109/3/2 110/3/2 111/3/2
f 111/3/2 110/3/2 112/3/2
f 113/1/2 114/1/2 115/1/2
f 115/1/2 114/1/2 116/1/2
f 117/1/2 118/1/2 119/1/2
f 119/1/2 118/1/2 120/1/2
f 119/3/2 120/3/2 121/3/2
f 121/3/2 120/3/2 122/3/2
f 123/1/2 124/1/2 125/1/2
f 125/1/2 124/1/2 126/1/2
f 127/3/2 128/3/2 129/3/2
f 129/3/2 128/3/2 130/3/2
f 133/3/3 132/3/3 131/3/3
f 134/3/3 132/3/3 133/3/3
f 137/3/3 136/3/3 135/3/3
f 138/3/3 136/3/3 137/3/3
f 141/3/3 140/3/3 139/3/3
f 142/3/3 140/3/3 141/3/3
f 144/3/3 143/3/3 142/3/3
f 145/3/3 143/3/3 144/3/3
f 148/3/3 147/3/3 146/3/3
f 149/3/3 147/3/3 148/3/3
f 152/3/3 151/3/3 150/3/3
f 153/3/3 151/3/3 152/3/3
f 157/3/3 155/3/3 154/3/3
f 158/3/3 155/3/3 157/3/3
f 158/3/3 157/3/3 156/3/3
f 159/3/3 155/3/3 158/3/3
f 161/3/3 158/3/3 156/3/3
f 162/3/3 158/3/3 161/3/3
f 162/3/3 161/3/3 160/3/3
f 163/3/3 158/3/3 162/3/3
f 164/3/3 162/3/3 160/3/3
f 165/3/3 162/3/3 164/3/3
f 169/1/3 167/1/3 166/1/3
f 172/1/3 167/1/3 169/1/3
f 172/1/3 169/1/3 168/1/3
f 173/1/3 171/1/3 170/1/3
f 174/1/3 171/1/3 173/1/3
f 176/1/3 172/1/3 168/1/3
f 176/1/3 175/1/3 174/1/3
f 176/1/3 174/1/3 173/1/3
f 176/1/3 173/1/3 172/1/3
f 177/1/3 175/1/3 176/1/3
f 178/1/3 175/1/3 177/1/3
f 180/1/3 178/1/3 177/1/3
f 180/1/3 179/1/3 178/1/3
f 181/1/3 179/1/3 180/1/3
f 183/2/3 181/2/3 180/2/3
f 184/1/3 179/1/3 181/1/3
f 184/2/3 181/2/3 183/2/3
f 185/1/3 184/1/3 183/1/3
f 185/1/3 179/1/3 184/1/3
f 186/1/3 179/1/3 185/1/3
f 187/2/3 183/2/3 182/2/3
f 188/1/3 185/1/3 183/1/3
f 188/2/3 183/2/3 187/2/3
f 189/2/3 186/2/3 185/2/3
f 189/1/3 185/1/3 188/1/3
f 189/1/3 188/1/3 187/1/3
f 190/1/3 179/1/3 186/1/3
f 190/2/3 186/2/3 189/2/3
f 191/1/3 179/1/3 190/1/3
f 192/1/3 189/1/3 187/1/3
f 192/1/3 190/1/3 189/1/3
f 193/1/3 190/1/3 192/1/3
f 194/2/3 191/2/3 190/2/3
f 194/1/3 190/1/3 193/1/3
f 195/2/3 191/2/3 194/2/3
f 197/1/3 194/1/3 193/1/3
f 197/1/3 195/1/3 194/1/3
f 198/1/3 195/1/3 197/1/3
f 199/1/3 195/1/3 198/1/3
f 200/1/3 197/1/3 196/1/3
f 200/1/3 198/1/3 197/1/3
f 201/1/3 198/1/3 200/1/3
f 202/2/3 199/2/3 198/2/3
f 202/1/3 198/1/3 201/1/3
f 203/2/3 199/2/3 202/2/3
f 204/1/3 202/1/3 201/1/3
f 204/1/3 203/1/3 202/1/3
f 205/1/3 203/1/3 204/1/3
f 207/1/3 204/1/3 201/1/3
f 208/1/3 204/1/3 207/1/3
f 208/1/3 207/1/3 206/1/3
f 209/1/3 204/1/3 208/1/3
f 210/2/3 205/2/3 204/2/3
f 210/1/3 204/1/3 209/1/3
f 211/2/3 205/2/3 210/2/3
f 212/1/3 208/1/3 206/1/3
f 213/1/3 208/1/3 212/1/3
f 214/1/3 210/1/3 209/1/3
f 214/1/3 211/1/3 210/1/3
f 215/1/3 211/1/3 214/1/3
f 217/1/3 214/1/3 209/1/3
f 218/2/3 215/2/3 214/2/3
f 218/1/3 214/1/3 217/1/3
f 219/2/3 215/2/3 218/2/3
f 221/1/3 217/1/3 216/1/3
f 221/1/3 218/1/3 217/1/3
f 221/1/3 219/1/3 218/1/3
f 222/1/3 219/1/3 221/1/3
f 223/1/3 219/1/3 222/1/3
f 224/3/3 223/3/3 222/3/3
f 224/1/3 219/1/3 223/1/3
f 225/1/3 219/1/3 224/1/3
f 226/1/3 219/1/3 225/1/3
f 227/1/3 221/1/3 220/1/3
f 227/1/3 222/1/3 221/1/3
f 228/3/3 225/3/3 224/3/3
f 228/1/3 222/1/3 227/1/3
f 228/3/3 224/3/3 222/3/3
f 229/3/3 225/3/3 228/3/3
f 230/1/3 227/1/3 220/1/3
f 231/1/3 227/1/3 230/1/3
f 234/2/3 233/2/3 232/2/3
f 237/2/3 234/2/3 232/2/3
f 237/2/3 235/2/3 234/2/3
f 238/2/3 235/2/3 237/2/3
f 240/2/3 237/2/3 236/2/3
f 240/2/3 239/2/3 238/2/3
f 240/2/3 238/2/3 237/2/3
f 241/2/3 239/2/3 240/2/3
f 242/2/3 239/2/3 241/2/3
f 244/2/3 240/2/3 236/2/3
f 245/2/3 240/2/3 244/2/3
f 246/2/3 240/2/3 245/2/3
f 247/2/3 243/2/3 242/2/3
f 247/2/3 242/2/3 241/2/3
f 249/2/3 248/2/3 247/2/3
f 249/2/3 247/2/3 241/2/3
f 250/2/3 248/2/3 249/2/3
f 251/2/3 249/2/3 241/2/3
f 252/2/3 249/2/3 251/2/3
f 253/2/3 248/2/3 250/2/3
f 254/2/3 248/2/3 253/2/3
f 255/3/4 256/3/4 257/3/4
f 257/1/4 258/1/4 259/1/4
f 255/3/4 257/3/4 261/3/4
f 259/1/4 260/1/4 262/1/4
f 261/3/4 257/3/4 262/3/4
f 257/1/4 259/1/4 262/1/4
f 262/1/4 260/1/4 263/1/4
f 261/1/4 262/1/4 265/1/4
f 263/1/4 264/1/4 265/1/4
f 262/1/4 263/1/4 265/1/4
f 261/1/4 265/1/4 267/1/4
f 265/1/4 266/1/4 267/1/4
f 267/1/4 266/1/4 268/1/4
f 268/1/4 266/1/4 269/1/4
f 267/3/4 268/3/4 271/3/4
f 269/1/4 270/1/4 271/1/4
f 268/1/4 269/1/4 271/1/4
f 271/1/4 270/1/4 272/1/4
f 272/1/4 270/1/4 273/1/4
f 267/3/4 271/3/4 275/3/4
f 271/3/4 272/3/4 275/3/4
f 273/1/4 274/1/4 276/1/4
f 275/3/4 272/3/4 276/3/4
f 272/1/4 273/1/4 276/1/4
f 267/3/4 275/3/4 277/3/4
f 275/1/4 276/1/4 277/1/4
f 276/1/4 274/1/4 278/1/4
f 277/1/4 276/1/4 278/1/4
f 267/3/4 277/3/4 279/3/4
f 277/3/4 278/3/4 279/3/4
f 278/1/4 274/1/4 280/1/4
f 279/3/4 278/3/4 280/3/4
f 267/3/4 279/3/4 281/3/4
f 279/1/4 280/1/4 281/1/4
f 280/1/4 274/1/4 282/1/4
f 281/1/4 280/1/4 282/1/4
f 267/3/4 281/3/4 283/3/4
f 281/3/4 282/3/4 283/3/4
f 282/1/4 274/1/4 284/1/4
f 283/3/4 282/3/4 284/3/4
f 283/1/4 284/1/4 285/1/4
f 284/1/4 274/1/4 285/1/4
f 285/1/4 274/1/4 286/1/4
f 267/3/4 283/3/4 287/3/4
f 283/1/4 285/1/4 287/1/4
f 285/3/4 286/3/4 288/3/4
f 287/1/4 285/1/4 288/1/4
f 287/3/4 288/3/4 289/3/4
f 288/3/4 286/3/4 289/3/4
f 286/1/4 274/1/4 290/1/4
f 289/3/4 286/3/4 290/3/4
f 287/3/4 289/3/4 291/3/4
f 267/3/4 287/3/4 291/3/4
f 289/1/4 290/1/4 292/1/4
f 291/3/4 289/3/4 292/3/4
f 290/1/4 274/1/4 293/1/4
f 292/1/4 290/1/4 293/1/4
f 293/1/4 274/1/4 294/1/4
f 293/3/4 294/3/4 295/3/4
f 294/1/4 274/1/4 295/1/4
f 295/1/4 274/1/4 296/1/4
f 296/1/4 274/1/4 297/1/4
f 291/1/4 292/1/4 298/1/4
f 292/1/4 293/1/4 298/1/4
f 295/3/4 296/3/4 299/3/4
f 298/1/4 293/1/4 299/1/4
f 293/3/4 295/3/4 299/3/4
f 299/3/4 296/3/4 300/3/4
f 267/3/4 291/3/4 301/3/4
f 291/1/4 298/1/4 301/1/4
f 301/1/4 298/1/4 302/1/4
f 267/3/4 301/3/4 303/3/4
f 303/3/4 301/3/4 304/3/4
f 310/3/5 306/3/5 305/3/5
f 311/3/5 306/3/5 310/3/5
f 313/3/5 308/3/5 307/3/5
f 314/3/5 312/3/5 311/3/5
f 314/3/5 310/3/5 309/3/5
f 314/3/5 311/3/5 310/3/5
f 315/3/5 313/3/5 307/3/5
f 315/2/5 314/2/5 313/2/5
f 316/3/5 312/3/5 314/3/5
f 316/2/5 314/2/5 315/2/5
f 317/3/5 315/3/5 307/3/5
f 318/1/5 316/1/5 315/1/5
f 318/3/5 315/3/5 317/3/5
f 319/3/5 312/3/5 316/3/5
f 319/1/5 316/1/5 318/1/5
f 320/3/5 312/3/5 319/3/5
f 325/3/5 322/3/5 321/3/5
f 326/3/5 322/3/5 325/3/5
f 327/1/5 324/1/5 323/1/5
f 328/1/5 324/1/5 327/1/5
f 331/1/5 330/1/5 329/1/5
f 332/1/5 330/1/5 331/1/5
f 333/3/6 334/3/6 338/3/6
f 338/3/6 334/3/6 339/3/6
f 339/3/6 334/3/6 340/3/6
f 340/3/6 334/3/6 341/3/6
f 341/3/6 334/3/6 342/3/6
f 342/3/6 334/3/6 343/3/6
f 343/3/6 334/3/6 344/3/6
f 344/3/6 334/3/6 345/3/6
f 337/3/6 338/3/6 348/3/6
f 348/3/6 338/3/6 349/3/6
f 339/3/6 340/3/6 350/3/6
f 350/3/6 340/3/6 351/3/6
f 351/3/6 340/3/6 352/3/6
f 341/3/6 342/3/6 353/3/6
f 353/3/6 342/3/6 354/3/6
f 343/3/6 344/3/6 355/3/6
f 355/3/6 344/3/6 356/3/6
f 346/3/6 347/3/6 357/3/6
f 357/3/6 347/3/6 358/3/6
f 335/3/6 336/3/6 359/3/6
f 359/3/6 336/3/6 360/3/6
f 335/3/6 359/3/6 361/3/6
f 335/3/6 361/3/6 362/3/6
f 362/3/6 361/3/6 363/3/6
f 358/3/6 347/3/6 364/3/6
f 364/3/6 347/3/6 365/3/6
f 366/3/6 367/3/6 374/3/6
f 374/3/6 367/3/6 375/3/6
f 375/3/6 367/3/6 376/3/6
f 368/3/6 369/3/6 377/3/6
f 377/3/6 369/3/6 378/3/6
f 370/3/6 371/3/6 379/3/6
f 379/3/6 371/3/6 380/3/6
f 372/3/6 373/3/6 381/3/6
f 381/3/6 373/3/6 382/3/6
f 383/2/6 384/2/6 385/2/6
f 385/2/6 384/2/6 386/2/6
f 385/1/6 386/1/6 387/1/6
f 387/1/6 386/1/6 388/1/6
f 389/3/6 390/3/6 393/3/6
f 393/3/6 390/3/6 394/3/6
f 391/1/6 392/1/6 399/1/6
f 399/1/6 392/1/6 400/1/6
f 397/2/6 398/2/6 401/2/6
f 401/2/6 398/2/6 402/2/6
f 401/1/6 402/1/6 403/1/6
f 403/1/6 402/1/6 404/1/6
f 395/1/6 396/1/6 405/1/6
f 405/1/6 396/1/6 406/1/6
f 407/2/6 408/2/6 409/2/6
f 409/2/6 408/2/6 410/2/6
f 409/1/6 410/1/6 411/1/6
f 411/1/6 410/1/6 412/1/6
f 413/1/6 414/1/6 417/1/6
f 417/1/6 414/1/6 418/1/6
f 415/2/6 416/2/6 419/2/6
f 419/2/6 416/2/6 420/2/6
f 419/1/6 420/1/6 421/1/6
f 421/1/6 420/1/6 422/1/6
f 423/1/6 424/1/6 426/1/6
f 425/2/6 426/2/6 427/2/6
f 426/1/6 424/1/6 428/1/6
f 427/2/6 426/2/6 428/2/6
f 427/1/6 428/1/6 429/1/6
f 428/1/6 424/1/6 430/1/6
f 429/1/6 428/1/6 430/1/6
f 431/3/6 432/3/6 433/3/6
f 433/3/6 432/3/6 434/3/6
f 435/1/6 436/1/6 445/1/6
f 436/2/6 437/2/6 445/2/6
f 437/1/6 438/1/6 446/1/6
f 445/2/6 437/2/6 446/2/6
f 438/2/6 439/2/6 447/2/6
f 446/1/6 438/1/6 447/1/6
f 439/1/6 440/1/6 448/1/6
f 447/2/6 439/2/6 448/2/6
f 440/2/6 441/2/6 449/2/6
f 448/1/6 440/1/6 449/1/6
f 441/1/6 442/1/6 450/1/6
f 449/2/6 441/2/6 450/2/6
f 442/2/6 443/2/6 451/2/6
f 450/1/6 442/1/6 451/1/6
f 443/1/6 444/1/6 452/1/6
f 451/2/6 443/2/6 452/2/6
f 450/1/6 451/1/6 453/1/6
f 449/1/6 450/1/6 453/1/6
f 451/1/6 452/1/6 453/1/6
f 448/1/6 449/1/6 453/1/6
f 447/1/6 448/1/6 453/1/6
f 446/1/6 447/1/6 453/1/6
f 445/1/6 446/1/6 453/1/6
f 435/1/6 445/1/6 453/1/6
f 452/1/6 444/1/6 454/1/6
f 453/1/6 452/1/6 454/1/6
